<svg width="2000" height="1300" viewBox="0 0 2000 1300" fill="none" xmlns="http://www.w3.org/2000/svg">
<rect width="2000" height="1300" rx="80" fill="#F6F6F7"/>
<path fill-rule="evenodd" clip-rule="evenodd" d="M923.321 252.585C919.565 252.585 916.26 256.041 916.41 259.797C916.56 263.253 919.265 265.807 922.871 265.657C926.477 265.507 929.632 262.351 929.632 258.745C929.632 255.44 926.627 252.585 923.321 252.585M782.086 1005.64C781.936 1017.36 791.101 1026.68 802.52 1026.68C814.089 1026.68 823.705 1016.91 823.856 1005.19C823.856 993.77 814.69 984.305 803.572 984.305C791.852 984.305 782.236 993.921 782.086 1005.64M724.991 295.406C724.69 296.458 724.39 296.909 724.39 297.51C683.822 514.771 643.104 732.183 602.537 949.447C602.537 949.597 602.687 949.747 602.687 949.747C602.687 949.897 602.837 949.897 602.987 950.048C609.448 950.949 1022.64 956.659 1025.64 955.907C1065.16 733.686 1104.67 511.315 1144.34 288.645C1004.46 290.749 864.874 293.153 724.991 295.406M793.805 1054.77H634.39C626.276 1054.77 618.463 1052.97 610.951 1049.66C593.972 1042 584.206 1026.22 585.408 1007.59C585.859 1000.83 587.211 994.071 588.413 987.31C596.226 945.24 604.039 903.32 612.002 861.4C620.867 813.919 629.882 766.44 638.747 718.961C648.213 668.627 657.528 618.293 666.994 567.96C675.108 524.838 683.221 481.866 691.184 438.744C698.997 397.125 706.66 355.505 714.473 314.038C715.976 305.774 717.478 297.36 719.432 289.096C722.737 274.972 729.048 262.201 738.063 250.782C740.316 248.078 742.72 245.373 745.275 242.969C752.487 235.607 761.351 232.151 771.719 231.851C826.41 230.348 881.251 228.695 935.942 227.193C978.163 225.991 1020.38 224.789 1062.45 223.587C1071.47 223.286 1080.48 223.437 1089.5 222.535C1095.51 221.934 1101.22 222.685 1106.78 224.639C1109.33 225.54 1111.89 226.742 1114.14 228.094C1132.02 239.213 1144.04 254.839 1149.75 275.273C1151.85 282.635 1151.55 289.997 1149.75 297.51C1147.49 306.375 1146.29 315.54 1144.79 324.405C1138.93 357.609 1132.92 390.814 1127.06 424.02L1109.48 523.185L1091 626.858C1085.44 658.26 1079.88 689.813 1074.32 721.215L1056.74 820.38C1051.18 851.784 1045.63 883.336 1039.92 914.739L1025.04 998.578C1023.99 1004.89 1021.43 1010.6 1018.13 1016.01C1004.61 1037.79 985.375 1051.02 959.982 1055.07C957.428 1055.52 954.874 1055.52 952.169 1055.52H793.956C793.805 1055.37 793.805 1055.07 793.805 1054.77" fill="#293250"/>
<path fill-rule="evenodd" clip-rule="evenodd" d="M767.211 854.789L884.407 852.084C885.308 852.084 886.36 851.934 887.261 852.084C891.168 852.235 892.67 853.887 892.22 857.794C892.069 858.996 891.619 860.198 891.318 861.4C886.51 877.477 881.702 893.553 876.894 909.63C875.241 914.889 873.739 916.091 868.029 916.241C845.642 916.542 823.255 916.842 800.867 917.293C746.627 918.195 692.386 918.946 638.296 919.847H635.442C631.685 919.697 629.432 917.293 629.732 913.537C629.882 912.635 630.033 911.584 630.333 910.682C634.089 894.906 637.846 879.129 641.752 863.353C641.902 862.452 642.203 861.55 642.503 860.649C643.104 858.695 644.457 857.944 646.56 857.794C686.527 856.742 726.794 855.841 767.211 854.789C767.211 854.939 767.211 854.789 767.211 854.789" fill="#293250"/>
<path fill-rule="evenodd" clip-rule="evenodd" d="M755.537 890.721C754.486 892.524 753.885 894.027 752.983 895.078C751.931 896.431 750.729 897.783 749.227 898.835C746.522 900.788 743.668 900.788 741.714 898.985C739.911 897.332 739.611 894.027 741.264 891.472C742.165 889.97 743.517 888.768 744.87 887.566C745.621 886.814 746.522 886.364 747.424 885.612C746.072 883.659 744.118 883.359 742.315 883.208C735.704 882.758 729.244 886.965 726.99 893.275C726.84 893.726 726.84 894.477 726.389 894.778C725.487 895.529 724.586 896.431 723.534 896.581C722.032 896.881 720.679 895.83 720.529 894.327C720.379 892.824 720.529 891.021 720.98 889.669C724.586 880.504 736.305 874.494 745.921 877.048C749.828 878.1 752.683 880.504 754.185 883.208C758.242 884.861 761.698 886.063 765.003 887.415C768.158 888.617 771.163 890.12 774.469 891.172C777.925 892.223 781.38 891.622 784.836 889.669C784.536 888.467 784.235 887.265 784.085 886.063C783.484 882.607 785.137 879.753 787.991 879.452C790.696 879.152 793.1 881.405 793.551 884.711C793.701 885.612 793.551 886.664 793.551 888.167C795.354 888.467 797.157 889.218 798.96 889.068C803.617 888.918 808.125 888.317 812.783 887.866C813.534 887.716 814.436 887.566 815.187 887.415C818.042 886.814 819.394 887.415 819.845 889.218C820.446 891.322 819.244 893.125 816.539 894.027C809.177 896.28 798.058 896.431 790.245 894.327C782.883 899.436 775.07 899.285 766.956 895.83C764.402 894.778 761.998 893.426 759.594 892.374C758.542 891.622 757.19 891.322 755.537 890.721" fill="white"/>
<path fill-rule="evenodd" clip-rule="evenodd" d="M686.272 909.653C679.811 909.202 673.651 905.746 670.195 898.384C666.89 891.322 667.791 884.411 672.9 878.551C678.158 872.541 684.769 870.738 692.583 872.691C693.033 872.841 693.334 872.841 693.785 872.992C696.639 874.043 697.841 875.846 697.09 877.8C696.489 879.753 694.686 880.053 691.531 879.452C689.427 879.002 687.174 878.551 685.07 878.851C679.21 879.753 675.003 884.711 675.003 890.571C675.003 896.431 679.21 901.539 685.22 902.741C690.93 903.943 696.639 900.938 698.893 895.529C699.344 894.327 699.494 893.125 700.095 892.073C700.846 890.27 702.349 889.519 704.002 889.97C705.654 890.421 706.406 891.773 706.255 893.426C706.255 894.477 705.955 895.529 705.654 896.581C703.401 904.544 696.189 909.653 686.272 909.653" fill="white"/>
<path fill-rule="evenodd" clip-rule="evenodd" d="M689.277 888.167C694.085 883.209 698.592 878.401 703.25 873.593C704.152 872.691 704.903 871.79 705.955 871.038C707.457 869.987 708.96 869.836 710.312 871.189C711.514 872.391 711.514 873.893 710.613 875.245C710.162 875.997 709.411 876.748 708.81 877.499C703.4 883.209 697.841 888.918 692.432 894.477C691.831 895.078 691.38 895.679 690.629 896.13C688.676 897.482 686.723 897.332 685.37 895.229C684.018 893.275 682.816 891.022 681.764 888.768C680.863 886.664 681.314 885.012 682.816 884.11C684.319 883.209 685.971 883.659 687.324 885.462C688.075 886.364 688.526 887.265 689.277 888.167" fill="white"/>
<path fill-rule="evenodd" clip-rule="evenodd" d="M845.988 881.706C847.491 881.856 848.693 881.856 849.744 882.157C851.397 882.608 852.449 883.96 851.998 885.462C851.698 886.514 850.496 887.566 849.444 888.167C848.693 888.618 847.641 888.317 846.589 888.317C844.335 888.317 842.382 888.467 840.579 890.27C839.377 891.623 837.724 891.773 836.222 890.421C834.87 889.219 834.569 887.115 835.921 885.613C837.424 884.11 839.377 883.058 841.18 882.157C842.833 881.856 844.636 882.007 845.988 881.706" fill="white"/>
<path fill-rule="evenodd" clip-rule="evenodd" d="M927.979 388.41C930.082 390.664 931.735 392.166 933.087 393.819C934.139 395.171 933.989 396.674 932.787 397.876C931.585 399.078 930.082 399.228 928.73 398.327C927.979 397.876 927.378 397.425 926.777 396.824C925.575 395.772 924.223 394.721 923.171 393.368C919.865 389.311 915.959 388.109 910.7 388.41C898.38 389.011 885.909 388.861 873.438 389.161C865.775 389.311 868.33 388.26 863.071 393.819C861.418 395.472 859.916 397.275 858.263 398.928C855.709 401.632 853.605 402.233 851.952 400.881C850.3 399.378 850.6 397.275 853.154 394.57C854.056 393.519 855.108 392.617 855.859 391.565C856.31 391.115 856.46 390.363 856.61 389.913H831.218C839.932 410.797 848.346 430.931 856.76 451.215H922.72C931.735 430.48 940.901 409.595 950.066 388.41H927.979ZM874.039 382.7C886.36 382.4 898.079 382.25 909.648 381.949C909.799 381.649 909.949 381.498 909.949 381.198C907.695 379.094 905.441 376.991 903.338 374.887C902.286 373.986 901.385 373.084 900.483 371.882C899.431 370.53 899.431 369.028 900.633 367.826C901.835 366.473 903.338 366.473 904.69 367.225C905.592 367.675 906.493 368.577 907.244 369.328C911.001 372.784 914.607 376.24 918.213 379.695C919.715 381.198 921.368 381.949 923.622 381.799C931.885 381.498 940.3 381.498 948.563 381.348C949.765 381.348 950.967 381.348 952.32 381.198C958.33 381.198 959.982 383.452 957.428 389.161C947.962 410.948 938.497 432.734 928.88 454.37C927.077 458.577 926.777 458.727 922.119 458.126C920.917 457.976 919.715 457.976 918.513 457.976C898.68 457.976 878.997 457.675 859.164 457.826C854.356 457.826 851.802 455.872 850.149 451.816C841.735 431.832 833.471 411.849 825.057 391.866C824.757 391.265 824.456 390.664 824.306 389.913C823.254 385.705 825.057 383.301 829.415 383.151C839.782 382.851 850.149 382.7 860.517 382.55C863.221 382.55 865.174 381.799 866.827 379.695C869.532 376.54 872.537 373.385 875.391 370.38C875.992 369.779 876.443 369.178 877.044 368.577C879.749 365.722 881.552 365.271 883.204 366.624C885.007 368.126 884.557 370.23 881.702 373.235L875.842 379.545C875.542 380.447 874.941 381.198 874.039 382.7V382.7Z" fill="#293250"/>
<path fill-rule="evenodd" clip-rule="evenodd" d="M847.295 498.844C850.901 496.29 851.802 493.285 850.6 488.928C845.191 490.28 843.989 493.586 847.295 498.844M852.854 504.253H851.952C845.041 506.958 840.533 504.554 839.031 497.342C837.378 489.679 841.585 483.369 849.398 482.016C853.305 481.265 855.859 482.467 857.211 486.223C858.113 488.627 858.714 491.182 858.864 493.736C859.164 499.295 859.765 505.005 859.315 510.414C858.563 518.828 850.901 525.589 842.637 525.739C840.383 525.739 838.43 524.387 838.28 522.283C838.129 520.48 839.482 519.128 841.886 518.677C843.388 518.377 844.891 518.076 846.243 517.626C850.45 516.123 852.553 512.968 852.854 508.611C853.004 507.409 852.854 505.906 852.854 504.253" fill="#293250"/>
<path fill-rule="evenodd" clip-rule="evenodd" d="M880.049 489.679C875.842 490.881 873.438 493.886 873.889 497.793C874.039 498.694 874.79 499.596 875.241 500.497C876.143 499.896 877.194 499.596 877.795 498.844C879.749 496.14 880.35 492.985 880.049 489.679M880.65 506.507C870.884 508.911 865.024 502.901 867.729 493.285C869.231 488.026 872.386 484.42 877.795 483.068C879.598 482.617 881.552 482.768 883.355 483.218C884.406 483.519 885.458 484.721 885.759 485.622C886.51 488.327 886.961 491.182 887.111 493.886C887.411 500.197 887.562 506.357 887.411 512.667C887.261 520.33 881.852 524.537 875.692 527.542C873.588 528.594 871.635 527.843 870.884 526.04C869.982 524.237 870.734 522.734 872.987 521.382C873.288 521.232 873.438 521.232 873.739 521.081C880.049 517.776 881.552 514.621 880.65 506.507" fill="#293250"/>
<path fill-rule="evenodd" clip-rule="evenodd" d="M813.639 506.357C813.939 508.31 814.24 509.963 814.24 511.615C814.24 513.719 813.038 515.372 811.385 515.372C809.432 515.522 808.38 514.32 807.929 512.517C807.629 511.465 807.478 510.413 807.328 509.362C807.178 507.709 806.727 506.357 805.225 505.155C804.473 504.554 804.023 502.751 804.173 501.549C804.473 499.896 806.126 499.445 807.779 499.445H812.587C812.587 499.145 812.737 498.844 812.737 498.544C811.986 498.093 811.084 497.492 810.333 497.041C806.727 495.238 803.872 492.984 803.872 488.477C803.872 484.12 806.276 481.415 810.183 479.612C810.183 478.56 810.333 477.509 810.333 476.457C810.483 474.504 811.385 473.302 813.338 473.151C815.291 473.001 816.343 474.203 816.794 476.006C816.944 476.307 816.944 476.607 816.944 476.757C816.794 478.41 817.695 479.462 819.048 480.363C821.001 481.716 821.452 483.368 820.55 484.871C819.498 486.524 818.146 486.974 816.343 486.223C815.892 486.073 815.291 485.772 814.841 485.772C813.038 485.622 811.385 486.073 810.784 487.876C810.333 489.529 811.836 490.13 813.038 490.881C814.39 491.632 815.742 492.233 816.944 492.984C819.649 494.637 821.151 496.891 820.851 500.046C820.55 503.051 818.597 504.854 815.592 505.605C814.841 505.756 814.39 506.056 813.639 506.357" fill="#293250"/>
<path fill-rule="evenodd" clip-rule="evenodd" d="M947.812 502.901C944.807 505.004 944.807 505.155 945.859 508.009C948.563 506.807 948.563 506.807 947.812 502.901M948.263 515.221C948.113 515.071 948.113 514.921 947.962 514.921C941.502 514.921 938.797 512.817 938.346 507.559C937.745 502.15 941.502 497.191 946.76 496.14C948.113 495.839 949.465 495.839 950.817 496.29C951.869 496.59 953.221 497.492 953.522 498.544C956.527 506.206 956.977 513.869 953.822 521.532C952.32 525.288 946.61 528.443 942.403 528.293C940.3 528.143 938.497 526.64 938.497 524.837C938.346 523.185 939.548 521.983 941.952 521.532C947.512 520.48 947.812 520.18 948.263 515.221" fill="#293250"/>
<path fill-rule="evenodd" clip-rule="evenodd" d="M921.969 509.212C922.269 509.362 922.57 509.362 922.87 509.512C924.373 507.559 924.373 507.559 923.471 504.404C922.72 506.507 922.42 507.859 921.969 509.212M925.725 517.175C919.715 517.025 917.011 515.522 915.809 511.465C914.456 507.108 916.41 501.399 920.016 499.145C923.171 497.192 927.378 497.793 929.632 500.798C933.538 506.207 933.688 512.217 932.186 518.377C930.984 523.636 926.476 525.739 921.969 527.692C921.218 527.993 920.316 528.143 919.565 528.143C917.912 528.143 916.41 527.091 916.41 525.589C916.41 524.537 917.161 523.035 918.062 522.283C919.264 521.232 921.067 520.931 922.42 520.18C923.622 519.128 924.673 518.076 925.725 517.175" fill="#293250"/>
<path fill-rule="evenodd" clip-rule="evenodd" d="M904.991 522.734C904.991 524.537 903.488 526.19 901.685 526.19C900.033 526.19 898.68 524.838 898.53 523.185C898.53 521.382 900.033 519.729 901.836 519.729C903.488 519.579 904.841 521.081 904.991 522.734" fill="#293250"/>
<path fill-rule="evenodd" clip-rule="evenodd" d="M888.313 408.093C888.163 404.637 889.064 402.834 891.168 402.684C893.271 402.534 894.623 404.036 894.924 407.492C895.675 417.108 896.276 426.874 896.877 436.49C896.877 437.392 896.877 438.594 896.426 439.195C895.825 440.096 894.623 441.148 893.722 441.148C892.82 441.148 891.468 440.247 890.867 439.345C890.266 438.444 890.116 436.941 890.116 435.739C889.365 426.724 888.764 417.409 888.313 408.093" fill="#293250"/>
<path fill-rule="evenodd" clip-rule="evenodd" d="M876.744 438.894C876.744 440.848 876.143 442.2 874.34 442.651C872.687 443.101 871.335 442.35 870.583 440.848C870.133 439.946 869.832 438.744 869.532 437.692C867.278 429.128 865.024 420.564 862.921 412C862.62 410.798 862.32 409.445 862.47 408.394C862.77 407.342 863.672 406.14 864.573 405.689C865.926 404.938 867.278 405.539 868.179 406.891C868.63 407.642 868.931 408.544 869.231 409.445C871.635 418.46 874.039 427.626 876.293 436.641C876.593 437.542 876.744 438.444 876.744 438.894" fill="#293250"/>
<path fill-rule="evenodd" clip-rule="evenodd" d="M916.861 413.051C916.26 421.015 915.659 428.677 915.058 436.49C914.757 439.796 913.405 441.599 911.301 441.449C909.198 441.298 908.146 439.495 908.296 436.04C908.897 427.175 909.498 418.46 910.25 409.596C910.25 409.145 910.25 408.844 910.4 408.394C910.851 406.29 912.353 404.938 914.006 405.088C915.659 405.238 916.861 406.591 917.011 408.844C917.011 410.197 916.861 411.699 916.861 413.051" fill="#293250"/>
<path fill-rule="evenodd" clip-rule="evenodd" d="M859.407 605.444C908.088 604.843 956.92 604.242 1005.6 603.641H1008.46C1012.36 603.941 1014.01 607.397 1011.76 610.702C1011.01 611.754 1010.11 612.505 1009.21 613.257C976.152 643.307 942.947 673.207 910.042 703.257C905.835 707.013 901.928 708.666 896.369 708.816C868.723 709.267 841.227 710.168 813.581 710.919C775.868 711.821 738.305 712.873 700.593 713.774C673.998 714.525 647.404 715.126 620.81 715.727C619.908 715.727 618.856 715.878 617.955 715.727C614.499 715.427 613.297 712.873 615.25 710.018C615.851 709.267 616.452 708.515 617.053 707.914C645.751 676.061 674.599 644.358 703.297 612.505C706.603 608.899 709.758 607.247 714.716 607.247C745.217 607.096 775.568 606.646 806.068 606.195C823.948 605.894 841.678 605.744 859.407 605.444C859.407 605.594 859.407 605.444 859.407 605.444" fill="#293250"/>
<path fill-rule="evenodd" clip-rule="evenodd" d="M848.589 592.221C897.27 591.62 946.102 591.019 994.783 590.418H997.638C1001.54 590.719 1003.2 594.175 1000.94 597.48C1000.19 598.532 999.29 599.283 998.389 600.034C965.334 630.085 932.129 659.984 899.224 690.034C895.017 693.791 891.11 695.443 885.551 695.594C857.905 696.045 830.409 696.946 802.763 697.697C765.05 698.599 727.487 699.651 689.775 700.552C663.18 701.303 636.586 701.904 609.992 702.505C609.09 702.505 608.038 702.656 607.137 702.505C603.681 702.205 602.479 699.651 604.432 696.796C605.033 696.045 605.634 695.293 606.235 694.692C634.933 662.839 663.781 631.136 692.479 599.283C695.785 595.677 698.94 594.024 703.898 594.024C734.399 593.874 764.75 593.423 795.25 592.973C813.13 592.672 830.86 592.522 848.589 592.221C848.589 592.372 848.589 592.221 848.589 592.221" fill="white"/>
<path fill-rule="evenodd" clip-rule="evenodd" d="M996.502 596.48C996.351 596.179 996.351 595.879 996.201 595.729H991.543C919.273 596.48 847.002 597.231 774.732 598.133C751.593 598.433 728.605 598.583 705.466 598.884C704.264 598.884 702.612 598.734 702.011 599.485C699.156 602.189 696.301 604.744 694.047 608.65H699.456C791.71 608.65 883.814 608.65 976.067 608.951C981.176 608.951 985.233 608.049 988.689 604.143C990.942 601.288 993.797 599.034 996.502 596.48M612.762 696.997H617.72C635.6 696.547 653.48 696.096 671.36 695.795L840.842 692.189C857.67 691.889 874.348 691.438 891.176 690.987C893.279 690.987 895.082 690.537 896.735 689.034C914.164 672.807 931.744 656.58 949.323 640.353C950.074 639.752 950.525 638.851 951.577 637.649H947.219C913.563 637.949 879.757 638.25 846.101 638.55C786.451 639.001 726.802 639.602 667.153 640.053C665.049 640.053 663.847 640.954 662.645 642.306C646.869 659.585 630.942 677.014 615.166 694.293C614.415 694.744 613.814 695.495 612.762 696.997M750.842 700.754C704.114 701.805 657.537 702.707 610.809 703.759C608.705 703.759 606.451 703.608 604.498 702.857C601.944 701.956 601.493 699.852 602.996 697.598C603.446 696.847 604.198 696.096 604.799 695.345C635.149 662.139 665.5 629.084 695.7 595.879C698.254 593.174 701.109 592.123 704.715 592.123C786.301 591.371 868.037 590.47 949.623 589.568C967.653 589.418 985.683 589.118 1003.71 588.967C1005.07 588.967 1006.57 588.817 1007.77 589.268C1008.82 589.568 1009.87 590.77 1010.17 591.672C1010.32 592.573 1009.72 594.076 1008.97 594.827C993.947 608.65 978.622 622.323 963.597 636.146C943.163 654.927 922.578 673.859 902.294 692.941C898.538 696.396 894.932 697.749 889.974 697.899C843.697 698.65 797.269 699.702 750.842 700.754" fill="#FF6663"/>
<path fill-rule="evenodd" clip-rule="evenodd" d="M864.882 676.714H883.062C885.166 676.714 886.668 676.113 888.171 674.76C894.782 668.75 901.393 662.891 908.004 657.031C908.605 656.43 909.056 655.679 909.807 654.777H886.067C884.114 654.777 883.062 655.829 882.011 657.031C878.104 661.538 874.198 666.046 870.141 670.553C868.488 672.356 866.986 674.159 864.882 676.714M872.545 683.775H860.675C859.473 683.775 858.121 683.775 857.069 683.475C854.665 682.874 853.764 680.62 854.815 678.366C855.266 677.465 856.017 676.563 856.769 675.812C863.68 667.849 870.742 659.735 877.653 651.622C879.757 649.068 882.161 648.016 885.466 648.016C895.683 648.016 905.9 647.866 916.117 647.866C918.071 647.866 920.475 647.415 921.376 649.819C922.428 652.223 920.775 654.176 919.273 655.528C914.014 660.336 908.755 664.994 903.496 669.802C899.44 673.408 895.383 677.014 891.326 680.77C889.373 682.573 887.42 683.475 884.715 683.325C880.658 683.174 876.602 683.325 872.395 683.325C872.545 683.475 872.545 683.625 872.545 683.775" fill="#FF6663"/>
<path fill-rule="evenodd" clip-rule="evenodd" d="M678.722 675.662H657.837C656.485 675.662 655.133 675.512 653.78 675.211C652.278 674.761 651.376 673.559 651.827 672.056C652.128 671.004 653.029 669.953 654.081 669.502C654.982 669.051 656.184 669.051 657.236 669.051C671.36 668.901 685.483 668.901 699.757 668.901C700.809 668.901 701.86 669.051 702.912 669.201C704.415 669.502 705.166 670.704 705.316 672.206C705.316 673.709 704.565 674.911 703.062 675.211C701.71 675.512 700.358 675.662 699.006 675.662H678.722Z" fill="#FF6663"/>
<path fill-rule="evenodd" clip-rule="evenodd" d="M676.769 660.487H665.35C664.298 660.487 662.946 660.637 662.194 660.186C661.293 659.735 660.241 658.533 659.941 657.632C659.49 656.129 660.391 654.927 661.894 654.477C662.795 654.176 663.697 654.026 664.749 654.026C672.862 654.026 681.126 654.026 689.239 654.176C689.84 654.176 690.592 654.326 691.193 654.477C692.845 654.927 693.897 655.829 693.897 657.632C693.897 659.435 692.845 660.336 691.193 660.637C690.141 660.787 689.089 660.787 687.887 660.787H676.919C676.769 660.637 676.769 660.487 676.769 660.487" fill="#FF6663"/>
<path fill-rule="evenodd" clip-rule="evenodd" d="M486.449 1069.26C484.797 1068.96 483.444 1068.66 481.942 1068.36C478.636 1067.75 476.533 1065.8 475.932 1062.5C474.58 1055.58 473.227 1048.52 472.025 1041.61C468.72 1021.78 465.414 1002.1 462.109 982.262C461.959 981.06 461.508 979.858 461.207 978.356C460.456 978.957 459.705 979.407 459.254 979.858C449.187 993.08 441.825 1007.5 437.768 1023.73C436.867 1027.19 436.116 1028.09 432.51 1028.09C430.556 1028.09 429.354 1028.84 428.453 1030.34C428.152 1030.94 427.701 1031.39 427.251 1031.99C423.494 1036.35 422.443 1041.01 424.997 1046.27C425.748 1047.77 426.199 1049.57 426.349 1051.38C426.65 1054.08 425.147 1055.58 422.443 1055.43C420.489 1055.28 418.686 1054.83 416.883 1054.38C407.117 1051.98 398.553 1047.47 391.641 1040.11C389.388 1037.7 388.787 1035.3 389.989 1032.3C394.196 1021.63 397.802 1010.81 402.76 1000.44C406.967 991.427 410.423 982.112 413.878 972.796C423.494 946.953 434.463 921.711 448.436 897.821C449.187 896.469 450.239 894.967 450.84 893.464C451.291 892.412 451.441 891.06 451.441 890.008C450.84 876.636 449.788 863.264 449.338 849.891C448.887 835.017 449.638 820.142 450.54 805.267C451.141 794.599 450.99 783.931 451.141 773.264C451.441 756.285 451.291 739.457 451.892 722.479C452.343 710.008 453.695 697.688 454.596 685.367C454.596 684.916 454.747 684.616 454.747 684.165C455.498 679.658 457.151 678.606 461.508 679.658C467.067 681.01 472.626 682.362 478.336 683.264C491.257 685.517 504.179 685.517 517.1 684.766C525.064 684.315 532.877 684.165 540.84 683.865H543.244C547.752 684.315 549.855 686.569 550.005 691.077C550.606 709.257 551.207 727.437 551.808 745.467C552.259 758.088 553.161 770.86 553.161 783.481C553.161 792.195 552.409 800.91 551.808 809.624C551.658 811.427 551.057 813.08 550.606 814.733C548.052 822.546 545.498 830.359 542.493 837.871C537.685 849.891 532.576 861.761 527.468 873.781C525.965 877.237 524.613 880.843 523.261 884.449C522.96 885.501 522.96 886.553 522.96 887.755C523.561 922.613 524.313 957.32 524.914 992.179C525.364 1012.61 525.665 1033.2 526.116 1053.63C526.116 1056.19 525.815 1058.29 523.261 1059.94C520.556 1061.59 519.655 1064.15 520.857 1067.3C521.758 1069.71 522.209 1072.26 522.81 1074.82C523.561 1078.42 522.66 1080.08 519.054 1080.68C513.344 1081.58 507.635 1082.18 502.075 1082.78C499.521 1083.08 496.967 1083.38 494.413 1083.53C490.506 1083.83 488.553 1082.33 487.802 1078.42C487.201 1075.42 486.9 1072.56 486.449 1069.26" fill="white"/>
<path fill-rule="evenodd" clip-rule="evenodd" d="M556.316 579.441L557.217 574.483C557.969 567.721 559.471 560.96 563.227 555.1C564.73 552.546 566.833 550.292 569.237 548.489C572.843 545.935 575.848 547.438 576.449 551.795C576.75 553.898 576.6 556.152 576.75 558.256C576.9 560.96 577.351 563.665 577.501 566.369C577.651 569.675 579.454 571.478 582.459 572.529C596.282 577.337 609.805 582.596 623.778 587.104C637.601 591.461 651.575 594.766 665.548 598.673C672.309 600.626 679.221 602.579 685.982 604.683C687.184 604.983 688.386 605.434 689.438 606.035C692.142 607.838 691.992 610.993 689.137 612.496C688.837 612.646 688.686 612.796 688.386 612.796C682.226 613.097 679.221 617.905 675.915 622.112C673.511 625.117 672.309 625.718 668.853 624.366C648.419 616.853 627.084 612.646 606.049 607.688C593.578 604.683 581.107 601.828 568.636 598.973C568.035 598.823 567.284 598.673 566.833 598.673C564.429 606.035 562.176 613.247 559.922 620.309C560.222 620.609 560.373 620.91 560.673 620.91C575.848 625.117 591.174 629.324 606.499 633.381C614.312 635.484 622.126 636.987 630.089 638.79C635.798 639.992 640.907 642.246 645.565 645.852C648.119 647.805 648.57 649.458 646.316 652.012C644.062 654.566 641.658 656.97 639.254 659.524C637.601 661.327 635.949 663.13 634.146 665.234C636.249 667.187 638.052 668.99 639.855 670.793C642.56 673.498 643.311 675.601 642.259 677.554C641.057 679.808 638.954 680.259 634.897 679.207C630.54 678.005 626.333 676.202 622.877 673.197C618.97 669.892 615.064 666.436 611.157 662.98C609.054 661.027 606.8 659.675 604.095 659.224C591.024 656.82 578.102 654.266 565.03 652.012C547.151 648.857 528.97 647.955 511.241 643.898C502.376 641.945 496.065 636.987 492.76 628.723C489.004 619.107 485.698 609.19 482.242 599.424C481.491 597.17 480.74 594.766 479.989 592.362C478.636 587.855 480.289 584.85 484.947 583.948C488.853 583.197 492.76 582.746 496.666 582.296C513.194 580.192 529.872 578.99 546.55 579.892C549.404 580.042 552.259 579.892 555.114 579.741C555.264 579.741 555.565 579.591 556.316 579.441" fill="white"/>
<path fill-rule="evenodd" clip-rule="evenodd" d="M532.426 442.713V457.287C532.276 465.401 531.074 466.753 522.96 467.054C519.204 467.204 515.598 466.753 512.142 465.1C508.085 463.147 507.334 461.645 507.334 456.987C507.334 450.225 507.184 443.314 506.883 436.553C506.883 434.75 506.282 433.097 505.982 431.144C502.376 430.092 498.77 429.341 496.817 425.584C494.863 421.978 493.812 418.222 494.262 414.165C494.863 407.855 497.868 405.15 505.832 403.648C506.132 400.943 506.433 398.089 506.733 395.234C507.034 393.431 507.484 391.778 508.085 390.125C509.438 386.82 511.842 384.867 515.748 385.167C518.302 385.317 520.857 385.768 523.411 385.918C530.773 386.369 538.135 386.82 545.498 386.97C550.306 387.12 554.964 386.519 559.772 386.369C564.88 386.069 567.134 387.872 567.885 392.98C568.186 394.783 568.336 396.586 568.336 398.239C567.885 406.202 567.585 414.316 566.683 422.279C565.932 429.19 562.326 434.9 557.818 439.858C554.813 443.314 550.456 444.065 546.249 444.215C542.943 444.366 539.488 443.614 536.182 443.314C535.431 443.464 534.529 443.164 532.426 442.713" fill="white"/>
<path fill-rule="evenodd" clip-rule="evenodd" d="M564.73 535.718C566.383 540.075 563.979 543.982 560.673 547.588C558.87 549.541 557.217 551.795 555.264 553.748C553.611 555.401 551.658 556.152 549.404 555.551C548.803 555.401 548.052 555.25 547.451 555.1C540.99 553.447 539.788 551.945 539.638 545.184C539.488 539.324 539.187 533.464 539.037 527.604C538.887 523.998 541.892 520.542 545.498 520.843C549.855 521.143 554.212 521.744 558.419 522.496C562.626 523.397 563.678 524.9 564.279 529.257C564.429 531.21 564.58 533.164 564.73 535.718" fill="white"/>
<path fill-rule="evenodd" clip-rule="evenodd" d="M541.487 524.618C541.787 532.131 541.938 539.042 542.238 545.954C542.238 546.855 543.14 548.057 543.891 548.508C546.445 550.161 549.3 551.513 551.403 552.715C554.859 549.409 558.014 546.705 561.019 543.7C561.62 543.099 562.221 541.747 562.071 540.845C561.32 535.436 560.569 530.177 559.667 524.618H541.487ZM513.24 387.139C512.939 388.491 512.639 389.393 512.488 390.445C511.737 394.952 510.836 399.61 510.235 404.117C509.934 406.371 508.882 407.874 507.23 409.226C505.727 410.578 504.225 409.376 502.722 408.925C501.821 408.625 500.619 408.925 499.717 409.526C495.21 412.381 494.008 417.79 497.013 422.298C498.665 424.852 500.919 426.354 504.074 426.655C508.432 427.106 509.333 428.007 510.235 432.364C510.535 433.566 510.836 434.768 510.836 435.97C510.685 442.581 510.535 449.343 510.235 455.954C510.235 457.456 509.934 458.959 509.784 460.611C517.146 463.616 524.208 465.72 531.721 462.715C531.42 456.855 531.12 451.446 530.819 446.037C529.918 445.436 528.715 445.136 528.114 444.234C527.513 443.333 526.912 441.83 527.213 440.929C527.513 440.027 528.866 439.126 529.918 438.825C530.669 438.525 531.721 438.975 532.622 439.276C535.176 440.027 537.58 440.929 539.984 441.53C545.994 443.032 551.253 441.83 556.061 437.924C560.569 434.167 562.822 429.059 563.874 423.5C565.827 412.832 566.579 402.164 566.879 391.346C566.879 390.595 566.428 389.844 566.278 389.092C548.549 390.745 530.969 386.989 513.24 387.139V387.139ZM688.582 608.758C686.779 608.157 685.126 607.406 683.323 606.955C665.594 601.847 648.465 595.386 630.886 589.677C613.757 584.117 596.629 578.708 579.5 573.149C578.749 572.849 577.847 572.698 577.096 572.398C575.443 571.647 574.542 570.294 575.293 568.341C577.096 562.932 575.594 557.523 575.894 551.513C573.791 552.414 572.438 553.015 570.635 553.767C569.734 567.44 568.682 581.263 567.781 595.236C569.884 595.687 571.837 596.137 573.941 596.588C592.572 601.396 611.203 606.354 629.684 611.313C643.056 614.768 656.278 618.224 669.65 621.68C670.251 621.83 671.003 621.98 671.604 622.281C673.106 623.032 674.008 624.234 673.557 625.887C673.256 627.54 671.904 628.441 670.251 628.291C668.749 628.291 667.246 627.99 665.744 627.69C648.315 623.182 630.886 618.525 613.457 613.867C599.934 610.261 586.261 606.805 572.739 603.199C571.086 602.748 569.283 602.448 567.63 602.147C566.428 604.551 565.677 612.815 565.978 618.825C570.936 619.877 576.044 620.929 581.003 622.131C594.675 625.436 608.198 628.892 621.871 632.348C623.524 632.798 625.026 633.249 626.679 633.399C635.694 634.451 642.455 639.71 649.216 645.269C651.019 646.772 651.17 648.575 649.968 649.927C648.916 651.279 647.113 651.58 645.16 650.378C643.507 649.326 642.004 648.124 640.502 646.922C635.844 643.466 630.886 641.062 625.026 639.86C612.104 637.005 599.333 633.399 586.562 630.394C566.428 625.586 545.994 621.83 525.41 619.126C523.907 618.975 522.405 618.675 520.902 618.525C517.597 617.924 516.996 617.172 516.695 613.717C515.644 603.8 514.442 593.884 513.39 583.667C502.422 585.019 491.904 586.822 481.236 589.226C481.236 589.977 481.086 590.578 481.236 591.029C483.49 598.842 485.443 606.955 488.148 614.618C490.251 620.628 493.407 626.338 496.412 631.897C498.665 636.254 502.271 638.959 506.779 640.762C513.54 643.316 520.752 644.668 527.814 645.57C549.15 648.424 570.485 651.429 591.821 654.284C596.328 654.885 600.685 655.486 605.193 655.937C607.296 656.238 608.799 657.289 610.452 658.792C615.109 663.299 619.767 667.657 624.726 671.563C629.083 675.019 634.342 676.071 639.901 675.92C639.901 674.117 638.549 673.516 637.497 672.765C635.694 671.413 633.741 670.061 631.787 668.708C629.834 667.206 629.383 665.253 630.285 663.75C631.337 662.248 633.29 661.797 635.393 663.149C638.549 665.253 641.704 667.506 644.408 670.211C645.911 671.563 646.963 673.817 647.714 675.77C648.916 679.226 646.812 682.231 643.206 682.531C634.792 683.283 626.829 682.081 619.918 676.672C615.26 672.915 610.752 668.859 606.395 664.802C605.193 663.6 603.991 662.698 602.338 662.398C589.867 660.745 577.397 658.942 565.076 657.289C564.776 657.289 564.475 657.289 563.874 657.44C563.724 663.45 563.123 669.46 563.874 675.62C565.076 683.733 564.175 685.086 556.211 686.889C553.056 687.49 549.751 688.091 546.445 688.241C528.265 689.142 510.084 690.344 492.054 688.391C482.288 687.339 472.522 685.987 462.906 684.334C459.15 683.733 455.544 682.081 452.238 680.428C446.529 677.573 445.477 675.47 446.529 669.309C448.482 657.44 450.585 645.57 452.539 633.85C454.492 621.53 456.445 609.359 458.398 597.039C458.849 594.184 458.699 591.329 458.999 588.324C456.145 587.423 453.29 586.672 450.736 585.62C447.13 584.268 446.078 582.164 446.679 578.558C449.684 562.632 452.238 546.555 455.694 530.628C458.398 518.308 462.004 506.288 465.31 494.268C465.761 492.615 466.512 490.962 467.113 489.309C470.719 478.792 477.33 470.828 487.096 465.269C492.205 462.414 497.313 459.71 503.023 456.555C504.375 450.695 504.074 443.783 503.774 437.022C503.624 435.219 502.872 434.167 500.919 433.717C496.261 432.815 492.956 429.96 490.552 425.753C487.397 420.344 487.397 414.935 490.702 409.827C492.205 407.423 492.655 405.169 492.505 402.615C492.054 395.102 493.106 387.89 495.66 380.828C502.121 363.399 512.488 356.788 528.565 355.887C537.58 355.286 546.295 356.788 554.859 359.192C569.283 363.399 573.791 375.72 574.842 386.388C574.842 386.989 574.993 387.59 574.842 388.041C572.138 396.304 573.49 405.169 572.138 413.583C571.387 418.241 570.936 423.049 569.734 427.707C567.18 438.525 560.869 445.887 549.901 449.042C549.6 449.192 549.3 449.343 548.849 449.493C552.756 450.094 556.512 450.845 560.268 451.446C567.931 452.949 573.64 457.156 577.847 463.767C581.754 469.927 583.557 476.838 584.308 483.9C586.412 501.78 587.614 519.81 586.261 537.84C585.961 541.146 585.811 544.451 583.407 547.005C582.956 547.606 582.655 548.508 582.655 549.259V567.289L587.163 568.792C615.861 578.258 644.709 587.723 673.407 597.189C677.463 598.541 681.52 599.593 685.577 600.945C688.281 601.847 690.986 602.899 693.54 603.95C694.742 604.401 695.944 605.152 696.996 606.054C701.053 609.209 700.602 613.717 695.644 615.069C690.836 616.271 685.727 616.421 680.769 616.872C678.966 617.022 677.614 615.67 677.764 613.717C677.764 611.763 678.966 610.712 680.769 610.411C683.323 610.111 685.877 609.96 688.432 609.66C688.582 609.209 688.582 609.059 688.582 608.758V608.758Z" fill="#293250"/>
<path fill-rule="evenodd" clip-rule="evenodd" d="M434.681 1025.52C436.634 1021.31 438.287 1017.7 440.09 1014.25C444.748 1004.78 449.406 995.165 454.514 985.699C456.017 982.845 456.618 980.591 456.167 977.285C452.411 955.048 449.706 932.661 448.354 910.274C448.204 907.87 447.903 905.466 447.753 903.062H447.152C432.277 938.22 417.402 973.529 402.377 1009.14C412.144 1016.35 421.91 1023.56 434.681 1025.52M457.97 993.512C457.369 994.714 456.618 995.766 456.017 996.968C451.209 1006.73 446.401 1016.65 441.593 1026.42C438.738 1032.13 437.686 1032.88 431.376 1031.68C427.77 1030.92 424.164 1030.02 420.858 1028.52C413.045 1024.76 405.533 1020.56 399.072 1015C394.865 1011.39 394.564 1010.49 396.668 1005.08C401.175 994.113 405.983 983.295 410.641 972.327C413.195 966.467 415.75 960.608 418.154 954.598C427.319 932.661 436.334 910.724 445.499 888.788C446.401 886.534 446.851 884.431 446.851 882.027C446.401 862.494 445.349 842.962 445.499 823.429C445.649 793.379 446.1 763.329 447.152 733.279C447.753 716.751 449.706 700.374 451.058 683.846C451.058 683.095 451.209 682.043 451.659 681.593C452.561 680.691 453.763 679.639 454.815 679.639C456.467 679.489 457.519 680.841 457.519 682.644C457.519 684.598 457.369 686.401 457.219 688.354C454.514 716.751 452.411 745.299 452.411 773.846C452.411 798.938 451.96 824.18 452.561 849.272C453.162 874.063 454.214 899.005 456.017 923.796C457.669 946.334 461.125 968.871 465.182 991.108C468.487 1009.29 471.492 1027.47 474.798 1045.5C476 1052.26 477.653 1059.02 479.305 1066.23C494.03 1066.68 508.154 1064.73 522.277 1060.37V1055.87C521.376 948.738 520.324 841.76 519.422 734.631V731.776C519.573 728.921 520.775 727.419 522.578 727.269C524.681 727.118 525.883 728.771 526.184 731.926C526.334 733.128 526.184 734.33 526.184 735.683C526.484 778.654 526.935 821.776 527.235 864.748V870.157C528.137 868.805 528.588 868.204 528.888 867.603C532.945 857.085 536.851 846.417 540.908 835.9C546.017 823.128 548.871 809.756 549.172 795.933C549.623 774.748 549.923 753.563 549.923 732.377C549.923 719.155 549.172 705.933 548.871 692.711C548.871 691.509 548.871 690.307 549.172 689.105C549.472 687.603 550.674 686.551 552.177 686.851C553.229 687.002 554.28 687.903 554.881 688.805C555.482 689.706 555.482 690.908 555.482 691.96C556.384 727.569 557.736 763.179 555.633 798.938C554.881 812.611 551.876 825.983 546.768 838.755C542.11 850.624 537.903 862.494 533.396 874.364C532.795 876.167 532.194 877.97 531.292 879.623C527.836 886.234 527.235 893.145 527.235 900.507C527.836 952.795 528.287 1005.08 528.738 1057.37C528.738 1059.77 528.888 1062.33 528.738 1064.73C528.437 1068.04 527.085 1068.79 523.78 1068.04C522.578 1067.74 521.075 1067.59 519.873 1068.04C506.05 1072.09 491.926 1072.84 477.803 1073.45C474.798 1073.6 473.896 1072.84 473.145 1069.54C471.192 1060.52 468.938 1051.51 467.285 1042.34C464.28 1026.27 461.576 1010.04 458.871 993.963C458.571 993.663 458.27 993.663 457.97 993.512" fill="#293250"/>
<path fill-rule="evenodd" clip-rule="evenodd" d="M392.288 1034.27C401.754 1038.78 410.769 1042.98 419.784 1047.19C420.235 1047.34 420.685 1047.49 421.888 1047.94C419.333 1043.58 421.136 1039.98 422.789 1036.37C423.841 1034.12 424.742 1031.86 425.644 1029.61C425.794 1029.16 425.794 1028.86 426.095 1028.41C426.996 1026.3 428.499 1025.4 430.151 1025.85C431.954 1026.3 432.856 1028.11 432.255 1030.51C431.654 1032.92 430.602 1035.17 429.701 1037.42C426.996 1043.58 426.996 1043.58 431.654 1048.69C440.068 1057.71 448.482 1066.72 456.746 1075.74C457.647 1076.79 458.699 1077.69 459.3 1078.89C460.802 1081.45 459.45 1084.3 456.445 1084.6C454.943 1084.75 453.44 1084.45 452.088 1084.15C441.27 1081.6 430.903 1077.99 420.685 1073.63C409.417 1068.83 398.298 1063.72 387.029 1058.61C385.377 1057.86 383.874 1056.96 382.372 1056.05C378.766 1053.8 377.864 1051.4 379.066 1047.34C379.667 1045.54 380.268 1043.73 381.17 1041.93C385.827 1032.77 390.635 1023.45 395.443 1014.28C397.246 1010.98 399.2 1010.08 401.153 1011.28C402.956 1012.48 402.956 1014.43 401.303 1017.44C398.899 1021.8 396.495 1026 394.241 1030.36C393.34 1031.56 392.889 1032.77 392.288 1034.27" fill="#293250"/>
<path fill-rule="evenodd" clip-rule="evenodd" d="M489.35 1080.7C500.168 1080.09 510.385 1079.34 521.053 1078.74C520.452 1075.14 520.001 1071.68 519.55 1068.22C519.4 1067.62 519.25 1066.87 519.099 1066.27C518.799 1063.87 519.55 1062.51 521.203 1061.91C523.006 1061.46 524.809 1062.36 525.41 1064.77C526.161 1067.47 526.462 1070.33 527.063 1073.18C527.363 1074.84 527.814 1076.34 527.814 1077.99C527.964 1080.24 529.166 1081.9 530.969 1082.8C535.627 1085.2 540.285 1087.46 544.943 1089.71C549.3 1091.81 553.807 1093.92 558.165 1096.02C558.916 1096.32 559.517 1096.92 560.268 1097.37C561.921 1098.57 562.822 1100.23 562.372 1102.33C561.921 1104.28 560.418 1105.19 558.615 1105.64C557.714 1105.94 556.812 1106.09 555.761 1106.09C548.549 1106.09 541.337 1106.39 534.124 1105.79C520.001 1104.74 505.877 1103.38 491.754 1102.03C485.293 1101.43 483.34 1099.78 482.589 1093.32C482.288 1090.76 482.288 1088.21 482.288 1085.5C482.288 1081.45 482.589 1077.39 482.589 1073.18C482.589 1072.43 482.589 1071.83 482.739 1071.08C483.039 1069.43 484.091 1068.37 485.744 1068.22C487.547 1068.22 488.599 1069.28 488.899 1070.78C489.2 1071.98 489.2 1073.18 489.2 1074.38C489.35 1076.64 489.35 1078.59 489.35 1080.7" fill="#293250"/>
<path fill-rule="evenodd" clip-rule="evenodd" d="M549.6 419.743C545.994 415.236 545.844 410.277 546.746 405.169C547.196 402.615 548.549 401.262 550.201 401.413C552.004 401.563 553.206 403.065 553.206 405.469C553.206 406.521 553.056 407.723 553.056 408.775C552.756 411.63 553.357 414.184 555.46 416.287C557.113 417.94 558.165 419.893 556.963 422.147C555.46 424.701 553.206 426.504 550.201 426.955C547.797 427.256 546.145 424.701 547.196 422.448C547.797 421.696 548.699 420.945 549.6 419.743" fill="#293250"/>
<path fill-rule="evenodd" clip-rule="evenodd" d="M545.994 436.721C542.839 436.721 540.134 435.069 538.181 432.214C537.58 431.312 537.129 430.261 536.829 429.209C536.378 427.406 536.979 425.903 538.782 425.152C540.435 424.551 541.787 425.152 542.689 426.655C543.741 428.608 544.943 429.81 547.347 430.11C550.352 430.561 551.403 431.913 551.253 433.867C550.953 435.97 549.45 436.721 545.994 436.721" fill="#293250"/>
<path fill-rule="evenodd" clip-rule="evenodd" d="M539.834 407.723C539.834 411.179 538.482 413.132 536.078 412.832C533.824 412.531 532.622 410.278 533.223 406.972C533.674 404.568 535.026 403.066 536.829 403.216C538.632 403.216 539.834 404.869 539.834 407.723" fill="#293250"/>
<path fill-rule="evenodd" clip-rule="evenodd" d="M557.413 411.63C557.263 408.775 558.615 406.972 560.719 406.972C562.672 406.972 564.024 408.475 564.024 410.728C564.175 413.433 562.672 415.386 560.719 415.386C558.766 415.386 557.413 414.034 557.413 411.63" fill="#293250"/>
<path fill-rule="evenodd" clip-rule="evenodd" d="M1335.81 556.94C1259.03 557.841 1182.25 558.743 1105.62 559.794C1094.5 559.945 1083.54 560.095 1072.42 560.395C1066.86 560.546 1065.2 558.442 1066.56 553.183C1075.72 513.968 1085.04 474.753 1094.2 435.688C1111.48 361.915 1128.91 288.292 1146.19 214.519C1148.14 206.405 1147.99 206.405 1156.41 206.255C1259.93 205.354 1363.45 204.602 1466.97 203.701C1538.19 203.1 1609.26 202.499 1680.48 201.898H1681.68C1686.34 201.898 1687.54 203.4 1686.49 207.908C1680.63 233.3 1674.62 258.693 1668.76 284.085C1650.28 362.666 1631.95 441.397 1613.47 519.978C1611.52 528.392 1609.56 536.656 1607.61 545.07C1607.61 545.22 1607.61 545.37 1607.46 545.521C1605.66 553.033 1604.9 553.634 1597.24 553.784C1517.76 554.686 1438.28 555.738 1358.79 556.639C1351.13 556.789 1343.47 556.639 1335.81 556.639V556.94Z" fill="#293250"/>
<path fill-rule="evenodd" clip-rule="evenodd" d="M1299.75 520.88C1222.97 521.781 1146.19 522.683 1069.56 523.734C1058.44 523.885 1047.48 524.035 1036.36 524.335C1030.8 524.486 1029.14 522.382 1030.5 517.123C1039.66 477.908 1048.98 438.693 1058.14 399.628C1075.42 325.855 1092.85 252.232 1110.13 178.459C1112.08 170.345 1111.93 170.345 1120.35 170.195C1223.87 169.294 1327.39 168.542 1430.91 167.641C1502.13 167.04 1573.2 166.439 1644.42 165.838H1645.62C1650.28 165.838 1651.48 167.34 1650.43 171.848C1644.57 197.24 1638.56 222.633 1632.7 248.025C1614.22 326.606 1595.89 405.337 1577.41 483.918C1575.46 492.332 1573.5 500.596 1571.55 509.01C1571.55 509.16 1571.55 509.31 1571.4 509.461C1569.6 516.973 1568.84 517.574 1561.18 517.724C1481.7 518.626 1402.22 519.678 1322.73 520.579C1315.07 520.729 1307.41 520.579 1299.75 520.579V520.88Z" fill="#FF6663"/>
<path fill-rule="evenodd" clip-rule="evenodd" d="M1372.52 207.856C1447.19 206.955 1521.87 206.203 1596.69 205.302H1600C1604.8 205.302 1606.46 207.105 1606.16 211.763C1606.16 212.814 1605.71 213.866 1605.41 214.918C1600.3 233.849 1595.19 252.931 1590.08 271.863C1589.93 272.614 1589.63 273.515 1589.48 274.267C1588.73 276.671 1587.23 277.873 1584.67 277.873C1581.82 277.873 1578.96 277.722 1576.11 277.722C1516.61 278.474 1456.96 279.225 1397.46 279.976C1309.41 281.028 1221.22 282.08 1133.17 283.131C1130.91 283.131 1128.51 283.282 1126.26 283.131C1123.7 282.981 1122.5 281.779 1122.5 279.225C1122.5 277.572 1122.8 275.919 1123.1 274.417C1127.76 255.335 1132.57 236.253 1137.23 217.172C1138.73 211.162 1139.48 210.561 1145.64 210.561C1207.84 209.809 1269.9 209.058 1332.1 208.457C1345.62 208.307 1359.14 208.457 1372.67 208.457C1372.52 208.157 1372.52 208.006 1372.52 207.856" fill="white"/>
<path fill-rule="evenodd" clip-rule="evenodd" d="M1363.67 265.419C1293.95 266.17 1224.08 266.921 1154.37 267.672C1153.31 267.672 1152.11 267.672 1151.06 267.522C1149.26 267.372 1147.91 266.47 1147.76 264.517C1147.61 262.714 1148.81 261.362 1151.06 261.061C1152.26 260.911 1153.47 260.911 1154.67 260.911C1215.37 260.31 1276.22 259.709 1336.92 258.958C1415.35 258.056 1493.63 257.305 1572.06 256.404C1573.72 256.404 1575.37 256.253 1577.02 256.404C1578.97 256.554 1580.18 257.906 1580.18 259.559C1580.18 261.362 1579.12 262.263 1577.47 262.714C1576.42 263.015 1575.37 262.864 1574.17 263.015C1518.27 263.616 1462.53 264.217 1406.64 264.818C1392.36 264.968 1377.94 264.818 1363.67 264.818V265.419Z" fill="#293250"/>
<path fill-rule="evenodd" clip-rule="evenodd" d="M1340.23 238.073C1337.97 237.021 1336.47 236.27 1334.97 235.369C1332.71 234.167 1331.96 232.514 1332.71 230.711C1333.47 229.058 1335.12 228.457 1337.67 229.359C1339.02 229.809 1340.38 230.41 1342.03 231.011C1342.18 229.96 1342.33 229.058 1342.48 228.157C1342.93 225.903 1344.13 224.551 1345.79 224.701C1347.74 224.851 1348.64 226.053 1348.94 227.856C1349.09 228.607 1349.24 229.359 1349.39 230.711C1350.89 229.809 1351.95 229.208 1353.15 228.457C1355.85 226.804 1357.81 226.955 1358.86 228.758C1359.91 230.561 1359.16 232.364 1356.6 234.167C1355.4 235.068 1354.2 235.819 1352.55 237.021C1354.5 238.073 1356.15 238.975 1357.81 239.876C1358.71 240.327 1359.76 240.778 1360.66 241.379C1362.91 242.731 1363.52 244.384 1362.61 246.036C1361.71 247.689 1359.91 248.29 1357.66 247.389C1356.3 246.788 1354.95 246.036 1353.6 245.285C1352.4 244.684 1351.19 244.233 1349.69 243.482C1349.24 246.337 1350.29 249.943 1346.39 250.243C1342.93 250.544 1342.93 247.389 1342.33 244.834C1340.98 245.886 1339.78 246.788 1338.57 247.539C1336.77 248.591 1334.97 248.14 1333.92 246.637C1332.86 244.985 1333.16 242.881 1334.97 241.679C1336.77 240.627 1338.27 239.576 1340.23 238.073" fill="#293250"/>
<path fill-rule="evenodd" clip-rule="evenodd" d="M1169.84 239.576C1168.04 238.073 1166.54 237.021 1165.33 235.819C1163.83 234.317 1163.68 232.364 1164.88 231.011C1166.09 229.659 1167.59 229.509 1169.69 230.861C1170.74 231.462 1171.65 232.213 1173 233.265C1173.45 231.913 1173.75 230.711 1174.2 229.659C1174.95 227.556 1176.45 226.504 1178.26 226.955C1180.21 227.405 1180.81 228.758 1180.81 230.711C1180.81 231.462 1180.66 232.364 1180.51 233.716C1182.31 232.814 1183.67 232.063 1185.02 231.462C1187.12 230.561 1188.92 231.162 1189.68 232.664C1190.58 234.167 1189.98 235.97 1188.17 237.172C1186.82 238.223 1185.17 238.975 1183.52 240.026C1185.02 241.078 1186.22 241.98 1187.42 242.881C1189.37 244.534 1189.83 246.637 1188.77 248.29C1187.57 249.943 1185.62 249.943 1183.36 248.29C1182.31 247.539 1181.11 246.788 1180.06 246.036C1179.76 245.886 1179.31 245.886 1178.71 245.736C1178.56 246.938 1178.41 248.14 1178.11 249.342C1177.66 251.896 1176.45 253.248 1174.5 253.098C1172.4 252.798 1171.5 251.445 1171.34 249.492C1171.34 248.891 1171.19 248.44 1171.19 247.389C1169.84 248.29 1168.64 248.891 1167.59 249.492C1166.69 250.093 1165.79 250.694 1164.73 251.145C1163.08 251.896 1161.43 251.746 1160.38 250.093C1159.32 248.44 1159.78 246.938 1161.13 245.736C1162.63 244.534 1164.28 243.632 1165.79 242.43C1166.99 241.379 1168.34 240.627 1169.84 239.576" fill="#293250"/>
<path fill-rule="evenodd" clip-rule="evenodd" d="M1230.54 244.534C1230.54 246.637 1230.69 248.14 1230.54 249.642C1230.39 252.046 1228.89 253.398 1227.09 253.398C1225.28 253.248 1224.23 252.046 1223.93 249.792C1223.78 248.741 1223.78 247.689 1223.63 246.186C1222.13 247.088 1221.08 247.839 1219.88 248.29C1218.37 248.891 1216.87 248.741 1215.82 247.238C1214.77 245.736 1215.07 244.233 1216.27 243.181C1217.77 241.829 1219.43 240.627 1221.23 239.125C1220.03 238.373 1218.97 237.772 1218.07 237.171C1215.97 235.819 1215.22 234.166 1215.97 232.514C1216.72 231.011 1218.37 230.41 1220.48 231.011C1221.38 231.312 1222.28 231.612 1223.33 231.913C1223.93 229.809 1223.48 227.104 1226.49 226.804C1230.09 226.654 1229.94 229.809 1230.99 232.514C1232.95 231.011 1234.6 229.509 1236.25 228.306C1238.21 226.804 1239.71 226.804 1241.06 228.156C1242.41 229.509 1242.41 231.462 1240.61 233.265C1238.81 235.068 1236.7 236.721 1234.6 238.524C1235.35 239.125 1235.95 239.726 1236.7 240.176C1238.06 241.078 1239.56 241.829 1240.91 242.881C1242.86 244.233 1243.31 245.886 1242.41 247.388C1241.36 249.191 1239.71 249.492 1237.46 248.44C1235.2 247.388 1233.1 246.036 1230.54 244.534" fill="#293250"/>
<path fill-rule="evenodd" clip-rule="evenodd" d="M1288.39 242.43C1287.79 244.834 1287.94 247.088 1285.23 247.689C1282.68 248.14 1281.63 246.337 1280.73 244.083C1279.07 245.285 1277.72 246.337 1276.22 247.388C1273.97 249.041 1272.01 249.041 1270.81 247.388C1269.61 245.736 1269.91 243.933 1272.16 242.13C1273.82 240.777 1275.62 239.425 1277.72 237.772C1275.92 237.021 1274.72 236.57 1273.36 235.969C1271.26 234.918 1270.36 233.415 1270.96 231.762C1271.41 230.11 1273.06 229.208 1275.32 229.659C1276.82 229.959 1278.47 230.56 1280.28 231.011C1280.43 229.659 1280.43 228.607 1280.43 227.555C1280.58 225.903 1281.48 224.701 1283.28 224.55C1285.08 224.4 1286.14 225.302 1286.74 226.954C1287.19 228.307 1287.19 229.659 1287.49 231.312C1288.39 230.861 1289.14 230.56 1289.89 230.26C1290.94 229.659 1292 229.058 1293.2 228.607C1294.85 228.006 1296.2 228.607 1297.1 230.11C1298.01 231.612 1297.56 233.115 1296.35 234.166C1295.3 235.068 1294.1 235.669 1292.6 236.871C1294.25 237.622 1295.3 238.223 1296.5 238.674C1299.21 239.726 1300.11 241.228 1299.51 243.181C1298.91 245.285 1296.8 246.036 1294.1 245.135C1292.15 244.233 1290.49 243.332 1288.39 242.43" fill="#293250"/>
<path fill-rule="evenodd" clip-rule="evenodd" d="M1218.88 376.437H1109.95C1103.19 376.437 1100.93 373.583 1102.59 366.821C1104.39 359.459 1106.19 352.247 1107.84 344.885L1113.7 320.995C1115.06 315.736 1116.26 314.835 1121.67 314.684C1194.84 314.234 1268.01 313.933 1341.33 313.482H1344.19C1346.74 313.783 1348.09 315.285 1348.09 317.84C1348.09 319.042 1347.79 320.244 1347.49 321.446C1343.89 336.921 1340.13 352.548 1336.37 368.023C1336.22 368.624 1336.07 369.376 1335.77 369.977C1334.57 374.033 1333.67 374.785 1329.46 374.785C1323.3 374.935 1317.14 374.935 1310.98 374.935C1280.18 374.935 1218.88 375.987 1218.88 376.437" fill="#293250"/>
<path fill-rule="evenodd" clip-rule="evenodd" d="M1525.02 458.276H1533.44C1533.74 456.172 1533.89 454.369 1534.19 452.266H1525.92C1525.47 454.219 1525.17 456.022 1525.02 458.276M1510.6 426.573C1510.6 426.873 1510.75 427.174 1510.75 427.474C1515.41 427.174 1520.06 427.024 1524.87 426.723V419.962C1519.76 422.216 1515.1 424.469 1510.6 426.573M1536.29 432.883C1521.42 433.635 1507.14 434.236 1492.87 435.287C1491.06 448.359 1489.26 460.98 1487.46 474.052C1502.48 473.15 1517.06 472.399 1531.78 471.498C1532.08 469.244 1532.23 467.441 1532.53 465.488C1531.63 465.337 1531.18 465.037 1530.58 465.037C1528.18 465.037 1525.62 465.337 1523.22 465.187C1519.61 465.037 1518.26 463.534 1518.26 460.079C1518.26 457.524 1518.41 454.82 1518.86 452.416C1519.76 446.857 1521.72 445.354 1527.43 445.204H1534.79C1535.39 440.997 1535.69 437.241 1536.29 432.883M1531.63 426.272H1535.99C1541.55 426.122 1543.65 428.226 1543.05 433.635C1541.85 444.002 1540.65 454.219 1539.45 464.586C1539.15 467.591 1538.84 470.596 1538.39 473.601C1537.94 476.907 1536.59 478.109 1533.29 478.409C1517.51 479.311 1501.58 480.212 1485.81 480.963C1481.3 481.264 1480.1 479.912 1480.7 475.404C1482.5 461.281 1484.6 447.307 1486.56 433.184C1486.86 431.08 1487.91 429.728 1489.86 428.977C1501.58 423.718 1513.15 418.309 1524.87 412.9C1525.62 412.599 1526.37 412.149 1527.13 412.149C1530.43 411.548 1532.68 413.651 1532.53 416.957C1532.53 418.609 1532.08 420.262 1531.93 421.915C1531.78 422.967 1531.78 424.469 1531.63 426.272" fill="#293250"/>
<path fill-rule="evenodd" clip-rule="evenodd" d="M1134.37 443.1C1146.99 443.401 1159.46 443.551 1172.08 443.851C1173.14 443.851 1174.49 443.851 1175.24 444.452C1176.14 445.204 1177.34 446.556 1177.19 447.608C1177.19 448.659 1175.84 449.861 1174.79 450.462C1173.74 450.913 1172.38 450.763 1171.18 450.763C1151.65 450.312 1132.12 449.711 1112.58 449.26C1107.63 449.11 1102.82 449.11 1097.86 448.96C1096.51 448.96 1095.16 448.659 1093.8 448.209C1092.3 447.758 1091.7 446.406 1091.85 444.903C1092 443.401 1093.05 442.499 1094.55 442.199C1095.31 442.048 1096.21 442.199 1096.96 442.199C1109.43 442.499 1121.75 442.8 1134.22 442.95C1134.52 442.95 1134.52 442.95 1134.37 443.1" fill="#293250"/>
<path fill-rule="evenodd" clip-rule="evenodd" d="M1132.27 460.83H1168.33C1169.53 460.83 1170.88 460.83 1171.93 461.13C1173.44 461.431 1174.19 462.482 1174.34 464.135C1174.34 465.788 1173.44 466.84 1172.08 467.14C1171.03 467.441 1169.98 467.441 1168.78 467.441C1144.29 467.29 1119.95 466.99 1095.46 466.84C1094.55 466.84 1093.5 466.84 1092.6 466.689C1090.95 466.389 1089.9 465.337 1089.9 463.684C1089.9 461.881 1090.95 460.83 1092.6 460.529C1093.95 460.229 1095.31 460.229 1096.66 460.229H1132.27V460.83Z" fill="#293250"/>
<path fill-rule="evenodd" clip-rule="evenodd" d="M1114.09 483.668H1092C1090.65 483.668 1089.14 483.518 1088.09 482.917C1087.19 482.466 1086.44 480.963 1086.44 480.062C1086.44 479.16 1087.49 477.958 1088.39 477.357C1089.3 476.907 1090.5 476.907 1091.55 476.907C1106.87 477.057 1122.05 477.207 1137.38 477.508C1138.28 477.508 1139.48 477.508 1140.08 477.958C1140.98 478.71 1142.18 480.062 1142.18 481.114C1142.18 482.166 1140.83 483.518 1139.78 483.969C1138.58 484.57 1137.07 484.269 1135.72 484.269H1114.09V483.668Z" fill="#293250"/>
<path fill-rule="evenodd" clip-rule="evenodd" d="M1372.32 772.927C1407.93 772.626 1440.83 770.072 1473.44 763.16C1492.82 759.104 1511.9 753.695 1529.78 745.281C1538.05 741.374 1546.16 737.017 1552.92 730.706C1556.23 727.551 1559.53 724.095 1561.94 720.189C1567.19 712.226 1567.04 703.811 1561.79 695.998C1559.38 692.392 1556.38 689.087 1553.22 686.232C1547.21 680.673 1540.15 676.766 1532.94 673.16C1520.32 667 1507.24 662.643 1493.72 659.187C1459.32 650.172 1424.16 646.867 1388.7 646.266C1357.29 645.815 1325.89 648.069 1294.94 653.478C1274.66 657.084 1254.67 662.042 1235.44 669.855C1225.22 674.062 1215.31 679.02 1206.44 685.781C1201.49 689.688 1196.83 694.045 1193.82 699.604C1189.47 707.267 1189.47 715.08 1193.97 722.593C1196.38 726.349 1199.38 729.805 1202.69 732.81C1208.7 738.519 1215.91 742.426 1223.27 746.032C1237.85 753.094 1253.17 757.902 1268.8 761.658C1303.66 769.771 1338.96 772.776 1372.32 772.927M1566.59 726.65C1565.69 727.401 1565.24 727.701 1564.94 728.002C1559.23 735.064 1552.02 740.473 1544.21 745.13C1533.09 751.741 1521.22 756.7 1509.05 760.606C1475.24 771.574 1440.23 776.533 1404.77 778.636C1381.49 779.988 1358.05 779.688 1334.76 778.035C1310.87 776.232 1287.28 772.927 1263.99 767.217C1247.01 763.01 1230.48 757.601 1215.01 749.187C1206.59 744.529 1198.78 739.12 1192.32 731.908C1192.02 731.608 1191.57 731.458 1190.67 730.857V735.064C1190.52 856.616 1190.52 978.169 1190.37 1099.72C1190.37 1101.82 1190.52 1104.08 1190.82 1106.18C1191.87 1112.34 1195.33 1117.3 1199.53 1121.66C1205.84 1128.12 1213.51 1132.93 1221.62 1136.98C1236.64 1144.5 1252.42 1149.45 1268.65 1153.36C1296.44 1159.97 1324.84 1163.13 1353.39 1164.33C1393.66 1165.83 1433.62 1163.28 1473.14 1155.16C1492.52 1151.11 1511.6 1145.7 1529.63 1137.28C1538.05 1133.38 1546.16 1128.72 1553.07 1122.56C1557.28 1118.8 1561.03 1114.75 1563.29 1109.49C1564.04 1107.68 1564.64 1105.58 1564.64 1103.63C1565.24 979.521 1565.69 855.264 1566.29 731.157C1566.59 729.655 1566.59 728.453 1566.59 726.65M1572.6 906.95C1572.3 972.91 1572 1038.87 1571.7 1104.83C1571.7 1106.63 1571.25 1108.59 1570.5 1110.24C1567.35 1117.9 1561.94 1123.76 1555.63 1129.02C1544.51 1138.04 1531.59 1144.05 1518.36 1149.15C1498.83 1156.52 1478.7 1161.32 1458.26 1164.63C1426.86 1169.89 1395.31 1171.84 1363.61 1171.24C1328 1170.49 1292.84 1166.73 1258.28 1157.42C1244.61 1153.66 1231.08 1149.3 1218.46 1142.54C1212.15 1139.09 1205.99 1135.18 1200.28 1130.82C1196.68 1128.12 1193.52 1124.51 1190.67 1120.91C1185.86 1114.9 1183.91 1107.99 1183.91 1100.32C1184.06 1022.34 1184.06 944.362 1184.06 866.382C1184.06 818.002 1184.06 769.621 1184.21 721.391C1184.21 718.686 1184.21 715.982 1184.06 713.127C1183.46 705.314 1186.01 698.703 1190.52 692.543C1194.42 686.983 1199.38 682.626 1204.94 678.72C1217.26 669.855 1231.08 663.995 1245.36 659.187C1266.69 651.975 1288.48 647.468 1310.72 644.312C1337.31 640.556 1364.36 639.054 1391.4 639.504C1427.61 640.105 1463.37 644.012 1498.38 653.327C1513.56 657.384 1528.28 662.643 1542.1 670.306C1549.47 674.362 1556.23 679.17 1562.09 685.18C1567.95 691.19 1571.1 698.402 1573.2 706.366C1573.66 707.868 1573.36 709.671 1573.36 711.324C1573.05 776.533 1572.75 841.741 1572.6 906.95" fill="#293250"/>
<path fill-rule="evenodd" clip-rule="evenodd" d="M1315.67 588.373C1315.97 587.471 1316.12 587.171 1315.97 586.87C1314.47 579.358 1313.26 571.845 1311.46 564.483C1308.46 551.711 1305 539.09 1301.69 526.469C1300.64 522.262 1299.74 517.905 1298.84 513.698C1298.54 512.045 1297.34 511.595 1296.13 510.994C1288.17 506.937 1280.06 502.73 1272.09 498.673C1269.69 497.471 1267.29 496.119 1264.88 494.767C1258.27 491.01 1252.56 486.052 1248.2 479.892C1243.1 472.529 1237.99 465.017 1233.18 457.354C1225.67 445.635 1218.46 433.765 1211.09 421.895C1207.64 416.486 1204.63 410.777 1203.43 404.316C1203.28 403.715 1203.13 402.964 1203.13 402.363C1203.58 398.005 1202.83 394.249 1198.47 391.695C1196.07 390.342 1195.92 387.638 1197.72 385.234C1199.82 382.379 1202.23 379.675 1204.78 377.271C1206.59 375.618 1207.19 373.965 1206.74 371.561C1205.83 366.302 1205.23 361.044 1204.48 355.785C1204.33 354.583 1203.73 353.381 1203.43 352.329C1202.83 349.925 1203.58 348.122 1205.38 347.521C1207.19 346.92 1208.69 347.822 1209.74 350.226C1212.75 357.438 1215.75 364.65 1218.76 371.711C1225.67 388.239 1232.88 404.616 1242.95 419.491C1250.91 431.211 1258.57 443.231 1268.34 453.598C1272.24 457.655 1276.45 461.411 1280.81 464.867C1287.72 470.426 1294.93 475.534 1302.14 480.793C1304.85 482.746 1307.85 484.55 1310.71 486.353C1312.81 487.705 1314.92 488.907 1314.92 492.062C1317.92 492.513 1320.78 493.114 1323.48 493.414C1325.13 493.715 1326.79 493.865 1328.29 494.015C1338.66 494.917 1344.82 500.927 1348.87 509.942C1352.48 517.905 1354.43 526.469 1355.33 535.184C1356.39 544.8 1356.84 554.566 1358.19 564.182C1359.84 575.752 1361.79 587.321 1364.05 598.89C1366.75 612.863 1366.3 626.536 1361.94 640.209C1357.44 654.483 1348.57 664.249 1334 668.757C1321.53 672.663 1308.61 675.217 1295.83 677.922C1287.87 679.725 1279.91 681.979 1271.94 683.181C1253.76 685.885 1235.43 688.139 1216.95 686.486C1212.45 686.035 1207.94 685.885 1203.43 685.585C1197.27 685.134 1192.46 682.429 1189.16 677.171C1181.04 664.549 1172.78 651.928 1164.97 639.157C1160.31 631.494 1156.1 623.531 1151.74 615.568C1151.44 615.117 1151.29 614.516 1150.99 614.216C1145.73 609.257 1147.24 603.548 1150.24 598.59C1153.25 593.481 1157 588.673 1161.06 584.316C1166.47 578.456 1172.63 573.047 1178.19 567.337C1182.24 563.13 1186.3 558.773 1190.21 554.566C1194.72 549.758 1199.07 544.95 1203.58 540.142C1204.78 538.79 1206.13 537.738 1207.49 536.686C1215.45 530.526 1223.41 531.728 1228.82 540.142C1230.78 543.297 1232.58 546.453 1234.23 549.758C1240.84 562.83 1249.86 574.399 1257.67 586.72C1258.27 587.621 1259.02 588.373 1259.62 589.274C1260.68 590.927 1262.18 591.528 1264.13 591.378C1266.23 591.077 1268.49 591.077 1270.74 591.077C1276.15 590.927 1281.71 590.626 1287.12 590.777C1297.04 590.626 1306.35 589.424 1315.67 588.373" fill="white"/>
<path fill-rule="evenodd" clip-rule="evenodd" d="M1336.85 491.912H1335.2C1329.94 491.611 1328.14 488.606 1330.39 483.949C1331.29 481.995 1331.89 480.192 1331.29 478.089C1329.34 471.928 1327.39 465.918 1325.58 459.758C1324.68 456.453 1322.58 455.401 1319.27 454.95C1316.12 454.65 1312.81 454.049 1309.66 452.997C1303.8 450.893 1300.34 446.386 1299.44 440.226C1298.99 437.07 1298.69 433.915 1298.54 430.91L1297.64 417.838C1297.49 414.833 1298.24 412.429 1301.24 411.227C1302.9 410.626 1303.95 409.424 1304.25 407.621C1304.25 407.471 1304.25 407.321 1304.4 407.171C1308.15 397.104 1316.27 393.047 1326.94 396.353C1335.05 398.757 1340.91 404.316 1345.27 411.227C1350.83 419.942 1353.98 429.408 1355.03 439.625C1355.48 443.982 1355.78 448.339 1355.78 452.696C1355.78 459.458 1357.29 465.918 1359.69 472.229C1360.59 474.783 1361.64 477.337 1362.24 480.042C1363 482.897 1362.09 485 1359.39 486.052C1352.03 488.757 1344.67 491.461 1336.85 491.912" fill="white"/>
<path fill-rule="evenodd" clip-rule="evenodd" d="M1147.09 848.005V838.99C1147.09 836.737 1146.34 834.934 1144.23 834.032C1138.97 831.478 1137.92 827.421 1139.12 822.162C1140.33 816.904 1141.08 811.495 1142.13 806.086C1142.73 802.78 1143.48 802.78 1146.94 802.029C1152.04 800.977 1156.55 802.78 1161.36 803.982C1166.77 805.485 1172.18 806.837 1177.59 808.339C1178.64 808.64 1179.69 808.79 1180.74 809.241C1184.65 810.593 1186.3 813.147 1186.15 817.354C1186.15 817.955 1186.15 818.406 1186 819.007C1185.1 823.364 1184.05 827.872 1183.15 832.229C1182.4 835.535 1180.89 838.089 1177.59 839.291C1175.63 840.042 1174.88 841.394 1174.73 843.348C1173.98 850.109 1173.08 856.87 1172.33 863.632C1171.73 869.942 1171.28 876.403 1170.83 882.864C1170.68 885.568 1169.47 887.521 1167.22 888.874C1164.06 890.827 1161.06 892.93 1157.75 894.583C1148.89 899.391 1139.87 904.049 1131.01 908.707C1129.66 909.458 1128.31 910.209 1126.8 910.359C1125.45 910.51 1123.8 909.909 1122.75 909.157C1121.54 908.256 1121.39 906.453 1122.14 904.95C1122.75 903.748 1123.5 902.546 1124.4 901.495C1131.16 893.682 1136.72 885.117 1142.13 876.403C1143.63 873.999 1144.68 871.144 1145.13 868.44C1146.18 861.678 1146.64 854.917 1147.39 848.156C1147.39 848.156 1147.24 848.156 1147.09 848.005" fill="white"/>
<path fill-rule="evenodd" clip-rule="evenodd" d="M1108.92 819.307C1102.31 817.955 1095.85 816.753 1089.39 815.251C1083.38 813.898 1077.52 812.095 1071.66 810.443C1070.16 809.992 1068.51 809.541 1067.15 808.64C1064.75 806.987 1064.9 804.132 1067.15 802.479C1067.6 802.179 1068.05 801.878 1068.51 801.728C1079.62 796.319 1090.74 790.61 1102.61 787.004C1103.66 786.703 1104.87 785.802 1105.32 784.9C1108.02 779.641 1110.73 774.232 1113.28 768.823C1114.18 767.171 1113.73 765.668 1112.38 764.466C1110.58 762.813 1108.92 761.01 1107.12 759.358C1104.11 756.503 1103.21 752.897 1104.72 749.291C1106.52 744.783 1108.77 740.426 1111.18 736.069C1111.78 735.017 1113.58 733.965 1114.78 734.115C1118.24 734.416 1121.84 734.867 1125.15 736.069C1131.46 738.473 1137.62 741.478 1143.93 744.332C1150.99 747.638 1152.95 751.094 1150.99 758.757C1149.79 763.264 1147.99 767.772 1145.88 772.129C1143.93 776.336 1141.53 780.393 1138.97 784.149C1131.91 794.516 1124.55 804.733 1117.49 815.1C1115.23 817.504 1112.83 819.608 1108.92 819.307" fill="white"/>
<path fill-rule="evenodd" clip-rule="evenodd" d="M1341.77 549.928C1336.36 549.928 1331.1 549.778 1325.99 549.928C1318.78 550.229 1311.87 549.177 1305.11 546.623C1298.8 544.219 1297.29 541.815 1297.89 535.204C1298.5 528.442 1299.4 521.681 1301.5 515.07C1305.11 503.501 1312.02 494.185 1320.88 486.222C1322.54 484.72 1324.04 484.419 1325.99 485.621C1327.34 486.523 1329.15 487.124 1330.8 487.124C1337.26 487.725 1343.57 486.372 1349.43 483.518C1352.59 482.015 1355.74 480.362 1358.9 478.559C1362.65 476.606 1365.96 476.907 1368.96 479.912C1369.41 480.362 1369.71 480.663 1370.01 481.114C1386.84 500.646 1400.82 522.132 1409.23 546.773C1412.84 557.291 1415.09 568.109 1416.29 579.077C1417.94 595.454 1419.3 611.982 1420.65 628.359C1420.95 632.416 1419.9 633.918 1415.84 634.369C1402.47 635.872 1389.7 639.478 1376.63 642.332C1371.67 643.384 1366.41 643.234 1361.15 643.534C1359.2 643.685 1357.69 641.882 1358.29 639.928C1361.9 625.955 1357.54 612.583 1354.54 599.361C1352.59 590.646 1350.03 581.932 1347.78 573.217C1345.97 566.155 1344.32 559.244 1342.52 552.182C1342.37 551.431 1341.92 550.68 1341.77 549.928" fill="#03CEA4"/>
<path fill-rule="evenodd" clip-rule="evenodd" d="M1250.87 646.99C1246.96 649.845 1246.96 649.845 1246.96 652.099C1248.46 650.145 1249.66 648.643 1250.87 646.99V646.99ZM1240.35 657.658C1236.44 652.549 1236.59 650.446 1240.8 646.389C1243.05 644.135 1245.31 641.731 1247.71 639.027C1246.21 638.276 1245.16 637.675 1243.95 637.074C1239 643.685 1234.19 650.145 1229.38 656.606V657.057C1229.38 657.207 1229.53 657.357 1229.68 657.508C1233.14 657.658 1236.59 657.658 1240.35 657.658V657.658ZM1288.43 603.568C1281.52 604.319 1275.66 604.92 1269.65 605.671C1268.45 605.822 1267.24 606.873 1266.49 607.775C1264.24 610.329 1262.29 613.184 1260.33 615.888C1258.53 618.292 1256.73 620.546 1255.22 622.8C1261.23 624.603 1266.94 626.105 1272.5 627.758C1277.76 619.645 1282.87 611.982 1288.43 603.568V603.568ZM1145.39 875.671C1142.99 882.583 1139.08 887.541 1135.17 892.65C1131.42 897.608 1127.36 902.566 1124.05 908.426C1124.81 908.426 1125.26 908.426 1125.71 908.276C1138.78 901.815 1151.85 895.354 1164.77 888.893C1169.88 886.339 1170.33 881.681 1170.33 876.423C1166.12 878.376 1162.22 880.179 1158.61 882.132C1155.91 883.484 1153.65 883.184 1151.55 881.08C1149.9 879.277 1147.94 877.775 1145.39 875.671V875.671ZM1101.52 792.733C1089.5 797.09 1078.23 801.147 1067.11 805.054C1068.61 806.105 1069.96 806.556 1071.32 806.857C1085.29 809.411 1099.11 812.115 1113.09 814.67C1113.99 814.82 1115.19 814.82 1115.79 814.369C1118.65 811.364 1121.2 808.209 1123.75 803.852C1119.1 803.701 1115.34 803.401 1111.58 803.551C1108.13 803.701 1106.33 802.349 1105.12 799.194C1104.07 796.94 1102.57 794.686 1101.52 792.733V792.733ZM1151.4 603.718C1150.5 607.925 1151.4 610.78 1153.2 613.635C1166.12 633.618 1179.05 653.451 1191.82 673.434C1192.87 675.087 1194.07 675.838 1196.02 675.989C1203.24 676.289 1210.45 676.74 1217.66 677.04C1233.44 677.792 1249.36 678.543 1265.14 679.144C1269.05 679.294 1272.65 678.693 1276.41 677.191C1285.42 673.735 1289.33 665.621 1294.29 658.259C1292.34 656.907 1291.13 657.357 1289.93 659.01C1287.08 662.766 1284.07 666.523 1280.77 669.979C1277.01 673.885 1272.2 675.688 1266.79 675.538C1245.61 675.087 1224.42 674.336 1203.39 674.035C1198.43 673.885 1195.27 672.082 1192.72 668.025C1180.1 648.192 1167.48 628.509 1154.71 608.676C1153.5 607.324 1152.6 605.822 1151.4 603.718V603.718ZM1105.87 787.174C1107.98 790.479 1109.78 793.484 1111.58 796.64C1116.84 796.94 1122.25 797.241 1127.96 797.391C1132.47 790.179 1136.83 783.117 1141.63 775.304C1132.17 775.304 1124.2 771.398 1115.94 768.242C1112.49 774.703 1109.18 781.014 1105.87 787.174V787.174ZM1144.34 749.611C1132.77 747.808 1122.25 744.052 1113.54 735.488C1111.28 740.897 1109.18 746.005 1107.08 750.963C1106.33 752.616 1106.78 753.818 1107.98 755.02C1109.18 755.922 1110.23 756.973 1111.43 757.875C1118.04 762.533 1125.41 765.688 1133.22 767.792C1136.07 768.543 1139.08 768.543 1142.24 768.994C1143.14 762.082 1143.74 755.922 1144.34 749.611V749.611ZM1156.21 875.521C1160.57 873.568 1164.77 871.464 1169.13 869.661C1171.23 868.76 1171.98 867.558 1171.98 865.304C1172.13 858.543 1172.29 851.932 1172.44 845.17C1172.44 844.72 1172.13 844.119 1171.98 843.968C1164.17 842.466 1156.66 840.963 1148.85 839.311C1147.94 849.528 1147.19 859.144 1146.29 868.459C1149.9 871.014 1152.9 873.117 1156.21 875.521V875.521ZM1179.8 838.109C1182.05 829.695 1184 822.182 1184.31 814.069C1170.63 811.364 1157.41 808.81 1143.59 805.955C1142.69 812.416 1141.63 818.576 1140.88 824.736C1140.28 829.544 1140.28 829.695 1144.94 831.047C1150.65 832.7 1156.21 834.202 1162.07 835.254C1167.78 836.456 1173.64 837.207 1179.8 838.109V838.109ZM1310.67 589.895C1295.34 591.548 1280.47 593.351 1265.59 594.853C1263.79 595.004 1262.59 595.905 1261.53 597.257C1243.35 619.795 1225.17 642.182 1206.84 664.72C1206.24 665.321 1205.94 666.222 1205.34 667.424H1210.3C1229.23 667.875 1248.31 668.326 1267.24 668.626C1269.35 668.626 1271.6 668.025 1273.4 666.973C1277.91 664.269 1280.77 659.912 1283.92 655.705C1281.97 654.503 1280.77 655.404 1279.56 656.456C1274.76 660.062 1269.35 660.963 1263.64 659.761C1261.38 659.311 1259.73 659.611 1257.93 660.963C1255.52 662.766 1252.97 664.419 1249.81 664.419C1241.55 664.419 1233.14 664.269 1224.87 664.269C1224.27 664.269 1223.82 664.269 1223.22 664.119C1220.37 663.518 1218.86 660.963 1220.06 658.259C1220.37 657.357 1221.12 656.606 1221.57 655.855C1234.94 638.276 1248.31 620.546 1261.53 602.967C1263.34 600.563 1265.44 599.361 1268.3 599.06C1276.11 598.309 1283.77 597.408 1291.43 596.506C1293.54 596.206 1295.94 595.605 1297.44 597.858C1298.95 600.262 1297.29 602.065 1296.09 603.718C1291.58 610.63 1287.08 617.391 1282.57 624.152C1281.97 625.054 1281.67 625.955 1280.77 627.458C1293.54 625.655 1305.56 623.852 1318.03 622.049C1315.62 611.231 1313.22 600.713 1310.67 589.895V589.895ZM1257.48 591.548L1256.73 590.045C1246.96 573.968 1237.04 557.892 1227.13 541.965C1225.92 540.012 1223.97 538.059 1222.02 536.706C1217.81 533.852 1213.9 534.453 1210.3 538.059C1196.17 552.332 1182.05 566.456 1167.78 580.73C1165.22 583.284 1162.37 585.838 1159.96 588.393C1156.21 592.299 1155.76 596.807 1158.31 601.464C1159.06 602.967 1159.81 604.319 1160.72 605.671C1172.59 624.152 1184.46 642.633 1196.17 661.114C1196.78 662.015 1197.53 662.917 1198.43 664.119C1218.26 639.928 1237.94 615.888 1257.48 591.548V591.548ZM1265.59 632.716C1267.24 638.125 1266.04 639.928 1260.48 639.177C1256.28 638.576 1254.62 641.13 1252.52 643.985C1254.92 643.234 1257.03 642.332 1259.13 642.032C1260.63 641.731 1262.44 642.032 1263.94 642.483C1265.44 642.933 1266.49 644.286 1266.19 645.938C1265.89 647.591 1264.69 648.943 1263.04 648.493C1257.78 647.441 1255.97 651.347 1253.57 654.653C1254.02 654.803 1254.32 654.953 1254.47 654.803C1257.78 652.099 1261.38 652.099 1265.29 653C1269.5 654.052 1273.55 653 1276.71 649.845C1278.51 648.042 1280.47 647.441 1283.02 648.042C1289.18 649.394 1295.19 650.897 1301.5 651.948C1309.46 653.15 1317.43 654.202 1325.39 654.953C1330.2 655.404 1335.01 655.104 1339.51 653.451C1345.07 651.498 1348.98 647.741 1351.23 642.182C1354.09 634.82 1353.79 627.458 1352.29 619.945C1348.68 601.615 1344.77 583.284 1340.87 564.953C1340.11 561.498 1339.36 558.042 1338.76 554.586C1338.61 553.384 1338.31 552.032 1338.61 550.98C1338.91 549.928 1340.11 548.877 1341.02 548.576C1341.77 548.276 1343.12 548.877 1343.87 549.628C1344.62 550.379 1344.92 551.581 1345.22 552.483C1349.58 573.067 1353.94 593.651 1358.14 614.236C1359.8 622.65 1361 631.214 1359.05 639.778C1358.9 640.079 1359.05 640.529 1359.2 641.281C1361.3 641.281 1363.25 641.431 1365.21 641.281C1380.83 640.379 1396.01 637.524 1410.88 632.416C1415.09 630.913 1417.49 631.214 1418.85 636.923C1420.95 646.089 1422.6 655.404 1423.95 664.72C1424.71 670.129 1425.01 675.688 1424.41 681.097C1422.6 696.723 1413.89 707.992 1400.82 716.256C1391.2 722.416 1380.53 726.322 1369.56 729.327C1356.79 732.933 1343.57 733.384 1330.5 732.933C1316.53 732.483 1302.4 731.431 1288.43 730.079C1277.91 729.027 1267.39 727.224 1256.88 725.571C1244.41 723.618 1231.78 721.665 1219.31 719.711C1218.56 719.561 1217.66 719.561 1216.46 719.561C1208.95 749.311 1197.83 777.708 1188.21 807.007C1191.37 809.11 1191.67 812.416 1191.07 815.721C1189.71 823.534 1188.06 831.197 1186.41 839.01C1185.66 842.466 1182.95 843.668 1179.5 844.269C1179.35 847.574 1179.05 850.88 1179.05 854.035C1179.05 862.6 1178.14 871.164 1177.24 879.728C1176.34 886.64 1173.49 891.598 1167.18 895.054C1153.05 902.566 1138.93 909.928 1124.05 915.788C1122.1 916.539 1120.15 917.291 1118.19 917.591C1114.29 918.342 1112.03 915.488 1113.54 911.882C1114.14 910.379 1115.04 909.027 1116.09 907.675C1121.5 900.162 1126.76 892.499 1132.47 885.137C1136.98 879.277 1139.83 873.117 1140.28 865.755C1140.88 856.289 1141.93 846.673 1142.69 837.207C1141.03 836.456 1139.83 835.855 1138.48 835.254C1135.32 833.902 1133.82 831.347 1134.12 828.042C1134.57 823.084 1135.17 818.276 1135.77 813.468C1136.22 810.463 1136.83 807.608 1137.28 804.603C1137.58 803.401 1137.58 802.049 1138.33 801.147C1140.43 798.292 1139.98 794.987 1139.83 791.531C1139.23 792.282 1138.63 793.184 1138.03 793.935C1132.92 801.448 1127.96 808.81 1122.85 816.322C1119.85 820.68 1116.09 821.882 1110.83 820.83C1098.21 818.276 1085.29 816.172 1072.67 813.768C1069.51 813.167 1066.36 812.115 1063.35 810.913C1061.85 810.312 1060.35 809.411 1059.3 808.209C1057.04 805.955 1057.19 803.1 1059.6 800.997C1061.1 799.795 1063.05 798.893 1065.01 798.142C1073.57 794.987 1082.13 791.982 1090.85 789.127C1096.26 787.324 1100.01 784.019 1102.57 779.06C1104.97 774.252 1107.53 769.444 1110.23 764.486C1108.13 762.833 1106.17 761.331 1104.37 759.828C1100.47 756.523 1099.26 752.616 1101.22 747.808C1103.32 742.7 1105.57 737.441 1107.83 732.332C1109.18 729.177 1111.28 727.074 1115.34 728.125C1117.59 724.219 1119.7 720.463 1121.95 716.706C1135.02 694.92 1148.09 673.134 1161.32 651.498C1162.67 649.244 1164.32 647.291 1165.97 645.037C1161.32 637.675 1156.51 630.312 1151.7 622.8C1150.2 620.396 1148.55 617.992 1147.04 615.588C1144.34 611.08 1143.74 606.122 1145.24 601.014C1147.19 593.802 1150.95 587.792 1156.21 582.533C1164.02 574.72 1171.98 567.057 1179.8 559.094C1188.96 549.928 1197.98 540.463 1207.14 531.448C1210.6 527.992 1214.96 527.241 1219.76 527.992C1226.07 529.194 1230.43 532.95 1233.74 538.359C1243.05 553.685 1252.52 569.16 1261.98 584.486C1262.59 585.538 1263.34 586.439 1264.24 587.792C1279.26 586.139 1294.29 584.486 1309.76 582.683C1309.61 581.181 1309.46 579.828 1309.16 578.476C1307.36 568.259 1305.41 558.042 1303.6 547.825C1303.3 546.473 1303.15 544.97 1303.75 543.918C1304.2 542.867 1305.71 541.815 1306.76 541.815C1307.66 541.665 1308.86 542.867 1309.46 543.768C1309.91 544.519 1309.91 545.571 1310.21 546.473C1314.57 571.264 1319.08 596.206 1325.54 620.546C1325.99 622.499 1326.59 624.603 1326.74 626.556C1326.74 627.758 1325.99 629.11 1325.09 630.012C1324.04 631.064 1322.39 630.763 1321.48 629.561C1320.13 627.758 1318.33 628.209 1316.68 628.509C1303 630.463 1289.33 632.266 1275.81 634.219C1273.25 634.67 1271 634.67 1268.75 633.017C1267.39 633.317 1266.34 633.167 1265.59 632.716C1263.64 632.115 1261.68 631.514 1259.88 630.913C1257.18 630.012 1254.77 630.463 1252.37 632.716H1265.59Z" fill="#293250"/>
<path fill-rule="evenodd" clip-rule="evenodd" d="M1326.29 456.322C1325.54 454.97 1324.94 453.918 1324.49 452.866C1322.69 449.411 1321.78 445.654 1321.78 441.898C1321.93 437.391 1323.29 436.189 1327.79 436.038C1330.8 435.888 1333.05 434.536 1334.56 432.132C1336.96 428.225 1337.11 424.169 1335.31 419.962C1334.1 417.407 1332.3 415.454 1329.15 415.154C1325.84 415.003 1323.74 416.806 1322.23 419.361C1321.48 420.563 1321.18 421.915 1320.43 423.117C1319.68 424.619 1318.33 425.22 1316.68 424.77C1315.17 424.319 1314.12 422.816 1314.42 420.863C1314.57 419.511 1315.02 418.309 1315.17 417.558C1312.17 414.853 1309.46 412.299 1306.91 410.045C1304.66 411.998 1302.4 413.952 1300 416.055C1301.8 419.21 1300.9 422.816 1300.75 426.272C1300.6 429.878 1300.45 433.634 1300.6 437.24C1300.75 445.504 1305.41 450.312 1312.92 452.566C1317.13 454.219 1321.48 455.12 1326.29 456.322M1389.55 396.222C1399.16 389.911 1409.08 388.259 1419.6 390.963C1434.62 395.02 1443.79 404.786 1446.64 420.112C1449.65 435.888 1446.49 450.462 1438.38 464.135C1436.73 466.99 1434.92 469.694 1432.97 472.399C1431.47 474.502 1431.17 476.606 1431.47 479.01C1432.07 484.118 1434.17 488.626 1437.03 492.983C1439.58 497.04 1442.29 500.946 1444.54 505.154C1447.69 510.863 1449.05 517.023 1448.3 523.634C1447.24 533.25 1440.48 541.214 1431.62 542.416C1428.76 542.866 1425.76 542.115 1422.45 541.965C1422.3 543.167 1422.3 544.669 1422.15 546.022C1421.7 551.881 1419.75 557.14 1416.44 562.098C1404.27 580.128 1376.78 576.823 1366.71 558.793C1360.25 547.224 1360.1 523.484 1377.08 512.816C1377.68 512.516 1378.13 512.065 1379.03 511.464C1378.58 510.863 1378.28 510.412 1377.83 509.962C1369.86 502.9 1368.06 493.885 1370.16 483.818C1371.52 477.207 1374.67 471.347 1379.48 466.84C1383.54 462.933 1388.04 459.628 1392.25 456.022C1395.56 453.317 1399.16 451.063 1402.02 448.058C1407.13 442.8 1408.63 436.189 1406.38 429.127C1404.57 423.117 1398.11 420.112 1392.7 422.366C1391.2 422.967 1390.3 423.868 1390.45 425.671C1391.2 436.79 1386.69 445.654 1377.98 452.416C1373.32 456.022 1368.06 459.177 1363.1 462.482C1361.9 463.234 1360.55 463.985 1358.75 464.886C1359.95 467.591 1361 470.295 1362.2 472.85C1362.8 474.202 1363.85 475.404 1364.61 476.606C1366.11 479.16 1366.11 481.414 1364.31 482.466C1362.65 483.367 1360.7 482.766 1359.2 480.512C1357.39 477.658 1355.74 474.653 1354.09 471.648C1353.64 470.896 1353.34 469.995 1352.74 468.793C1351.68 469.995 1351.08 470.896 1350.18 471.798C1349.43 472.699 1348.53 473.601 1347.63 474.352C1345.37 476.005 1343.12 475.855 1342.22 473.3C1340.26 468.192 1336.21 465.337 1332.15 462.332C1330.65 461.13 1329.15 459.928 1327.19 458.426C1327.64 459.628 1327.79 460.379 1328.09 461.13C1330.95 468.192 1333.2 475.254 1333.35 482.916C1333.5 486.372 1332 488.926 1329.6 491.18C1327.79 492.683 1326.14 492.833 1324.79 491.481C1323.44 490.128 1323.29 488.325 1324.64 487.123C1327.19 484.419 1326.89 481.414 1326.14 478.259C1324.94 473.751 1323.59 469.394 1322.39 464.886C1321.93 463.083 1320.73 462.182 1318.93 461.881C1316.22 461.28 1313.67 460.679 1310.97 459.928C1299.85 456.472 1294.29 449.411 1293.39 437.841C1293.24 434.536 1293.24 431.23 1293.39 428.075C1293.69 424.619 1294.44 421.164 1292.64 417.708C1291.43 415.454 1292.49 413.2 1294.59 411.548C1295.79 410.646 1297.29 410.045 1298.35 408.993C1299.55 407.641 1300.6 405.988 1301.65 404.335C1303 402.232 1301.5 400.88 1300.75 399.077C1297.59 392.616 1298.8 386.155 1302.1 380.295C1305.56 374.135 1310.97 369.628 1318.18 369.928C1322.69 370.078 1326.44 369.027 1330.5 367.524C1337.26 364.82 1344.47 365.27 1351.53 366.773C1355.89 367.674 1360.25 369.027 1364.46 370.379C1376.17 374.436 1383.84 382.549 1388.35 394.118C1388.8 394.419 1389.25 395.02 1389.55 396.222" fill="#293250"/>
<path fill-rule="evenodd" clip-rule="evenodd" d="M1205.19 386.906C1204.29 385.554 1203.69 384.502 1202.79 383.15C1201.58 384.803 1200.83 386.155 1199.48 388.108C1201.58 387.507 1202.94 387.357 1205.19 386.906M1199.63 396.072C1198.58 395.921 1197.83 395.771 1197.23 395.621C1193.77 394.719 1192.27 392.616 1192.57 389.01C1192.87 385.404 1194.82 382.549 1196.93 379.845C1198.43 377.891 1200.68 376.239 1200.23 373.083C1200.23 372.633 1200.53 372.032 1200.98 371.581C1202.49 370.229 1202.03 368.726 1201.43 367.073C1199.33 361.214 1198.28 355.204 1198.28 349.043C1198.28 346.79 1198.43 344.386 1198.88 342.132C1199.33 339.878 1200.68 338.075 1203.09 337.774C1205.34 337.474 1207.44 338.526 1208.65 341.08C1209.25 342.132 1209.55 343.334 1210 344.536C1213.45 352.048 1216.91 359.711 1220.37 367.224C1222.32 371.581 1224.57 375.788 1226.22 380.295C1228.78 387.507 1231.93 394.419 1235.99 400.88C1246.06 417.407 1257.33 432.883 1269.35 448.058C1273.1 452.866 1277.46 457.224 1282.12 461.28C1292.49 470.596 1303.15 479.461 1314.72 487.274C1315.02 487.574 1315.47 487.724 1315.77 488.025C1317.43 489.527 1318.03 491.18 1317.13 492.683C1316.07 494.335 1314.12 494.636 1312.02 493.434C1309.46 491.931 1306.91 490.279 1304.66 488.325C1294.44 479.911 1283.77 471.948 1274.15 462.933C1267.84 457.073 1262.59 449.861 1257.18 442.95C1246.36 429.427 1237.19 415.003 1228.03 400.429C1224.57 394.719 1222.47 388.559 1220.06 382.549C1218.41 378.192 1216.31 374.135 1214.36 369.928C1211.95 364.82 1209.4 359.561 1206.84 354.452C1206.54 353.851 1206.09 353.401 1205.34 352.048C1205.79 359.11 1207.74 364.97 1210.15 370.679C1210.45 371.431 1211.35 372.182 1212.1 372.783C1213.15 373.835 1214.36 374.736 1215.41 375.788C1216.91 377.14 1217.66 378.643 1216.46 380.446C1215.26 382.249 1213.6 382.399 1211.8 381.347C1211.5 381.197 1211.05 381.047 1210 380.596C1210.75 381.948 1211.2 382.85 1211.8 383.601C1212.55 384.653 1213.45 385.404 1214.05 386.456C1215.86 389.31 1214.66 391.714 1211.35 391.714C1209.55 391.714 1208.65 392.466 1207.89 393.818C1206.09 397.274 1205.79 400.429 1208.04 404.185C1214.51 415.304 1220.52 426.572 1226.83 437.841C1230.58 444.603 1234.34 451.514 1238.24 458.275C1243.95 468.342 1250.26 477.808 1258.68 485.771C1266.04 492.833 1274.61 498.242 1283.32 503.35C1289.03 506.806 1295.04 509.811 1300.9 512.966C1301.2 513.117 1301.65 513.267 1301.95 513.417C1304.05 514.619 1304.66 516.122 1304.05 517.774C1303.3 519.577 1301.65 520.178 1299.25 519.427C1298.35 519.127 1297.44 518.676 1296.69 518.225C1284.22 511.764 1272.05 504.703 1260.78 496.138C1254.02 491.03 1248.31 484.719 1243.2 477.958C1235.84 468.192 1230.28 457.374 1224.42 446.856C1217.51 434.536 1210.75 422.215 1203.99 409.895C1203.84 409.594 1203.69 409.143 1203.39 408.843C1199.63 405.537 1198.73 401.18 1199.63 396.072" fill="#293250"/>
<path fill-rule="evenodd" clip-rule="evenodd" d="M1191.97 571.264C1190.32 571.264 1188.81 569.761 1188.81 568.108C1188.81 566.456 1190.16 564.953 1191.82 564.953C1193.47 564.953 1194.97 566.305 1194.97 567.958C1195.12 569.761 1193.62 571.264 1191.97 571.264" fill="#293250"/>
<path fill-rule="evenodd" clip-rule="evenodd" d="M1310.37 440.396C1306.01 440.396 1302.7 437.992 1301.65 434.536C1301.05 432.583 1301.65 430.629 1303.15 430.028C1304.96 429.277 1306.46 429.728 1307.36 431.381C1308.56 433.634 1310.21 434.085 1312.47 433.334C1312.77 433.184 1313.07 433.184 1313.22 433.184C1316.23 432.583 1317.73 433.184 1318.33 435.137C1318.93 437.24 1317.73 438.893 1314.87 439.795C1313.97 440.095 1313.07 440.245 1312.17 440.396H1310.37Z" fill="#293250"/>
<path fill-rule="evenodd" clip-rule="evenodd" d="M648.578 277.953C649.179 288.02 649.329 298.086 650.231 308.153C650.681 312.661 648.878 315.365 645.423 317.168C633.553 323.028 621.533 325.131 608.761 319.722C603.653 317.619 598.394 315.666 592.985 314.163C585.172 312.06 577.81 313.863 571.049 318.07C565.94 321.225 562.484 319.873 561.583 313.863C559.479 301.542 557.676 289.071 555.723 276.601C555.272 274.046 554.972 271.492 554.371 268.938C553.469 264.13 554.371 262.177 558.878 260.223C568.194 256.167 577.66 256.167 587.276 258.871C591.332 260.073 595.239 261.576 599.296 262.778C612.067 266.834 624.087 264.731 635.206 257.369C636.858 256.317 638.361 255.115 639.863 254.063C641.666 252.711 643.319 251.659 645.723 253.011C648.277 254.364 649.029 256.317 648.878 259.021C648.728 265.332 648.878 271.642 648.878 277.803C648.878 277.953 648.728 277.953 648.578 277.953" fill="#293250"/>
<path fill-rule="evenodd" clip-rule="evenodd" d="M1030.35 211.979C1030.35 199.207 1040.72 189.14 1053.49 189.291C1064.91 189.441 1075.88 198.155 1076.18 212.129C1076.33 224.6 1065.81 235.117 1053.19 235.117C1040.42 235.117 1030.2 224.75 1030.35 211.979" fill="#293250"/>
<path fill-rule="evenodd" clip-rule="evenodd" d="M979.568 164.8C979.868 153.231 988.883 142.563 1002.11 143.014C1014.88 143.465 1024.04 151.728 1024.19 165.551C1024.34 178.022 1013.82 187.939 1001.65 187.788C989.184 187.338 979.417 177.121 979.568 164.8" fill="#293250"/>
<path fill-rule="evenodd" clip-rule="evenodd" d="M708.227 315.816C719.646 315.816 728.661 324.981 728.661 336.4C728.511 347.519 719.496 356.684 708.227 356.684C696.959 356.684 687.493 347.218 687.643 335.949C687.944 324.831 697.109 315.816 708.227 315.816" fill="#293250"/>
<path fill-rule="evenodd" clip-rule="evenodd" d="M1156.56 973.267C1162.12 973.868 1168.88 974.619 1175.79 975.22C1178.35 975.521 1180.9 975.521 1183.61 975.671C1188.86 975.821 1193.82 974.619 1198.48 971.915C1201.18 970.262 1203.89 968.76 1206.44 966.957C1207.8 966.055 1208.85 964.853 1209.75 963.501C1211.4 961.397 1212.75 960.947 1214.86 962.449C1216.51 963.651 1218.16 964.703 1218.46 967.107C1220.27 983.184 1225.38 998.509 1228.38 1014.29C1228.68 1016.09 1228.83 1017.89 1229.58 1019.39C1231.23 1022.55 1230.18 1024.95 1228.23 1027.51C1224.62 1032.17 1220.57 1036.37 1215.76 1039.83C1207.5 1045.69 1198.33 1048.09 1188.26 1047.34C1185.41 1047.19 1182.55 1046.89 1179.7 1046.44C1164.52 1044.34 1150.4 1047.64 1137.03 1054.7C1136.43 1055 1135.83 1055.45 1135.22 1055.75C1131.62 1057.56 1129.21 1056.81 1127.71 1053.05C1121.7 1038.33 1115.24 1023.9 1111.03 1008.58C1110.43 1006.17 1109.53 1003.92 1108.48 1001.66C1107.58 999.561 1108.33 997.908 1109.53 996.406C1113.14 991.598 1117.19 987.541 1122.15 984.235C1132.22 977.624 1143.04 973.267 1156.56 973.267" fill="#293250"/>
<path fill-rule="evenodd" clip-rule="evenodd" d="M1103.82 1074.69C1103.97 1088.81 1092.55 1100.23 1078.58 1100.38C1064.46 1100.38 1053.04 1089.11 1052.89 1074.99C1052.89 1061.16 1064.31 1049.29 1077.83 1049.44C1094.21 1049.59 1103.67 1061.61 1103.82 1074.69" fill="#293250"/>
<path fill-rule="evenodd" clip-rule="evenodd" d="M1622.04 614.188C1607.76 614.188 1596.19 602.769 1596.19 588.495C1596.19 574.071 1607.91 562.351 1622.19 562.501C1636.31 562.652 1647.88 574.371 1647.88 588.495C1647.88 602.618 1636.31 614.037 1622.04 614.188" fill="#293250"/>
<path fill-rule="evenodd" clip-rule="evenodd" d="M605.141 277.334C606.343 278.085 607.696 278.386 608.146 279.137C608.747 280.189 609.198 281.541 609.198 282.743C609.048 284.246 607.545 284.696 606.043 284.696H601.986C601.836 284.696 601.836 284.847 601.385 285.147C601.986 285.598 602.437 286.199 603.038 286.499C603.789 286.95 604.54 287.251 605.141 287.701C611.151 291.307 611.452 295.364 606.043 299.872V304.379C605.893 306.633 604.841 307.985 603.038 308.286C601.385 308.436 599.732 307.234 599.432 305.13C599.131 302.576 598.831 300.172 597.028 298.069C595.676 296.566 597.028 294.763 600.333 293.11C599.131 292.359 598.08 291.908 597.178 291.157C592.971 288.453 592.22 284.095 595.826 280.489C597.328 278.987 598.08 277.635 598.23 275.531C598.38 272.977 599.582 271.474 601.385 271.625C603.489 271.775 604.39 273.277 604.691 275.08C604.991 275.832 605.141 276.583 605.141 277.334" fill="white"/>
<path fill-rule="evenodd" clip-rule="evenodd" d="M442.27 303.778C443.021 302.877 443.472 301.675 444.223 301.374C445.275 301.074 446.627 301.224 447.679 301.524C448.43 301.825 449.031 302.877 449.482 303.628C453.539 309.338 457.445 315.047 461.502 320.757C463.606 323.762 465.859 326.616 468.113 329.621C469.465 331.424 469.616 333.077 468.414 334.429C467.212 335.782 465.258 335.932 463.606 334.58C462.404 333.678 461.502 332.476 460.601 331.274L443.923 307.384C443.322 306.333 442.871 305.131 442.27 303.778" fill="#293250"/>
<path fill-rule="evenodd" clip-rule="evenodd" d="M471.719 289.354C472.32 289.805 473.522 290.556 474.123 291.608C475.626 294.012 476.677 296.716 478.03 299.271C481.485 305.581 485.091 311.892 488.547 318.202C489.749 320.306 489.749 321.808 488.397 323.01C486.894 324.362 485.091 324.212 483.439 322.409C482.086 320.907 480.884 319.254 479.983 317.451C476.076 310.239 472.47 302.877 468.714 295.665C468.263 294.763 467.963 293.862 467.813 292.96C467.662 290.857 469.165 289.354 471.719 289.354" fill="#293250"/>
<path fill-rule="evenodd" clip-rule="evenodd" d="M496.811 284.396C499.666 284.546 500.567 285.899 501.018 287.702L503.272 297.167C504.323 301.525 505.525 305.882 506.727 310.239C507.328 312.643 506.878 314.446 505.075 315.047C503.272 315.648 501.619 314.747 500.567 312.643C500.116 311.742 499.816 310.84 499.666 309.939C498.013 303.328 496.36 296.717 494.858 290.106C494.557 289.054 494.407 287.852 494.707 286.95C495.158 285.748 496.21 284.997 496.811 284.396" fill="#293250"/>
<path fill-rule="evenodd" clip-rule="evenodd" d="M710.918 338.787C708.213 338.486 705.509 338.336 702.804 337.885C700.55 337.585 699.348 336.082 699.499 334.429C699.649 332.777 701.151 331.274 703.255 331.424C706.861 331.575 710.617 331.875 714.223 332.326C716.327 332.626 717.529 334.279 717.228 335.932C716.928 337.585 715.575 338.636 713.322 338.636C712.57 338.937 711.669 338.787 710.918 338.787" fill="white"/>
<path fill-rule="evenodd" clip-rule="evenodd" d="M1175.14 1018.23C1173.94 1017.78 1172.74 1017.18 1171.54 1016.73C1170.19 1016.13 1168.68 1015.68 1167.33 1015.08C1161.92 1012.37 1160.72 1007.87 1164.02 1002.91C1165.38 1000.96 1166.13 999.303 1165.38 996.899C1164.63 994.194 1165.53 992.391 1167.48 991.79C1169.28 991.189 1170.49 992.091 1171.84 995.096C1171.99 995.546 1172.14 995.847 1172.44 996.298C1173.79 996.448 1175.29 996.298 1176.8 996.598C1178.75 997.049 1179.95 998.702 1179.8 1000.35C1179.5 1002.31 1178.3 1003.06 1176.35 1003.06C1173.04 1003.06 1170.64 1004.41 1168.98 1007.87C1170.64 1008.62 1172.14 1009.37 1173.64 1010.12C1175.44 1011.02 1177.55 1011.62 1179.2 1012.67C1185.36 1016.58 1185.36 1021.84 1179.2 1025.9C1179.35 1027.1 1179.65 1028.45 1179.8 1029.8C1179.95 1031.46 1179.35 1032.81 1177.55 1033.26C1175.74 1033.71 1174.24 1032.96 1173.64 1031.31C1173.04 1029.65 1172.59 1028 1171.99 1026.2C1171.24 1025.9 1170.49 1025.75 1169.73 1025.45C1167.63 1024.54 1166.73 1023.19 1167.18 1021.39C1167.63 1019.44 1169.13 1018.99 1170.94 1018.99C1172.29 1018.99 1173.64 1019.14 1174.99 1019.14C1174.99 1018.99 1174.99 1018.68 1175.14 1018.23" fill="white"/>
<path fill-rule="evenodd" clip-rule="evenodd" d="M1073.42 1080.89C1070.57 1081.04 1069.07 1079.99 1068.62 1078.33C1068.17 1076.38 1069.22 1075.03 1071.77 1074.43C1075.23 1073.53 1078.53 1072.63 1081.99 1071.87C1083.04 1071.57 1084.39 1071.27 1085.14 1071.72C1086.2 1072.32 1087.25 1073.38 1087.7 1074.58C1088.15 1075.93 1087.25 1077.28 1085.74 1077.73C1081.54 1078.79 1077.18 1079.84 1073.42 1080.89" fill="white"/>
<path fill-rule="evenodd" clip-rule="evenodd" d="M997.423 172.505C994.718 172.355 993.366 170.101 994.268 167.997C994.718 167.246 995.319 166.345 996.071 165.894C999.376 163.64 1002.68 161.537 1005.99 159.283C1006.14 159.283 1006.29 159.133 1006.29 159.133C1008.39 158.231 1010.04 158.532 1010.95 160.034C1011.85 161.537 1011.55 163.34 1009.74 164.692C1008.09 165.894 1006.44 166.946 1004.63 168.148C1002.98 169.35 1001.18 170.401 999.526 171.453C998.925 172.054 997.874 172.355 997.423 172.505" fill="white"/>
<path fill-rule="evenodd" clip-rule="evenodd" d="M886.612 1121.48H601.437C599.634 1121.48 597.831 1121.48 596.178 1121.33C594.525 1121.18 593.323 1120.13 593.323 1118.48C593.173 1116.67 594.225 1115.62 595.877 1115.32C597.53 1115.02 599.183 1115.02 600.685 1115.02C647.564 1115.02 694.442 1114.87 741.17 1114.87C884.508 1114.87 1028 1114.72 1171.34 1114.72H1175.84C1178.1 1114.87 1179.45 1116.07 1179.6 1117.72C1179.75 1119.53 1178.25 1121.03 1175.84 1121.18C1174.49 1121.33 1173.14 1121.18 1171.79 1121.18H886.612V1121.48Z" fill="#293250"/>
<path fill-rule="evenodd" clip-rule="evenodd" d="M1620.13 987.908C1622.39 992.716 1626.14 997.374 1629.75 1000.08C1632.61 1002.18 1635.76 1003.38 1639.22 1003.08C1647.93 1002.48 1651.99 993.918 1647.18 986.706C1643.72 981.598 1637.41 979.194 1631.4 980.546C1626.9 981.748 1623.14 984.453 1620.13 987.908M1615.48 994.219C1611.27 1000.53 1609.77 1007.14 1609.77 1014.05C1609.62 1029.68 1612.77 1044.7 1619.98 1058.68C1623.29 1064.99 1628.1 1070.25 1633.81 1074.6C1634.56 1075.2 1635.61 1075.65 1635.91 1076.41C1636.36 1077.46 1636.66 1079.11 1636.06 1079.71C1635.46 1080.61 1633.66 1081.36 1632.76 1081.21C1630.95 1080.76 1629.3 1079.56 1627.95 1078.36C1620.28 1071.9 1614.42 1064.09 1610.82 1054.77C1606.16 1042.9 1603.46 1030.43 1603.16 1017.66C1602.86 1006.99 1605.11 997.074 1611.27 988.209C1611.57 987.908 1611.57 987.458 1611.87 987.007C1608.41 979.795 1605.71 972.282 1604.51 964.169C1603.16 955.454 1603.31 946.74 1604.36 938.025C1605.86 925.254 1607.66 912.633 1609.17 899.862C1609.62 896.256 1609.47 892.499 1609.62 888.743C1609.62 887.992 1609.62 887.09 1609.77 886.339C1610.07 884.085 1611.42 882.883 1613.07 882.883C1614.88 882.883 1616.23 884.236 1616.23 886.489C1616.23 891.297 1616.38 896.105 1615.78 900.763C1614.58 911.431 1613.07 922.099 1611.72 932.917C1610.22 944.636 1609.32 956.356 1612.17 967.925C1613.22 972.433 1614.73 976.79 1616.83 981.297C1618.63 979.945 1620.13 978.893 1621.64 977.842C1631.4 971.231 1643.12 971.982 1650.79 980.095C1652.74 982.199 1654.39 984.903 1655.44 987.758C1657.55 993.768 1656.65 999.478 1652.14 1004.14C1647.18 1009.09 1641.17 1010.75 1634.41 1009.24C1628.85 1008.04 1624.49 1004.74 1620.89 1000.53C1618.78 998.576 1617.28 996.473 1615.48 994.219" fill="#293250"/>
<mask id="mask0_0_175" style="mask-type:alpha" maskUnits="userSpaceOnUse" x="280" y="1111" width="198" height="8">
<path fill-rule="evenodd" clip-rule="evenodd" d="M280 1111.81H477.379V1118.76H280V1111.81Z" fill="white"/>
</mask>
<g mask="url(#mask0_0_175)">
<path fill-rule="evenodd" clip-rule="evenodd" d="M378.652 1118.58H287.299C285.647 1118.58 283.844 1118.73 282.491 1118.12C281.44 1117.67 280.388 1116.32 280.087 1115.27C279.637 1113.62 280.989 1112.42 282.642 1112.11C284.294 1111.81 285.947 1111.81 287.6 1111.81C333.426 1111.81 379.403 1111.96 425.229 1112.11H470.755C471.957 1112.11 473.159 1112.11 474.361 1112.27C476.315 1112.57 477.517 1113.92 477.366 1115.57C477.216 1117.37 476.164 1118.43 474.512 1118.58C473.009 1118.88 471.507 1118.73 470.004 1118.73H378.652V1118.58Z" fill="#293250"/>
</g>
<path fill-rule="evenodd" clip-rule="evenodd" d="M1468.23 799.945C1467.63 799.945 1467.18 799.945 1466.58 799.795C1464.78 799.494 1463.57 798.443 1463.57 796.489C1463.57 794.536 1464.93 793.635 1466.73 793.334C1469.58 792.883 1472.44 792.583 1475.29 792.132C1490.47 789.277 1505.19 784.62 1518.72 777.107C1521.27 775.755 1523.82 774.553 1526.38 773.351C1528.78 772.299 1530.59 772.9 1531.34 774.553C1532.24 776.206 1531.49 778.009 1529.38 779.211C1510.9 789.277 1491.67 796.79 1470.64 799.645C1469.88 799.795 1468.98 799.795 1468.23 799.945" fill="#293250"/>
<path fill-rule="evenodd" clip-rule="evenodd" d="M1613.37 854.786C1613.37 852.082 1611.72 849.377 1609.62 848.476C1607.66 847.725 1605.71 848.175 1604.36 849.678C1602.71 851.631 1602.4 854.486 1603.61 857.04C1603.61 857.19 1603.76 857.341 1603.76 857.341C1605.11 859.594 1607.51 860.796 1609.47 860.195C1611.72 859.594 1613.22 857.341 1613.37 854.786M1596.24 854.035C1596.24 847.124 1600.6 842.015 1607.06 841.564C1613.52 841.114 1619.23 846.222 1619.98 853.134C1620.89 860.496 1615.78 866.806 1609.02 867.107C1602.25 867.407 1596.24 861.247 1596.24 854.035" fill="#293250"/>
<path fill-rule="evenodd" clip-rule="evenodd" d="M1596.85 1121.93H1591.59C1589.33 1121.78 1587.98 1120.73 1587.83 1118.93C1587.68 1116.97 1589.03 1115.62 1591.44 1115.32H1592.19C1601.5 1114.42 1610.82 1113.67 1620.28 1112.77C1621.19 1112.62 1622.24 1112.47 1623.14 1112.62C1625.24 1112.77 1626.6 1114.12 1626.6 1115.92C1626.6 1117.72 1625.39 1119.23 1623.29 1119.38C1617.43 1119.98 1611.72 1120.58 1605.86 1121.03C1602.56 1121.48 1599.25 1121.78 1596.85 1121.93" fill="#293250"/>
<path fill-rule="evenodd" clip-rule="evenodd" d="M1474.09 599.511C1473.64 602.065 1472.14 603.868 1470.18 603.868C1468.38 603.868 1466.88 602.366 1466.73 599.962C1466.13 592.9 1465.38 585.838 1462.97 579.077C1462.22 577.124 1463.12 575.17 1464.78 574.72C1466.58 574.119 1467.93 574.87 1468.83 576.523C1469.28 577.274 1469.73 578.025 1469.88 578.776C1471.39 585.688 1472.74 592.6 1474.09 599.511" fill="#293250"/>
<path fill-rule="evenodd" clip-rule="evenodd" d="M1488.82 590.947C1488.82 592.75 1488.97 594.553 1488.82 596.205C1488.67 598.459 1487.46 599.811 1485.66 599.811C1483.86 599.962 1482.35 598.459 1482.2 596.055C1482.05 593.801 1482.2 591.397 1482.05 589.144C1481.6 585.087 1481 581.03 1480.4 576.973C1480.1 574.269 1480.7 572.916 1482.51 572.315C1484.31 571.714 1486.26 572.916 1486.86 575.471C1487.91 580.579 1488.52 585.688 1489.27 590.796C1489.12 590.947 1488.97 590.947 1488.82 590.947" fill="#293250"/>
<path fill-rule="evenodd" clip-rule="evenodd" d="M1496.63 808.96C1495.73 808.96 1495.13 808.96 1494.68 808.81C1493.02 808.359 1491.97 807.458 1491.97 805.655C1491.97 803.852 1492.87 802.65 1494.53 802.499C1500.54 801.748 1505.79 798.593 1511.5 796.489C1512.25 796.189 1513.01 795.888 1513.76 795.738C1515.56 795.287 1517.06 795.588 1517.81 797.541C1518.57 799.344 1517.81 800.696 1516.16 801.748C1515.86 801.898 1515.41 802.199 1515.11 802.349C1510.45 804.302 1505.79 806.256 1501.14 808.059C1499.48 808.509 1497.83 808.66 1496.63 808.96" fill="#293250"/>
<path fill-rule="evenodd" clip-rule="evenodd" d="M1613.97 596.656C1613.37 596.055 1612.02 595.454 1611.57 594.402C1611.27 593.501 1611.87 592.149 1612.32 591.097C1612.62 590.496 1613.37 590.195 1613.97 589.895C1618.78 587.341 1623.59 584.636 1628.4 582.082C1629.45 581.481 1630.65 580.73 1631.7 580.88C1632.91 581.03 1634.11 581.932 1634.86 582.833C1635.76 584.035 1635.31 585.688 1634.11 586.439C1628.1 589.895 1621.94 593.05 1615.78 596.205C1615.48 596.656 1615.03 596.506 1613.97 596.656" fill="white"/>
<path fill-rule="evenodd" clip-rule="evenodd" d="M1050.01 209.166C1052.72 209.617 1055.42 209.918 1058.12 210.368C1059.03 210.519 1060.08 210.819 1060.83 211.27C1062.18 212.021 1062.78 213.223 1062.33 214.726C1061.88 216.378 1060.53 217.13 1058.88 216.979C1055.12 216.679 1051.21 216.228 1047.46 215.627C1045.35 215.327 1044 213.674 1044.15 212.021C1044.3 210.218 1045.8 209.166 1048.36 209.016C1048.96 209.016 1049.41 209.166 1050.01 209.166" fill="white"/>
<path fill-rule="evenodd" clip-rule="evenodd" d="M1719.12 201.543C1718.97 201.994 1718.82 203.046 1718.52 204.097C1701.84 269.607 1685.31 334.965 1668.63 400.475C1658.11 441.794 1647.6 483.263 1637.08 524.581C1636.78 525.934 1636.48 527.286 1635.88 528.488C1635.13 529.991 1633.77 530.742 1632.12 530.291C1630.47 529.84 1629.72 528.488 1629.87 526.835C1630.02 525.483 1630.32 524.131 1630.62 522.778C1642.94 473.947 1655.41 425.266 1667.73 376.435C1682.31 318.889 1696.88 261.493 1711.6 203.947C1711.9 202.445 1712.21 200.942 1712.81 199.59C1713.41 197.937 1714.61 196.735 1716.56 197.186C1718.52 197.637 1719.27 199.139 1719.12 201.543" fill="#293250"/>
</svg>
