<svg width="2000" height="1300" viewBox="0 0 2000 1300" fill="none" xmlns="http://www.w3.org/2000/svg">
<rect width="2000" height="1300" rx="80" fill="#F6F6F7"/>
<path fill-rule="evenodd" clip-rule="evenodd" d="M1175.9 1156.93C1175.27 1150.14 1174.64 1144.14 1174.01 1138.3C1171.8 1117.15 1169.59 1096.15 1167.38 1075C1165.48 1057.48 1163.75 1039.95 1161.85 1022.43C1159.64 1001.59 1157.43 980.754 1155.38 959.915C1153.49 942.234 1151.75 924.553 1149.85 906.872C1147.96 888.56 1146.07 870.405 1144.17 852.093C1142.28 834.57 1140.54 817.047 1138.65 799.523L1132.96 745.533C1131.07 727.694 1129.33 709.856 1127.44 692.017C1125.23 670.863 1123.02 649.866 1120.81 628.712C1118.91 611.189 1117.18 593.666 1115.28 576.143C1113.07 555.305 1110.86 534.466 1108.81 513.628C1106.91 495.947 1105.18 478.266 1103.28 460.585C1101.07 439.905 1098.86 419.224 1096.81 398.544C1094.92 380.705 1093.18 362.866 1091.29 345.027C1089.08 323.873 1086.87 302.877 1084.66 281.723C1082.92 265.936 1081.34 249.992 1079.6 234.205C1078.03 219.839 1070.92 208.473 1059.08 200.422C1054.82 197.58 1050.08 195.37 1045.35 193.318C1035.88 189.529 1025.93 188.898 1015.83 188.74C933.104 188.582 850.225 188.266 767.503 187.951C657.786 187.635 547.911 187.319 438.194 187.003C425.723 187.003 415.146 190.95 405.99 199.001C395.728 207.842 388.782 218.892 385.625 232.153C384.52 237.047 383.257 242.099 383.573 246.992C384.204 258.043 385.941 268.936 387.046 279.986C389.256 299.562 391.308 318.979 393.36 338.555C395.255 355.288 396.991 371.864 398.886 388.598C401.096 408.174 403.148 427.591 405.358 447.167C407.568 466.742 409.621 486.317 411.673 505.735C414.041 527.836 416.567 549.937 419.092 572.039L427.144 646.393C429.827 671.178 432.669 695.963 435.353 720.748L443.404 795.103C446.719 825.098 450.034 854.934 453.349 884.929C456.665 915.081 459.822 945.076 463.137 975.228C466.768 1007.91 470.399 1040.58 474.03 1073.11C477.029 1100.57 480.029 1128.2 483.028 1155.67C483.344 1158.67 483.818 1161.51 484.291 1164.83C714.776 1162.3 945.102 1159.62 1175.9 1156.93M831.123 1167.98C740.192 1169.09 649.103 1170.19 558.172 1171.14C535.124 1171.46 511.918 1171.61 488.869 1171.93H484.923C479.871 1171.77 477.503 1169.72 476.871 1164.83C475.609 1153.62 474.503 1142.25 473.241 1131.04C471.03 1111.31 468.82 1091.73 466.768 1072C464.874 1055.11 463.137 1038.37 461.243 1021.48C459.033 1001.75 456.98 982.174 454.77 962.441C452.876 945.549 451.139 928.816 449.245 911.924C447.035 892.033 444.825 872.3 442.772 852.409C440.878 835.675 439.141 819.099 437.247 802.365C435.037 782.474 432.827 762.425 430.617 742.534C428.407 722.958 426.354 703.383 424.144 683.966C421.934 664.232 419.724 644.657 417.672 624.924C415.462 605.506 413.409 586.089 411.357 566.671C409.147 546.78 406.937 527.047 404.727 507.156C402.832 490.58 401.096 474.004 399.359 457.586C397.149 437.537 394.939 417.33 392.729 397.281C390.519 377.705 388.466 358.13 386.414 338.713C384.204 318.979 381.994 299.404 379.942 279.671C378.837 268.936 377.258 258.359 376.469 247.624C375.995 240.52 377.258 233.416 379.626 226.47C384.836 210.683 393.834 197.738 407.726 188.424C416.724 182.425 426.512 179.426 437.405 179.579C628.581 180.215 819.756 180.689 1010.93 181.162C1020.25 181.162 1029.72 181.162 1038.72 183.53C1044.08 184.951 1049.61 186.53 1054.5 189.056C1074.39 198.685 1085.44 214.63 1087.5 236.889C1089.87 261.516 1092.55 285.985 1095.07 310.455C1097.76 336.502 1100.44 362.708 1103.13 388.756C1105.81 414.804 1108.65 441.01 1111.33 467.058C1113.55 487.58 1115.6 508.103 1117.65 528.625C1119.86 549.306 1122.07 569.986 1124.12 590.667C1126.02 608.348 1127.75 626.029 1129.65 643.71C1131.86 664.548 1134.07 685.386 1136.12 706.225C1138.01 723.906 1139.75 741.587 1141.65 759.268C1143.86 780.106 1146.07 800.944 1148.12 821.783C1150.01 839.306 1151.75 856.829 1153.64 874.352C1155.85 895.506 1158.06 916.66 1160.27 937.656C1162.17 955.337 1163.9 973.018 1165.8 990.699C1168.01 1011.54 1170.22 1032.38 1172.27 1053.21C1174.01 1070.26 1175.9 1087.47 1177.64 1104.52C1179.53 1122.2 1181.27 1139.88 1183.16 1157.56C1183.64 1162.14 1182.69 1163.25 1178.11 1163.4C1176.22 1163.56 1174.32 1163.4 1172.59 1163.56C1104.86 1164.35 1037.14 1164.98 969.413 1165.77C923.317 1166.88 877.22 1167.51 831.123 1167.98" fill="#293250"/>
<mask id="mask0_0_169" style="mask-type:alpha" maskUnits="userSpaceOnUse" x="1523" y="1162" width="194" height="8">
<path fill-rule="evenodd" clip-rule="evenodd" d="M1523.27 1162.02H1716.43V1169.27H1523.27V1162.02Z" fill="white"/>
</mask>
<g mask="url(#mask0_0_169)">
<path fill-rule="evenodd" clip-rule="evenodd" d="M1620.3 1162.14H1708.86C1710.44 1162.14 1712.02 1162.14 1713.59 1162.46C1715.33 1162.77 1716.44 1163.88 1716.44 1165.61C1716.44 1167.35 1715.33 1168.61 1713.59 1168.93C1711.86 1169.25 1710.12 1169.25 1708.54 1169.25H1554.94H1529.21C1528.1 1169.25 1526.68 1169.4 1525.89 1168.93C1524.79 1168.3 1523.52 1167.04 1523.37 1165.93C1522.89 1164.19 1524.15 1162.93 1525.89 1162.46C1527.15 1162.14 1528.42 1162.14 1529.68 1162.14C1559.83 1161.98 1590.14 1161.98 1620.3 1162.14C1620.3 1161.98 1620.3 1161.98 1620.3 1162.14" fill="#293250"/>
</g>
<path fill-rule="evenodd" clip-rule="evenodd" d="M369.68 1162.46C396.36 1162.77 423.039 1163.25 449.718 1163.56C450.981 1163.56 452.402 1163.56 453.507 1163.72C455.559 1164.19 456.665 1165.61 456.349 1167.35C456.191 1169.09 455.086 1170.19 453.191 1170.35C452.086 1170.51 450.823 1170.51 449.718 1170.51C396.833 1169.72 343.948 1169.09 291.063 1168.3C289.484 1168.3 287.906 1168.14 286.327 1167.98C284.433 1167.82 283.012 1166.72 283.012 1164.67C282.854 1162.77 284.275 1161.35 286.643 1161.19C288.064 1161.04 289.484 1161.04 290.905 1161.19C317.111 1161.51 343.317 1161.98 369.68 1162.46" fill="#293250"/>
<path fill-rule="evenodd" clip-rule="evenodd" d="M1252.62 1158.98L1286.25 1159.93C1287.2 1159.93 1288.3 1159.93 1289.25 1160.09C1291.62 1160.41 1292.88 1161.83 1292.72 1163.72C1292.57 1165.62 1291.3 1166.72 1288.93 1167.04H1287.2C1264.15 1166.4 1240.94 1165.77 1217.89 1165.14C1214.26 1164.98 1212.37 1163.88 1212.37 1161.67C1212.37 1159.3 1214.26 1158.04 1218.21 1158.2C1229.58 1158.35 1241.1 1158.67 1252.62 1158.98" fill="#293250"/>
<path fill-rule="evenodd" clip-rule="evenodd" d="M800.339 698.805C891.112 697.226 981.411 695.49 1072.18 693.911C1070.13 678.125 1068.08 662.969 1066.03 647.499C975.57 647.972 885.744 648.446 795.287 649.077C797.024 665.653 798.602 681.913 800.339 698.805M1065.08 640.395C1054.03 556.568 1043.14 473.53 1032.24 390.493C1031.45 390.177 1030.98 390.019 1030.67 390.019C944.629 389.703 858.434 389.388 772.397 389.072C771.607 389.072 770.976 389.23 770.187 389.23C770.029 389.23 770.029 389.388 769.871 389.546L769.239 390.177C777.606 473.846 785.973 557.673 794.498 641.815C884.797 641.5 974.623 640.868 1065.08 640.395M935.788 703.383C890.638 704.173 845.331 704.962 800.181 705.909C794.814 706.067 794.024 705.278 793.393 699.91C791.972 687.281 790.867 674.494 789.446 661.864C787.552 642.763 785.657 623.661 783.605 604.559C781.711 586.247 779.974 568.092 778.08 549.78C776.185 530.993 774.291 512.05 772.397 493.263C770.502 474.951 768.766 456.796 766.871 438.484C765.293 422.697 763.714 406.753 762.135 390.966C761.504 384.652 763.398 382.284 770.029 382.284L1030.03 383.231C1036.03 383.231 1038.4 385.283 1039.19 391.124C1043.14 421.592 1047.24 452.06 1051.19 482.371C1055.13 511.734 1059.08 541.255 1062.87 570.618C1066.5 597.929 1069.97 625.24 1073.61 652.55C1075.34 666.127 1077.24 679.861 1078.97 693.438C1079.6 698.647 1077.87 700.857 1072.5 701.015C1057.19 701.331 1041.72 701.647 1026.4 701.805C996.251 702.278 965.94 702.752 935.788 703.383" fill="#293250"/>
<path fill-rule="evenodd" clip-rule="evenodd" d="M474.819 698.805C565.592 697.226 655.891 695.49 746.664 693.911C744.612 678.125 742.56 663.127 740.665 647.972C734.351 647.025 473.24 648.761 469.925 649.867C471.504 665.969 473.082 682.229 474.819 698.805M468.978 641.5C477.503 642.447 736.087 640.552 739.402 639.605C728.51 556.568 717.459 473.53 706.566 390.019C618.793 389.703 531.493 389.388 443.719 389.072C452.244 473.688 460.611 557.515 468.978 641.5M610.11 703.383C564.96 704.172 519.653 705.12 474.503 705.909C469.452 706.067 468.504 705.278 467.873 700.226C466.452 687.281 465.189 674.178 463.926 661.233C462.032 642.447 460.137 623.503 458.243 604.717C456.664 589.246 455.244 573.933 453.665 558.462C451.771 539.518 449.876 520.574 447.982 501.472C446.087 483.318 444.351 465.163 442.614 447.009C440.72 428.381 438.983 409.91 437.089 391.282C436.3 383.862 438.036 381.81 445.456 381.81C504.971 381.968 564.645 382.126 624.16 382.442C650.997 382.599 677.835 382.599 704.672 382.757C707.198 382.757 710.039 382.442 711.618 385.125C712.565 386.546 713.67 387.967 713.828 389.545C716.196 406.911 718.406 424.276 720.774 441.641C723.458 462.322 726.142 482.844 728.983 503.525C731.667 524.363 734.509 545.044 737.192 565.882C739.876 586.72 742.718 607.716 745.401 628.555C748.243 650.34 751.084 672.126 753.926 693.753C754.558 698.489 752.505 700.699 747.138 700.699C730.246 701.015 713.355 701.331 696.305 701.647C667.416 702.436 638.842 702.91 610.11 703.383" fill="#293250"/>
<path fill-rule="evenodd" clip-rule="evenodd" d="M768.134 271.777C622.739 272.251 511.918 272.725 400.938 273.04C399.359 273.04 397.78 273.198 396.202 272.882C393.992 272.567 392.413 270.988 392.729 269.252C393.044 267.357 394.15 266.252 396.202 266.094C397.78 265.936 399.359 265.936 400.938 265.936C584.852 265.305 768.766 264.673 952.837 263.884C991.041 263.726 1029.24 263.568 1067.29 263.41C1068.71 263.41 1070.13 263.253 1071.55 263.41C1073.92 263.726 1075.18 264.989 1075.18 266.884C1075.18 268.778 1073.92 270.041 1071.55 270.357C1070.29 270.514 1069.03 270.357 1067.61 270.357C956.468 271.146 845.015 271.62 768.134 271.777" fill="#293250"/>
<path fill-rule="evenodd" clip-rule="evenodd" d="M573.643 310.454C542.859 310.612 487.764 310.77 432.669 311.086C431.09 311.086 429.512 311.244 427.933 310.928C426.196 310.612 425.091 309.507 425.091 307.613C425.091 305.718 426.196 304.613 427.933 304.298C429.038 303.982 430.143 304.14 431.406 304.14C542.701 303.666 654.155 303.192 765.45 302.561C767.029 302.561 768.608 302.719 770.186 303.035C771.765 303.35 772.554 304.613 772.554 306.192C772.397 307.771 771.449 309.034 770.029 309.191C768.134 309.507 766.24 309.507 764.503 309.507C708.619 309.981 653.208 310.139 573.643 310.454" fill="#293250"/>
<path fill-rule="evenodd" clip-rule="evenodd" d="M572.696 339.976C616.109 339.344 659.68 338.871 703.093 338.239C704.356 338.239 705.777 338.081 706.882 338.555C707.987 339.028 709.25 340.291 709.566 341.396C710.04 343.133 708.777 344.396 707.198 344.869C705.777 345.185 704.356 345.343 702.936 345.343C674.362 345.659 645.788 346.132 617.214 346.448C558.962 347.237 500.709 348.027 442.457 348.974C441.036 348.974 439.615 349.132 438.194 348.816C436.458 348.5 435.353 347.237 435.511 345.501C435.511 343.764 436.616 342.502 438.352 342.186C439.299 342.028 440.404 342.028 441.352 342.028C485.238 341.239 528.967 340.607 572.696 339.976" fill="#293250"/>
<path fill-rule="evenodd" clip-rule="evenodd" d="M435.037 221.418C431.09 221.576 428.249 222.997 426.354 225.838C423.197 230.416 425.091 235.942 430.617 237.362C434.248 238.31 437.405 237.205 440.089 234.837C442.93 232.311 443.72 228.838 442.457 225.838C440.878 222.681 438.036 221.418 435.037 221.418M432.985 244.782C426.512 244.782 420.829 241.309 418.619 235.784C416.409 230.101 417.987 223.786 422.723 219.366C427.459 215.103 432.985 213.683 439.142 215.103C447.824 217.156 452.244 226.47 448.771 234.679C446.088 240.52 439.773 244.624 432.985 244.782" fill="#293250"/>
<path fill-rule="evenodd" clip-rule="evenodd" d="M484.765 230.416C485.08 225.365 481.765 222.365 477.029 223.155C471.977 224.102 468.504 230.574 470.557 235.31C471.82 238.31 474.661 239.731 477.976 238.941C481.765 237.994 484.607 234.363 484.765 230.416M462.979 232.153C463.137 223.47 470.399 215.893 478.608 215.893C486.027 215.893 491.868 222.05 491.868 229.943C491.868 238.783 484.291 246.519 475.924 246.361C468.504 246.045 462.979 240.046 462.979 232.153" fill="#293250"/>
<path fill-rule="evenodd" clip-rule="evenodd" d="M530.072 230.416C530.072 226.628 527.23 223.944 523.442 223.944C519.337 223.944 516.022 227.575 516.18 231.995C516.338 235.626 519.021 238.31 522.494 238.31C526.599 238.31 530.23 234.679 530.072 230.416M537.176 230.574C537.176 238.625 530.388 245.571 522.494 245.414C515.075 245.414 509.392 239.415 509.234 231.837C509.076 223.628 515.706 216.84 523.6 216.84C531.335 216.84 537.176 222.839 537.176 230.574" fill="#293250"/>
<path fill-rule="evenodd" clip-rule="evenodd" d="M743.349 346.448C740.665 346.448 737.982 346.606 735.14 346.448C734.035 346.448 732.772 345.974 731.983 345.343C729.931 343.764 730.562 340.765 732.93 339.818C733.719 339.502 734.667 339.66 735.456 339.502C741.77 339.186 748.085 339.028 754.242 338.713C755.189 338.713 756.294 338.555 757.241 338.555C759.609 338.555 761.188 339.66 761.346 341.396C761.662 343.291 760.083 345.027 757.715 345.343C756.136 345.659 754.558 345.659 752.979 345.817C749.664 346.132 746.349 346.29 743.191 346.448H743.349Z" fill="#293250"/>
<path fill-rule="evenodd" clip-rule="evenodd" d="M1032.4 219.208H1023.88C1022.77 219.208 1021.51 219.366 1020.56 218.892C1019.61 218.419 1018.51 217.313 1018.19 216.208C1017.72 214.788 1018.67 213.367 1020.25 212.893C1021.51 212.42 1022.77 212.262 1024.04 212.262C1030.19 212.104 1036.35 211.946 1042.51 211.946C1046.14 211.946 1047.87 213.051 1047.87 215.419C1047.87 217.787 1046.14 218.892 1042.51 218.892C1039.19 219.05 1035.88 218.892 1032.56 218.892C1032.4 219.05 1032.4 219.208 1032.4 219.208" fill="#293250"/>
<path fill-rule="evenodd" clip-rule="evenodd" d="M1035.09 231.837H1026.09C1024.98 231.837 1023.72 231.68 1022.77 231.206C1021.35 230.574 1020.4 229.312 1020.88 227.733C1021.19 226.628 1022.3 225.681 1023.25 225.049C1023.72 224.733 1024.67 224.733 1025.3 224.891C1031.61 225.049 1037.93 225.207 1044.24 225.523C1047.87 225.681 1049.45 227.101 1049.29 229.469C1049.14 231.364 1047.08 233.258 1043.61 232.627C1040.77 232.153 1037.93 232.311 1035.09 232.153V231.837Z" fill="#293250"/>
<path fill-rule="evenodd" clip-rule="evenodd" d="M1036.35 245.098H1028.3C1027.19 245.098 1025.93 245.098 1024.98 244.782C1023.4 244.466 1022.61 243.204 1022.61 241.625C1022.61 240.046 1023.4 238.941 1024.98 238.468C1025.93 238.152 1026.88 238.152 1027.98 238.152C1033.98 238.31 1039.98 238.468 1045.98 238.783C1048.66 238.941 1050.08 240.204 1050.08 242.099C1050.08 244.151 1048.5 245.572 1045.66 245.572H1036.66C1036.35 245.414 1036.35 245.256 1036.35 245.098" fill="#293250"/>
<path fill-rule="evenodd" clip-rule="evenodd" d="M951.259 488.212C955.521 480.792 952.995 472.583 945.575 469.11C928.368 461.217 911.319 453.323 894.111 445.43C892.217 444.483 890.007 444.009 887.954 443.693C886.06 443.378 884.481 444.009 883.692 445.904C882.587 448.587 881.798 451.271 880.85 453.955C904.372 465.479 927.737 476.845 951.259 488.212M897.9 439.115C898.531 439.431 899.321 439.905 899.952 440.22C915.423 447.324 930.894 454.428 946.523 461.374C959.152 467.058 963.888 479.529 957.731 492C956.626 494.211 955.679 496.421 954.732 498.631L914.949 590.035C913.844 592.719 912.108 595.087 910.529 597.771C917.16 597.139 921.422 594.455 923.79 588.299C936.735 555.305 949.996 522.626 963.256 489.79C964.204 487.264 965.151 484.739 965.94 482.055C968.624 473.056 963.572 462.637 954.89 459.006C939.261 452.534 923.632 446.219 908.003 439.747C904.688 438.642 901.373 438.168 897.9 439.115M847.856 547.411C846.278 551.989 844.857 555.936 843.436 559.725C841.858 563.672 842.173 566.04 845.488 568.723C847.225 570.144 849.277 571.249 851.329 572.354C864.906 579.142 878.64 585.773 892.217 592.403C893.322 593.035 894.585 593.666 895.69 593.982C899.952 595.403 905.32 593.982 907.214 590.351C909.424 586.246 911.003 581.826 913.055 577.09C891.112 567.303 869.8 557.515 847.856 547.411M850.067 540.781C872.01 550.884 893.638 560.672 915.739 570.776C926.789 545.201 937.682 520.258 948.733 494.842C925.053 483.318 901.847 471.951 878.325 460.427C868.853 487.422 859.539 513.944 850.067 540.781M900.11 431.38C904.215 431.538 908.319 432.327 912.266 434.064C927.263 440.378 942.26 446.377 957.258 452.534C968.94 457.27 976.044 470.689 973.044 483.16C972.413 485.528 971.781 487.896 970.834 490.106C957.1 524.521 943.365 558.778 929.631 593.193C927.737 598.086 924.421 601.244 919.685 603.296C912.897 606.138 906.425 605.98 899.636 603.296C881.482 596.034 864.432 586.562 846.909 578.195C842.331 575.985 838.384 572.986 836.332 567.934C835.227 565.092 835.069 562.409 836.016 559.567C841.858 543.307 847.699 527.205 853.382 510.944C860.959 489.475 868.537 468.005 875.957 446.377C877.693 441.325 880.693 437.695 885.586 435.484C890.007 433.116 894.743 431.064 900.11 431.38" fill="#293250"/>
<path fill-rule="evenodd" clip-rule="evenodd" d="M1038.4 674.967C1043.61 669.915 1048.66 670.231 1054.35 674.178C1054.03 669.915 1053.71 666.6 1053.56 662.969C1048.03 663.127 1042.82 663.127 1037.61 664.232C1037.77 667.863 1038.09 670.863 1038.4 674.967M1061.45 674.651C1061.61 676.388 1061.61 677.493 1061.61 678.44C1061.77 680.65 1061.29 682.387 1058.92 683.334C1056.71 684.281 1054.82 684.439 1052.92 682.702C1052.77 682.545 1052.45 682.387 1052.29 682.071C1046.77 677.019 1046.14 677.335 1040.14 682.545C1039.35 683.334 1038.56 684.281 1037.61 684.913C1035.24 686.807 1032.88 686.018 1031.77 683.176C1031.45 682.545 1031.45 681.755 1031.3 681.124C1030.82 674.967 1030.51 668.81 1030.19 662.653C1030.03 658.549 1030.98 657.444 1034.93 657.128L1053.87 655.707C1058.45 655.392 1059.87 656.655 1060.19 661.233C1060.98 665.969 1061.29 670.705 1061.45 674.651" fill="#293250"/>
<path fill-rule="evenodd" clip-rule="evenodd" d="M884.955 677.809C886.376 676.704 887.954 675.599 889.375 674.651C892.533 672.441 892.69 670.073 890.165 667.232C886.376 662.969 877.851 660.601 872.484 662.496C867.905 664.074 866.958 667.547 870.589 670.863C872.641 672.757 875.325 673.862 877.851 675.125C880.219 676.072 882.429 676.704 884.955 677.809M878.167 682.545C876.114 681.755 874.378 681.282 872.641 680.492C868.853 678.914 865.695 676.546 863.485 673.073C859.696 667.074 861.275 660.128 867.59 656.97C870.431 655.55 873.904 654.76 877.062 654.76C884.008 654.602 890.322 656.97 895.216 662.022C901.531 668.495 899.952 676.862 893.164 680.65C891.27 681.598 889.849 683.334 888.27 684.755C887.323 685.702 886.534 686.649 885.586 687.439C882.745 689.807 880.061 689.017 878.956 685.544C878.64 684.755 878.482 683.65 878.167 682.545" fill="#293250"/>
<path fill-rule="evenodd" clip-rule="evenodd" d="M831.281 681.913C837.911 676.23 840.437 671.02 838.069 666.6C836.806 667.705 835.543 668.494 834.596 669.599C831.754 672.599 829.702 672.757 826.703 669.757C825.282 668.337 823.861 666.284 821.809 667.863C819.914 669.284 821.177 671.494 821.967 673.388C823.545 677.651 827.334 679.703 831.281 681.913M830.491 662.969C832.07 662.022 833.333 661.075 834.754 660.443C840.595 657.917 846.12 661.233 846.436 667.547C846.752 673.23 844.384 678.124 840.753 682.544C839.332 684.281 837.753 685.702 836.49 687.28C834.754 689.333 832.702 690.122 830.334 689.017C822.914 685.702 816.599 681.282 814.389 672.757C813.126 668.179 814.073 664.39 817.704 661.548C821.177 658.707 824.966 659.496 828.597 661.548C829.071 662.022 829.544 662.495 830.491 662.969" fill="#293250"/>
<path fill-rule="evenodd" clip-rule="evenodd" d="M930.42 668.653C927.105 671.021 924.579 672.915 922.053 674.809C923.001 676.862 923.948 678.598 924.737 680.335C926.631 680.177 928.368 680.177 930.42 680.019V668.653ZM917.002 681.282C911.318 677.809 911.161 674.336 916.054 670.547C920.79 666.916 925.684 663.443 930.578 659.97C931.999 659.023 933.42 657.918 935.314 658.865C937.366 659.812 937.524 661.706 937.524 663.601C937.524 669.6 937.524 675.599 937.366 681.598C937.208 686.018 934.051 688.702 929.789 687.912C928.052 687.596 926.789 687.912 925.368 688.702C924.421 689.333 923.474 689.964 922.369 690.28C919.685 691.227 917.475 689.964 917.002 687.123C916.844 685.071 917.002 683.176 917.002 681.282V681.282Z" fill="#293250"/>
<path fill-rule="evenodd" clip-rule="evenodd" d="M518.706 565.882C519.969 569.986 522.179 572.039 525.179 573.459C545.228 582.142 565.434 590.825 585.483 599.823C588.325 601.086 590.377 600.928 593.061 599.665C618.635 586.72 644.367 573.933 669.942 561.146C675.151 558.462 680.519 555.936 685.728 553.253C687.623 552.305 689.043 551.2 689.675 548.99C687.938 549.464 686.36 550.095 684.781 550.885C655.102 565.408 625.581 579.774 595.903 594.298C591.798 596.35 588.325 596.508 584.063 594.614C570.486 588.457 556.752 582.616 543.175 576.617C535.282 573.144 527.389 569.671 518.706 565.882M524.389 560.357C525.652 560.988 526.284 561.462 527.073 561.777C547.122 570.618 567.329 579.301 587.378 588.141C589.43 589.088 591.167 588.615 593.061 587.667C621.95 573.459 650.998 559.409 679.887 545.201C680.992 544.728 682.097 543.939 683.676 543.149C682.413 542.676 681.782 542.518 681.15 542.202C666.469 537.94 651.629 533.835 636.948 529.573C634.895 528.941 633.001 529.415 631.107 529.888C596.85 539.518 562.751 549.148 528.494 558.778C527.389 559.409 526.126 559.725 524.389 560.357M630.002 523.1C629.844 521.995 629.686 521.679 629.528 521.206C621.477 496.263 613.584 471.162 605.532 446.219C604.112 441.641 601.901 440.378 597.165 441.168C595.745 441.326 594.324 441.799 593.061 442.115C575.854 446.693 558.646 451.271 541.597 455.849C527.073 459.796 512.549 463.585 498.026 467.531C492.027 469.11 490.922 471.32 492.5 477.319C492.5 477.477 492.5 477.635 492.658 477.793C499.92 502.578 507.34 527.205 514.759 551.99C515.075 553.095 515.549 554.042 516.022 555.305C553.91 544.57 591.798 533.835 630.002 523.1M599.06 433.748C605.848 433.906 609.953 437.063 612.163 443.694C620.214 468.636 628.265 493.579 636.158 518.68C637.106 521.837 638.684 523.258 641.842 524.047C657.944 528.468 673.888 533.046 689.833 537.624C692.674 538.413 695.516 539.045 696.621 542.676C697.884 546.464 697.884 549.937 695.99 553.41C694.253 556.41 691.885 558.304 688.728 559.883C662.048 573.144 635.369 586.562 608.69 599.823C603.954 602.191 599.06 604.401 594.482 606.927C591.009 608.821 587.851 608.664 584.22 607.085C564.645 598.402 544.912 589.878 525.179 581.195C521.863 579.774 518.548 578.669 516.18 575.827C513.339 572.197 511.128 568.566 511.444 563.83C511.444 563.04 511.602 561.777 511.128 561.304C508.76 558.936 508.445 555.621 507.498 552.621L485.712 479.213C485.238 477.635 484.765 476.214 484.765 474.635C484.449 467.689 487.922 463.111 495.342 461.059L532.756 451.113C553.121 445.746 573.486 440.221 593.85 434.853C595.429 434.222 597.323 434.064 599.06 433.748" fill="#293250"/>
<path fill-rule="evenodd" clip-rule="evenodd" d="M728.036 662.969C725.037 663.127 722.353 663.127 719.827 663.285C717.301 663.443 714.775 663.759 711.934 664.075C712.25 667.548 712.565 670.705 712.881 674.02C720.301 670.547 720.301 670.547 728.826 673.231C728.51 670.073 728.352 666.758 728.036 662.969M705.619 671.021C705.461 668.021 705.146 665.022 704.988 662.022C704.988 658.549 706.093 657.444 709.566 657.128C716.038 656.655 722.511 656.181 728.826 655.708C733.088 655.392 734.667 656.655 734.982 660.917C735.456 666.6 735.772 672.441 736.087 678.125C736.245 680.493 735.772 682.229 733.404 683.334C731.036 684.281 728.983 684.124 727.089 682.229C721.564 676.862 720.774 677.02 714.302 682.861C713.67 683.492 713.197 684.124 712.407 684.755C709.724 686.965 707.04 686.018 706.251 682.703C705.777 680.65 705.935 678.44 705.777 676.23C705.777 674.494 705.777 672.757 705.619 671.021" fill="#293250"/>
<path fill-rule="evenodd" clip-rule="evenodd" d="M559.436 677.809C561.014 676.704 562.435 675.599 564.014 674.652C567.013 672.442 567.329 670.389 565.119 667.548C561.488 662.97 552.174 660.444 546.648 662.654C542.702 664.233 541.597 667.39 544.596 670.231C546.806 672.284 549.806 673.704 552.489 675.125C554.7 676.072 556.91 676.862 559.436 677.809M552.647 682.861C549.174 681.124 545.859 679.861 543.017 678.125C537.176 674.336 534.651 668.811 536.229 663.601C538.124 657.602 543.175 655.392 548.859 654.761C555.805 653.971 562.277 655.866 567.802 660.286C569.539 661.707 571.118 663.601 572.223 665.495C575.064 670.547 573.643 676.072 569.223 679.703C566.539 681.756 564.014 684.124 561.488 686.492C557.383 690.438 554.7 689.807 553.121 684.124C552.963 683.492 552.805 683.176 552.647 682.861" fill="#293250"/>
<path fill-rule="evenodd" clip-rule="evenodd" d="M604.901 680.177C604.743 676.388 605.532 672.915 604.427 668.968C601.428 671.179 598.902 673.073 596.376 674.809C597.481 676.862 598.27 678.44 599.06 680.177H604.901ZM591.482 681.282C585.799 677.809 585.641 674.336 590.535 670.547C595.271 666.916 600.165 663.443 605.059 659.97C606.637 658.865 608.216 657.918 610.11 659.023C611.847 659.97 612.005 661.707 612.005 663.443C612.005 669.442 612.005 675.441 611.847 681.44C611.689 685.86 608.532 688.544 604.269 687.754C602.533 687.439 601.27 687.754 599.849 688.544C598.902 689.175 597.955 689.807 596.85 690.122C594.166 691.07 591.798 689.807 591.482 686.965C591.324 685.071 591.482 683.176 591.482 681.282V681.282Z" fill="#293250"/>
<path fill-rule="evenodd" clip-rule="evenodd" d="M872.484 570.46C872.168 572.197 872.168 572.197 873.589 573.302C874.062 571.723 874.062 571.723 872.484 570.46M881.482 572.354C881.64 577.09 878.167 580.721 873.589 580.721C868.853 580.721 864.748 576.617 864.59 571.565C864.59 566.829 868.063 563.198 872.484 563.198C877.377 563.198 881.482 567.461 881.482 572.354" fill="#293250"/>
<path fill-rule="evenodd" clip-rule="evenodd" d="M918.896 467.531C917.16 467.531 915.581 465.953 915.423 464.374C915.265 462.48 916.844 460.743 918.896 460.743C920.79 460.743 922.211 462.006 922.369 463.9C922.369 465.795 920.79 467.531 918.896 467.531" fill="#293250"/>
<path fill-rule="evenodd" clip-rule="evenodd" d="M558.488 462.164C558.33 464.374 556.436 466.11 554.226 465.952C552.331 465.795 550.911 464.216 550.911 462.164C550.911 459.953 552.805 458.059 555.015 458.059C556.91 458.217 558.646 460.111 558.488 462.164" fill="#293250"/>
<path fill-rule="evenodd" clip-rule="evenodd" d="M636.947 539.834C636.79 539.518 636.632 539.044 636.632 538.729C623.687 542.36 610.9 546.622 597.955 550.569C585.01 554.515 572.222 558.62 559.435 562.566C561.488 564.303 563.54 565.092 565.276 566.197C568.276 568.092 570.959 567.776 574.117 566.513C593.692 558.146 613.425 549.937 633.159 541.728L636.947 539.834ZM569.697 575.511C568.434 575.196 567.329 574.88 566.224 574.406C560.382 571.723 554.541 569.039 548.7 566.197C547.911 565.882 547.122 565.408 546.49 564.777C544.754 563.198 544.912 560.514 546.964 559.251C547.911 558.62 549.016 558.304 550.121 557.988C577.116 549.621 603.953 541.255 630.949 532.888C637.579 530.835 643.42 533.361 649.103 535.887C651.945 537.15 651.629 540.781 648.945 542.517C648.156 542.991 647.209 543.307 646.262 543.78C622.266 553.884 598.27 563.987 574.117 573.933C572.538 574.564 571.117 575.038 569.697 575.511V575.511Z" fill="#293250"/>
<path fill-rule="evenodd" clip-rule="evenodd" d="M615.793 569.355C615.004 568.723 613.583 568.25 613.11 567.303C612.636 566.355 612.952 564.777 613.425 563.83C613.899 562.882 615.162 562.251 616.109 561.935C620.372 560.041 624.634 558.146 629.054 556.252C629.212 556.252 629.37 556.094 629.37 556.094C632.212 555.147 634.106 555.621 634.895 557.515C635.685 559.409 634.737 561.304 632.212 562.567C629.686 563.83 627.002 564.777 624.318 566.04C622.424 566.829 620.687 567.776 618.793 568.566C618.161 568.566 617.214 568.881 615.793 569.355" fill="#293250"/>
<path fill-rule="evenodd" clip-rule="evenodd" d="M749.299 782.111H1095.34C1102.13 782.111 1103.39 780.691 1104.66 790.32C1106.71 806.581 1108.29 822.841 1110.18 839.101C1112.39 858.203 1114.6 877.305 1116.65 896.406C1118.55 912.824 1120.28 929.242 1122.18 945.503C1124.39 964.604 1126.44 983.706 1128.65 1002.81C1130.86 1021.59 1132.91 1040.38 1134.97 1059.32L1141.6 1117.1C1142.07 1121.37 1142.86 1125.63 1143.33 1129.89C1143.81 1133.84 1141.44 1135.73 1137.65 1134.63C1136.07 1134.15 1134.33 1134.15 1132.6 1134.15C1067.56 1135.26 1002.67 1136.52 937.633 1137.63C880.643 1138.57 823.654 1139.52 766.822 1140.63C696.887 1141.89 627.111 1143.15 557.176 1144.57C520.551 1145.2 484.084 1145.83 447.459 1146.47C440.671 1146.62 439.408 1145.36 438.461 1138.41C435.461 1113.31 432.304 1088.37 429.305 1063.27C426.621 1040.85 423.937 1018.59 421.253 996.178C418.57 973.761 415.728 951.502 413.044 929.085C410.676 909.194 408.151 889.145 405.783 869.253C403.415 849.204 400.889 829.155 398.363 809.106C397.731 804.055 397.1 798.845 396.468 793.793C396.153 791.741 395.995 789.689 394.732 787.795C393.311 785.742 394.574 783.532 397.1 783.059C398.836 782.743 400.731 782.743 402.625 782.743C511.237 782.585 619.849 782.585 728.461 782.427H749.141C749.299 782.269 749.299 782.111 749.299 782.111" fill="#293250"/>
<path fill-rule="evenodd" clip-rule="evenodd" d="M711.411 744.224H1057.45C1064.24 744.224 1065.5 742.803 1066.77 752.433C1068.82 768.693 1070.4 784.953 1072.29 801.213C1074.5 820.315 1076.71 839.417 1078.77 858.519C1080.66 874.937 1082.4 891.355 1084.29 907.615C1086.5 926.717 1088.55 945.819 1090.76 964.92C1092.97 983.706 1095.03 1002.49 1097.08 1021.44L1103.71 1079.22C1104.18 1083.48 1104.97 1087.74 1105.44 1092C1105.92 1095.95 1103.55 1097.84 1099.76 1096.74C1098.18 1096.26 1096.45 1096.26 1094.71 1096.26C1029.67 1097.37 964.786 1098.63 899.745 1099.74C842.755 1100.69 785.766 1101.63 728.934 1102.74C658.999 1104 589.223 1105.26 519.288 1106.68C482.663 1107.32 446.196 1107.95 409.571 1108.58C402.783 1108.74 401.52 1107.47 400.573 1100.53C397.573 1075.43 394.416 1050.48 391.416 1025.38C388.733 1002.97 386.049 980.707 383.365 958.29C380.681 935.873 377.84 913.614 375.156 891.197C372.788 871.306 370.262 851.257 367.894 831.366C365.526 811.317 363.001 791.268 360.475 771.219C359.843 766.167 359.212 760.957 358.58 755.906C358.265 753.853 358.107 751.801 356.844 749.907C355.423 747.855 356.686 745.644 359.212 745.171C360.948 744.855 362.843 744.855 364.737 744.855C473.349 744.697 581.961 744.697 690.572 744.539H711.253C711.411 744.382 711.411 744.224 711.411 744.224" fill="white"/>
<path fill-rule="evenodd" clip-rule="evenodd" d="M835.892 748.457C851.521 864.962 866.992 980.52 882.463 1096.08C888.462 1097.03 1098.42 1094.03 1101.42 1092.92C1101.11 1082.03 1064.8 750.983 1063.69 748.457H835.892ZM712.757 741.195H1057.54C1060.54 741.195 1063.69 741.985 1066.85 740.564C1068.74 739.775 1070.32 741.353 1070.8 744.037C1071.43 748.299 1071.9 752.562 1072.38 756.824L1079.01 818.392C1081.22 838.283 1083.27 858.016 1085.32 877.907C1087.53 897.799 1089.74 917.847 1091.79 937.739C1094 957.63 1096.06 977.363 1098.11 997.254C1100.32 1017.15 1102.53 1037.19 1104.58 1057.09C1105.84 1068.14 1106.79 1079.34 1108.21 1090.4C1108.68 1093.87 1106.79 1096.39 1105.53 1099.24C1105.21 1100.02 1103.63 1100.5 1102.53 1100.66C1100.79 1100.97 1099.05 1100.81 1097.32 1100.97C1035.12 1101.76 973.078 1102.39 910.878 1103.18C822 1104.29 733.279 1105.39 644.401 1106.5C564.994 1107.44 485.745 1108.55 406.339 1109.65C398.919 1109.81 397.182 1109.5 396.077 1100.66C392.762 1072.4 389.289 1044.3 385.816 1016.04C382.501 988.729 379.344 961.419 376.028 933.95C372.398 904.271 368.767 874.75 365.136 845.071C361.82 817.76 358.505 790.45 355.348 762.981C354.874 758.719 354.243 754.456 353.769 750.194C353.296 746.247 356.611 742.458 360.558 741.985C361.978 741.827 363.399 741.985 364.82 741.985H712.283C712.757 741.985 712.757 741.511 712.757 741.195V741.195Z" fill="#FF6663"/>
<path fill-rule="evenodd" clip-rule="evenodd" d="M707.436 956.135C706.805 956.451 706.331 956.767 705.7 957.082C701.753 959.292 697.806 961.818 693.702 963.555C676.021 970.659 658.182 977.289 640.343 984.235C624.556 990.392 608.77 996.391 593.141 1002.55C586.826 1005.07 580.985 1003.97 575.618 1000.34C571.671 997.812 568.83 994.181 566.778 989.918C565.515 987.55 564.41 985.025 563.462 982.499C551.622 955.03 539.782 927.404 527.942 899.935C527.469 898.83 526.837 897.567 526.206 896.462C525.101 902.303 526.364 907.512 528.416 912.722C539.782 940.98 551.149 969.396 562.515 997.812C563.304 999.864 564.252 1001.76 565.515 1003.49C572.303 1013.12 578.775 1015.49 589.51 1011.39L691.334 972.08C694.175 970.975 696.859 969.554 699.227 967.817C703.332 964.976 706.015 961.029 707.436 956.135M524.154 921.562C511.998 933.245 497.001 938.454 481.846 942.874C472.374 945.716 462.744 948.084 453.114 950.294C438.117 953.925 424.54 960.398 411.753 968.764C410.964 969.238 410.332 970.027 409.543 970.027C408.28 970.027 406.701 969.869 405.754 969.08C404.333 967.975 404.333 966.081 405.596 964.818C406.701 963.713 407.964 962.766 409.227 961.976C423.909 952.346 439.853 946.032 456.903 941.927C469.848 938.928 482.793 935.77 495.264 930.877C501.579 928.351 507.736 925.667 513.103 921.562C514.997 920.142 516.734 918.721 518.155 916.984C520.049 914.932 520.365 912.722 519.733 909.88C517.208 899.777 517.365 889.831 521.312 879.886C523.364 874.676 525.259 869.782 530.468 866.941C530.153 865.994 530.153 865.52 529.837 865.046C527.311 859.837 529.363 856.364 533.31 854.627C540.572 851.47 547.991 848.786 555.253 846.103C557.463 845.313 559.516 846.418 560.936 848.155C562.042 849.418 563.147 850.839 564.252 852.259C579.091 846.103 593.615 839.946 607.823 833.947C608.138 831.105 607.981 828.422 608.928 826.211C609.717 824.633 611.927 823.528 613.664 822.738C619.82 819.739 620.768 820.055 627.398 825.896C627.714 825.264 628.503 824.475 628.345 824.001C627.714 818.16 628.345 816.582 633.239 814.687C638.764 812.319 641.132 812.951 644.605 817.687C644.921 818.002 645.079 818.318 645.395 818.634C656.13 818.318 662.76 824.317 667.18 833.315C668.917 836.788 670.495 840.261 672.074 843.735C672.548 843.577 673.021 843.577 673.021 843.419C682.809 831.579 695.438 824.159 709.804 819.739C722.907 815.634 736.326 812.793 749.744 809.32C754.164 808.215 758.585 806.952 763.005 805.689C773.74 802.689 783.843 798.269 792.842 791.639C794.736 790.218 796.788 788.797 798.998 787.692C801.051 786.587 802.787 787.061 803.892 788.639C804.997 790.218 804.682 792.112 802.787 793.533C801.84 794.322 800.735 794.638 799.946 795.27C784.317 807.425 765.847 812.635 747.06 817.055C736.01 819.739 725.117 822.58 714.224 825.422C705.384 827.79 697.491 832.052 689.913 837.104C684.23 841.051 679.336 845.471 676.179 852.259C688.808 879.412 701.595 907.039 714.54 934.507C715.172 934.35 715.645 934.192 715.961 934.034C726.538 926.93 738.536 923.615 750.691 920.931C763.321 918.247 775.95 915.721 788.421 912.248C802.945 908.144 816.206 901.356 827.414 891.252C828.362 890.463 829.467 889.674 830.572 889.042C831.992 888.253 833.413 888.568 834.518 889.831C835.623 891.094 835.781 892.515 834.834 893.778C834.045 894.883 832.94 895.83 831.835 896.778C817.311 909.88 799.788 917.142 781.002 921.878C769.004 924.878 756.848 927.088 744.85 929.614C736.01 931.508 727.643 934.823 719.908 939.875C717.54 941.454 716.75 943.19 716.75 946.19C716.908 957.872 711.225 966.712 702.069 973.5C699.543 975.395 696.701 976.816 693.702 977.921C659.445 991.181 625.188 1004.44 590.931 1017.55C588.089 1018.65 584.932 1019.28 581.775 1019.76C574.829 1020.7 569.145 1017.86 564.252 1013.28C562.042 1011.07 559.989 1008.7 557.779 1006.18C550.044 1014.39 540.098 1018.81 529.837 1022.75C517.839 1027.17 505.999 1031.91 494.791 1038.07C480.898 1045.8 468.111 1054.96 457.218 1066.48C456.113 1067.75 454.693 1068.85 453.43 1069.96C452.167 1070.9 450.588 1070.59 449.483 1069.48C448.378 1068.38 448.062 1066.96 448.852 1065.54C449.641 1064.27 450.588 1063.33 451.535 1062.22C470.479 1042.17 493.686 1028.75 519.102 1019.12C524.943 1016.91 530.942 1014.55 536.625 1012.18C542.15 1009.81 547.202 1006.49 551.622 1002.23C553.832 1000.02 554.306 997.97 553.043 994.97C543.413 971.29 534.099 947.61 524.627 923.93C525.101 923.457 524.627 922.668 524.154 921.562" fill="#293250"/>
<path fill-rule="evenodd" clip-rule="evenodd" d="M633.359 919.481C634.306 927.532 635.253 935.425 636.2 943.318C636.358 945.213 636.832 947.107 636.516 948.844C636.358 949.949 635.095 951.527 633.99 951.685C632.885 952.001 631.306 951.212 630.359 950.422C629.412 949.633 629.096 948.212 628.465 947.107C621.045 933.847 613.783 920.586 606.363 907.325C605.732 906.22 604.943 905.273 603.522 904.483C603.995 909.693 604.627 914.745 605.101 919.954C605.258 920.744 605.258 921.691 605.416 922.48C606.363 929.268 605.89 928.479 600.68 930.847C592.471 934.636 584.104 937.793 575.737 941.266C574.948 941.582 574.001 942.056 573.212 941.74C571.949 941.266 570.528 940.477 570.054 939.372C569.581 938.582 570.212 936.846 571.001 936.057C571.949 935.109 573.369 934.478 574.632 934.004C581.736 931.005 588.998 928.163 596.102 925.164C596.734 924.848 597.365 924.532 598.47 924.059C597.997 918.691 597.365 913.324 596.891 907.956C596.418 903.063 595.944 898.327 595.629 893.433C595.471 892.486 595.471 891.381 595.786 890.433C596.576 887.276 599.575 886.171 602.101 888.223C603.522 889.486 604.627 891.065 605.574 892.643C612.047 903.22 618.361 913.798 624.676 924.217C625.465 925.322 626.097 926.585 627.517 927.532C627.202 925.006 626.886 922.638 626.57 920.112C625.939 914.587 626.728 914.113 631.78 912.061C641.252 908.272 650.724 903.852 660.196 899.747C661.459 899.116 662.722 898.485 664.142 898.169C665.879 897.853 667.3 898.327 667.931 900.221C668.563 901.958 668.089 903.378 666.668 904.326C666.037 904.799 665.09 905.115 664.458 905.431C654.828 909.693 645.041 913.955 635.411 918.218C634.306 918.849 633.832 919.165 633.359 919.481" fill="white"/>
<path fill-rule="evenodd" clip-rule="evenodd" d="M699.189 939.214C698.873 941.424 698.715 943.634 698.241 945.686C697.452 949.002 695.716 950.422 692.4 949.317C689.559 948.528 686.717 947.423 684.191 945.844C682.139 944.739 681.034 942.529 681.823 940.003C682.613 937.477 684.507 936.53 687.033 936.215C687.98 936.057 689.401 935.741 689.875 935.109C691.611 933.057 693.663 931.952 696.189 933.057C698.715 934.478 699.031 936.846 699.189 939.214" fill="white"/>
<path fill-rule="evenodd" clip-rule="evenodd" d="M547.321 887.118C544.006 887.276 542.27 886.171 541.954 884.277C541.638 882.224 542.743 881.119 544.638 880.33L552.689 877.488C555.215 876.699 556.951 877.488 557.741 879.225C558.372 880.961 557.741 882.698 555.53 883.645C552.531 885.382 549.374 886.329 547.321 887.118" fill="white"/>
<path fill-rule="evenodd" clip-rule="evenodd" d="M549.216 895.169C546.848 895.169 545.427 894.38 544.953 892.644C544.48 890.907 545.111 889.328 546.848 888.855C549.847 887.75 552.847 886.96 555.846 886.329C557.583 886.013 559.004 886.802 559.477 888.539C560.109 890.433 559.319 892.012 557.425 892.644C554.583 893.749 551.584 894.38 549.216 895.169" fill="white"/>
<path fill-rule="evenodd" clip-rule="evenodd" d="M651.04 841.968C652.934 842.126 654.513 843.863 654.513 845.599C654.513 847.494 652.776 849.072 650.882 848.757C648.987 848.599 647.567 846.862 647.724 844.968C647.724 843.231 649.303 841.968 651.04 841.968" fill="white"/>
<path fill-rule="evenodd" clip-rule="evenodd" d="M658.617 853.335C658.617 855.071 657.196 856.65 655.302 856.65C653.407 856.65 652.46 855.545 652.145 853.808C651.829 852.072 653.407 850.493 655.144 850.335C657.038 850.177 658.617 851.598 658.617 853.335" fill="white"/>
<path fill-rule="evenodd" clip-rule="evenodd" d="M659.249 858.071C660.827 857.913 662.248 859.176 662.406 860.755C662.564 862.491 661.459 863.754 659.88 864.07C658.144 864.228 656.565 862.965 656.407 861.07C656.249 859.492 657.67 858.229 659.249 858.071" fill="white"/>
<path fill-rule="evenodd" clip-rule="evenodd" d="M371.655 1104.21V1105C371.497 1107.06 370.234 1108.32 368.497 1108.48C366.603 1108.63 365.498 1107.69 365.024 1105.95C364.709 1104.53 364.551 1103.11 364.235 1101.69C361.709 1080.85 359.183 1060.17 356.815 1039.33C354.447 1018.97 352.079 998.601 349.554 978.237C347.186 957.714 344.66 937.192 342.134 916.669C340.713 904.355 339.134 892.2 337.714 879.886C337.556 879.097 337.556 878.15 337.871 877.36C338.187 875.939 339.134 874.834 340.871 874.677C342.45 874.519 343.712 875.308 344.186 876.887C344.66 878.307 344.975 879.886 345.133 881.465C348.606 910.039 351.921 938.612 355.395 967.344C358.71 995.128 361.867 1022.91 365.182 1050.7C367.235 1067.75 369.287 1084.8 371.339 1102C371.497 1102.64 371.497 1103.11 371.655 1104.21" fill="#293250"/>
<path fill-rule="evenodd" clip-rule="evenodd" d="M344.502 1086.53C344.502 1088.11 344.66 1089.69 344.502 1091.27C344.344 1093.01 343.239 1094.11 341.502 1094.43C339.766 1094.58 338.503 1093.64 338.029 1091.9C337.714 1090.95 337.714 1090.01 337.556 1088.9C336.766 1079.43 335.819 1069.8 335.03 1060.33C334.872 1058.91 334.556 1057.33 335.03 1056.06C335.504 1054.96 336.609 1053.7 337.714 1053.22C339.45 1052.59 340.713 1053.7 341.345 1055.43C341.66 1056.54 341.818 1057.64 341.976 1058.75C342.923 1067.9 343.87 1077.22 344.66 1086.53H344.502Z" fill="#293250"/>
<path fill-rule="evenodd" clip-rule="evenodd" d="M470.163 834.42C470.637 834.736 471.9 835.368 472.689 836.157L483.582 847.05C486.108 849.576 486.581 851.786 485.003 853.364C483.424 854.943 481.372 854.627 478.688 852.101C475.215 848.786 471.742 845.313 468.427 841.84C467.637 840.893 466.848 839.788 466.532 838.683C465.901 836.631 467.479 834.578 470.163 834.42" fill="#293250"/>
<path fill-rule="evenodd" clip-rule="evenodd" d="M481.372 822.896C481.372 820.844 482.161 819.581 483.74 818.95C485.634 818.476 487.213 819.107 488.002 820.844C490.528 825.896 493.054 831.105 495.422 836.157C496.369 838.367 495.738 840.104 494.159 841.051C492.581 841.84 490.528 841.367 489.423 839.472C486.74 834.42 484.056 829.369 481.53 824.317C481.53 823.843 481.53 823.212 481.372 822.896" fill="#293250"/>
<path fill-rule="evenodd" clip-rule="evenodd" d="M501.105 820.844C501.105 818.95 500.947 817.055 501.105 815.319C501.421 813.109 502.842 811.846 504.736 811.846C506.631 811.846 507.736 813.109 508.051 815.634C508.367 820.37 508.683 824.949 508.999 829.685C509.156 832.368 508.051 833.947 506.157 834.263C504.263 834.578 502.526 833.158 502.052 830.632C501.421 827.474 501.263 824.159 500.79 820.844H501.105Z" fill="#293250"/>
<path fill-rule="evenodd" clip-rule="evenodd" d="M957.764 781.609C983.497 781.294 1009.07 780.978 1034.8 780.662C1037.01 780.662 1039.38 780.82 1041.59 780.978C1044.75 781.136 1045.7 781.767 1046.17 784.924C1046.64 787.766 1046.8 790.608 1047.12 793.449C1049.17 813.34 1051.22 833.074 1053.27 852.965C1053.43 854.07 1053.43 855.175 1053.43 856.438C1053.43 858.49 1052.48 859.753 1050.43 860.542C1047.43 861.647 1044.43 862.121 1041.28 862.121C990.285 861.805 939.136 861.49 888.145 861.174C882.304 861.174 880.41 859.437 879.621 853.754C876.463 832.284 873.306 810.972 870.149 789.503C869.991 788.555 869.833 787.45 869.833 786.503C869.833 783.662 870.938 782.714 873.78 782.557C901.88 782.241 929.822 781.925 957.764 781.609" fill="#293250"/>
<path fill-rule="evenodd" clip-rule="evenodd" d="M941.679 819.571C944.679 824.623 947.362 828.885 949.888 833.463C950.836 835.042 951.941 835.674 954.151 834.411C953.361 830.938 952.414 827.465 951.625 824.149C949.73 823.834 947.994 823.991 946.889 823.202C945.784 822.413 945.31 820.676 944.521 819.255C943.732 819.413 942.942 819.413 941.679 819.571M972.937 820.992V834.411C974.042 834.095 974.989 834.253 975.147 833.779C978.146 829.359 980.199 824.465 982.724 818.624C978.936 819.571 976.094 820.361 972.937 820.992M965.359 834.411V819.255H957.624C959.045 824.623 960.307 829.517 961.57 834.568C962.991 834.568 964.096 834.568 965.359 834.411M949.415 812.309C950.52 810.099 951.625 808.047 952.73 805.995C953.204 805.048 953.677 803.942 954.309 802.995C955.572 801.101 957.466 800.469 959.045 801.417C960.781 802.522 961.097 804.1 960.465 805.837C959.834 807.731 958.887 809.468 957.94 811.678H966.149C965.675 810.415 964.886 809.152 964.886 807.889C964.886 806.626 965.359 805.048 966.149 804.1C967.411 802.837 969.148 803.311 970.411 804.574C971.516 805.679 972.463 807.1 973.253 808.363C974.831 811.046 976.883 812.625 980.199 811.994C981.935 811.678 983.672 811.836 985.408 811.994C989.039 812.152 990.618 813.888 990.302 817.519C990.144 818.782 989.828 820.045 989.355 821.308C986.829 826.675 984.303 831.885 981.777 837.252C980.356 840.094 978.146 841.357 974.831 841.515C967.254 841.672 959.676 841.988 952.098 842.304C948.468 842.462 946.257 841.199 944.521 838.042C942.153 833.779 939.469 829.675 936.943 825.57C936.47 824.781 935.996 823.834 935.365 823.044C931.734 817.519 932.839 811.678 941.364 812.467C943.732 812.467 946.573 812.309 949.415 812.309" fill="white"/>
<path fill-rule="evenodd" clip-rule="evenodd" d="M990.916 1025.67C958.554 1025.99 936.453 1026.3 914.509 1026.46H910.72C908.826 1026.3 907.405 1025.04 907.405 1023.14C907.405 1021.09 908.826 1019.99 910.563 1019.67C911.51 1019.51 912.615 1019.51 913.562 1019.51C958.08 1019.04 1002.44 1018.41 1046.96 1017.93C1048.38 1017.93 1049.8 1017.78 1051.22 1017.93C1053.43 1018.25 1054.85 1019.67 1054.69 1021.57C1054.54 1023.62 1053.27 1024.57 1051.22 1024.72C1049.96 1024.88 1048.7 1024.88 1047.27 1024.88C1025.17 1025.2 1002.91 1025.51 990.916 1025.67" fill="#293250"/>
<path fill-rule="evenodd" clip-rule="evenodd" d="M961.238 1050.93L1008.12 1049.98C1009.54 1049.98 1010.97 1049.98 1012.39 1050.14C1014.28 1050.3 1015.7 1051.24 1015.86 1053.3C1016.02 1055.19 1014.75 1056.45 1012.39 1056.93C1011.44 1057.09 1010.33 1057.09 1009.39 1057.09C979.392 1057.87 949.24 1058.66 919.245 1059.45C916.561 1059.45 913.72 1059.45 911.036 1059.14C908.195 1058.82 906.932 1057.56 906.932 1055.66C906.932 1053.45 908.51 1052.35 911.51 1052.19C927.612 1051.88 943.557 1051.4 959.659 1051.09H961.395C961.238 1051.09 961.238 1050.93 961.238 1050.93" fill="#293250"/>
<path fill-rule="evenodd" clip-rule="evenodd" d="M1035.12 1055.82C1032.91 1055.98 1030.54 1056.14 1028.33 1056.14C1027.23 1056.14 1025.8 1056.14 1025.02 1055.51C1024.07 1054.88 1023.12 1053.61 1023.12 1052.51C1023.12 1051.56 1024.23 1050.3 1025.17 1049.67C1025.96 1049.03 1027.38 1049.03 1028.49 1049.03C1032.75 1048.72 1037.01 1048.56 1041.28 1048.4C1042.22 1048.4 1043.33 1048.4 1044.28 1048.56C1046.17 1049.03 1047.12 1050.46 1046.96 1052.35C1046.8 1054.09 1045.54 1055.19 1043.8 1055.35C1040.96 1055.51 1038.12 1055.35 1035.28 1055.35C1035.12 1055.51 1035.12 1055.66 1035.12 1055.82" fill="#293250"/>
<path fill-rule="evenodd" clip-rule="evenodd" d="M1162.78 653.534L936.4 654.955H931.664C927.243 654.797 926.138 654.008 925.665 649.43C924.402 637.59 923.297 625.75 922.034 613.91C920.139 595.124 918.245 576.18 916.351 557.394C914.456 539.239 912.72 521.085 910.825 503.088C908.931 484.302 907.037 465.358 905.142 446.572C903.248 428.575 901.511 410.579 899.775 392.582C898.354 377.9 896.933 363.219 895.355 348.537C895.197 347.274 894.565 346.169 893.934 345.064C892.197 342.223 892.829 340.17 896.144 339.223C897.091 338.907 898.038 338.75 899.143 338.75C901.669 338.75 904.353 339.223 906.879 339.223C1053.06 340.012 1199.25 340.96 1345.43 341.749C1347.8 341.749 1350.01 341.591 1352.38 341.749C1355.53 341.907 1356.48 342.854 1356.8 345.853C1358.69 360.377 1360.59 374.901 1362.64 389.267C1365.64 410.736 1368.64 432.206 1371.64 453.518C1374.95 476.882 1378.27 500.404 1381.58 523.768C1384.58 545.238 1387.58 566.708 1390.58 588.02C1393.26 606.964 1395.79 625.75 1398.47 644.694V645.167C1399.58 651.324 1399.1 651.956 1392.63 651.956C1316.07 652.745 1239.34 653.219 1162.78 653.534C1162.78 653.692 1162.78 653.692 1162.78 653.534" fill="#293250"/>
<path fill-rule="evenodd" clip-rule="evenodd" d="M1124.89 609.332L898.512 610.753H893.776C889.356 610.595 888.251 609.805 887.777 605.227C886.514 593.387 885.409 581.547 884.146 569.707C882.252 550.921 880.357 531.977 878.463 513.191C876.569 495.037 874.832 476.882 872.938 458.885C871.043 440.099 869.149 421.155 867.255 402.369C865.36 384.373 863.624 366.376 861.887 348.379C860.466 333.698 859.045 319.016 857.467 304.335C857.309 303.072 856.677 301.967 856.046 300.862C854.31 298.02 854.941 295.968 858.256 295.02C859.203 294.705 860.151 294.547 861.256 294.547C863.781 294.547 866.465 295.02 868.991 295.02C1015.17 295.81 1161.36 296.757 1307.54 297.546C1309.91 297.546 1312.12 297.388 1314.49 297.546C1317.65 297.704 1318.59 298.651 1318.91 301.651C1320.8 316.175 1322.7 330.698 1324.75 345.064C1327.75 366.534 1330.75 388.004 1333.75 409.315C1337.06 432.68 1340.38 456.202 1343.69 479.566C1346.69 501.036 1349.69 522.505 1352.69 543.817C1355.38 562.761 1357.9 581.547 1360.59 600.491V600.965C1361.69 607.122 1361.22 607.753 1354.74 607.753C1278.18 608.542 1201.46 609.016 1124.89 609.332C1124.89 609.49 1124.89 609.49 1124.89 609.332" fill="white"/>
<path fill-rule="evenodd" clip-rule="evenodd" d="M1313.8 298.494H1128.94C1141.89 400.791 1154.83 502.93 1167.78 604.912H1356.27C1342.22 502.614 1328.01 400.791 1313.8 298.494V298.494ZM1086.16 291.39H1310.8C1312.38 291.39 1313.96 291.39 1315.54 291.232C1318.85 291.232 1319.96 292.021 1320.43 295.179C1321.38 301.02 1322.17 306.861 1322.96 312.702C1326.59 339.065 1330.38 365.587 1334.01 391.95C1337.8 419.735 1341.74 447.677 1345.53 475.462C1349.16 501.352 1352.79 527.084 1356.43 552.974L1363.53 604.122C1363.69 605.385 1364.16 606.648 1364.32 607.911C1364.63 611.226 1362.74 613.121 1359.58 612.647C1357.53 612.331 1355.64 612.174 1353.58 612.174C1200.14 612.331 1046.85 612.331 893.404 612.489H889.458C884.564 612.331 883.617 611.542 882.985 606.49L881.565 593.23C879.512 572.076 877.302 550.921 875.25 529.925C872.882 505.93 870.356 481.934 867.83 458.096C865.62 436.942 863.568 415.788 861.516 394.792C859.305 373.638 857.253 352.484 855.043 331.488C853.78 319.806 852.675 308.124 851.412 296.441C850.939 292.337 852.201 291.074 856.306 290.758H861.042H1086.16V291.39Z" fill="#FF6663"/>
<path fill-rule="evenodd" clip-rule="evenodd" d="M1233.76 385.636L1163.2 388.951H1161.93C1157.83 388.951 1156.41 388.004 1156.09 383.899C1155.46 377.742 1154.83 371.586 1154.36 365.429C1153.09 351.221 1151.67 337.171 1150.41 322.963C1149.94 318.7 1151.67 316.49 1155.94 316.017C1156.73 315.859 1157.67 316.017 1158.46 316.017C1203.14 315.859 1247.66 315.543 1292.33 315.385H1294.54C1299.59 315.385 1301.49 316.964 1302.28 322.016L1306.54 346.169C1308.12 355.325 1309.86 364.482 1311.43 373.638C1311.59 374.427 1311.75 375.374 1311.75 376.164C1311.91 380.11 1310.17 382.005 1306.22 382.32C1302.59 382.478 1299.12 382.794 1295.49 382.952C1274.97 383.899 1254.44 384.846 1233.76 385.636" fill="#293250"/>
<path fill-rule="evenodd" clip-rule="evenodd" d="M900.31 444.024C904.099 431.237 911.203 420.502 921.306 412.135C931.409 403.768 943.092 398.874 956.668 397.138C925.568 388.455 896.521 419.555 900.31 444.024M998.818 416.082C1006.71 402.189 1016.18 390.665 1027.55 380.562C1039.07 370.458 1051.86 362.565 1066.7 358.145C1064.17 355.461 1059.44 353.409 1054.54 352.462C1043.49 350.409 1033.08 352.777 1023.13 357.198C1003.4 365.88 988.557 380.246 976.559 397.927C976.401 398.085 976.559 398.401 976.401 399.032C985.558 402.189 992.977 407.399 998.818 416.082M944.039 480.965C945.933 480.807 947.196 480.649 948.459 480.491C964.561 477.176 976.086 467.862 983.347 453.18C984.295 451.444 984.768 449.391 985.242 447.497C987.61 435.973 981.295 428.711 969.455 429.5C968.982 429.5 968.666 429.5 968.192 429.658C950.511 433.131 938.04 443.077 931.252 459.653C929.989 462.81 929.831 466.599 929.989 470.23C930.304 475.281 933.462 478.597 938.356 480.175C940.25 480.491 942.46 480.649 944.039 480.965M1084.54 487.279C1085.17 486.806 1085.49 486.648 1085.64 486.49C1093.7 472.124 1101.43 457.443 1105.69 441.34C1112.32 416.555 1107.43 394.138 1090.54 374.721C1089.43 373.458 1088.33 372.195 1086.75 370.458C1086.75 371.721 1086.75 372.195 1086.91 372.668C1091.64 386.403 1091.17 400.295 1088.01 414.187C1084.07 431.868 1075.86 447.497 1064.96 461.863C1064.02 463.126 1063.23 464.231 1062.12 465.809C1072.38 470.545 1079.49 477.649 1084.54 487.279M994.398 521.378C994.082 550.11 1018.08 568.738 1045.23 560.845C1068.44 554.057 1085.17 528.798 1082.33 504.802C1079.17 478.439 1055.65 462.652 1029.13 472.124C1008.76 479.07 994.714 499.593 994.398 521.378M995.503 467.862C995.661 468.02 995.819 468.177 995.977 468.177C996.45 467.862 997.082 467.546 997.555 467.072C1010.03 457.285 1023.92 454.759 1038.92 460.126C1044.13 462.021 1049.49 462.179 1054.86 463.126C1066.54 449.391 1075.23 434.078 1080.12 416.555C1083.12 405.662 1084.38 394.612 1082.49 383.403C1081.22 376.615 1079.01 370.143 1074.44 364.617C1069.7 364.617 1065.28 365.722 1061.02 367.617C1041.92 375.826 1026.76 388.771 1014.45 405.347C1010.5 410.556 1007.34 416.397 1004.19 422.238C1003.55 423.501 1003.24 425.396 1003.55 426.659C1007.03 440.393 1004.19 453.022 997.24 465.02C996.608 465.967 995.977 466.915 995.503 467.862M971.034 393.349C972.139 391.77 973.086 390.507 974.033 389.402C985.242 374.247 998.818 361.618 1015.87 352.935C1025.02 348.199 1034.65 345.358 1045.07 344.884C1050.76 344.726 1056.28 345.358 1061.65 347.252C1063.07 347.726 1064.49 347.726 1065.75 348.357C1068.91 349.462 1072.54 350.252 1075.23 352.146C1094.33 365.249 1108.38 381.983 1113.74 405.031C1116.9 418.45 1115.64 431.553 1112.17 444.655C1107.9 459.968 1100.64 474.018 1093.22 487.911C1092.59 489.016 1092.12 490.279 1091.33 491.226C1088.64 494.699 1088.49 498.488 1089.12 502.75C1093.38 534.165 1070.49 565.265 1038.92 569.527C1018.55 572.211 999.45 561.161 991.399 542.217C990.451 540.006 989.188 537.796 987.768 536.06C978.138 524.22 976.401 510.643 980.032 496.278C981.453 490.594 984.137 485.069 986.347 479.544C985.715 480.017 984.768 480.807 983.821 481.596C970.244 492.647 954.931 498.646 937.251 496.751C921.622 495.015 909.782 487.437 902.994 472.756C902.52 471.65 902.046 470.703 901.415 469.756C889.101 450.496 890.364 427.922 904.73 410.083C914.834 397.453 927.779 390.034 944.039 388.929C951.932 388.297 959.825 389.876 967.245 392.402C968.192 392.244 969.455 392.717 971.034 393.349" fill="#293250"/>
<path fill-rule="evenodd" clip-rule="evenodd" d="M1229.31 347.635C1227.26 347.95 1225.99 348.266 1224.57 348.424C1226.31 356.949 1227.57 359.79 1230.41 361.369C1230.41 356.791 1229.78 352.528 1229.31 347.635M1236.73 350.003C1237.04 353.16 1237.36 356.949 1237.83 360.895H1241.46C1242.25 356.159 1243.04 351.739 1243.83 347.635C1241.46 348.424 1239.25 349.055 1236.73 350.003M1217.78 350.792C1215.57 351.108 1213.52 351.265 1211.31 351.581C1212.73 355.054 1214.15 358.685 1215.73 362.158C1217.63 362 1219.21 362 1221.26 361.842C1219.84 357.738 1218.73 354.107 1217.78 350.792M1214 341.162L1217.78 334.532C1218.42 333.584 1218.89 332.322 1219.84 331.848C1220.94 331.374 1222.68 331.059 1223.78 331.532C1225.2 332.006 1225.84 333.584 1225.2 335.163C1224.57 336.9 1223.63 338.478 1222.68 340.531C1225.36 341.636 1227.73 340.373 1230.89 340.688C1229.94 338.952 1229.31 337.689 1228.84 336.584C1227.89 334.532 1228.2 332.637 1229.78 331.69C1231.36 330.743 1233.1 331.059 1234.68 332.953C1236.25 335.163 1237.83 337.373 1239.25 339.583C1241.78 339.426 1244.15 338.952 1246.36 338.952C1250.46 338.952 1252.2 341.004 1251.57 344.951C1250.46 351.265 1249.2 357.58 1247.94 363.895C1247.31 367.052 1245.73 368.157 1242.41 368.157C1234.04 368.473 1225.84 368.789 1217.47 369.104C1211.31 369.262 1210.36 368.631 1208.15 363.105C1206.26 358.369 1204.21 353.633 1202.16 348.897C1200.26 344.793 1200.89 343.214 1205.31 342.267C1208 341.636 1210.84 341.478 1214 341.162" fill="white"/>
<path fill-rule="evenodd" clip-rule="evenodd" d="M1192.05 306.049C1191.42 305.575 1190.31 304.944 1189.52 304.155C1188.73 303.208 1188.26 301.945 1187.63 300.84C1182.1 291.841 1176.58 282.685 1171.05 273.687C1169.63 271.319 1169.47 269.74 1171.21 268.319C1172.79 266.898 1175.15 267.214 1176.89 269.266C1178.31 271.003 1179.58 273.055 1180.84 274.949C1185.89 283.316 1190.78 291.683 1195.68 300.208C1196.15 300.997 1196.47 301.787 1196.47 302.576C1196.31 304.47 1194.57 306.207 1192.05 306.049" fill="#293250"/>
<path fill-rule="evenodd" clip-rule="evenodd" d="M1210.83 297.051C1210.83 299.261 1210.04 300.524 1208.31 300.997C1206.73 301.471 1205.46 300.839 1204.68 299.419C1204.04 298.313 1203.57 297.051 1203.1 295.945C1199.78 286.158 1196.31 276.528 1192.99 266.74C1192.84 266.267 1192.68 265.951 1192.68 265.477C1192.2 263.109 1192.84 261.373 1194.57 260.741C1196.47 259.952 1198.36 260.741 1199.31 263.267C1201.36 268.477 1203.1 273.844 1204.83 279.054C1206.57 284.263 1208.31 289.315 1210.04 294.525C1210.36 295.472 1210.52 296.419 1210.83 297.051" fill="#293250"/>
<path fill-rule="evenodd" clip-rule="evenodd" d="M1108.85 536.849C1107.9 539.217 1106.96 542.533 1105.38 545.532C1101.59 552.952 1096.22 558.951 1090.22 564.792C1089.43 565.581 1088.33 566.37 1087.22 566.37C1086.12 566.37 1084.54 565.739 1083.91 564.95C1083.28 564.16 1083.43 562.424 1083.91 561.476C1084.22 560.529 1085.33 559.74 1086.12 558.951C1092.75 552.162 1099.06 545.058 1101.59 535.586C1101.75 534.955 1102.06 534.166 1102.54 533.692C1103.48 532.271 1104.9 531.482 1106.64 532.271C1108.38 532.745 1109.01 534.008 1108.85 536.849" fill="#293250"/>
<path fill-rule="evenodd" clip-rule="evenodd" d="M933.62 368.564C933.146 369.195 932.357 370.3 931.252 370.932C929.515 371.879 927.621 372.353 925.727 373.142C919.412 375.668 913.413 378.825 909.782 384.824C908.677 386.561 907.098 387.034 905.362 386.087C903.625 385.14 902.994 383.403 903.783 381.667C904.573 379.93 905.678 378.352 906.941 377.089C911.045 372.668 915.939 369.669 921.464 367.459C924.148 366.354 926.832 365.249 929.515 364.617C932.041 363.828 933.778 365.406 933.62 368.564" fill="#293250"/>
<path fill-rule="evenodd" clip-rule="evenodd" d="M1223.78 292.788V294.525C1223.62 296.104 1222.67 297.209 1221.09 297.524C1219.36 297.84 1218.09 296.893 1217.31 295.314C1216.99 294.525 1216.83 293.736 1216.67 292.788C1215.88 285.685 1214.94 278.581 1214.15 271.477C1213.99 270.845 1213.99 270.056 1214.15 269.266C1214.46 267.53 1215.57 266.425 1217.31 266.267C1218.88 266.109 1220.15 266.898 1220.62 268.319C1220.94 268.951 1220.94 269.74 1221.09 270.372C1222.2 278.107 1222.99 285.527 1223.78 292.788" fill="#293250"/>
<path fill-rule="evenodd" clip-rule="evenodd" d="M905.204 372.984C902.994 372.984 901.415 371.563 901.573 369.669C901.731 368.406 902.204 366.669 903.152 365.88C906.782 362.565 910.729 359.408 914.518 356.092C914.834 355.777 915.307 355.619 915.623 355.461C917.675 354.672 919.727 355.145 920.517 356.724C921.464 358.302 920.833 359.881 918.938 361.46C914.991 364.775 911.203 368.248 907.256 371.563C906.625 372.195 905.677 372.668 905.204 372.984" fill="#293250"/>
<path fill-rule="evenodd" clip-rule="evenodd" d="M1112.48 555.004C1112.32 555.635 1112.01 556.583 1111.53 557.372C1109.48 560.529 1107.43 563.844 1105.06 566.844C1103.48 568.896 1101.43 569.212 1099.85 568.107C1098.27 567.002 1098.12 564.949 1099.54 562.739C1101.75 559.108 1104.12 555.477 1106.48 552.004C1107.43 550.584 1108.85 549.952 1110.59 550.584C1112.17 551.531 1112.8 552.952 1112.48 555.004" fill="#293250"/>
<path fill-rule="evenodd" clip-rule="evenodd" d="M1036.39 537.954C1044.92 537.954 1053.28 531.64 1055.49 523.431C1058.49 512.538 1050.76 503.54 1039.71 505.118C1031.34 506.381 1024.24 513.327 1022.66 521.694C1021.24 530.693 1027.23 537.954 1036.39 537.954M1015.39 524.22C1015.55 509.854 1029.29 495.331 1046.65 498.33C1056.6 500.067 1063.54 509.223 1063.23 519.484C1062.75 534.481 1048.23 546.795 1033.39 544.901C1022.81 543.322 1015.39 534.955 1015.39 524.22" fill="#293250"/>
<path fill-rule="evenodd" clip-rule="evenodd" d="M999.608 517.748C1000.71 513.959 1001.34 509.854 1002.77 506.223C1007.5 494.068 1015.55 484.596 1026.76 477.808C1029.44 476.229 1032.44 475.282 1035.44 474.334C1037.18 473.861 1039.07 474.65 1039.55 476.545C1039.86 477.65 1039.39 479.07 1038.92 480.018C1038.6 480.649 1037.5 480.965 1036.71 481.123C1020.6 487.122 1011.45 499.119 1007.34 515.537C1007.03 516.8 1007.03 518.063 1006.71 519.326C1006.24 521.694 1004.98 522.957 1003.24 522.799C1001.5 522.641 1000.08 521.221 999.766 519.011V517.748H999.608Z" fill="#293250"/>
<path fill-rule="evenodd" clip-rule="evenodd" d="M1012.87 545.216C1010.82 545.374 1008.61 543.322 1008.61 541.269C1008.61 539.533 1010.18 537.954 1011.76 537.954C1013.82 537.954 1016.03 539.848 1016.03 541.901C1016.03 543.637 1014.6 545.216 1012.87 545.216" fill="#293250"/>
<path fill-rule="evenodd" clip-rule="evenodd" d="M1044.92 522.326C1044.92 521.694 1045.07 521.221 1044.92 520.589C1044.76 516.485 1041.92 515.064 1038.44 517.274C1037.65 517.748 1036.86 518.537 1036.07 519.168C1034.5 520.273 1032.76 520.431 1031.34 518.853C1029.92 517.432 1030.23 515.695 1031.34 514.117C1034.34 509.696 1041.6 507.802 1046.34 510.17C1051.07 512.696 1053.6 520.116 1051.23 525.167C1050.44 526.904 1049.34 528.009 1047.28 527.693C1045.39 527.22 1044.6 525.799 1044.6 523.904C1044.6 523.431 1044.76 522.957 1044.92 522.326C1044.76 522.326 1044.76 522.326 1044.92 522.326" fill="#293250"/>
<path fill-rule="evenodd" clip-rule="evenodd" d="M1238.5 589.125H1186.88C1186.09 589.125 1185.46 589.125 1184.83 588.967C1183.4 588.494 1182.14 587.389 1182.46 585.81C1182.77 584.547 1183.72 583.284 1184.67 582.653C1185.61 582.021 1187.19 582.179 1188.46 582.179C1221.61 582.021 1254.6 582.021 1287.75 581.863C1289.33 581.863 1290.91 581.863 1292.49 582.179C1294.07 582.495 1294.86 583.6 1295.02 585.336C1295.02 586.915 1294.23 588.178 1292.65 588.652C1291.23 588.967 1289.81 588.967 1288.39 588.967H1238.5V589.125Z" fill="#293250"/>
<path fill-rule="evenodd" clip-rule="evenodd" d="M1234.55 562.446C1244.97 562.288 1259.65 561.972 1274.49 561.656C1275.76 561.656 1277.02 561.656 1278.28 561.814C1279.86 562.13 1281.12 563.235 1280.81 564.814C1280.65 566.076 1279.7 567.339 1278.76 568.129C1277.97 568.76 1276.55 568.76 1275.44 568.76C1247.18 568.918 1218.92 569.076 1190.82 569.234C1188.3 569.234 1185.61 569.234 1183.09 569.076C1180.72 568.918 1179.46 567.339 1179.46 565.603C1179.46 563.709 1180.88 562.446 1183.25 562.288C1185.3 562.13 1187.19 562.288 1189.25 562.288C1202.98 562.446 1216.56 562.446 1234.55 562.446" fill="#293250"/>
<path fill-rule="evenodd" clip-rule="evenodd" d="M1186.56 536.082C1184.98 535.135 1183.25 534.503 1181.67 533.398C1177.09 530.399 1176.46 526.294 1179.93 522.032C1180.41 521.401 1181.04 520.611 1181.67 520.138C1183.25 519.19 1183.72 517.77 1183.4 516.033V515.559C1183.56 511.771 1184.67 510.034 1186.88 510.034C1189.09 509.876 1190.03 511.297 1190.67 515.559C1191.61 515.875 1192.72 516.191 1193.67 516.507C1195.88 517.454 1196.82 518.875 1196.35 520.769C1195.88 522.821 1194.3 523.611 1192.4 523.295C1189.25 522.979 1187.04 524.242 1184.83 527.084C1186.88 528.031 1188.46 528.662 1190.03 529.452C1191.61 530.241 1193.51 531.03 1194.77 532.135C1198.4 535.451 1197.61 540.029 1193.19 542.239C1192.4 542.555 1191.61 542.87 1190.67 543.344C1190.35 545.87 1191.61 549.343 1187.67 549.816C1184.19 550.132 1184.04 546.975 1183.09 544.607C1182.77 544.449 1182.46 544.291 1182.3 544.291C1180.25 544.133 1178.67 543.344 1178.35 541.134C1178.19 539.239 1179.77 537.819 1182.3 537.187C1183.56 536.871 1184.83 536.556 1186.09 536.398C1186.4 536.398 1186.4 536.24 1186.56 536.082" fill="#293250"/>
<path fill-rule="evenodd" clip-rule="evenodd" d="M1218.92 526.452C1220.98 524.873 1221.77 523.453 1220.98 521.243C1218.92 522.348 1217.66 523.61 1218.92 526.452M1222.87 533.398C1220.34 533.082 1217.98 533.398 1215.92 532.609C1212.14 531.03 1210.24 526.136 1211.5 522.032C1212.61 518.401 1214.98 515.875 1218.61 514.454C1222.87 512.876 1227.61 515.086 1229.5 519.664C1231.55 525.031 1231.71 530.557 1229.66 536.082C1227.45 541.765 1222.87 543.975 1217.35 544.607C1216.71 544.765 1215.92 544.607 1215.29 544.291C1213.71 543.817 1212.93 542.712 1212.77 541.134C1212.77 539.555 1213.4 538.292 1214.98 537.818C1216.08 537.503 1217.19 537.503 1218.29 537.187C1220.34 536.713 1222.4 535.924 1222.87 533.398" fill="#293250"/>
<path fill-rule="evenodd" clip-rule="evenodd" d="M1243.08 524.242C1240.55 524.716 1239.6 525.978 1241.03 528.504C1241.66 526.926 1242.45 525.505 1243.08 524.242M1243.87 535.45C1243.55 535.293 1243.39 535.135 1243.39 535.135C1239.76 536.24 1236.45 535.766 1234.24 532.451C1231.87 528.978 1232.34 525.347 1234.4 521.874C1237.39 516.664 1241.5 515.086 1246.87 517.454C1248.13 518.085 1249.55 519.348 1250.02 520.611C1251.13 524.084 1252.08 527.873 1252.23 531.504C1252.71 537.187 1249.71 541.291 1245.13 544.291C1244.34 544.764 1243.39 545.238 1242.45 545.554C1240.55 546.027 1238.97 545.554 1238.18 543.659C1237.39 541.765 1238.03 540.186 1239.76 539.239C1241.34 538.292 1243.08 537.661 1243.87 535.45" fill="#293250"/>
<path fill-rule="evenodd" clip-rule="evenodd" d="M1273.86 529.61C1270.23 531.188 1270.07 531.978 1271.81 534.819C1273.7 533.714 1274.49 532.135 1273.86 529.61M1263.6 532.767C1263.76 528.662 1265.34 525.031 1269.76 523.295C1275.91 520.769 1282.23 525.347 1281.28 531.978C1280.97 534.346 1279.86 536.556 1278.44 538.608C1275.91 542.239 1272.6 543.186 1269.13 541.923C1265.34 540.344 1263.44 537.503 1263.6 532.767" fill="#293250"/>
<path fill-rule="evenodd" clip-rule="evenodd" d="M1260.29 542.081C1260.29 543.66 1258.86 545.081 1257.29 545.081C1255.55 545.081 1254.13 543.502 1254.29 541.765C1254.44 540.187 1255.87 538.924 1257.44 539.082C1259.18 539.082 1260.44 540.503 1260.29 542.081" fill="#293250"/>
<path fill-rule="evenodd" clip-rule="evenodd" d="M1457.07 1150.52C1454.85 1155.09 1454.38 1155.25 1449.65 1154.3C1443.65 1153.04 1437.65 1151.62 1431.65 1150.2C1429.6 1149.73 1427.39 1149.09 1425.33 1149.25C1422.18 1149.41 1419.81 1149.09 1419.49 1145.31C1416.49 1145.15 1413.81 1144.83 1410.97 1144.67C1398.5 1144.67 1386.03 1143.25 1373.87 1140.57C1371.34 1140.1 1370.55 1139.31 1370.55 1136.46C1370.55 1132.36 1370.71 1128.1 1370.87 1123.99C1371.98 1101.1 1372.92 1078.05 1374.03 1055.16C1375.29 1026.43 1376.71 997.859 1377.97 969.127C1378.92 947.815 1379.87 926.345 1380.82 905.033C1382.08 876.144 1383.5 847.097 1384.76 818.207C1385.71 797.211 1386.66 776.057 1387.6 755.061L1391.87 662.235C1391.87 660.815 1392.18 658.605 1393.13 657.973C1395.34 656.552 1395.5 654.658 1395.66 652.448C1395.97 647.87 1397.71 644.554 1402.76 643.449C1407.81 642.344 1409.23 638.082 1409.86 633.662C1410.65 627.979 1411.44 622.295 1411.6 616.612C1412.39 599.247 1413.02 581.882 1413.34 564.516C1413.65 548.888 1413.49 533.259 1413.34 517.63C1413.18 511.158 1412.39 504.843 1411.92 498.371C1411.92 497.739 1411.76 497.265 1411.6 496.634C1409.07 484.478 1400.55 478.795 1388.55 481.795C1378.13 484.478 1369.13 489.846 1362.19 498.055C1356.5 504.685 1351.45 511.789 1346.09 518.735C1344.82 520.314 1343.88 522.05 1342.77 523.787C1343.24 524.418 1343.4 524.892 1343.88 525.208C1353.66 533.101 1363.61 540.363 1374.66 546.362C1379.39 548.888 1383.66 549.361 1388.39 546.52C1390.29 545.415 1392.66 544.625 1394.87 544.152C1398.65 543.52 1400.55 546.046 1399.6 549.677C1399.13 551.098 1398.5 552.361 1397.87 553.624C1395.66 558.044 1394.55 562.78 1395.02 567.832C1395.66 574.778 1392.34 580.619 1389.66 586.618C1388.39 589.301 1386.03 590.091 1383.03 589.301C1380.18 588.512 1377.34 587.249 1374.66 585.986C1362.5 580.461 1350.35 574.936 1338.51 569.095C1325.72 562.78 1312.62 556.623 1300.78 548.572C1297.15 546.046 1293.67 543.362 1290.36 540.363C1283.57 534.206 1282.47 528.207 1287.67 520.472C1293.83 511.473 1300.62 502.949 1307.41 494.424C1314.04 486.057 1321.3 478.006 1327.93 469.481C1331.88 464.429 1334.88 458.588 1338.19 453.221C1338.98 451.958 1339.45 450.695 1339.93 449.274C1341.51 444.854 1341.03 443.591 1336.93 441.381C1321.14 433.014 1305.2 424.805 1289.25 416.438C1286.57 415.017 1283.89 413.596 1281.36 412.018C1276.31 408.861 1272.68 404.598 1271.41 398.599C1271.26 397.81 1270.94 397.021 1270.63 396.073C1270.47 395.758 1270.31 395.6 1270.15 395.284H1266.05C1261.47 395.126 1259.42 392.442 1261.15 388.18C1262.57 384.865 1264.31 381.708 1266.05 378.235C1265.26 377.603 1264.31 376.656 1263.21 376.024C1257.52 372.236 1251.68 368.447 1246 364.658C1244.26 363.553 1242.53 362.606 1240.95 361.343C1238.58 359.606 1237.95 357.712 1238.89 355.818C1240.16 353.607 1242.21 353.923 1244.26 354.239C1244.74 354.397 1245.05 354.397 1245.52 354.555C1254.21 356.765 1262.73 359.133 1271.41 360.869C1279.94 362.606 1286.73 366.552 1291.15 373.972C1293.2 377.603 1296.2 379.182 1300.15 380.287C1311.99 383.918 1323.67 387.864 1335.19 392.127C1344.66 395.6 1353.98 399.862 1363.45 403.651C1365.19 404.282 1366.77 405.072 1368.82 404.44C1369.92 404.125 1371.5 404.756 1372.76 405.387C1375.13 406.493 1377.34 407.913 1379.55 409.018C1383.66 410.913 1387.92 411.071 1392.02 409.334C1394.39 408.387 1396.76 407.282 1399.13 406.177C1410.34 400.494 1419.49 392.442 1428.33 383.602C1431.65 380.287 1433.39 376.34 1433.54 371.604C1433.7 364.658 1434.02 357.554 1434.17 350.608C1434.17 349.661 1434.02 348.714 1434.02 347.609C1429.28 346.977 1424.86 346.346 1420.28 345.556C1409.07 343.346 1405.44 339.873 1403.86 328.822C1402.13 317.456 1401.65 305.932 1404.97 294.723C1406.23 290.461 1407.02 286.041 1408.44 281.936C1409.71 278.463 1411.28 274.99 1413.34 271.991C1417.44 265.676 1423.76 262.677 1431.18 262.203C1451.07 261.256 1477.43 274.359 1477.75 306.09C1477.9 313.983 1475.85 321.403 1473.48 328.822C1471.12 336.084 1468.43 343.504 1466.85 351.082C1465.43 357.712 1465.12 364.5 1464.96 371.131C1464.96 374.288 1466.06 377.603 1467.33 380.603C1468.75 383.918 1470.64 386.917 1472.69 389.917C1474.75 392.916 1476.8 395.758 1479.17 398.441C1495.58 416.912 1504.42 439.013 1508.37 463.009C1510.74 476.901 1511.84 490.951 1513.58 504.843C1515.79 522.208 1517.84 539.574 1520.05 556.939C1521.79 569.884 1523.68 582.829 1525.42 595.774C1527.47 611.245 1532.21 625.926 1538.05 640.292C1539.79 644.554 1541.68 648.817 1543.1 653.079C1545 658.605 1547.05 664.13 1545.94 670.287C1545.79 670.76 1546.1 671.392 1546.26 672.023C1548.15 677.706 1548.15 683.547 1548.15 689.546C1548.15 690.651 1548 691.914 1548.31 693.019C1549.26 695.545 1549.57 697.597 1547.21 699.65C1546.58 700.123 1546.73 701.544 1546.58 702.491C1545.94 714.173 1545.15 725.698 1544.84 737.38C1544.68 747.01 1545.15 756.639 1545.47 766.269C1545.47 768.637 1545.79 770.847 1543.42 772.268C1542.63 772.742 1542.31 774.162 1542.15 775.268C1540.1 792.317 1538.05 809.367 1535.84 826.574C1533.31 846.623 1530.95 866.672 1528.42 886.721C1526.05 906.454 1523.53 926.345 1521.16 946.079C1518.63 966.285 1516.26 986.492 1513.74 1006.7C1511.37 1026.59 1508.85 1046.64 1506.48 1066.53C1504.11 1086.42 1501.58 1106.47 1499.22 1126.36C1498.58 1132.04 1497.64 1137.73 1497.16 1143.41C1496.69 1149.25 1492.58 1152.57 1485.95 1151.3C1477.59 1149.57 1463.7 1149.09 1457.07 1150.52" fill="white"/>
<path fill-rule="evenodd" clip-rule="evenodd" d="M1403.11 537.54C1400.9 539.118 1398.85 540.697 1396.8 542.118C1395.85 542.749 1395.06 543.696 1394.11 544.17C1391.59 545.591 1389.06 544.486 1388.59 541.644C1388.43 540.539 1388.59 539.434 1388.59 538.171C1389.69 521.437 1390.64 504.704 1391.74 487.97V484.812C1390.8 485.602 1390.01 486.075 1389.38 486.865C1385.75 490.969 1382.11 495.074 1378.64 499.178C1376.9 501.231 1375.17 502.02 1372.33 500.915C1369.8 499.968 1367.43 498.705 1365.38 496.968L1332.7 470.92C1330.33 469.026 1328.12 466.816 1326.39 464.448C1323.55 460.817 1323.7 459.238 1326.7 455.765C1333.81 447.714 1340.75 439.505 1348.33 431.769C1358.75 421.035 1369.49 410.615 1380.06 400.196C1388.11 392.303 1397.43 386.62 1408.32 383.62C1414 382.042 1419.37 379.674 1425.05 377.779C1425.21 376.832 1425.53 376.043 1425.69 375.253C1426.16 372.254 1428.21 370.675 1430.89 370.36C1441.47 369.097 1452.05 368.149 1462.47 367.044C1464.2 366.887 1465.94 367.044 1467.68 367.202C1469.89 367.36 1471.78 368.149 1472.57 370.202C1473.83 373.517 1476.36 374.148 1479.36 374.306C1491.67 375.096 1503.83 377.306 1515.67 380.621C1522.3 382.357 1528.77 384.883 1534.93 387.725C1543.93 391.829 1548.19 399.407 1548.82 409.352C1549.45 420.719 1547.56 431.612 1544.87 442.504C1542.51 451.818 1540.14 461.133 1537.45 470.289C1533.67 482.918 1532.56 495.863 1533.98 508.966C1536.19 530.12 1539.35 551.116 1543.14 571.954C1546.3 589.635 1549.45 607.159 1552.61 624.84C1552.61 625.313 1552.77 625.629 1552.77 626.103C1553.87 633.838 1550.72 637.627 1542.66 638.258C1535.24 638.89 1527.82 639.363 1520.41 639.995C1504.62 641.416 1488.67 642.836 1472.89 644.099C1466.26 644.573 1459.63 644.573 1453.15 644.573C1434.68 644.731 1416.21 644.731 1397.59 644.573C1395.22 644.573 1392.69 644.257 1390.32 643.941C1387.96 643.626 1386.85 642.205 1386.85 639.837C1386.06 625.155 1385.27 610.632 1384.48 596.108C1384.32 591.846 1385.75 588.846 1390.01 587.583C1393.32 586.636 1395.06 583.952 1396.16 580.795C1397.9 575.27 1398.69 569.586 1397.9 563.745C1396.8 556.168 1397.74 549.222 1402.48 542.907C1402.95 541.802 1404.22 540.223 1403.11 537.54" fill="#03CEA4"/>
<path fill-rule="evenodd" clip-rule="evenodd" d="M1449.95 1138.34C1457.37 1139.76 1464.47 1141.18 1471.58 1142.29C1478.84 1143.55 1485.78 1146.23 1493.36 1146.87C1494.94 1134.24 1496.68 1122.24 1497.94 1109.45C1482.47 1114.5 1467.31 1115.92 1451.68 1112.29C1451.05 1121.13 1450.58 1129.5 1449.95 1138.34M1444.74 1109.77C1432.9 1114.35 1421.22 1115.61 1409.22 1115.29C1397.22 1114.98 1385.54 1114.03 1374.01 1108.19C1373.54 1117.5 1373.07 1126.03 1372.59 1135.18C1395.8 1140.39 1418.85 1144.18 1442.21 1149.08C1443 1135.66 1443.79 1123.03 1444.74 1109.77M1445.21 1101.56C1445.53 1096.03 1446 1090.51 1446.32 1085.14L1450.11 1024.99L1455.79 936.904C1457.05 916.381 1458.31 896.017 1459.58 875.494C1461.47 844.079 1463.52 812.821 1465.58 781.406C1465.73 777.933 1465.58 774.46 1466.21 771.145C1469.05 755.674 1472.05 740.203 1475.05 724.732C1475.36 723.311 1475.52 721.89 1476.15 720.627C1476.78 719.207 1478.21 718.417 1479.63 718.891C1480.73 719.365 1481.68 720.312 1482.15 721.417C1482.63 722.206 1482.31 723.311 1482.15 724.416C1480.73 732.783 1479.47 741.15 1477.89 749.359C1475.21 763.251 1472.52 777.143 1472.05 791.509C1471.42 810.137 1469.84 828.766 1468.58 847.394C1466.84 873.6 1465.26 899.805 1463.52 926.011C1462.58 940.693 1461.63 955.532 1460.68 970.214C1459.1 995.63 1457.37 1021.2 1455.79 1046.62C1454.68 1062.88 1453.74 1079.3 1452.63 1095.56C1452.47 1098.56 1452.63 1101.56 1452.63 1104.72C1453.74 1105.03 1454.84 1105.82 1456.1 1105.98C1463.52 1107.08 1470.94 1108.19 1478.36 1106.77C1485.15 1105.5 1492.1 1103.93 1499.04 1102.35C1499.52 1098.87 1499.99 1095.24 1500.46 1091.77C1502.52 1075.19 1504.73 1058.78 1506.78 1042.2C1511.2 1007.31 1515.78 972.582 1520.36 937.693C1523.04 916.855 1525.72 895.859 1528.72 875.02C1531.25 857.024 1534.25 839.027 1536.62 821.03C1540.25 794.667 1543.09 768.303 1544.98 741.939C1546.09 725.679 1546.88 709.261 1546.09 692.843C1545.3 678.319 1542.93 664.111 1538.51 650.219C1537.25 646.273 1536.46 645.799 1532.35 646.115C1529.2 646.273 1526.04 646.588 1522.88 646.746C1503.46 647.693 1483.89 648.798 1464.47 649.746C1447.26 650.535 1430.06 650.693 1412.85 649.588C1407.96 649.272 1403.22 648.956 1398.01 648.641C1397.85 651.482 1397.54 654.008 1397.38 656.534C1395.8 686.844 1394.38 717.312 1392.8 747.623L1387.12 855.129C1384.91 896.49 1382.85 938.009 1380.8 979.37C1378.75 1017.73 1376.86 1056.09 1374.8 1094.61C1374.49 1100.45 1374.8 1100.93 1380.17 1103.29C1382.7 1104.4 1385.22 1105.35 1387.91 1105.98C1392.8 1106.93 1397.85 1107.71 1402.75 1108.03C1417.11 1108.98 1431.32 1108.19 1445.21 1101.56M1553.35 718.417C1552.56 741.781 1550.51 767.198 1547.19 792.456C1543.25 823.082 1538.51 853.551 1534.41 884.019C1531.25 907.541 1528.41 930.905 1525.41 954.427C1521.62 984.264 1517.51 1014.1 1513.73 1043.94C1511.67 1060.36 1509.62 1076.62 1507.41 1093.03C1505.2 1109.61 1502.99 1126.34 1500.94 1142.92C1500.15 1148.76 1499.52 1154.6 1498.89 1160.44C1498.41 1164.23 1497.31 1165.18 1493.52 1164.86C1479.31 1163.92 1465.26 1162.81 1451.05 1161.71C1448.68 1161.55 1446.63 1161.23 1444.74 1163.44C1444.11 1164.23 1442.37 1164.55 1441.26 1164.7C1429.9 1165.65 1418.69 1166.44 1407.32 1167.23C1392.01 1168.34 1376.7 1169.44 1361.38 1170.39C1351.91 1171.02 1342.44 1171.33 1332.97 1171.81C1331.39 1171.81 1329.81 1171.97 1328.23 1171.49C1324.92 1170.7 1323.97 1167.39 1326.18 1164.86C1327.29 1163.76 1328.55 1162.81 1329.81 1161.86C1340.55 1154.13 1351.12 1146.23 1361.86 1138.66C1364.23 1137.08 1365.17 1135.18 1365.33 1132.34C1366.91 1099.98 1368.65 1067.62 1370.38 1035.25C1371.96 1005.1 1373.54 974.792 1375.12 944.639C1376.7 914.171 1378.28 883.545 1379.85 853.077C1381.12 828.45 1382.54 803.823 1383.8 779.196L1387.59 704.367C1388.54 686.371 1389.48 668.216 1390.43 650.219V649.746C1391.06 642.168 1392.33 640.905 1399.75 641.537C1415.37 642.957 1431 643.747 1446.63 643.273C1464 642.642 1481.36 641.852 1498.57 641.063C1510.09 640.431 1521.46 639.8 1532.98 639.169C1534.41 639.011 1535.83 638.695 1537.09 638.221C1540.25 636.958 1541.83 637.432 1542.61 640.431C1545.3 650.219 1548.14 660.007 1550.19 669.952C1553.67 685.108 1553.82 700.578 1553.35 718.417" fill="#293250"/>
<path fill-rule="evenodd" clip-rule="evenodd" d="M1418.06 272.92C1417.59 274.025 1417.11 274.972 1416.8 275.919C1414.43 283.497 1411.74 291.232 1409.69 298.968C1408.27 304.019 1407.48 309.387 1407.01 314.596C1406.53 321.227 1407.01 327.857 1410.17 333.856C1412.53 338.434 1416.01 341.907 1421.22 342.539C1428.79 343.486 1435.74 340.802 1443.16 339.223C1442.37 333.856 1442.53 329.12 1443.79 324.384C1444.74 320.911 1446.47 318.859 1450.26 318.543C1451.68 318.385 1453.1 318.069 1454.37 317.596C1457.21 316.491 1459.58 314.754 1459.58 311.439C1459.58 307.492 1458.47 304.019 1454.68 301.967C1451.53 300.388 1448.84 301.651 1446.47 303.704C1443.95 305.756 1442.21 306.072 1439.53 304.335C1434.63 301.02 1430.21 297.231 1427.85 291.548C1425.79 286.654 1425.16 281.602 1425.16 276.235C1422.79 275.288 1420.58 274.183 1418.06 272.92M1466.84 356.115C1467 357.694 1467.15 360.062 1467.31 362.272C1467.47 363.377 1467.63 364.482 1467.63 365.745C1467.63 367.639 1466.84 369.06 1464.79 369.534C1462.89 369.849 1461.31 368.744 1460.84 366.534C1460.37 364.166 1460.05 361.64 1459.89 359.272C1459.89 356.273 1458.47 354.694 1455.95 353.273C1452.47 351.379 1449.32 348.853 1445.21 346.169C1443.79 346.485 1441.26 347.117 1438.9 347.748C1439.05 354.221 1439.37 360.377 1439.53 366.534C1439.53 367.797 1439.53 369.06 1439.37 370.323C1439.21 372.059 1438.11 373.165 1436.21 373.322C1434.32 373.322 1433.21 372.375 1432.74 370.639C1432.42 369.534 1432.42 368.429 1432.42 367.166C1432.27 363.219 1432.42 359.43 1432.27 355.484C1432.27 353.589 1431.79 351.853 1431.64 349.8C1429.11 349.8 1426.9 349.643 1424.69 349.8C1415.53 350.432 1409.06 345.854 1404.48 338.434C1401.96 334.33 1400.69 329.751 1400.38 325.015C1400.22 322.332 1399.27 320.595 1397.06 319.017C1393.12 316.333 1392.8 314.123 1395.8 310.018C1399.59 304.651 1402.43 298.652 1404.17 292.179C1405.9 285.707 1408.27 279.392 1410.32 272.92C1410.8 271.499 1411.27 269.92 1411.9 268.342C1406.53 263.132 1404.8 256.659 1404.48 249.555C1404.32 246.24 1404.64 242.925 1405.43 239.768C1407.17 233.611 1414.43 229.349 1420.43 235.821C1420.74 236.295 1421.22 236.61 1421.85 237.084C1425 234.558 1427.85 231.401 1432.11 231.401C1436.84 231.401 1438.9 235.032 1441.11 238.189C1446.47 238.663 1451.84 238.821 1457.05 239.61C1460.52 240.084 1464 241.189 1467.47 242.294C1471.42 243.557 1474.26 246.082 1475.05 250.345C1475.21 250.818 1475.52 251.45 1475.84 252.239C1478.21 252.239 1480.57 252.081 1482.94 252.239C1506.78 253.502 1515.94 272.762 1511.83 290.916C1508.36 305.598 1501.89 319.017 1492.57 331.014C1487.99 336.855 1482.78 342.223 1477.42 347.432C1474.57 350.59 1470.79 352.958 1466.84 356.115" fill="#293250"/>
<path fill-rule="evenodd" clip-rule="evenodd" d="M1349.39 523.61C1350.65 524.558 1351.76 525.505 1352.86 526.294C1362.02 532.293 1371.33 538.292 1380.49 544.449C1382.85 546.027 1384.59 546.027 1386.96 544.291C1390.75 541.607 1395.01 539.239 1399.11 537.029C1400.38 536.398 1401.8 535.924 1403.22 535.766C1406.22 535.293 1408.74 537.503 1408.43 540.502C1408.11 542.712 1407.32 545.08 1406.06 546.817C1397.69 557.709 1399.59 555.499 1399.9 567.339C1400.22 576.496 1396.59 584.073 1391.85 591.335C1389.8 594.334 1386.96 594.808 1383.64 593.229C1374.01 588.651 1364.23 584.073 1354.44 579.495C1341.97 573.654 1329.34 568.287 1317.02 562.13C1305.82 556.604 1296.19 548.869 1287.03 540.66C1280.4 534.661 1278.98 527.873 1282.61 519.664C1284.19 516.349 1285.92 512.876 1288.14 510.034C1296.19 499.615 1304.4 489.196 1312.6 478.934C1316.24 474.514 1320.02 470.252 1323.81 465.831C1324.29 465.358 1324.76 464.411 1325.23 464.253C1326.34 463.937 1328.08 463.463 1328.71 464.095C1329.65 464.726 1330.29 466.463 1330.29 467.568C1330.13 468.831 1329.18 470.252 1328.39 471.357C1325.71 474.672 1322.71 477.829 1320.02 481.144C1311.66 491.406 1303.45 501.667 1295.24 511.928C1293.03 514.77 1291.29 517.927 1289.56 521.085C1286.24 527.715 1287.03 531.504 1292.56 536.24C1304.24 546.501 1317.02 555.184 1331.39 561.498C1344.97 567.497 1358.39 573.496 1371.8 579.495C1376.54 581.547 1381.12 583.915 1385.85 586.283C1389.8 581.232 1392.8 576.022 1392.33 569.392C1392.17 567.497 1392.48 565.603 1392.33 563.866C1391.85 557.709 1392.33 551.868 1396.9 546.975C1396.59 546.817 1396.43 546.659 1396.12 546.343C1394.06 547.764 1391.85 549.027 1389.96 550.606C1385.85 553.921 1382.07 554.394 1377.49 551.237C1367.07 544.133 1356.33 537.503 1345.91 530.399C1339.13 525.821 1339.28 525.189 1343.86 518.401C1349.23 510.508 1354.6 502.772 1359.96 495.037C1360.44 494.405 1360.75 493.774 1361.23 493.3C1362.49 492.037 1364.23 491.722 1365.49 492.827C1366.28 493.616 1366.91 495.352 1366.75 496.615C1366.44 498.194 1365.33 499.773 1364.38 501.036C1360.12 507.35 1355.7 513.507 1351.28 519.822C1350.97 520.927 1350.33 522.19 1349.39 523.61" fill="#293250"/>
<path fill-rule="evenodd" clip-rule="evenodd" d="M1264.61 386.267C1263.82 388.162 1263.19 389.74 1262.56 391.477C1265.88 392.74 1267.93 391.319 1270.45 389.582C1268.56 388.477 1266.82 387.53 1264.61 386.267M1246.46 358.483C1247.56 359.272 1248.35 359.904 1249.14 360.377C1254.98 364.008 1260.67 367.797 1266.67 371.428C1268.09 372.217 1269.82 372.691 1271.4 372.691C1278.51 372.849 1284.03 375.848 1288.92 380.742C1289.4 381.216 1289.71 381.531 1290.03 382.005C1291.13 383.584 1291.29 385.32 1289.87 386.741C1288.61 388.004 1286.87 387.846 1285.45 386.899C1284.35 386.109 1283.24 385.004 1282.14 384.057C1278.51 380.742 1274.08 379.321 1268.72 380.268L1272.98 382.636C1277.56 385.004 1278.03 385.951 1277.08 391.161C1276.93 391.793 1276.77 392.582 1276.61 393.213C1275.82 399.37 1278.03 403.79 1283.71 406.632C1301.87 416.104 1320.18 425.576 1338.34 435.048C1339.44 435.679 1340.86 436.153 1341.49 437.1C1342.13 438.047 1342.44 439.468 1342.28 440.573C1341.97 442.152 1340.55 442.783 1338.97 442.625C1337.7 442.468 1336.44 441.994 1335.34 441.362C1318.45 432.522 1301.55 423.839 1284.5 414.999C1284.19 414.841 1283.71 414.525 1283.4 414.367C1273.45 409.158 1273.3 409 1269.51 398.739C1266.98 398.739 1264.3 399.212 1261.93 398.581C1256.72 397.476 1254.67 393.687 1255.93 388.635C1256.25 387.53 1256.4 386.267 1257.04 385.478C1259.25 382.478 1259.56 379.005 1259.56 374.901C1256.88 373.164 1253.88 371.27 1250.88 369.376C1246.62 366.692 1242.2 364.166 1238.09 361.482C1236.2 360.219 1234.62 358.483 1233.04 356.746C1231.46 354.852 1230.83 352.642 1232.25 350.432C1233.51 348.222 1235.72 347.432 1238.09 347.748C1239.35 347.906 1240.62 348.222 1241.88 348.695C1253.09 352.168 1264.3 355.799 1275.51 359.114C1283.08 361.324 1289.56 364.64 1293.98 371.428C1296.5 375.374 1300.29 377.427 1304.55 378.848C1322.39 384.689 1340.07 390.845 1357.91 397.002C1361.7 398.265 1368.02 402.37 1371.65 403.79C1372.59 404.106 1373.7 404.58 1374.17 405.369C1374.8 406.316 1375.43 407.895 1375.12 408.842C1374.8 409.789 1373.38 410.736 1372.28 410.894C1371.17 411.052 1369.75 410.579 1368.65 410.105C1348.76 403.159 1326.34 393.687 1306.45 386.741C1306.29 386.741 1306.13 386.741 1305.97 386.583C1291.77 381.689 1295.08 383.741 1286.71 373.48C1284.19 370.481 1281.35 368.27 1277.72 367.165C1267.93 364.166 1257.98 361.167 1248.04 358.325C1247.88 358.167 1247.41 358.325 1246.46 358.483" fill="#293250"/>
<path fill-rule="evenodd" clip-rule="evenodd" d="M1420.27 331.172C1418.53 330.541 1416.8 330.225 1415.22 329.278C1413.48 328.331 1413.01 326.594 1413.8 324.857C1414.59 323.279 1416.16 322.489 1417.74 323.121C1420.9 324.542 1423.27 323.121 1425.32 320.911C1425.64 320.595 1425.95 320.279 1426.27 320.121C1428.48 318.543 1430.21 318.543 1431.64 320.121C1432.74 321.542 1432.74 323.279 1431 325.173C1428.16 328.331 1425 330.856 1420.27 331.172" fill="#293250"/>
<path fill-rule="evenodd" clip-rule="evenodd" d="M1413.48 299.283C1413.48 296.442 1414.74 294.705 1416.8 294.705C1418.85 294.705 1420.43 296.284 1420.74 298.967C1420.9 299.757 1420.9 300.704 1420.74 301.493C1420.43 304.019 1419.01 305.598 1417.11 305.598C1415.22 305.598 1413.8 304.019 1413.48 301.493V299.283Z" fill="#293250"/>
<path fill-rule="evenodd" clip-rule="evenodd" d="M1212.51 187.319C1212.51 153.694 1238.56 124.173 1272.82 119.595C1306.6 115.016 1343.86 137.118 1350.49 178.005C1356.17 213.525 1332.65 247.94 1297.45 255.833C1294.29 256.622 1292.39 257.885 1291.61 261.042C1290.97 263.726 1290.03 266.252 1289.08 268.778C1287.03 273.672 1283.55 274.145 1280.4 270.041C1278.03 267.041 1275.82 263.884 1273.77 260.569C1272.19 257.885 1270.14 256.622 1266.98 255.991C1249.3 252.044 1235.25 242.572 1224.83 227.575C1216.46 215.735 1212.51 202.632 1212.51 187.319" fill="#293250"/>
<path fill-rule="evenodd" clip-rule="evenodd" d="M1317.22 160.075C1312.48 161.338 1308.38 162.601 1304.27 163.706C1292.43 166.705 1280.43 167.179 1268.59 163.548L1264.8 162.601C1258.81 161.653 1257.7 162.759 1258.65 168.757C1258.96 170.494 1259.44 171.599 1261.33 172.231C1268.12 173.967 1274.75 176.177 1281.54 177.756C1287.06 179.019 1292.59 178.545 1297.96 176.493C1299.53 175.861 1301.11 175.23 1302.85 174.756C1308.22 173.178 1311.53 175.23 1312.16 180.755L1313.11 189.754C1313.43 192.122 1313.74 194.49 1314.06 197.173C1316.9 196.384 1319.27 195.91 1321.95 195.279C1320.85 183.281 1320.37 171.599 1317.22 160.075M1245.07 206.645C1250.12 206.487 1254.86 206.014 1259.44 206.487C1263.54 206.961 1267.49 208.224 1271.43 209.329C1279.8 211.855 1288.17 213.434 1296.85 212.328C1300.48 211.855 1304.11 210.75 1307.9 209.96C1306.95 200.331 1306.17 191.017 1305.22 181.545C1303.01 182.176 1301.59 182.65 1300.01 183.123C1293.06 185.649 1285.96 186.123 1278.85 184.386C1273.49 183.123 1268.12 181.545 1262.75 180.124C1259.28 179.177 1255.96 178.072 1252.33 177.44C1248.54 176.809 1244.76 176.651 1240.65 178.861C1242.39 188.175 1243.81 197.647 1245.07 206.645M1314.85 204.435C1314.85 206.33 1314.69 208.382 1314.85 210.276C1315.16 213.276 1313.74 214.854 1311.22 215.802C1304.11 218.801 1296.69 220.064 1288.96 219.59C1281.38 219.117 1273.96 217.38 1266.7 215.012C1262.12 213.591 1257.54 212.328 1252.81 212.96C1250.75 213.276 1248.54 213.749 1246.65 214.696C1242.55 216.749 1239.23 215.486 1238.28 210.75C1237.97 209.013 1237.81 207.277 1237.65 205.698C1236.55 198.121 1235.44 190.701 1234.34 183.123C1234.18 182.176 1234.02 181.071 1234.02 180.124C1233.7 174.914 1235.44 172.388 1240.33 170.968C1242.55 170.336 1244.91 170.178 1247.12 170.02C1248.54 169.863 1249.96 170.02 1251.54 170.02C1251.23 167.968 1251.07 166.547 1250.91 164.969C1250.44 160.548 1252.02 158.023 1256.12 156.286C1260.07 154.707 1264.01 155.023 1267.96 155.97C1274.59 157.707 1281.38 159.128 1288.33 158.812C1296.85 158.338 1305.06 156.444 1312.95 153.444L1315.32 152.497C1319.27 151.076 1321.64 151.866 1322.74 155.655C1324.32 160.864 1325.58 166.232 1326.37 171.599C1327.48 179.177 1328.11 186.754 1328.9 194.174C1329.21 197.805 1327.95 200.173 1324.32 201.436C1321.48 202.857 1318.32 203.488 1314.85 204.435" fill="white"/>
<path fill-rule="evenodd" clip-rule="evenodd" d="M1277.2 189.695C1277.89 190.223 1278.71 190.482 1278.95 190.969C1279.26 191.651 1279.46 192.51 1279.4 193.253C1279.22 194.172 1278.28 194.369 1277.35 194.288C1276.52 194.216 1275.69 194.143 1274.86 194.07C1274.76 194.062 1274.76 194.155 1274.46 194.316C1274.81 194.627 1275.05 195.022 1275.41 195.241C1275.84 195.559 1276.29 195.785 1276.64 196.094C1280.14 198.644 1280.1 201.165 1276.53 203.657C1276.45 204.585 1276.37 205.512 1276.29 206.439C1276.07 207.823 1275.35 208.601 1274.23 208.69C1273.21 208.693 1272.25 207.862 1272.18 206.548C1272.13 204.955 1272.08 203.455 1271.09 202.059C1270.34 201.059 1271.26 200.018 1273.39 199.176C1272.69 198.647 1272.07 198.312 1271.55 197.799C1269.11 195.905 1268.88 193.173 1271.29 191.142C1272.3 190.295 1272.84 189.501 1273.04 188.21C1273.27 186.641 1274.09 185.779 1275.19 185.968C1276.48 186.174 1276.95 187.15 1277.04 188.279C1277.18 188.759 1277.23 189.232 1277.2 189.695" fill="white"/>
<path fill-rule="evenodd" clip-rule="evenodd" d="M432.827 662.375C437.247 663.48 441.51 664.585 445.772 665.848C447.351 666.321 448.929 666.321 450.35 667.111C451.455 667.742 452.56 669.005 453.034 670.11C453.665 671.689 452.56 673.268 451.139 674.057C449.403 675.004 447.351 675.478 445.456 676.109C441.194 677.372 436.931 678.635 432.669 679.74C430.933 680.214 429.985 681.003 429.512 682.897C429.196 684.634 428.565 686.213 427.933 687.791C425.407 695.053 420.355 699 412.62 699.315C405.674 699.631 398.886 699.789 391.94 699.947C373.154 700.421 354.367 701.052 335.581 701.526C322.005 701.841 311.428 692.843 310.165 678.793C308.902 665.532 308.586 652.114 308.271 638.853C308.113 632.538 309.534 626.381 312.691 620.698C316.006 614.857 321.058 611.226 327.53 610.121C330.214 609.648 332.898 610.279 335.581 610.279C358.314 609.805 380.889 609.332 403.622 609.016C405.358 609.016 407.095 609.016 408.831 609.332C419.093 610.753 425.249 616.594 428.091 626.381C431.09 636.485 432.195 646.904 432.669 657.323C432.669 658.902 432.827 660.48 432.827 662.375" fill="#03CEA4"/>
<path fill-rule="evenodd" clip-rule="evenodd" d="M372.013 641.39C375.959 639.495 379.275 637.601 382.748 636.338C386.694 634.917 390.799 635.233 393.798 638.548C397.113 642.179 397.745 646.441 396.324 651.02C396.166 651.651 395.851 652.44 395.535 653.072C390.799 660.965 384.8 667.911 378.012 674.226C375.17 676.752 374.381 676.594 371.223 674.542C366.487 671.384 361.751 668.227 357.015 664.912C352.28 661.754 349.122 657.492 347.859 651.809C346.754 646.757 347.544 642.337 351.806 639.022C356.226 635.549 361.278 634.917 366.33 637.601C368.54 638.548 370.434 640.285 372.013 641.39" fill="white"/>
<path fill-rule="evenodd" clip-rule="evenodd" d="M500.094 658.868C502.777 657.763 504.987 656.5 507.355 656.027C513.196 654.606 518.406 658.711 518.564 664.71C518.564 666.13 518.564 667.709 518.09 668.972C515.88 675.444 512.565 681.285 507.04 685.548C504.198 687.758 502.146 688.074 499.146 686.021C495.673 683.811 492.2 681.285 488.885 678.917C485.886 676.549 483.676 673.55 482.886 669.761C481.939 665.341 482.886 661.394 486.517 658.553C489.99 655.869 493.937 655.711 497.883 657.763C498.831 658.079 499.462 658.553 500.094 658.868" fill="#03CEA4"/>
<path fill-rule="evenodd" clip-rule="evenodd" d="M965.058 140.372C962.848 142.74 960.796 145.108 958.744 147.16C955.429 150.633 954.166 150.791 950.219 148.265C947.693 146.687 945.167 144.95 942.484 143.056C941.221 144.95 940.273 146.529 939.168 148.265C938.537 149.37 937.748 150.475 936.958 151.422C935.695 152.843 934.117 153.317 932.38 152.212C930.802 151.265 930.644 149.686 931.117 147.949C931.275 147.476 931.591 146.844 931.907 146.371C933.801 143.371 935.695 140.214 937.59 137.215C939.642 134.215 941.379 133.899 944.536 135.794C947.535 137.688 950.535 139.74 953.85 141.951C955.271 140.372 956.534 138.951 957.954 137.53C965.058 129.637 965.058 129.637 972.478 137.688C973.425 138.793 974.373 139.74 975.635 141.003C978.477 138.951 981.319 137.057 984.002 135.162C984.95 134.531 985.897 133.741 986.844 133.268C989.37 131.847 991.264 132.005 992.843 134.215C995.211 137.688 997.421 141.477 999.631 145.108C1000.89 147.16 1000.42 149.054 999 150.16C997.421 151.265 995.211 150.791 993.79 148.739C992.054 146.213 990.475 143.529 988.58 140.53C985.265 142.898 982.266 144.95 979.266 147.16C975.478 149.844 974.057 149.686 970.899 146.213C968.847 144.634 966.953 142.582 965.058 140.372" fill="#293250"/>
<path fill-rule="evenodd" clip-rule="evenodd" d="M1598.2 940.523C1596.47 936.735 1594.1 933.735 1590.63 931.683C1584.31 927.894 1578 931.209 1577.36 938.629C1576.89 943.681 1579.42 946.522 1584.63 946.522C1589.84 946.364 1593.94 943.681 1598.2 940.523M1600.89 947.627C1598.52 948.89 1596.62 949.995 1594.73 950.785C1590.78 952.679 1586.68 953.784 1582.26 953.311C1574.68 952.363 1569.79 946.68 1570.1 939.103C1570.26 934.998 1571.68 931.209 1574.37 928.052C1578.47 923.158 1583.68 921.737 1589.84 923.474C1594.41 924.895 1597.89 927.578 1600.89 931.209C1601.83 932.314 1602.62 933.419 1603.73 934.84C1609.1 928.999 1612.1 922.369 1613.67 914.949C1615.57 906.424 1615.88 897.9 1615.25 889.217C1613.52 864.59 1607.99 840.752 1598.68 817.862C1597.41 815.02 1595.99 812.178 1594.57 809.337C1593.47 806.969 1593.78 805.074 1595.36 803.969C1597.1 803.022 1599.15 803.496 1600.41 805.706C1602.15 808.705 1603.73 811.705 1604.99 814.862C1612.57 833.332 1617.94 852.592 1620.46 872.483C1621.57 881.008 1622.04 889.691 1622.2 898.215C1622.51 914.476 1618.73 929.473 1606.73 941.786C1610.99 955.205 1608.31 968.15 1604.52 981.095C1600.41 995.303 1595.36 1009.2 1589.36 1022.61C1582.73 1037.14 1578.47 1052.45 1574.84 1068.08C1574.21 1071.08 1572.79 1072.34 1570.73 1071.87C1568.52 1071.39 1567.26 1069.66 1568.05 1066.82C1569.79 1059.55 1571.37 1052.29 1573.73 1045.19C1576.58 1036.51 1579.89 1027.82 1583.36 1019.46C1589.52 1004.3 1595.52 989.146 1599.62 973.202C1601.36 966.098 1602.62 958.836 1601.83 951.416C1601.52 950.785 1601.2 949.364 1600.89 947.627" fill="#293250"/>
<path fill-rule="evenodd" clip-rule="evenodd" d="M1577.52 1101.55C1581.63 1097.6 1581.15 1091.6 1576.89 1088.76C1573.42 1092.39 1573.58 1097.76 1577.52 1101.55M1587.63 1096.81C1586.99 1098.39 1586.36 1101.86 1584.78 1104.55C1581.47 1109.91 1575.15 1110.07 1571.05 1105.49C1566.31 1100.13 1566.16 1090.34 1570.73 1084.81C1574.37 1080.55 1579.58 1080.39 1583.36 1084.34C1586.36 1087.34 1587.31 1091.13 1587.63 1096.81" fill="#293250"/>
</svg>
