<svg width="2000" height="1300" viewBox="0 0 2000 1300" fill="none" xmlns="http://www.w3.org/2000/svg">
<rect width="2000" height="1300" rx="80" fill="#F6F6F7"/>
<path fill-rule="evenodd" clip-rule="evenodd" d="M689.475 1077.46C690.888 1071.96 692.301 1066.78 693.557 1061.44C726.057 931.759 758.556 801.915 791.057 672.23C810.996 592.472 830.935 512.871 850.875 433.114C852.603 426.048 854.172 418.984 857.94 412.547C868.93 394.177 884.631 382.872 905.826 379.418C907.397 379.104 908.966 378.791 910.536 378.634C911.635 378.477 913.048 378.32 913.833 378.791C916.188 380.674 919.014 380.203 921.683 380.203C1097.84 379.104 1274 378.005 1450 377.064C1455.81 377.064 1461.62 378.005 1467.43 378.163C1523.8 378.947 1580.16 379.733 1636.52 380.517C1678.13 381.146 1719.89 381.616 1761.5 382.245C1763.54 382.245 1765.42 382.559 1767.15 381.146C1767.93 380.517 1769.35 380.517 1770.29 380.674C1789.45 386.327 1805.3 396.217 1813.15 415.529C1816.92 424.792 1818.02 434.527 1816.14 444.574C1815.66 446.929 1814.1 448.972 1813.62 451.326C1807.66 475.975 1801.69 500.625 1795.73 525.276C1773.27 618.222 1750.82 711.324 1728.37 804.271C1706.86 893.764 1685.35 983.099 1663.53 1072.43C1662.27 1077.77 1661.8 1082.8 1662.74 1088.29C1666.35 1110.74 1656.15 1127.7 1640.29 1142.14C1636.21 1145.91 1631.03 1146.85 1625.38 1146.85C1543.58 1146.85 1461.78 1147.01 1379.98 1147.17C1039.12 1147.64 698.267 1148.11 357.411 1148.58H351.446C349.561 1148.58 347.834 1148.58 346.421 1150.31C345.008 1152.03 342.967 1151.56 341.397 1150.31C338.728 1148.42 336.059 1146.38 333.704 1144.18C318.79 1131 312.038 1114.51 313.764 1094.57C314.235 1089.55 314.864 1084.68 315.491 1079.66C315.648 1078.56 315.963 1077.46 316.433 1076.36C317.376 1074.32 319.259 1073.53 320.986 1074.79C323.027 1076.2 324.911 1076.05 327.109 1076.05C396.191 1076.2 465.274 1076.52 534.355 1076.67C584.283 1076.83 634.209 1076.99 684.293 1076.99C686.178 1077.46 687.749 1077.46 689.475 1077.46" fill="white"/>
<path fill-rule="evenodd" clip-rule="evenodd" d="M1334.94 1002.62H1102.42H823.268C821.541 1002.62 819.813 1002.78 818.087 1002.46C815.104 1001.99 814.162 1000.42 814.789 997.752C840.068 893.66 865.501 789.722 890.78 685.629C893.763 673.225 896.746 660.978 899.728 648.575C900.357 646.063 901.141 643.866 900.357 641.04C899.571 638.528 903.496 635.702 906.48 636.172C909.306 636.643 912.132 637.115 914.802 637.115C1084.68 637.428 1254.4 637.742 1424.28 637.899C1426.63 637.899 1429.15 637.272 1431.19 639.469C1433.07 641.51 1433.23 643.552 1432.6 646.221C1428.05 663.335 1423.49 680.448 1418.94 697.405C1392.56 796.945 1366.03 896.329 1339.65 995.868C1339.18 997.438 1338.87 998.851 1338.4 1000.42C1337.77 1002.15 1336.67 1003.09 1334.94 1002.62" fill="#FF6663"/>
<mask id="mask0_0_190" style="mask-type:alpha" maskUnits="userSpaceOnUse" x="309" y="376" width="1512" height="779">
<path fill-rule="evenodd" clip-rule="evenodd" d="M309.142 376.007H1820.45V1154.91H309.142V376.007Z" fill="white"/>
</mask>
<g mask="url(#mask0_0_190)">
<path fill-rule="evenodd" clip-rule="evenodd" d="M689.681 1081.91C689.838 1082.69 689.838 1083.63 690.152 1084.58C693.292 1095.25 702.713 1102.47 714.017 1102.63C725.949 1102.79 738.039 1102.79 749.971 1102.95C797.543 1103.26 845.272 1103.73 892.845 1104.04C904.935 1104.2 915.767 1096.82 920.163 1085.67C920.636 1084.73 920.791 1083.63 921.262 1081.91H689.681ZM1769.24 384.338C1769.55 384.966 1769.71 385.281 1769.87 385.437C1786.83 403.806 1792.16 425.002 1786.2 449.181C1775.83 490.944 1765.47 532.707 1755.11 574.627C1714.13 740.58 1673 906.533 1632.02 1072.49C1631.71 1073.9 1631.55 1075.16 1631.23 1076.88H1659.81C1660.12 1075.63 1660.59 1074.37 1660.91 1073.11C1662.79 1065.42 1664.68 1057.57 1666.56 1049.88C1689.8 953.006 1713.03 855.978 1736.27 759.106C1759.51 662.235 1782.9 565.363 1806.14 468.335C1808.49 458.287 1811.63 448.238 1813.36 438.033C1818.07 407.888 1793.89 387.478 1769.24 384.338V384.338ZM1257.25 1146.28H1261.8C1302.47 1146.12 1343.13 1145.96 1383.8 1145.96C1464.5 1145.81 1545.35 1145.65 1626.05 1145.65C1629.82 1145.65 1632.96 1144.55 1635.94 1142.35C1637.04 1141.41 1638.3 1140.63 1639.24 1139.68C1651.17 1128.38 1658.71 1114.56 1661.85 1098.39C1662.79 1093.68 1662.95 1089.13 1661.22 1083.95C1538.92 1083.63 1416.45 1083.32 1294.15 1083.01C1291.79 1110.17 1277.35 1129.64 1257.25 1146.28V1146.28ZM1286.45 1082.85C1166.97 1082.53 1047.81 1082.22 928.641 1082.06C928.17 1083.63 927.699 1084.89 927.385 1086.15C923.617 1097.76 910.272 1111.27 893.002 1110.95C834.753 1110.17 776.505 1110.01 718.256 1109.54C715.901 1109.54 713.389 1109.85 711.034 1109.54C697.218 1107.34 687.799 1099.96 683.558 1086.46C683.087 1084.89 682.616 1083.32 682.145 1081.44C561.095 1081.12 440.202 1080.81 319.309 1080.49C318.839 1082.38 318.367 1083.63 318.053 1085.05C315.698 1095.25 315.698 1105.46 318.053 1115.66C320.408 1125.4 324.647 1134.19 331.712 1141.41C336.422 1146.12 341.604 1148.63 348.669 1148.63C643.208 1147.85 937.905 1147.22 1232.44 1146.75C1238.88 1146.75 1244.53 1145.18 1249.87 1141.88C1267.3 1130.89 1279.07 1115.35 1285.2 1095.57C1286.45 1091.48 1287.08 1087.56 1286.45 1082.85V1082.85ZM1623.86 1076.88C1624.48 1074.53 1625.11 1072.49 1625.74 1070.29C1648.98 976.086 1672.21 882.04 1695.61 787.838C1723.87 673.539 1752.28 559.242 1780.39 444.784C1785.1 425.473 1780.23 407.888 1767.67 392.816C1762.02 386.065 1754.95 382.454 1745.38 382.607C1647.25 383.082 1549.28 383.082 1451.15 383.239C1278.45 383.396 1105.74 383.71 933.038 383.867C928.798 383.867 924.561 383.553 920.163 383.396C914.354 383.396 908.388 382.925 902.736 383.553C878.243 386.222 859.874 402.55 854.222 426.572C853.28 430.183 852.809 433.794 852.023 437.405C833.654 511.511 815.128 585.774 796.601 659.88C762.531 796.63 728.461 933.224 694.391 1069.97C694.077 1071.39 693.92 1072.64 693.449 1074.53C1003.69 1075.31 1313.62 1076.1 1623.86 1076.88V1076.88ZM686.07 1074.53C688.111 1066.21 690.152 1058.36 692.193 1050.51C718.099 946.412 744.006 842.475 769.91 738.382C795.032 637.585 820.152 536.632 845.272 435.835C846.371 431.439 846.999 426.886 848.098 422.49C855.164 396.898 876.203 379.314 902.579 376.802C908.388 376.331 914.197 376.645 920.006 376.645C923.46 376.645 926.914 377.116 930.211 377.116C1201.04 376.802 1472.03 376.331 1742.86 376.017C1750.87 376.017 1758.88 375.86 1766.73 376.802C1780.55 378.372 1792.95 383.396 1803.31 392.973C1817.44 405.847 1822.62 422.019 1819.64 440.545C1818.23 449.024 1815.56 457.189 1813.52 465.509C1793.11 550.448 1772.69 635.544 1752.28 720.483C1730.77 810.29 1709.11 900.253 1687.6 990.059C1680.69 1018.79 1673.78 1047.52 1666.87 1076.1C1666.56 1077.35 1666.4 1079.08 1666.87 1080.18C1669.7 1086.93 1669.39 1093.84 1667.97 1100.75C1664.52 1117.23 1656.83 1131.52 1644.74 1143.3C1643.32 1144.71 1641.75 1145.96 1640.18 1147.22C1635.79 1150.68 1631.08 1152.4 1625.27 1152.4C1227.89 1153.03 830.671 1153.81 433.294 1154.6C402.835 1154.6 372.533 1154.91 342.075 1154.91C340.505 1154.91 338.777 1154.29 337.207 1153.66C329.671 1149.73 323.862 1143.92 319.309 1136.86C311.145 1123.67 308.162 1109.23 309.418 1093.84C309.889 1089.13 310.831 1084.58 311.93 1080.02C313.029 1075 315.698 1073.59 320.408 1073.59C356.205 1073.74 392.002 1073.74 427.799 1073.9C511.796 1074.06 595.636 1074.37 679.633 1074.68C681.988 1074.53 683.874 1074.53 686.07 1074.53V1074.53Z" fill="#293250"/>
</g>
<path fill-rule="evenodd" clip-rule="evenodd" d="M1240.96 542.65C1322.13 543.278 1425.29 543.906 1528.44 544.692C1531.26 544.692 1534.09 545.319 1536.29 542.65C1536.6 542.18 1537.86 542.023 1538.64 542.18C1542.1 542.807 1544.45 547.831 1542.57 550.814C1538.96 556.468 1535.19 561.963 1531.42 567.614C1528.28 572.325 1524.83 576.877 1521.69 581.744C1518.86 585.983 1515.09 587.71 1510.22 587.553C1480.39 587.239 1450.56 586.925 1420.73 586.454C1371.43 585.826 1322.29 585.356 1272.99 584.727C1170.47 583.628 1068.1 582.372 965.578 581.274C946.423 581.116 927.269 580.645 908.271 580.802C902.305 580.802 898.066 578.762 894.298 574.208C885.504 563.374 888.33 548.617 900.578 542.18C902.305 541.237 904.66 540.609 906.701 540.609C1010.95 541.08 1115.05 541.865 1240.96 542.65" fill="#FF6663"/>
<path fill-rule="evenodd" clip-rule="evenodd" d="M673.039 1164.33H1061.78C1063.19 1164.33 1064.61 1164.33 1066.02 1164.49C1068.06 1164.65 1069.32 1165.59 1069.32 1167.63C1069.32 1169.67 1067.9 1170.77 1066.02 1170.93C1064.45 1171.09 1062.88 1171.09 1061.31 1171.09C990.031 1170.93 918.594 1170.77 847.314 1170.77C659.537 1170.61 471.76 1170.46 283.984 1170.3C282.255 1170.3 280.53 1170.3 278.802 1170.14C277.074 1169.83 275.976 1168.89 275.818 1167C275.818 1165.28 276.918 1164.02 279.117 1163.71C280.373 1163.55 281.629 1163.55 283.042 1163.55H673.039V1164.33Z" fill="#293250"/>
<path fill-rule="evenodd" clip-rule="evenodd" d="M1706.13 1039.51C1705.97 1049.09 1710.68 1053.49 1718.84 1052.39C1724.34 1051.6 1729.05 1048.78 1733.29 1045.32C1733.91 1044.85 1734.39 1043.75 1734.23 1043.13C1732.97 1036.22 1730.62 1029.94 1724.34 1025.86C1721.36 1023.81 1718.21 1023.81 1715.07 1025.7C1709.58 1029.31 1706.44 1034.33 1706.13 1039.51M1740.35 1038.26C1741.61 1036.53 1742.71 1035.43 1743.49 1034.18C1750.56 1023.81 1752.91 1012.2 1751.19 999.951C1749.77 989.902 1748.05 980.012 1746.16 969.963C1744.43 961.17 1743.34 952.221 1743.96 943.114C1744.12 940.131 1744.12 937.15 1744.28 934.165C1744.43 932.281 1745.38 930.869 1747.42 930.712C1749.3 930.555 1750.71 931.811 1751.03 934.165C1751.19 934.95 1751.19 935.893 1751.03 936.677C1749.77 950.651 1751.66 964.153 1754.8 977.814C1756.52 985.664 1757.62 993.827 1758.41 1001.83C1759.82 1017.53 1755.43 1031.51 1744.91 1043.28C1742.55 1045.95 1741.76 1048.62 1741.61 1052.08C1740.35 1069.5 1735.33 1085.99 1726.22 1101.06C1717.74 1115.35 1705.81 1126.65 1693.25 1137.17C1692.31 1137.96 1691.21 1138.74 1690.11 1139.37C1688.54 1140.16 1686.97 1140 1685.87 1138.43C1684.77 1136.86 1685.09 1135.44 1686.19 1134.19C1686.5 1133.72 1686.97 1133.4 1687.44 1133.09C1693.72 1127.28 1700.32 1121.79 1706.28 1115.66C1722.61 1099.33 1731.09 1079.08 1734.54 1056.47C1734.7 1055.69 1734.7 1054.75 1734.7 1053.17C1733.13 1053.96 1732.03 1054.59 1730.77 1055.22C1726.38 1057.57 1721.67 1059.3 1716.49 1059.3C1707.38 1059.14 1700.79 1053.49 1699.53 1044.38C1698.27 1034.49 1703.77 1023.97 1712.56 1019.42C1718.06 1016.59 1723.24 1017.06 1728.42 1020.36C1733.29 1023.5 1736.27 1028.05 1738.47 1033.39C1738.94 1034.65 1739.57 1036.06 1740.35 1038.26" fill="#293250"/>
<path fill-rule="evenodd" clip-rule="evenodd" d="M1749.14 333.626C1746.32 336.609 1743.81 339.435 1741.14 342.261C1739.1 344.459 1737.06 346.657 1735.01 348.855C1732.19 351.681 1730.62 351.681 1727.79 349.012C1723.71 345.087 1719.63 341.005 1715.55 336.924C1714.6 335.981 1713.66 335.196 1712.56 334.097C1710.05 335.981 1707.54 337.865 1705.18 339.749C1702.2 342.104 1699.22 344.616 1696.08 346.971C1692.78 349.483 1691.84 349.483 1688.38 347.285C1683.83 344.302 1679.44 341.162 1674.88 338.179C1674.25 337.708 1673.63 337.394 1672.68 336.766C1670.33 339.435 1668.13 342.104 1665.77 344.774C1664.36 346.343 1663.11 348.07 1661.54 349.64C1659.81 351.367 1657.92 351.367 1656.67 350.111C1655.1 348.699 1655.41 346.971 1656.51 345.401C1657.92 343.517 1659.65 341.633 1661.22 339.749C1663.58 337.08 1665.77 334.254 1668.13 331.585C1671.11 328.131 1672.21 327.974 1676.14 330.643C1681.32 334.097 1686.5 337.708 1691.99 341.476C1695.45 338.807 1698.9 335.981 1702.36 333.312C1704.55 331.585 1706.6 329.858 1708.79 328.288C1712.41 325.462 1713.66 325.462 1716.8 328.602C1720.73 332.527 1724.65 336.452 1728.73 340.377C1729.36 341.005 1730.15 341.79 1731.09 342.575C1732.03 341.79 1732.82 341.162 1733.6 340.377C1737.53 336.138 1741.29 331.899 1745.22 327.817C1748.36 324.519 1749.93 324.519 1753.07 327.817C1759.19 334.411 1765.16 341.005 1771.28 347.756C1771.91 348.541 1772.85 349.326 1773.01 350.111C1773.17 351.21 1773.01 352.78 1772.38 353.565C1771.44 354.821 1769.87 354.821 1768.46 354.036C1767.36 353.251 1766.26 352.152 1765.32 351.21C1759.98 345.558 1754.8 339.749 1749.14 333.626" fill="#293250"/>
<path fill-rule="evenodd" clip-rule="evenodd" d="M1533.77 586.297C1531.26 586.454 1529.69 584.57 1530.32 582.372C1530.63 581.116 1531.42 580.017 1532.05 579.074C1538.64 569.498 1545.24 559.764 1551.99 550.186C1552.62 549.401 1553.09 548.616 1553.87 547.831C1555.13 546.418 1556.7 546.104 1558.42 547.046C1558.58 547.046 1558.58 547.203 1558.74 547.36C1564.55 550.657 1564.39 551.128 1560.31 556.467C1553.71 565.102 1547.12 573.737 1541.15 582.529C1539.11 585.669 1535.82 584.57 1533.77 586.297" fill="#FF6663"/>
<path fill-rule="evenodd" clip-rule="evenodd" d="M1760.92 893.502C1760.92 890.204 1758.25 887.694 1754.8 887.694C1751.66 887.694 1749.14 890.363 1749.14 893.502C1749.14 896.642 1751.66 899.154 1754.8 899.311C1758.25 899.311 1760.92 896.8 1760.92 893.502M1754.95 906.063C1748.05 905.905 1742.39 900.253 1742.39 893.502C1742.39 886.593 1748.2 880.784 1755.27 880.784C1762.02 880.784 1767.67 886.438 1767.67 893.344C1767.83 900.567 1762.02 906.219 1754.95 906.063" fill="#293250"/>
<path fill-rule="evenodd" clip-rule="evenodd" d="M1568.16 564.474C1567.53 565.73 1567.22 566.672 1566.59 567.456C1563.76 571.538 1560.94 575.621 1557.95 579.704C1556.38 581.743 1554.5 582.216 1552.77 581.274C1551.2 580.175 1550.89 578.132 1552.3 575.935C1555.13 571.696 1558.11 567.456 1561.09 563.374C1562.19 561.805 1563.76 561.019 1565.49 561.805C1566.9 562.432 1567.37 563.688 1568.16 564.474" fill="#FF6663"/>
<path fill-rule="evenodd" clip-rule="evenodd" d="M726.106 1042.18C1016.56 1043.91 1306.55 1045.64 1596.54 1047.37C1647.72 846.086 1698.75 645.436 1749.77 444.157H874.633C825.333 643.081 775.72 842.318 726.106 1042.18M1160.69 1051.45C1015.78 1050.66 870.708 1049.72 725.792 1048.94C719.512 1048.94 717.942 1046.9 719.512 1040.62C733.956 982.365 748.401 924.118 763.002 865.868C788.908 761.933 814.658 657.995 840.562 554.06C849.668 517.164 858.933 480.11 868.038 443.214C868.353 441.958 868.509 440.702 869.137 439.603C869.609 438.662 870.708 437.719 871.649 437.563C874.475 437.092 877.459 436.934 880.441 436.934C1169.49 437.092 1458.37 437.249 1747.42 437.406H1749.93C1755.43 437.563 1757.78 440.545 1756.37 445.726C1754.64 452.477 1752.91 459.228 1751.19 465.981C1708.17 635.074 1665.15 804.323 1622.28 973.416C1616 998.066 1609.72 1022.56 1603.45 1047.21C1601.72 1053.65 1601.4 1054.12 1594.81 1053.96C1515.37 1053.49 1435.76 1053.02 1356.32 1052.55C1291.16 1052.23 1226.01 1051.92 1160.69 1051.45" fill="#293250"/>
<path fill-rule="evenodd" clip-rule="evenodd" d="M1306.86 412.442C1306.86 409.144 1304.04 406.005 1301.21 406.005C1298.54 406.005 1296.19 408.831 1296.19 411.814C1296.19 415.111 1298.7 418.25 1301.53 418.408C1304.35 418.565 1306.86 415.739 1306.86 412.442M1289.28 411.971C1289.28 404.906 1294.93 398.94 1301.53 399.097C1308.28 399.254 1313.77 405.534 1313.62 412.599C1313.46 419.506 1308.12 425.159 1301.68 425.159C1295.09 425.316 1289.28 419.036 1289.28 411.971" fill="#293250"/>
<path fill-rule="evenodd" clip-rule="evenodd" d="M1221.45 1116.29C1220.51 1112.99 1220.51 1112.83 1216.74 1112.83C1197.28 1112.68 1177.65 1112.37 1158.18 1112.21C1157.24 1112.21 1155.83 1112.05 1155.35 1112.52C1154.57 1113.31 1153.78 1114.56 1153.78 1115.66C1153.78 1117.08 1155.2 1117.08 1156.45 1116.92C1158.5 1116.6 1160.69 1116.6 1162.89 1116.6H1220.2C1220.35 1116.6 1220.98 1116.45 1221.45 1116.29M1190.52 1123.35H1162.74C1160.69 1123.35 1158.81 1123.51 1156.77 1123.83C1152.06 1124.45 1147.98 1121.94 1146.88 1117.7C1145.62 1112.99 1148.29 1107.81 1152.84 1106.24C1154.41 1105.77 1156.14 1105.46 1157.87 1105.46C1177.81 1105.61 1197.75 1105.93 1217.69 1106.09C1222.08 1106.09 1225.38 1107.81 1227.58 1111.58C1230.72 1117.55 1227.11 1123.51 1220.35 1123.35C1210.46 1123.35 1200.42 1123.51 1190.52 1123.35" fill="#293250"/>
<path fill-rule="evenodd" clip-rule="evenodd" d="M1582.25 1107.97C1591.36 1113.78 1616.63 1113.62 1621.97 1107.97H1582.25ZM1603.6 1101.22H1627.47C1628.57 1101.22 1629.82 1101.22 1630.92 1101.37C1633.9 1101.85 1635 1103.73 1633.75 1106.56C1632.96 1108.28 1631.86 1110.01 1630.45 1111.42C1627.31 1114.41 1623.38 1116.29 1619.15 1117.23C1609.41 1119.43 1599.68 1119.74 1589.94 1118.33C1584.76 1117.55 1580.21 1115.35 1575.97 1112.36C1574.56 1111.42 1573.3 1110.01 1572.52 1108.6C1570.47 1104.83 1572.52 1101.37 1576.75 1101.06C1577.85 1100.9 1578.95 1101.06 1580.21 1101.06H1603.76C1603.6 1101.06 1603.6 1101.22 1603.6 1101.22V1101.22Z" fill="#293250"/>
<path fill-rule="evenodd" clip-rule="evenodd" d="M1548.81 1104.67C1546.29 1104.83 1544.26 1107.18 1544.26 1109.85C1544.26 1112.05 1545.83 1113.78 1547.87 1113.78C1550.38 1113.78 1552.89 1110.95 1552.73 1108.28C1552.58 1106.24 1550.69 1104.67 1548.81 1104.67M1537.35 1109.7C1537.35 1103.26 1542.68 1097.76 1548.96 1097.76C1554.93 1097.76 1559.64 1102.79 1559.48 1108.75C1559.33 1115.04 1553.68 1120.53 1547.71 1120.53C1541.74 1120.53 1537.35 1115.82 1537.35 1109.7" fill="#293250"/>
<path fill-rule="evenodd" clip-rule="evenodd" d="M1232.13 544.954C1232.13 544.797 1232.13 544.797 1232.13 544.954C1126 544.167 1019.7 543.541 913.57 542.911H910.586C902.266 543.384 895.672 548.565 893.315 555.943C889.861 566.777 897.241 577.14 908.546 577.14C1043.57 578.08 1178.59 578.867 1313.62 579.809C1391.02 580.28 1468.26 580.906 1545.67 581.379C1554.15 581.379 1561.68 576.354 1564.51 568.347C1567.33 560.654 1564.66 552.333 1558.07 548.565C1556.5 547.621 1554.62 547.152 1552.89 546.995C1535.15 546.836 1517.56 546.679 1499.82 546.679C1410.49 546.053 1321.31 545.423 1232.13 544.954M1232.44 538.203C1316.76 538.672 1401.07 539.302 1485.38 539.771C1508.14 539.928 1530.75 540.085 1553.52 540.242C1555.09 540.242 1556.66 540.558 1558.07 541.184C1569.06 545.266 1574.71 557.199 1571.42 568.974C1568.12 580.592 1557.76 588.442 1545.67 588.285C1400.91 587.343 1256.31 586.403 1111.55 585.461C1045.77 584.99 979.982 584.517 914.197 584.048H909.487C892.689 584.674 881.227 568.66 887.192 552.804C890.96 542.754 900.539 536.16 911.842 536.16C925.972 536.16 940.104 536.317 954.234 536.317C1045.45 536.946 1136.67 537.573 1227.74 538.203C1229.31 538.046 1230.87 538.046 1232.44 538.203C1232.44 538.046 1232.44 538.046 1232.44 538.203" fill="#293250"/>
<path fill-rule="evenodd" clip-rule="evenodd" d="M866.468 954.263H871.02C1007.93 953.792 1144.84 953.319 1281.59 952.693C1283.47 952.693 1285.35 952.693 1287.08 952.85C1288.81 953.007 1290.07 954.106 1290.07 955.831C1290.22 957.717 1289.12 958.814 1287.4 959.13C1285.51 959.444 1283.63 959.444 1281.9 959.444C1221.93 959.601 1161.95 959.756 1102.13 960.07L866.625 961.014C858.932 961.014 857.833 959.601 859.717 952.063C882.169 866.026 904.463 779.831 926.915 693.793C927.386 692.066 927.7 690.495 928.485 688.925C929.113 687.356 930.526 686.413 932.253 686.885C933.98 687.356 934.765 688.769 934.608 690.495C934.451 691.751 934.137 693.007 933.822 694.263C917.652 756.438 901.48 818.453 885.309 880.628C879.343 903.863 873.22 926.944 867.253 950.181C866.939 951.28 866.782 952.536 866.468 954.263" fill="#293250"/>
<path fill-rule="evenodd" clip-rule="evenodd" d="M1191.78 836.667C1194.61 836.822 1196.65 834.783 1196.8 832.114C1196.96 829.286 1195.08 827.089 1192.25 826.932C1189.27 826.774 1187.07 828.816 1186.91 831.798C1187.07 834.467 1188.95 836.667 1191.78 836.667M1044.04 902.607C1046.87 902.607 1049.22 900.41 1049.22 897.584C1049.22 894.915 1046.71 892.403 1044.04 892.403C1041.21 892.403 1039.02 894.757 1039.02 897.584C1039.02 900.41 1041.21 902.607 1044.04 902.607M1145.78 804.795C1148.6 804.795 1151.12 802.126 1151.27 799.298C1151.27 796.16 1148.76 793.646 1145.62 793.646C1142.48 793.646 1140.13 796.315 1140.28 799.457C1140.28 802.597 1142.8 804.795 1145.78 804.795M1033.21 891.461C1039.49 884.71 1045.45 883.924 1052.52 888.478C1054.4 886.907 1056.44 885.494 1058.17 883.611C1062.72 878.587 1067.28 873.718 1071.36 868.38C1079.37 858.175 1086.9 847.499 1094.91 837.293C1102.13 828.03 1109.51 818.924 1117.36 810.29C1121.29 805.894 1126.47 802.597 1131.18 798.827C1132.43 797.885 1133.37 796.945 1134 795.373C1136.36 789.408 1141.07 786.268 1146.72 786.739C1152.22 787.209 1156.3 791.134 1157.87 797.102C1158.18 798.358 1158.81 799.771 1159.59 800.87C1162.89 805.422 1166.35 809.661 1169.49 814.215C1172.63 818.924 1175.77 823.791 1180.48 827.716C1182.83 824.105 1185.5 820.809 1190.21 820.18C1194.92 819.553 1198.53 821.436 1201.99 825.047C1203.56 824.105 1205.13 823.164 1206.54 822.065C1216.27 814.842 1225.38 806.678 1233.23 797.416C1245.32 782.971 1257.25 768.37 1269.34 753.926C1273.89 748.43 1278.45 742.934 1283 737.439C1283.94 736.34 1284.73 735.242 1285.83 733.828C1284.26 733.514 1283 733.514 1281.74 733.044C1280.02 732.572 1278.92 731.474 1279.08 729.589C1279.23 727.706 1280.33 726.764 1282.21 726.607C1285.67 726.293 1289.12 725.978 1292.42 725.978C1295.4 725.978 1296.97 727.392 1296.97 730.532C1297.13 735.242 1296.97 739.951 1296.82 744.662C1296.82 745.289 1296.66 746.075 1296.34 746.702C1295.72 748.115 1294.62 749.058 1293.05 748.901C1291.48 748.744 1290.38 747.645 1290.22 746.075C1290.06 744.347 1290.22 742.62 1290.22 740.108C1288.81 741.364 1288.02 741.993 1287.4 742.62C1278.6 753.296 1269.81 763.973 1261.02 774.65C1253.33 783.913 1245.79 793.177 1237.94 802.126C1228.68 812.802 1218.16 822.222 1206.22 830.072C1204.81 831.015 1204.03 832.114 1203.71 833.684C1202.61 838.865 1199.32 842.003 1194.29 842.947C1189.11 843.731 1185.03 841.848 1182.2 837.452C1181.73 836.667 1181.1 835.566 1180.32 835.254C1173.41 831.641 1169.33 825.519 1165.09 819.396C1163.36 816.727 1161.79 814.058 1159.91 811.546C1158.81 809.976 1157.4 808.405 1155.98 806.678C1152.53 809.347 1149.08 811.703 1144.68 811.389C1140.28 810.917 1136.99 808.563 1134.47 804.795C1130.23 806.835 1126.94 809.661 1123.95 812.959C1118.62 818.61 1113.28 824.42 1108.41 830.542C1098.83 842.79 1089.73 855.349 1080.31 867.753C1076.54 872.778 1072.46 877.643 1068.38 882.355C1065.86 885.337 1063.2 888.006 1060.21 890.518C1057.7 892.717 1055.81 894.6 1055.81 898.525C1055.81 904.178 1050.79 908.574 1045.3 909.201C1039.49 909.674 1034.46 906.69 1032.74 901.037C1031.95 898.368 1030.54 896.642 1028.5 894.915C1022.53 889.576 1016.88 883.924 1010.91 878.587C1003.53 872.148 994.898 870.423 985.32 871.993C977.627 873.249 970.561 876.23 964.124 880.785C957.217 885.651 950.466 890.518 944.029 896.013C931.939 906.218 920.006 916.737 909.801 928.827C909.487 929.299 909.016 929.769 908.546 930.083C907.132 931.182 905.562 931.339 904.306 930.083C903.05 928.985 902.893 927.571 903.679 926.158C904.621 924.745 905.562 923.332 906.661 922.076C922.047 905.276 938.848 890.205 957.53 877.017C960.67 874.817 963.967 872.935 967.423 871.049C973.231 867.91 979.512 865.868 986.106 865.084C996.468 863.828 1006.04 865.868 1014.21 872.619C1018.76 876.23 1023 880.312 1027.24 884.395C1029.28 886.437 1031.01 888.792 1033.21 891.461" fill="#293250"/>
<path fill-rule="evenodd" clip-rule="evenodd" d="M1495.9 674.953C1494.48 676.68 1493.07 678.093 1491.97 679.349C1488.2 677.936 1484.75 676.052 1480.98 675.267C1468.42 672.598 1455.86 681.076 1453.51 693.636C1450.99 706.667 1459 719.071 1471.72 721.74C1486 724.723 1499.51 714.675 1500.29 700.23C1500.45 695.677 1502.81 693.322 1505.79 690.967C1510.34 703.215 1503.75 718.757 1491.19 725.352C1477.53 732.573 1460.73 728.648 1451.93 716.246C1442.99 703.684 1444.71 686.571 1455.86 676.052C1467.01 666.003 1484.12 665.22 1495.9 674.953" fill="#293250"/>
<path fill-rule="evenodd" clip-rule="evenodd" d="M1438.75 891.147C1438.28 891.774 1437.96 892.246 1437.49 892.56C1436.39 893.502 1435.29 894.444 1434.04 895.543C1433.1 894.287 1432.15 893.188 1431.37 892.246C1422.73 882.041 1407.5 880.942 1397.77 890.048C1390.86 896.485 1388.51 906.376 1391.8 915.168C1395.1 923.961 1403.42 929.927 1412.84 930.084C1422.73 930.241 1431.37 924.903 1434.67 915.796C1436.24 911.557 1439.06 909.987 1442.83 908.574C1443.77 920.978 1432.78 933.538 1418.81 936.364C1404.52 939.19 1389.76 930.555 1385.05 916.424C1380.34 902.137 1386.94 886.594 1400.44 879.998C1414.25 873.404 1430.11 877.802 1438.75 891.147" fill="#293250"/>
<path fill-rule="evenodd" clip-rule="evenodd" d="M1466.22 780.772C1464.97 782.185 1463.71 783.598 1462.14 785.325C1461.04 784.385 1460.1 783.598 1459.16 782.815C1451.31 776.69 1440.47 776.377 1432.47 782.028C1424.3 787.837 1420.85 798.357 1424.15 807.778C1427.44 817.042 1436.39 823.163 1446.28 822.692C1455.7 822.378 1464.18 815.785 1466.54 806.522C1467.64 802.125 1470.3 799.456 1473.45 796.473C1477.06 806.678 1469.21 821.436 1457.43 826.774C1443.62 833.055 1427.44 827.873 1419.91 814.685C1412.37 801.341 1416.3 784.54 1428.86 776.062C1442.2 767.114 1459.32 771.666 1466.22 780.772" fill="#293250"/>
<path fill-rule="evenodd" clip-rule="evenodd" d="M1579.74 699.444H1544.73C1543.63 699.444 1542.37 699.444 1541.27 699.288C1539.54 699.131 1538.44 698.032 1538.13 696.305C1537.97 694.577 1539.07 693.164 1541.11 692.694C1541.9 692.537 1542.84 692.537 1543.63 692.537C1567.65 692.222 1591.83 691.908 1615.85 691.594H1618.36C1620.24 691.751 1621.66 692.85 1621.66 694.734C1621.66 696.775 1620.24 697.718 1618.52 698.188C1617.42 698.345 1616.32 698.345 1615.06 698.345H1579.58C1579.74 698.974 1579.74 699.288 1579.74 699.444" fill="#293250"/>
<path fill-rule="evenodd" clip-rule="evenodd" d="M1535.31 898.213H1567.81C1568.75 898.213 1569.84 898.213 1570.79 898.368C1572.83 898.682 1574.09 900.254 1573.93 901.824C1573.77 903.549 1572.51 904.65 1570.79 904.805C1570 904.962 1569.06 904.962 1568.28 904.962C1546.45 904.65 1524.63 904.179 1502.81 903.863C1501.55 903.863 1500.14 903.863 1499.04 903.237C1498.1 902.607 1497.15 901.194 1497.31 900.254C1497.31 899.312 1498.41 898.056 1499.51 897.584C1500.61 897.112 1502.02 897.269 1503.28 897.269H1535.31V898.213Z" fill="#293250"/>
<path fill-rule="evenodd" clip-rule="evenodd" d="M1478.63 700.701C1479.88 699.445 1480.82 698.503 1481.92 697.562C1491.81 687.2 1501.55 676.837 1511.44 666.632C1512.38 665.532 1513.48 664.59 1514.58 663.649C1515.84 662.707 1517.25 662.707 1518.51 663.806C1519.92 665.062 1520.08 666.475 1519.13 668.044C1518.66 668.83 1517.88 669.614 1517.25 670.4C1505.63 682.645 1494.17 694.734 1482.55 706.982C1481.92 707.609 1481.45 708.238 1480.67 708.708C1478.63 710.278 1476.59 710.278 1475.17 707.924C1472.66 703.684 1470.31 699.289 1467.95 694.893C1467.01 693.164 1467.79 691.282 1469.36 690.495C1471.09 689.712 1472.5 690.183 1473.45 691.594C1474.07 692.538 1474.7 693.478 1475.17 694.577C1476.27 696.463 1477.37 698.346 1478.63 700.701" fill="#293250"/>
<path fill-rule="evenodd" clip-rule="evenodd" d="M1416.3 911.087C1417.87 910.143 1419.12 909.203 1420.38 908.418C1431.68 900.568 1443.14 892.717 1454.45 884.867C1455.55 884.081 1456.49 883.454 1457.75 882.825C1459.47 881.884 1461.04 882.041 1462.3 883.768C1463.55 885.494 1462.77 887.065 1461.36 888.321C1460.73 888.949 1459.94 889.419 1459.32 889.891C1445.97 899.154 1432.62 908.261 1419.28 917.524C1418.65 917.994 1417.87 918.466 1417.08 918.937C1414.73 920.193 1412.84 919.879 1411.74 917.524C1409.7 913.599 1407.98 909.517 1406.25 905.592C1405.46 903.706 1406.09 902.138 1407.82 901.194C1409.7 900.254 1411.27 901.037 1412.21 902.766C1413.63 905.278 1414.88 908.104 1416.3 911.087" fill="#293250"/>
<path fill-rule="evenodd" clip-rule="evenodd" d="M1448.48 800.87C1449.89 799.614 1450.99 798.672 1452.25 797.571C1461.67 789.095 1471.09 780.616 1480.35 771.981C1481.3 771.196 1482.24 770.254 1483.34 769.469C1484.75 768.527 1486.32 768.527 1487.58 769.94C1488.83 771.352 1488.67 772.766 1487.58 774.179C1487.11 774.807 1486.48 775.435 1485.85 776.063C1474.39 786.425 1462.93 796.945 1451.31 807.307C1447.38 810.761 1445.66 810.447 1443.14 805.894C1441.42 802.753 1439.69 799.614 1438.12 796.474C1437.81 796.003 1437.49 795.532 1437.33 794.902C1436.39 792.549 1436.71 790.977 1438.28 790.037C1440 788.938 1441.73 789.566 1443.3 791.921C1444.09 793.177 1444.87 794.59 1445.66 796.003C1446.28 797.259 1447.07 798.515 1447.7 799.771C1447.7 800.242 1447.86 800.399 1448.48 800.87" fill="#293250"/>
<path fill-rule="evenodd" clip-rule="evenodd" d="M1617.73 554.844C1613.81 557.042 1613.02 560.654 1612.55 564.265C1612.08 567.405 1612.08 570.388 1614.43 572.9C1619.93 569.917 1621.66 560.811 1617.73 554.844M1627 561.753C1626.68 566.777 1625.43 571.33 1622.44 575.412C1620.24 578.395 1617.26 580.436 1613.34 579.651C1609.57 579.022 1607.53 576.197 1606.58 572.743C1604.39 565.364 1605.8 558.298 1610.51 552.175C1612.39 549.663 1615.06 547.779 1618.52 548.25C1622.44 548.878 1624.95 551.233 1625.9 555.001C1626.37 557.199 1626.52 559.555 1627 561.753" fill="#293250"/>
<path fill-rule="evenodd" clip-rule="evenodd" d="M1642.38 557.356C1637.51 560.339 1635.79 568.818 1639.08 573.528C1643.8 570.545 1645.52 562.066 1642.38 557.356M1650.86 563.008C1650.55 568.033 1649.29 572.586 1646.15 576.668C1643.95 579.494 1641.13 581.378 1637.36 580.593C1633.75 579.808 1631.86 576.982 1631.08 573.685C1629.51 566.619 1630.76 560.025 1635.16 554.216C1637.2 551.39 1639.87 549.663 1643.64 550.448C1647.41 551.233 1649.13 553.902 1650.08 557.199C1650.55 559.083 1650.7 561.124 1650.86 563.008" fill="#293250"/>
<path fill-rule="evenodd" clip-rule="evenodd" d="M901.637 483.251C904.62 483.251 907.132 480.739 907.132 477.913C907.132 475.243 904.62 473.044 901.794 472.888C898.811 472.888 896.142 475.243 896.142 478.07C896.142 480.894 898.654 483.251 901.637 483.251M914.04 477.913C914.04 484.507 908.545 490.002 901.637 490.002C894.729 490.002 889.235 484.664 889.235 478.07C889.391 471.475 895.043 466.137 901.794 466.137C908.545 466.137 913.883 471.475 914.04 477.913" fill="#293250"/>
<path fill-rule="evenodd" clip-rule="evenodd" d="M1684.14 542.127C1683.52 543.54 1683.2 544.639 1682.57 545.581C1675.2 558.297 1667.82 571.016 1660.44 583.576C1659.97 584.36 1659.49 584.989 1658.87 585.616C1657.77 586.716 1656.35 586.872 1654.94 586.088C1653.69 585.303 1653.06 583.89 1653.69 582.32C1654.16 581.221 1654.63 580.279 1655.1 579.179C1662.16 567.091 1669.23 555.002 1676.29 542.912C1676.92 541.813 1677.55 540.557 1678.65 539.928C1679.59 539.301 1681.16 539.144 1682.1 539.615C1682.89 539.928 1683.36 541.184 1684.14 542.127" fill="#293250"/>
<path fill-rule="evenodd" clip-rule="evenodd" d="M941.517 481.68C941.672 479.325 939.633 477.127 937.12 476.969C934.765 476.813 933.038 478.382 932.88 480.581C932.723 483.25 934.608 485.448 937.434 485.605C939.633 485.448 941.36 483.878 941.517 481.68M948.266 481.366C948.266 487.488 943.558 492.2 937.591 492.357C931.31 492.514 926.129 487.488 925.972 481.209C925.816 474.929 930.683 470.062 936.963 470.062C942.93 470.062 948.266 475.243 948.266 481.366" fill="#293250"/>
<path fill-rule="evenodd" clip-rule="evenodd" d="M976.685 484.507C976.685 481.838 974.486 479.483 971.974 479.483C969.934 479.483 968.207 481.051 968.207 483.251C968.207 485.763 970.561 488.275 973.073 488.275C975.272 488.275 976.685 486.862 976.685 484.507M983.592 484.507C983.592 490.63 979.197 495.183 973.23 495.183C966.951 495.183 961.611 489.845 961.454 483.408C961.297 477.283 966.009 472.417 972.132 472.574C978.411 472.574 983.592 478.07 983.592 484.507" fill="#293250"/>
<path fill-rule="evenodd" clip-rule="evenodd" d="M1592.61 557.356C1590.1 558.141 1587.74 558.926 1586.49 556.571C1585.23 554.216 1586.96 552.489 1588.53 551.076C1590.26 549.349 1591.98 547.779 1593.71 546.052C1595.12 544.639 1596.85 543.854 1598.73 544.796C1600.62 545.738 1600.93 547.622 1600.62 549.663C1599.36 558.141 1598.26 566.62 1597.01 575.098C1596.85 576.825 1596.69 578.552 1596.54 580.122C1596.22 582.32 1594.81 583.733 1592.93 583.733C1591.04 583.733 1589.63 582.163 1589.79 579.965C1589.94 576.511 1590.57 573.214 1591.04 569.76C1591.51 565.677 1591.98 561.752 1592.61 557.356" fill="#293250"/>
<path fill-rule="evenodd" clip-rule="evenodd" d="M1534.21 798.043C1537.82 797.886 1541.27 797.572 1544.88 797.417C1547.08 797.258 1549.12 797.101 1551.32 797.258C1553.67 797.258 1555.24 798.514 1555.4 800.241C1555.56 802.125 1553.99 803.696 1551.48 803.853C1546.77 804.167 1542.06 804.481 1537.35 804.638C1530.91 804.795 1524.47 804.952 1518.04 804.952C1514.42 804.952 1512.7 803.853 1512.54 801.654C1512.54 799.299 1514.11 798.357 1517.88 798.357C1523.37 798.2 1528.71 798.2 1534.21 798.043C1534.21 798.2 1534.21 798.043 1534.21 798.043" fill="#293250"/>
<path fill-rule="evenodd" clip-rule="evenodd" d="M1680.85 582.947C1679.59 581.848 1678.81 580.906 1677.87 580.749C1676.45 580.435 1675.51 581.536 1675.51 582.947C1675.51 584.518 1676.61 585.461 1678.02 585.147C1678.81 584.99 1679.44 584.048 1680.85 582.947M1686.81 583.261C1686.66 588.13 1682.57 592.211 1677.71 592.211C1672.68 592.211 1668.45 587.973 1668.45 582.947C1668.45 577.923 1672.68 573.686 1677.71 573.686C1682.73 573.841 1686.97 578.237 1686.81 583.261" fill="#293250"/>
<path fill-rule="evenodd" clip-rule="evenodd" d="M1662.79 544.482C1663.58 543.54 1664.36 543.069 1664.36 542.598C1664.36 541.184 1663.42 540.243 1662.01 540.4C1661.54 540.4 1660.59 541.499 1660.59 541.499C1661.07 542.44 1661.85 543.226 1662.79 544.482M1663.11 550.762C1657.92 550.762 1653.37 546.523 1653.37 541.499C1653.37 536.946 1656.98 533.492 1661.54 533.334C1666.72 533.178 1671.11 537.574 1671.11 542.755C1671.27 547.308 1667.82 550.605 1663.11 550.762" fill="#293250"/>
<path fill-rule="evenodd" clip-rule="evenodd" d="M1582.25 804.952H1571.1C1568.43 804.952 1566.86 803.696 1566.86 801.654C1566.86 799.771 1568.43 798.358 1570.95 798.201C1578.48 798.044 1586.02 798.044 1593.55 798.044C1595.91 798.044 1597.32 799.3 1597.48 801.184C1597.64 803.225 1596.22 804.638 1593.55 804.795C1589.94 804.952 1586.17 804.795 1582.25 804.952C1582.25 804.795 1582.25 804.952 1582.25 804.952" fill="#293250"/>
<path fill-rule="evenodd" clip-rule="evenodd" d="M1376.73 683.744C1374.85 683.744 1373.12 683.901 1371.39 683.744C1369.51 683.588 1368.1 682.488 1368.25 680.447C1368.25 678.563 1369.67 677.464 1371.55 677.307C1375 677.15 1378.3 676.837 1381.76 676.837C1383.95 676.837 1385.37 678.093 1385.52 680.133C1385.68 682.018 1384.42 683.274 1382.07 683.588C1380.19 683.744 1378.3 683.744 1376.73 683.744" fill="#293250"/>
<path fill-rule="evenodd" clip-rule="evenodd" d="M1379.71 664.59C1381.44 664.59 1383.17 664.433 1384.74 664.59C1386.47 664.747 1387.72 665.846 1387.72 667.73C1387.72 669.771 1386.47 671.027 1384.58 671.184C1381.13 671.341 1377.83 671.341 1374.38 671.184C1372.65 671.184 1371.55 669.928 1371.39 668.044C1371.24 666.317 1372.49 664.904 1374.53 664.59C1376.26 664.59 1377.99 664.747 1379.71 664.59" fill="#293250"/>
<path fill-rule="evenodd" clip-rule="evenodd" d="M1370.77 690.025C1372.65 690.338 1374.38 690.495 1376.26 690.81C1377.99 691.124 1379.09 692.223 1378.93 694.107C1378.77 695.833 1377.67 697.089 1375.79 697.089C1373.43 697.089 1370.92 697.089 1368.57 696.775C1366.05 696.463 1364.64 694.736 1364.96 692.85C1365.11 690.967 1366.53 690.025 1369.51 690.182C1369.98 690.025 1370.45 690.025 1370.77 690.025" fill="#293250"/>
<path fill-rule="evenodd" clip-rule="evenodd" d="M731.602 1073.12C731.445 1071.39 731.131 1069.97 731.131 1068.4C731.602 1030.88 731.916 993.357 732.387 955.833C732.387 951.28 735.213 948.454 739.609 948.139C741.022 947.983 742.435 948.139 743.848 948.139C819.838 948.454 895.985 948.768 971.975 949.239C973.231 949.239 974.487 949.082 975.743 949.082C979.04 949.082 980.139 950.024 979.982 953.32C979.982 955.989 979.668 958.816 979.825 961.485C979.982 970.12 980.139 978.599 980.296 987.234C980.296 987.862 980.453 988.646 980.61 989.746C983.907 990.06 987.047 990.688 990.344 990.688C1000.39 991.002 1010.28 991.473 1020.33 991.473C1026.14 991.473 1028.18 992.886 1028.34 999.323C1028.5 1007.33 1028.18 1015.34 1028.18 1023.34V1029C1031.32 1029.62 1034.46 1030.41 1037.76 1030.72C1047.65 1031.98 1057.54 1033.08 1067.59 1034.02C1069.95 1034.18 1072.3 1033.86 1074.66 1033.55C1077.01 1033.24 1078.58 1034.18 1078.89 1036.53C1079.05 1037.48 1079.05 1038.57 1078.89 1039.52C1078.58 1049.25 1078.42 1058.98 1078.11 1068.56C1077.95 1074.21 1077.95 1074.21 1072.3 1074.21C981.552 1073.9 890.804 1073.74 800.056 1073.43C778.389 1073.43 756.723 1073.43 735.056 1073.27C734.114 1073.43 733.015 1073.27 731.602 1073.12" fill="white"/>
<path fill-rule="evenodd" clip-rule="evenodd" d="M429.002 431.426C428.06 425.931 425.391 423.419 421.152 423.576C416.757 423.733 413.459 427.187 412.989 432.525C418.326 432.054 423.509 431.74 429.002 431.426V431.426ZM328.049 430.955C326.95 424.518 322.868 420.907 318.001 421.221C313.133 421.692 309.524 426.088 309.681 431.897C315.645 431.74 321.769 431.426 328.049 430.955V430.955ZM362.59 844.66C349.874 831.315 337.312 818.284 324.752 805.252C324.438 805.409 324.124 805.566 323.811 805.723C324.124 832.257 324.281 858.791 324.595 885.324C324.909 885.481 325.067 885.481 325.381 885.638C337.626 871.979 350.031 858.477 362.59 844.66V844.66ZM417.384 786.412C418.326 779.19 417.855 709.323 416.757 706.183C403.411 719.842 390.222 733.345 377.191 746.69C377.506 747.318 377.506 747.475 377.506 747.475C389.751 759.878 402.155 772.439 414.558 784.842C415.186 785.47 416.128 785.784 417.384 786.412V786.412ZM362.59 542.742C349.087 529.396 335.743 516.365 322.24 503.02C321.142 507.416 321.769 583.563 322.868 586.86C336.056 572.415 349.087 557.814 362.59 542.742V542.742ZM418.17 906.52C417.855 906.363 417.541 906.206 417.07 906.049C403.569 920.179 390.222 934.153 376.563 948.283C377.191 949.068 377.506 949.696 377.976 950.167C391.164 964.297 404.196 978.271 417.384 992.244C417.384 992.401 417.698 992.401 417.855 992.244C418.013 992.244 418.17 992.087 418.17 992.087V906.52ZM324.909 902.909C324.752 904.479 324.595 905.107 324.595 905.578C324.909 933.996 325.224 962.256 325.537 990.674C325.537 990.831 325.694 990.831 325.851 990.988C326.008 990.988 326.165 991.145 326.48 991.302C339.981 977.172 353.483 963.041 367.3 948.597C353.012 933.211 339.196 918.452 324.909 902.909V902.909ZM322.868 602.403V691.738C323.182 691.895 323.496 692.052 323.968 692.052C337.626 676.666 351.128 661.28 364.788 645.736C350.657 631.292 336.999 617.162 322.868 602.403V602.403ZM323.025 703.671C323.339 732.56 323.496 761.448 323.811 790.337C324.124 790.494 324.438 790.494 324.752 790.651C338.882 776.207 353.169 761.605 367.457 747.004C352.384 732.403 337.783 718.115 323.025 703.671V703.671ZM417.227 690.639C418.17 680.434 417.384 601.304 416.285 597.85C402.155 613.864 388.026 629.722 373.894 645.736C388.338 660.652 402.47 675.253 417.227 690.639V690.639ZM371.853 542.585C386.925 557.343 401.527 571.787 416.757 586.703V493.756C416.442 493.601 416.285 493.442 415.971 493.285C401.37 509.614 386.77 525.942 371.853 542.585V542.585ZM371.853 844.503C387.239 860.518 402.155 876.061 417.384 891.919C418.326 886.737 418.013 798.344 416.914 795.047C401.998 811.533 387.082 827.861 371.853 844.503V844.503ZM327.107 797.873C340.609 812.004 353.799 825.663 367.3 839.636C382.215 823.308 396.66 807.45 411.104 791.593C397.759 778.562 384.727 765.687 371.382 752.656C357.095 767.257 342.18 782.33 327.107 797.873V797.873ZM369.499 650.917C355.524 666.775 341.865 682.318 328.049 697.862C343.121 712.62 357.881 726.907 372.795 741.509C386.613 727.378 400.742 712.934 415.029 698.176C399.644 682.318 384.727 666.775 369.499 650.917V650.917ZM412.36 591.884C397.289 576.969 382.372 562.367 367.3 547.452C352.857 563.466 339.039 579.01 324.909 594.71C339.824 610.253 354.268 625.326 369.184 640.555C383.785 624.384 397.916 608.369 412.36 591.884V591.884ZM367.3 849.527C353.483 864.757 339.981 879.358 326.323 894.431C341.551 910.759 356.625 927.087 371.853 943.416C386.297 928.186 400.428 913.585 414.558 898.67C398.701 882.341 383.314 866.17 367.3 849.527V849.527ZM418.483 1003.71C402.783 986.749 387.396 970.264 371.853 953.621C370.912 954.563 369.969 955.191 369.184 955.976C355.369 970.421 341.551 984.865 327.736 999.309C325.851 1001.19 325.224 1003.08 325.224 1005.75C325.537 1025.69 325.537 1045.78 325.694 1065.72C325.694 1067.14 325.851 1068.55 325.694 1069.96C325.381 1072.32 323.968 1073.73 322.24 1073.57C320.199 1073.26 319.257 1072 319.1 1070.12C319.1 1069.18 319.1 1068.08 318.943 1067.14C318.473 1012.34 318.001 957.546 317.531 902.752C316.43 753.127 315.174 603.659 314.075 454.034V449.952C312.819 449.795 311.72 449.638 310.623 449.638C309.367 449.638 308.111 449.795 306.698 449.638C303.87 449.481 302.457 448.382 302.457 446.5C302.457 444.614 303.713 443.358 306.539 443.044C307.481 442.887 308.58 442.887 309.524 442.887C310.78 442.887 312.036 442.73 313.606 442.73V438.962C312.036 439.119 310.623 439.119 309.208 439.119C304.498 439.433 302.457 437.863 302.143 433.153C301.83 426.716 304.969 418.395 313.606 415.411C322.555 412.428 332.131 418.395 334.33 428.286C334.487 429.228 334.643 430.327 334.8 431.269C335.271 436.136 334.173 437.392 329.462 437.863C327.107 438.02 324.595 438.177 322.24 438.491C321.926 438.491 321.769 438.649 321.142 438.805V442.574C323.968 442.416 326.637 442.259 329.462 442.259C330.718 442.259 331.974 442.102 333.387 442.259C335.743 442.416 337.156 443.829 336.999 445.713C336.842 447.754 335.586 448.696 333.701 449.01C332.131 449.167 330.562 449.167 328.992 449.167C326.48 449.324 323.968 449.481 321.299 449.638C321.142 451.051 321.142 452.307 321.142 453.406C321.142 465.653 321.299 477.9 321.299 490.302C321.299 492.186 321.769 493.756 323.339 495.169C337.469 508.986 351.599 522.959 365.731 536.933C366.044 537.247 366.358 537.404 366.987 538.032C367.771 537.247 368.713 536.462 369.656 535.52C384.727 518.72 399.801 501.921 414.872 485.121C416.128 483.708 417.07 482.295 417.07 480.254C416.914 470.834 416.914 461.414 416.914 451.993C416.914 451.365 416.757 450.894 416.6 449.795H412.517C411.261 449.795 409.848 449.952 408.75 449.638C407.336 449.324 406.08 448.382 406.08 446.655C405.923 444.771 407.022 443.515 408.75 443.201C410.633 442.887 412.675 442.887 414.715 442.73C416.6 442.574 417.227 441.788 416.6 439.59H410.79C407.651 439.59 406.708 438.649 406.08 435.822C404.51 427.815 410.79 418.709 418.954 417.296C427.434 415.882 434.97 421.692 436.226 430.484C436.853 435.508 435.44 437.549 430.258 438.491C428.845 438.805 427.434 438.649 426.021 438.805C424.292 438.962 424.292 439.119 424.135 441.945H433.084C436.54 441.945 438.266 442.887 438.423 444.928C438.58 446.969 437.01 448.382 433.555 448.539C430.572 448.853 427.589 448.853 424.292 449.01C424.135 450.425 423.978 451.679 423.978 452.778V473.346C424.135 538.346 424.292 603.502 424.451 668.502C424.92 801.327 425.234 934.31 425.705 1067.14C425.705 1068.71 425.864 1070.28 425.548 1071.85C425.234 1073.89 423.821 1075.14 422.095 1074.99C420.21 1074.83 419.269 1073.57 419.111 1072C418.954 1070.75 418.954 1069.49 418.954 1068.23C418.954 1048.29 418.797 1028.2 418.797 1008.26C418.483 1006.22 418.483 1004.65 418.483 1003.71V1003.71Z" fill="#293250"/>
<path fill-rule="evenodd" clip-rule="evenodd" d="M934.293 907.005C934.607 917.838 934.922 928.671 935.236 939.505C935.236 940.447 935.236 941.544 935.08 942.488C934.607 944.686 933.508 945.469 931.155 945.469C926.286 945.314 921.419 945.157 916.552 945.157C858.461 945.157 800.369 945.314 742.278 945.469C740.708 945.469 739.138 945.628 737.567 945.469C735.055 945.157 734.113 944.058 734.113 941.544C734.113 937.935 734.27 934.481 734.113 930.869C733.799 912.343 733.485 893.816 733.171 875.29C733.171 874.034 733.328 872.621 733.799 871.522C734.584 869.481 736.468 868.696 738.353 869.952C740.237 871.208 742.121 871.208 744.006 871.208C803.666 870.423 863.328 869.795 922.989 869.01C925.03 869.01 926.914 868.539 928.955 868.381C931.467 868.068 932.723 868.853 933.194 871.365C933.508 872.778 933.508 874.191 933.508 875.604C933.822 885.809 933.979 896.329 934.293 907.005" fill="white"/>
<path fill-rule="evenodd" clip-rule="evenodd" d="M913.988 872.451C905.195 871.038 750.703 871.823 747.092 872.922C748.348 873.393 749.447 873.864 750.39 874.333C776.923 883.755 803.615 893.175 830.148 902.595C832.817 903.538 835.015 903.538 837.527 902.438C861.862 892.861 886.042 883.441 910.376 874.021C911.632 873.393 912.888 872.922 913.988 872.451M844.279 906.835C851.499 910.446 929.218 937.45 932.044 937.45V872.765C902.526 884.226 873.637 895.53 844.279 906.835M923.407 943.417C923.407 943.103 923.407 942.946 923.564 942.632C923.095 942.318 922.624 942.161 921.996 941.846C893.576 931.798 865.003 921.75 836.585 911.702C834.7 911.074 832.974 911.231 831.247 912.016C805.028 922.221 778.965 932.426 752.745 942.632C751.959 942.946 751.175 943.574 749.604 944.516C808.323 944.045 865.787 943.729 923.407 943.417M823.083 907.777C823.083 907.463 823.083 907.149 822.925 906.835C793.879 896.628 764.835 886.267 735.316 875.905C735.159 898.199 734.847 919.709 734.69 942.003C764.678 930.542 793.879 919.238 823.083 907.777M939.58 943.26H944.446C954.965 943.103 965.641 943.103 976.162 942.946H980.087C983.54 943.103 984.326 943.729 984.953 947.028C985.267 948.755 985.267 950.482 985.267 952.052C984.953 961.629 984.483 971.205 984.012 980.783V984.552C985.739 984.709 987.309 984.866 988.722 984.866C1001.6 985.023 1014.47 985.023 1027.19 985.18C1032.21 985.18 1033 985.651 1033.15 990.675C1033.62 1001.19 1033.94 1011.71 1034.25 1022.39C1034.25 1023.8 1034.41 1025.22 1034.57 1026.94C1036.29 1027.1 1037.86 1027.1 1039.43 1027.26C1051.84 1027.41 1064.24 1027.57 1076.64 1027.88C1082.61 1028.04 1084.34 1029.93 1084.18 1035.73C1083.71 1047.67 1083.08 1059.76 1082.45 1071.69C1082.45 1072.47 1082.3 1073.42 1081.98 1074.2C1081.35 1075.61 1080.26 1076.56 1078.69 1076.4C1077.12 1076.24 1076.02 1075.14 1075.86 1073.73C1075.7 1072.47 1075.7 1071.22 1075.86 1069.96C1076.33 1059.91 1076.96 1050.02 1077.43 1039.97V1034.95C1075.54 1034.79 1073.82 1034.79 1072.09 1034.64C1059.22 1034.48 1046.34 1034.32 1033.62 1034.01C1032.84 1034.01 1032.21 1034.16 1031.43 1034.01C1028.6 1033.69 1027.66 1032.44 1027.66 1029.45C1027.35 1017.68 1027.03 1005.75 1026.72 993.972C1026.72 993.501 1026.56 993.187 1026.25 992.402C1024.83 992.245 1023.26 992.086 1021.85 992.086C1009.76 991.931 997.514 991.931 985.425 991.774H981.971C978.831 991.46 977.103 989.733 977.103 986.436C977.103 982.668 977.26 979.055 977.417 975.288C977.732 967.752 978.203 960.216 978.516 952.68C978.516 952.052 978.359 951.267 978.359 950.482H939.58V955.977C939.894 994.286 940.208 1032.44 940.521 1070.75C940.521 1072.32 940.521 1073.89 940.364 1075.46C940.051 1077.18 939.108 1078.28 937.225 1078.28C935.497 1078.28 934.556 1077.34 934.241 1075.77C933.927 1074.2 933.927 1072.63 933.771 1071.06C933.457 1032.59 933.143 994.286 932.827 955.82V950.325C866.73 950.639 801.102 950.953 735.002 951.424C734.847 953.151 734.847 954.407 734.847 955.82C734.533 993.344 734.219 1030.87 733.903 1068.39C733.903 1069.8 733.903 1071.22 733.746 1072.63C733.434 1074.36 732.49 1075.46 730.608 1075.61C728.881 1075.77 727.466 1074.51 727.152 1072.47C726.997 1071.37 726.997 1070.12 726.997 1069.02C727.466 1004.02 728.096 938.863 728.565 873.864C728.565 867.898 730.765 865.7 736.888 865.7C800.473 865.543 864.218 865.227 927.805 865.072C929.846 865.072 932.044 864.601 933.927 864.13C936.283 863.502 937.852 864.287 938.324 866.642C938.638 867.898 938.481 869.152 938.481 870.408C938.638 893.175 938.795 916.098 939.108 938.863C939.422 939.962 939.422 941.375 939.58 943.26" fill="#293250"/>
<path fill-rule="evenodd" clip-rule="evenodd" d="M678.9 941.482C706.69 937.557 729.141 948.076 748.61 966.446C768.551 985.129 775.929 1008.52 773.574 1035.68C774.359 1035.21 775.145 1034.74 775.772 1034.11C780.483 1030.19 785.664 1027.52 791.629 1026.11C798.537 1024.38 805.131 1025.17 811.098 1028.46C815.652 1030.97 820.047 1033.96 824.286 1037.1C827.741 1039.61 830.723 1042.75 834.021 1045.42C842.498 1052.17 852.391 1055 863.223 1054.68C876.568 1054.21 891.955 1038.67 886.93 1021.71C886.461 1020.3 885.674 1018.89 885.048 1017.47C883.792 1014.8 884.261 1012.76 886.93 1012.13C896.508 1010.09 905.929 1009.15 915.034 1014.96C929.95 1024.85 936.701 1038.35 936.074 1056.25C935.602 1070.38 929.794 1081.69 919.901 1091.42C908.755 1102.57 895.409 1109.48 879.708 1111.52C869.661 1112.77 860.083 1110.73 850.82 1107.28C840.3 1103.35 830.723 1097.86 823.03 1089.38C822.403 1088.75 821.774 1088.28 820.99 1087.65C817.692 1089.54 814.71 1091.58 811.412 1093.31C791.786 1104.45 772.004 1103.98 752.378 1093.31C746.413 1090.01 741.075 1085.61 737.464 1079.49C736.208 1077.29 734.009 1076.51 731.654 1076.35C729.77 1076.19 727.885 1076.19 726.158 1076.19C587.21 1075.72 448.106 1075.25 309.156 1074.94C304.76 1074.94 302.091 1073.52 299.579 1070.07C284.665 1049.5 287.334 1021.4 306.33 1004.44C315.908 995.807 327.368 992.351 340.243 993.293C350.448 994.079 360.025 997.69 369.604 1000.83C370.701 1001.14 371.8 1001.61 372.899 1001.93C373.056 1001.93 373.213 1001.93 373.529 1001.77C373.213 1000.67 373.056 999.732 372.742 998.632C366.462 977.279 371.957 959.067 388.13 944.308C397.079 936.144 407.911 933.475 419.531 936.144C425.968 937.557 432.405 940.069 438.684 942.11C444.493 943.994 450.459 945.564 456.583 946.035C471.813 947.291 484.688 942.267 495.52 931.905C503.998 923.899 511.064 914.791 517.814 905.371C534.3 881.979 546.233 856.229 554.71 829.067C564.446 798.138 572.453 766.737 579.517 735.179C583.756 716.024 587.838 696.713 591.921 677.401C592.548 674.575 592.862 671.749 593.334 668.923C593.491 667.667 593.804 666.411 594.275 665.155C595.531 662.486 598.515 662.015 599.929 664.684C601.026 666.568 602.598 667.196 604.166 667.824C616.413 672.534 628.817 675.831 641.692 677.558C647.342 678.343 647.97 679.443 646.4 684.938C638.864 711.944 631.486 738.79 623.949 765.795C615.157 797.51 606.366 829.224 597.259 860.939C595.217 868.318 595.531 875.226 597.572 882.449C599.142 887.944 602.125 892.498 605.893 896.736C609.818 900.975 616.413 903.173 623.007 899.876C628.031 897.364 633.369 895.009 638.864 893.596C659.903 888.415 680.784 904.115 681.883 925.782C682.04 928.765 681.257 931.749 680.627 934.574C680.47 936.772 679.687 938.813 678.9 941.482" fill="#293250"/>
<path fill-rule="evenodd" clip-rule="evenodd" d="M221.548 1057.67C220.292 1053.27 218.565 1049.19 217.78 1045.1C213.541 1024.07 233.166 1008.37 252.163 1013.55C264.253 1016.84 273.201 1028.46 272.888 1041.18C272.731 1053.11 264.096 1063.47 251.85 1066.46C249.966 1066.93 248.082 1067.4 246.041 1067.71C246.041 1068.5 245.884 1068.97 246.041 1069.6C247.454 1075.88 244.942 1080.75 240.232 1084.51C236.307 1087.65 231.91 1089.38 226.886 1089.69C218.094 1090.32 210.715 1085.14 209.145 1076.98C207.73 1070.07 211.186 1060.81 220.135 1057.98C220.449 1057.98 221.077 1057.82 221.548 1057.67" fill="#293250"/>
<path fill-rule="evenodd" clip-rule="evenodd" d="M474.011 910.552C481.233 918.715 481.233 925.939 474.325 931.12C467.731 936.144 459.252 933.946 453.914 926.096H450.931C433.504 927.666 421.414 913.534 426.596 896.893C430.207 885.275 438.057 877.738 449.989 874.127C463.02 870.358 476.523 882.133 477.779 892.968C478.563 899.247 477.936 905.214 474.011 910.552" fill="#293250"/>
<path fill-rule="evenodd" clip-rule="evenodd" d="M859.926 1011.35C854.431 1007.74 850.977 1002.87 848.936 997.217C845.168 986.855 853.646 977.906 861.496 976.65C868.09 975.552 874.057 979.005 875.627 985.442C876.569 989.211 876.569 993.292 876.412 997.217C876.253 1000.04 876.569 1002.4 877.825 1004.91C881.907 1013.07 878.767 1021.71 870.76 1025.32C867.619 1026.74 864.322 1026.74 861.339 1024.69C857.728 1022.34 856.628 1018.57 858.199 1014.65C858.67 1013.7 859.298 1012.76 859.926 1011.35" fill="#293250"/>
<path fill-rule="evenodd" clip-rule="evenodd" d="M703.394 884.49C709.045 883.546 713.442 885.116 716.268 890.141C719.094 895.479 719.094 900.975 715.639 905.998C710.301 913.691 702.608 915.89 693.817 914.634C685.494 913.378 680.786 907.569 679.057 899.876C677.487 892.34 680.786 885.746 685.81 880.565C690.675 875.696 696.957 876.797 701.51 882.133C702.294 882.92 702.766 883.546 703.394 884.49" fill="#293250"/>
<path fill-rule="evenodd" clip-rule="evenodd" d="M651.267 875.54C641.535 875.384 634.311 868.003 634.782 858.583C635.254 847.908 642.318 841.784 652.837 841.314C661.474 841 668.695 849.477 668.381 858.74C667.911 868.476 660.374 875.697 651.267 875.54" fill="#293250"/>
<mask id="mask1_0_190" style="mask-type:alpha" maskUnits="userSpaceOnUse" x="179" y="1032" width="24" height="25">
<path fill-rule="evenodd" clip-rule="evenodd" d="M179 1032.85H202.707V1056.73H179V1032.85Z" fill="white"/>
</mask>
<g mask="url(#mask1_0_190)">
<path fill-rule="evenodd" clip-rule="evenodd" d="M202.707 1044.01C202.707 1050.76 196.899 1056.88 190.462 1056.72C184.809 1056.72 179 1050.76 179 1045.1C179 1039.14 185.281 1032.86 191.403 1032.86C197.997 1032.7 202.55 1037.41 202.707 1044.01" fill="#293250"/>
</g>
<path fill-rule="evenodd" clip-rule="evenodd" d="M726.315 849.007C718.779 849.164 713.284 841.784 715.639 834.72C716.583 831.58 718.308 829.068 720.977 827.182C722.547 826.085 724.274 825.299 726.158 826.399C728.043 827.655 727.886 829.382 727.415 831.423C726.473 835.505 726.473 835.505 729.614 837.232C733.381 839.43 734.48 841.314 733.852 844.296C732.91 846.965 729.77 848.85 726.315 849.007" fill="#293250"/>
<path fill-rule="evenodd" clip-rule="evenodd" d="M466.527 1064.13C434.183 1064.76 401.841 1065.39 369.342 1066.17C359.763 1066.33 350.187 1066.96 340.767 1067.43C339.511 1067.43 338.255 1067.59 336.999 1067.43C335.429 1067.27 334.33 1066.33 334.173 1064.6C334.016 1062.72 334.956 1061.62 336.528 1060.99C337.626 1060.68 338.725 1060.68 339.981 1060.52C370.441 1059.74 401.056 1058.64 431.514 1058.01C485.366 1056.75 539.377 1055.66 593.229 1054.56C594.642 1054.56 596.055 1054.56 597.468 1054.71C599.194 1054.87 600.293 1056.13 600.293 1057.85C600.293 1059.42 599.353 1060.68 597.781 1060.84C596.055 1061.15 594.328 1061.31 592.757 1061.31C578.785 1061.62 564.812 1061.93 550.837 1062.25C522.735 1062.88 494.63 1063.51 466.527 1064.13" fill="white"/>
<path fill-rule="evenodd" clip-rule="evenodd" d="M565.596 821.09C565.91 819.991 566.381 818.578 566.852 817.009C575.174 790.945 583.495 764.883 591.659 738.82C593.543 732.855 595.27 726.888 597.154 720.922C597.468 719.824 597.782 718.725 598.41 717.781C599.509 715.899 601.236 715.269 602.649 716.056C604.219 716.839 604.847 718.252 604.533 719.981C604.376 720.765 604.062 721.551 603.748 722.493C593.386 755.464 582.867 788.433 572.504 821.561C572.347 822.033 572.19 822.66 572.033 823.132C571.248 824.86 569.992 825.959 568.108 825.486C566.381 825.015 565.439 823.603 565.596 821.09" fill="white"/>
<path fill-rule="evenodd" clip-rule="evenodd" d="M657.601 947.008C661.055 946.851 663.881 946.851 666.707 946.538C676.598 945.752 685.232 949.363 693.554 953.759C694.34 954.073 694.968 954.701 695.596 955.329C696.852 956.901 697.008 958.783 695.752 960.039C694.496 961.452 693.083 961.452 691.514 960.51C688.058 958.783 684.606 957.058 681.152 955.486C677.226 953.602 672.987 952.976 668.59 953.133C664.038 953.288 659.484 953.916 654.932 954.232C652.89 954.389 650.536 955.172 649.123 952.976C647.708 951.09 648.65 949.207 649.594 947.322C651.792 942.456 653.989 937.745 654.146 932.25C654.461 926.598 652.733 921.887 648.024 918.433C644.099 915.764 641.273 915.607 637.189 918.276C635.619 919.218 634.206 919.532 632.95 918.119C631.694 916.863 631.381 915.293 632.323 913.882C633.264 912.624 634.677 911.368 636.091 910.583C639.232 909.013 642.686 909.013 646.138 909.956C653.519 911.839 659.956 919.532 660.898 927.226C661.526 932.25 661.055 937.117 659.327 941.984C658.7 943.711 658.228 944.967 657.601 947.008" fill="white"/>
<path fill-rule="evenodd" clip-rule="evenodd" d="M423.979 957.685C419.427 958.313 414.872 958.627 410.476 959.412C405.139 960.354 400.585 963.023 397.131 967.262C392.735 972.6 388.653 977.938 388.496 985.317C388.496 986.259 387.24 987.672 386.298 987.829C385.356 988.143 383.471 987.515 383 986.73C382.215 985.16 381.589 983.276 381.901 981.549C384.414 966.477 398.073 953.602 413.145 951.718C417.855 951.247 422.565 950.933 427.119 950.776C428.532 950.776 430.102 950.933 431.202 951.718C432.143 952.346 433.085 953.916 433.085 955.015C433.085 956.743 431.672 957.685 429.946 957.685H423.979C423.979 957.842 423.979 957.685 423.979 957.685" fill="white"/>
<path fill-rule="evenodd" clip-rule="evenodd" d="M320.984 1019.54C322.24 1020.01 323.653 1020.33 324.438 1021.11C325.223 1021.9 325.851 1023.47 325.694 1024.41C325.536 1025.35 323.967 1026.77 323.182 1026.77C318.315 1026.45 315.646 1029.75 313.291 1033.2C310.779 1037.13 309.68 1041.68 311.25 1046.23C312.663 1050.47 313.919 1055.03 317.53 1058.01C318.942 1059.11 319.257 1060.68 318.158 1062.25C317.059 1063.82 315.332 1064.6 313.76 1063.66C312.506 1063.04 311.091 1061.93 310.308 1060.68C308.267 1056.75 306.069 1052.83 304.656 1048.75C301.358 1038.7 306.226 1026.77 315.646 1021.59C317.373 1020.8 319.1 1020.33 320.984 1019.54" fill="white"/>
<path fill-rule="evenodd" clip-rule="evenodd" d="M606.575 746.357C607.044 744.001 607.674 741.019 608.3 738.193C610.029 730.657 611.756 723.12 613.481 715.742C613.797 714.329 614.268 712.914 614.738 711.658C615.524 710.088 616.78 709.305 618.663 709.776C620.391 710.245 621.175 711.658 621.019 713.387C621.019 714.013 620.862 714.486 620.705 715.112C618.193 726.261 615.681 737.407 613.169 748.399C612.541 750.909 611.442 752.008 609.556 751.694C607.517 751.539 606.418 749.812 606.575 746.357" fill="white"/>
<path fill-rule="evenodd" clip-rule="evenodd" d="M792.153 1040.9C801.102 1041.37 807.696 1044.35 813.977 1047.96C814.605 1048.28 815.076 1048.9 815.547 1049.37C816.646 1050.79 816.803 1052.2 815.704 1053.62C814.605 1055.03 813.035 1055.19 811.465 1054.4C808.48 1052.99 805.811 1051.1 802.672 1050C799.532 1048.9 796.078 1048.28 792.78 1047.96C789.798 1047.65 786.972 1048.75 784.93 1051.42C783.36 1053.46 781.634 1053.62 780.221 1052.36C778.808 1051.26 778.178 1049.06 779.591 1047.33C781.004 1045.61 782.733 1043.88 784.617 1042.94C787.285 1041.84 790.426 1041.37 792.153 1040.9" fill="white"/>
<path fill-rule="evenodd" clip-rule="evenodd" d="M874.58 1098.2C871.911 1097.73 869.242 1097.58 866.573 1096.79C864.375 1096.16 863.432 1094.44 863.904 1092.71C864.375 1090.98 865.944 1089.88 868.3 1090.51C876.778 1092.39 884.001 1090.2 890.595 1084.86C892.636 1083.13 894.52 1083.45 895.776 1085.02C897.032 1086.59 896.875 1088.78 894.833 1090.2C889.025 1094.44 882.588 1098.36 874.58 1098.2" fill="white"/>
<path fill-rule="evenodd" clip-rule="evenodd" d="M587.734 887.817C587.577 894.882 590.403 901.162 593.386 907.287C593.7 907.756 594.014 908.229 594.328 908.698C595.113 910.268 594.956 911.838 593.386 912.937C591.973 914.036 590.403 913.881 588.99 912.78C588.519 912.311 587.891 911.838 587.577 911.212C583.809 903.361 580.354 895.354 580.825 886.405C580.825 885.305 580.982 884.049 581.453 883.107C582.081 881.38 583.337 880.595 585.222 881.067C586.792 881.38 587.577 882.48 587.734 884.049V887.817Z" fill="white"/>
<path fill-rule="evenodd" clip-rule="evenodd" d="M243.581 1018.6C249.39 1018.6 254.414 1021.11 258.967 1024.1C261.008 1025.35 261.323 1027.71 260.223 1029.28C259.124 1030.85 257.554 1031 255.356 1029.75C253.315 1028.65 251.431 1027.4 249.233 1026.61C245.151 1025.04 240.912 1024.41 237.144 1027.4C235.574 1028.65 234.004 1028.65 232.591 1027.08C231.335 1025.67 231.492 1023.78 233.062 1022.06C235.888 1019.39 239.656 1018.6 243.581 1018.6" fill="white"/>
<path fill-rule="evenodd" clip-rule="evenodd" d="M900.171 1030.38C899.857 1032.1 899.857 1033.52 899.386 1034.77C897.659 1038.7 896.089 1042.62 894.048 1046.39C892.792 1048.75 890.751 1049.22 889.024 1048.28C887.297 1047.33 886.983 1045.61 888.239 1043.1C889.495 1040.58 890.751 1038.07 892.007 1035.4C893.263 1032.89 893.577 1030.38 892.635 1027.55C891.694 1024.88 892.164 1023.15 894.048 1022.53C895.932 1021.74 897.973 1022.68 899.072 1025.35C899.545 1026.92 899.857 1028.81 900.171 1030.38" fill="white"/>
<path fill-rule="evenodd" clip-rule="evenodd" d="M451.611 880.281C453.966 880.281 455.693 881.694 455.85 883.737C456.007 885.462 454.751 886.718 452.239 887.189C447.686 887.974 443.29 888.918 440.307 892.999C439.365 894.412 437.638 894.569 436.068 893.47C434.655 892.528 434.184 890.958 434.969 889.387C435.754 887.974 436.696 886.718 437.795 885.776C440.621 882.95 447.843 880.281 451.611 880.281" fill="white"/>
<path fill-rule="evenodd" clip-rule="evenodd" d="M684.134 891.273C685.077 888.289 686.803 885.62 689.158 883.265C690.415 882.009 691.984 882.009 693.397 883.108C694.81 884.207 694.967 885.777 694.026 887.347C692.77 889.703 691.357 892.058 689.943 894.256C689.002 895.824 687.432 896.14 685.861 895.355C684.448 894.727 683.977 893.155 684.134 891.273" fill="white"/>
<path fill-rule="evenodd" clip-rule="evenodd" d="M522.892 923.929C522.892 927.226 518.652 932.878 516.297 933.82C514.884 934.291 513.314 934.291 512.528 932.878C512.058 931.936 511.744 930.209 512.215 929.424C513.785 926.912 515.511 924.398 517.553 922.359C518.18 921.731 520.065 921.417 521.007 921.731C521.948 922.045 522.42 923.458 522.892 923.929" fill="white"/>
<path fill-rule="evenodd" clip-rule="evenodd" d="M621.332 1061.78C620.39 1061.78 619.291 1062.09 618.35 1061.78C617.25 1061.31 615.838 1060.37 615.838 1059.42C615.681 1058.32 616.465 1056.44 617.407 1055.97C620.39 1054.4 623.688 1054.56 626.827 1055.81C627.614 1056.13 628.397 1057.85 628.24 1058.95C628.083 1059.89 626.984 1061.15 625.885 1061.62C624.472 1061.93 622.902 1061.78 621.332 1061.78" fill="white"/>
<path fill-rule="evenodd" clip-rule="evenodd" d="M717.105 968.046C714.907 966.947 712.866 966.163 711.139 965.063C709.726 964.121 709.412 962.394 710.354 960.824C711.139 959.411 712.553 958.94 713.966 959.411C715.692 960.039 717.419 960.667 718.989 961.609C720.559 962.394 721.187 964.121 720.245 965.534C719.617 966.633 718.361 967.261 717.105 968.046" fill="white"/>
<path fill-rule="evenodd" clip-rule="evenodd" d="M648.495 847.938C651.477 847.938 653.205 849.195 653.519 850.922C653.832 852.649 652.733 853.905 650.221 854.69C649.122 855.004 648.024 855.318 646.925 855.475C645.355 855.789 643.783 855.318 643.469 853.746C643.157 852.49 643.469 850.765 644.256 849.98C645.669 848.723 647.551 848.409 648.495 847.938" fill="white"/>
<path fill-rule="evenodd" clip-rule="evenodd" d="M446.43 963.18C445.488 962.709 443.604 961.924 442.034 960.825C440.778 959.881 440.621 958.156 441.563 957.057C442.191 956.272 443.604 955.644 444.703 955.644C446.116 955.644 447.372 956.272 448.785 956.743C450.512 957.528 451.454 958.784 450.983 960.825C450.355 962.552 449.099 963.023 446.43 963.18" fill="white"/>
<path fill-rule="evenodd" clip-rule="evenodd" d="M190.984 1044.19C188.943 1044.19 187.373 1042.62 187.373 1040.9C187.53 1038.86 190.199 1036.97 192.711 1036.97C194.595 1036.97 196.009 1038.39 196.009 1040.11C196.009 1042.15 193.496 1044.04 190.984 1044.19" fill="white"/>
<path fill-rule="evenodd" clip-rule="evenodd" d="M860.606 981.235C862.963 981.235 864.688 982.648 864.845 984.534C864.845 986.573 863.275 987.987 860.763 987.987C858.408 987.987 856.681 986.573 856.681 984.689C856.681 982.648 858.251 981.235 860.606 981.235" fill="white"/>
<path fill-rule="evenodd" clip-rule="evenodd" d="M878.976 1053.77C880.86 1053.93 882.274 1055.34 882.116 1057.07C881.959 1059.11 879.762 1060.84 877.562 1060.68C875.678 1060.52 874.265 1059.11 874.424 1057.38C874.424 1055.34 876.62 1053.61 878.976 1053.77" fill="white"/>
<path fill-rule="evenodd" clip-rule="evenodd" d="M468.725 887.504C468.882 889.386 467.469 890.958 465.742 890.958C464.015 890.958 462.131 889.229 462.131 887.347C462.131 885.777 463.387 884.364 464.957 884.205C466.998 884.048 468.725 885.461 468.725 887.504" fill="white"/>
<path fill-rule="evenodd" clip-rule="evenodd" d="M263.364 1033.83C265.091 1033.83 266.661 1035.09 266.661 1036.97C266.818 1038.86 265.562 1040.27 263.678 1040.43C261.951 1040.43 260.381 1039.17 260.381 1037.44C260.381 1035.4 261.637 1033.99 263.364 1033.83" fill="white"/>
<path fill-rule="evenodd" clip-rule="evenodd" d="M690.08 656.727C699.814 641.968 708.45 626.739 715.673 610.725C722.894 594.867 729.802 578.695 736.867 562.524C739.693 562.994 742.05 564.251 743.775 566.45C765.756 593.611 775.806 624.227 772.037 659.082C769.838 680.12 762.459 699.589 751.783 717.644C747.231 725.181 741.893 732.246 736.867 739.624C736.396 740.253 736.082 740.724 735.611 741.352C734.355 742.765 733.099 744.178 730.901 743.393C729.174 742.765 727.605 740.253 728.232 738.055C730.901 727.536 727.605 717.644 724.307 708.067C720.539 697.077 715.358 686.715 709.079 677.137C703.739 669.287 698.244 662.065 690.08 656.727" fill="#03CEA4"/>
<path fill-rule="evenodd" clip-rule="evenodd" d="M577.561 625.169C576.776 625.483 576.305 625.796 575.835 625.954C566.572 628.466 558.092 633.019 550.242 638.515C533.758 649.976 519.783 663.792 510.207 681.691C509.421 683.104 508.951 684.831 508.479 686.401C508.008 688.128 507.223 689.384 505.339 689.384C503.612 689.541 502.357 688.442 501.885 686.715C500.786 682.005 499.53 677.295 498.745 672.584C492.308 632.077 503.141 596.437 529.361 565.194C541.608 550.592 556.365 538.66 572.537 528.455C572.694 528.455 572.851 528.298 572.851 528.298C575.049 527.042 577.247 525.786 579.603 527.356C581.957 528.926 581.016 531.438 580.701 533.636C577.875 549.336 575.678 565.194 575.52 581.208C575.363 594.239 575.678 607.114 577.091 620.145C577.404 621.715 577.404 623.442 577.561 625.169" fill="#03CEA4"/>
<path fill-rule="evenodd" clip-rule="evenodd" d="M665.804 344.879C670.672 344.566 675.381 344.409 680.248 343.937C690.924 342.838 701.444 344.409 711.649 347.235C727.979 351.63 742.893 358.853 755.924 369.685C757.024 370.629 758.123 371.569 759.221 372.511C765.658 377.692 768.955 384.287 768.17 392.608C767.699 397.632 767.387 402.499 767.071 407.523C766.286 418.986 765.501 430.604 764.718 442.064C763.304 462.162 758.436 481.472 751.842 500.313C746.19 516.327 740.695 532.341 736.612 548.827C733.786 560.759 728.605 572.065 723.738 583.211C720.755 589.962 717.929 596.871 715.104 603.778C709.608 617.28 702.229 629.842 694.378 642.087C691.866 646.012 689.668 650.094 686.999 654.019C686.216 655.118 684.959 656.06 683.703 656.531C680.405 657.631 677.109 658.574 673.811 659.201C672.241 659.515 671.299 660.143 670.828 661.713C669.886 664.854 668.63 667.836 667.531 670.976C665.961 675.686 664.862 676.786 659.838 676.786C655.284 676.786 650.574 676.786 646.178 675.686C630.164 671.761 614.308 666.894 599.234 659.83C591.855 656.217 591.698 655.905 593.269 647.582C593.739 645.386 594.053 643.029 594.367 640.831C594.682 637.848 592.797 635.964 589.971 636.122C585.419 636.279 581.807 632.824 582.121 628.272C582.121 627.486 582.435 626.544 582.121 625.76C577.41 613.041 577.096 599.697 576.782 586.509C576.313 559.346 580.08 532.814 586.832 506.594C596.408 470.012 608.497 434.529 624.512 400.301C633.933 380.361 646.178 362.149 658.111 343.623C660.937 339.854 663.449 340.168 665.804 344.879" fill="white"/>
<path fill-rule="evenodd" clip-rule="evenodd" d="M597.468 648.353C597.154 649.609 596.997 650.395 596.525 651.179C595.426 653.534 596.212 655.261 598.253 656.517C599.351 657.146 600.293 658.087 601.394 658.715C613.325 666.722 626.513 671.59 640.488 674.103C646.925 675.202 653.519 674.887 660.113 675.044C661.212 675.044 662.782 674.259 663.252 673.474C664.822 670.333 666.078 667.036 667.649 663.268C643 663.739 619.919 658.872 597.468 648.353M675.499 662.954C673.771 667.036 671.731 671.434 670.161 675.829C668.59 680.225 665.764 681.953 661.212 682.266C636.719 683.679 614.895 676.3 594.799 662.64C593.699 661.855 592.757 661.072 591.816 660.128C589.618 658.087 588.675 655.418 589.461 652.435C590.088 650.08 590.56 647.726 591.187 645.056C588.99 643.486 586.792 641.759 584.593 640.189C580.982 637.677 578.942 634.38 577.999 630.14C575.801 620.72 574.388 611.144 573.761 601.409C571.561 566.554 576.116 532.484 584.123 498.729C594.485 454.924 610.029 413.004 632.794 374.067C637.818 365.276 643.783 357.111 649.28 348.632C649.906 347.533 650.85 346.591 651.792 345.806C653.047 344.707 654.461 344.707 655.717 345.651C656.972 346.591 657.287 348.004 656.815 349.417C656.501 350.202 656.031 350.989 655.559 351.615C632.323 383.489 616.151 418.971 603.435 456.18C593.543 485.226 586.478 514.743 582.71 545.201C580.041 566.869 578.942 588.691 581.611 610.515C582.395 616.952 583.809 623.389 585.065 629.826C585.379 631.397 586.478 632.967 587.891 633.909C592.287 637.049 596.682 640.346 601.549 642.702C623.688 653.377 647.239 657.773 671.731 656.517C678.011 656.203 682.877 654.005 686.959 649.296C693.083 642.387 698.421 635.008 702.975 627.157C714.435 608.003 723.072 587.435 730.451 566.397C744.738 526.048 754.628 484.755 760.596 442.365C762.949 425.878 764.521 409.236 765.147 392.436C765.147 391.651 765.147 391.023 765.304 390.24C765.62 387.571 766.874 386.158 768.917 386.315C770.8 386.47 771.899 387.883 772.056 390.709V393.221C771.272 413.633 769.072 433.886 765.934 454.14C759.809 492.762 750.547 530.443 737.516 567.339C730.765 586.495 723.227 605.334 713.179 622.92C708.47 631.397 702.818 639.247 697.479 647.411C695.596 650.08 693.24 652.435 691.043 654.79C684.92 660.756 683.821 661.227 675.499 662.954" fill="#293250"/>
<path fill-rule="evenodd" clip-rule="evenodd" d="M688.845 475.963C710.04 475.963 727.309 459.163 727.468 437.811C727.625 416.458 710.511 399.031 689.157 399.031C667.963 398.874 650.693 415.987 650.536 437.183C650.379 458.535 667.492 475.963 688.845 475.963M689.002 482.871C664.038 482.871 643.783 462.774 643.783 437.654C643.626 412.533 664.195 392.123 689.157 392.123C714.121 392.123 734.69 412.847 734.533 437.811C734.219 462.774 713.808 482.871 689.002 482.871" fill="#293250"/>
<path fill-rule="evenodd" clip-rule="evenodd" d="M587.891 563.885C589.774 550.383 591.502 536.723 593.857 523.378C595.898 511.76 598.567 500.142 600.922 488.68C601.079 488.052 601.079 487.266 601.393 486.639C602.178 484.441 603.748 483.341 605.474 483.813C607.516 484.284 608.143 485.853 607.987 487.738C607.83 488.837 607.673 489.935 607.359 491.034C604.218 507.207 601.079 523.378 598.253 539.707C596.84 548.185 596.055 556.662 595.27 565.141C594.799 568.752 593.699 570.479 591.502 570.165C589.461 570.008 588.362 568.28 588.518 564.827V564.042C588.205 563.885 588.048 563.885 587.891 563.885" fill="#293250"/>
<path fill-rule="evenodd" clip-rule="evenodd" d="M640.958 416.302C638.289 416.457 636.563 414.732 637.033 412.846C637.347 411.276 638.132 409.551 639.075 408.295C645.197 399.973 652.733 393.378 661.839 388.669C666.235 386.47 670.945 384.587 675.499 382.545C675.814 382.389 676.284 382.232 676.755 382.075C678.64 381.446 680.209 381.761 681.152 383.488C682.093 385.057 681.308 386.942 679.424 388.198C678.011 388.982 676.598 389.453 675.185 390.082C669.689 392.751 664.039 395.263 658.857 398.402C652.733 402.17 647.866 407.351 643.784 413.319C642.842 414.732 641.586 415.674 640.958 416.302" fill="#293250"/>
<path fill-rule="evenodd" clip-rule="evenodd" d="M699.521 494.489C696.695 494.489 694.81 493.39 694.81 491.349C694.81 489.308 695.909 488.052 697.794 487.738C703.602 487.109 708.47 483.97 713.494 481.301C714.121 480.987 714.75 480.516 715.377 480.359C717.104 479.574 718.518 480.045 719.459 481.458C720.558 483.028 720.089 484.441 718.832 485.697C718.518 486.011 718.203 486.325 717.89 486.482C712.708 489.465 707.684 492.762 701.719 493.861C700.933 494.332 699.991 494.489 699.521 494.489" fill="#293250"/>
<path fill-rule="evenodd" clip-rule="evenodd" d="M592.601 590.889C592.601 593.558 591.501 595.129 589.619 595.129C587.733 595.286 586.163 593.872 585.849 591.36C585.537 589.319 585.378 587.278 587.419 586.022C588.206 585.551 589.619 585.394 590.559 585.708C591.974 586.179 592.601 588.063 592.601 590.889" fill="#293250"/>
<path fill-rule="evenodd" clip-rule="evenodd" d="M693.869 379.72C697.323 379.876 699.207 381.132 699.05 383.488C698.893 385.528 697.323 386.627 694.811 386.627C691.826 386.627 689.472 384.901 689.629 382.702C689.629 380.819 691.2 379.72 693.869 379.72" fill="#293250"/>
<path fill-rule="evenodd" clip-rule="evenodd" d="M688.688 404.526C707.057 404.526 721.658 419.126 721.815 437.183C721.815 455.553 707.057 470.625 688.688 470.467C670.632 470.467 655.717 455.553 655.717 437.34C655.874 419.283 670.632 404.526 688.688 404.526" fill="#293250"/>
<path fill-rule="evenodd" clip-rule="evenodd" d="M770.833 367.368V388.564C770.833 389.663 770.676 390.919 770.519 392.018C769.733 395.158 767.535 395.943 764.866 394.216C763.768 393.431 762.669 392.803 761.726 391.861C740.689 373.335 715.725 362.501 688.876 355.75C680.712 353.709 672.392 352.453 663.912 352.61C661.243 352.61 658.574 353.081 655.748 353.238C651.667 353.552 649.625 350.883 650.881 346.958C651.353 345.545 652.294 344.132 652.923 342.719C658.105 333.613 664.228 325.134 670.822 317.284C687.62 297.345 707.089 280.231 728.599 265.473C732.524 262.804 736.607 260.606 740.844 258.408C745.084 256.21 747.753 257.309 749.638 261.705C759.371 285.883 765.181 311.161 768.477 337.067C769.733 347.115 770.047 357.32 770.833 367.368" fill="#03CEA4"/>
<path fill-rule="evenodd" clip-rule="evenodd" d="M602.367 654.685C603.154 619.204 611.316 588.586 630 561.269C637.536 550.277 646.642 540.702 657.79 533.164C659.203 532.222 660.617 531.281 662.343 530.652C665.797 529.239 667.211 529.868 668.781 533.321C669.565 535.049 670.193 536.776 670.821 538.502C673.805 547.139 675.374 556.088 675.845 565.351C677.258 590.627 672.706 615.121 664.542 638.829C657.005 660.494 646.642 680.748 632.355 698.805C629.216 702.73 625.918 706.498 622.464 709.951C619.167 713.406 616.185 712.777 614.142 708.537C608.961 697.549 605.823 686.086 604.251 674.155C603.154 666.931 602.681 659.554 602.367 654.685" fill="#03CEA4"/>
<path fill-rule="evenodd" clip-rule="evenodd" d="M578.762 709.951C578.605 710.738 578.291 711.835 577.977 712.934C570.598 738.369 563.375 763.961 555.998 789.395C555.682 790.337 555.368 791.279 554.897 792.221C553.955 793.791 552.542 794.421 550.815 793.791C549.088 793.165 548.46 791.752 548.774 790.023C548.931 789.081 549.245 788.139 549.559 787.197C556.938 761.764 564.317 736.328 571.54 710.738C571.854 709.951 572.011 709.009 572.325 708.224C573.11 706.654 574.366 705.712 576.093 706.183C577.977 706.497 578.762 707.753 578.762 709.951" fill="#293250"/>
<path fill-rule="evenodd" clip-rule="evenodd" d="M579.86 409.76C580.174 408.66 580.488 407.248 581.116 405.991C584.1 399.398 586.926 392.647 590.38 386.365C595.248 377.416 600.742 368.625 605.923 359.833C606.237 359.361 606.394 358.89 606.866 358.42C608.122 356.85 610.005 356.378 611.418 357.321C612.831 358.263 613.461 359.833 612.674 361.403C612.048 362.972 611.104 364.542 610.319 365.956C605.923 373.491 601.213 380.871 597.131 388.408C593.363 395.628 590.223 403.009 586.769 410.387C586.455 410.859 586.455 411.486 586.141 411.958C585.356 413.528 584.257 414.47 582.372 413.998C580.647 413.685 579.703 411.958 579.86 409.76" fill="#293250"/>
<path fill-rule="evenodd" clip-rule="evenodd" d="M818.35 308.02C815.367 307.863 813.954 305.822 814.896 303.783C815.367 302.682 816.152 301.583 817.094 300.641C824.944 292.634 832.951 284.627 840.801 276.62C841.429 275.993 842.214 275.207 842.842 275.207C843.941 275.207 845.511 275.207 846.296 275.993C847.081 276.777 847.238 278.347 846.924 279.446C846.767 280.388 845.668 281.331 844.883 282.115C837.033 289.965 829.34 297.972 821.49 305.822C820.391 306.764 819.135 307.551 818.35 308.02" fill="#293250"/>
<path fill-rule="evenodd" clip-rule="evenodd" d="M827.613 318.697C826.828 318.227 825.571 317.755 825.258 316.971C824.787 316.028 824.787 314.302 825.415 313.516C826.043 312.417 827.456 311.475 828.712 310.847C838.603 305.98 848.495 301.271 858.386 296.559C859.014 296.245 859.642 295.933 860.427 295.774C861.997 295.46 863.253 295.774 864.038 297.346C864.822 298.915 864.509 300.485 863.096 301.584C862.625 302.055 861.84 302.37 861.212 302.683C850.85 307.708 840.487 312.731 830.125 317.755C829.34 318.227 828.555 318.383 827.613 318.697" fill="#293250"/>
<mask id="mask2_0_190" style="mask-type:alpha" maskUnits="userSpaceOnUse" x="804" y="257" width="26" height="37">
<path fill-rule="evenodd" clip-rule="evenodd" d="M804.835 257.309H829.783V293.42H804.835V257.309Z" fill="white"/>
</mask>
<g mask="url(#mask2_0_190)">
<path fill-rule="evenodd" clip-rule="evenodd" d="M808.615 293.42C806.103 293.42 804.69 292.007 804.847 289.965C805.004 288.552 805.477 287.139 806.26 286.04C811.914 277.092 817.722 268.143 823.531 259.194C824.787 257.308 826.672 256.837 828.241 257.78C829.811 258.721 830.283 260.607 829.184 262.646C828.869 263.431 828.241 264.061 827.771 264.844C822.118 273.638 816.623 282.272 810.972 291.064C810.342 292.163 809.243 292.949 808.615 293.42" fill="#293250"/>
</g>
<path fill-rule="evenodd" clip-rule="evenodd" d="M640.464 739.468C640.778 738.212 640.935 736.328 641.563 734.6C644.075 726.437 646.431 718.273 649.1 710.108C649.414 708.852 650.042 707.753 650.827 706.654C651.769 705.398 653.339 704.769 654.595 705.711C655.537 706.497 656.165 707.91 656.479 709.166C656.636 709.793 656.008 710.736 655.851 711.679C653.025 721.568 650.199 731.304 647.373 741.194C646.745 743.549 645.331 744.649 643.604 744.335C641.563 744.02 640.464 742.45 640.464 739.468" fill="#293250"/>
<path fill-rule="evenodd" clip-rule="evenodd" d="M558.352 427.029C558.665 425.93 558.979 424.674 559.294 423.418C562.12 414.627 565.888 406.148 570.284 397.985C570.44 397.671 570.597 397.513 570.754 397.199C572.325 394.687 574.209 393.746 575.935 394.844C577.82 395.786 578.134 397.671 576.721 400.497C572.01 409.446 567.772 418.709 564.946 428.442C564.318 430.799 562.747 431.741 560.864 431.268C558.979 430.642 558.352 429.072 558.352 427.029" fill="#293250"/>
<path fill-rule="evenodd" clip-rule="evenodd" d="M547.204 812.475C547.047 812.944 546.89 813.888 546.577 814.516C543.122 822.523 539.511 830.687 535.9 838.694C535.586 839.479 535.115 840.42 534.487 840.735C533.388 841.206 531.974 841.676 531.034 841.206C530.09 840.735 529.305 839.322 529.305 838.223C529.305 837.124 529.933 835.868 530.404 834.612C533.703 827.076 536.999 819.539 540.297 812.004C540.61 811.219 540.767 810.12 541.396 809.806C542.494 809.176 543.907 808.393 545.006 808.393C546.577 808.707 547.361 810.275 547.204 812.475" fill="#293250"/>
<path fill-rule="evenodd" clip-rule="evenodd" d="M789.147 1007.47C788.99 1007.94 788.99 1008.57 788.834 1009.2C788.362 1010.77 787.264 1012.03 785.536 1012.03C783.653 1012.03 782.709 1010.77 782.395 1009.04C781.767 1005.75 781.453 1002.61 780.67 999.467C779.571 994.756 777.999 990.204 774.859 986.279C774.39 985.65 773.76 984.709 773.76 984.081C773.917 982.981 774.233 981.412 775.016 980.784C775.803 980.156 777.528 980.311 778.47 980.784C779.571 981.255 780.354 982.511 781.139 983.453C786.321 990.518 787.891 998.996 789.147 1007.47" fill="#293250"/>
<path fill-rule="evenodd" clip-rule="evenodd" d="M212.943 1014.23C210.274 1014.07 208.861 1012.34 209.331 1010.3C209.803 1008.89 210.588 1007.47 211.53 1006.22C215.612 1001.35 221.106 998.211 226.759 995.385C228.8 994.286 230.684 995.069 231.625 996.641C232.411 998.211 231.94 999.936 229.899 1001.35C228.015 1002.61 225.817 1003.55 224.09 1004.96C221.263 1007.16 218.594 1009.67 215.769 1012.18C214.669 1012.97 213.57 1013.75 212.943 1014.23" fill="#293250"/>
<path fill-rule="evenodd" clip-rule="evenodd" d="M805.004 1009.83C804.69 1012.34 803.748 1013.75 802.021 1014.07C800.137 1014.38 798.567 1013.13 798.096 1010.46C797.154 1005.43 796.84 1000.25 794.485 995.541C793.7 993.971 794.328 992.401 795.898 991.616C797.311 990.83 798.724 991.302 799.823 992.401C800.765 993.5 801.707 994.755 802.021 996.011C803.121 1000.72 804.062 1005.28 805.004 1009.83" fill="#293250"/>
<path fill-rule="evenodd" clip-rule="evenodd" d="M611.418 871.194C611.732 868.682 611.732 866.641 612.205 864.6C612.674 862.245 614.088 861.146 615.972 861.302C617.856 861.46 618.955 863.03 618.955 865.385V876.846C618.955 878.73 618.17 880.3 616.13 880.614C614.088 880.927 612.831 879.829 612.36 877.945C611.732 875.433 611.575 873.235 611.418 871.194" fill="#293250"/>
<path fill-rule="evenodd" clip-rule="evenodd" d="M215.455 984.865C217.967 985.336 219.537 986.435 219.85 988.162C220.165 990.203 218.909 991.145 217.181 991.93C215.455 992.558 213.885 993.343 212.157 994.128C209.646 995.227 207.919 994.913 206.977 993.186C206.035 991.616 206.349 989.889 208.547 988.476C210.744 987.063 213.1 986.121 215.455 984.865" fill="#293250"/>
<path fill-rule="evenodd" clip-rule="evenodd" d="M633.086 763.489C633.398 762.233 633.398 760.82 633.871 759.407C634.342 757.838 635.598 756.738 637.323 756.895C639.209 757.209 640.308 758.622 640.15 760.507C640.15 762.39 639.836 764.117 639.68 766.001C639.523 767.885 638.58 769.298 636.54 769.298C634.499 769.298 633.555 767.885 633.241 766.001C633.241 765.216 633.241 764.432 633.086 763.489" fill="#293250"/>
</svg>
