<svg width="2000" height="1300" viewBox="0 0 2000 1300" fill="none" xmlns="http://www.w3.org/2000/svg">
<rect width="2000" height="1300" rx="80" fill="#F6F6F7"/>
<path fill-rule="evenodd" clip-rule="evenodd" d="M733.109 1091.31C921.167 1091.61 1102.45 1091.91 1283.59 1092.21C1286.3 1092.21 1288.86 1092.51 1291.41 1090.86C1293.37 1089.65 1300.44 1088.9 1300.59 1091.31C1300.59 1092.21 1302.09 1095.22 1301.78 1096.12C1299.68 1102.89 1295.75 1112.37 1293.65 1119.14C1288.38 1135.69 1274.11 1146.37 1258.62 1154.8C1250.79 1159.01 1243.12 1163.37 1235 1166.98C1230.93 1168.79 1227.02 1169.09 1222.81 1169.09C1107.72 1168.19 992.478 1167.43 877.387 1166.53C807.429 1166.08 737.322 1165.48 667.365 1165.03C556.486 1164.27 445.607 1163.37 334.578 1162.62C308.25 1162.47 281.772 1162.17 255.444 1162.02C253.639 1162.02 251.833 1161.87 250.028 1163.22C249.125 1163.97 247.47 1163.67 246.116 1163.52C243.107 1163.07 239.948 1162.47 236.939 1161.72C235.886 1161.42 234.382 1160.96 233.93 1160.06C232.877 1158.41 231.373 1157.65 229.868 1156.9C219.036 1150.73 208.806 1143.81 201.133 1133.58C195.416 1125.91 194.213 1117.03 192.407 1107.86C191.505 1103.49 189.85 1090.86 192.106 1090.56C193.46 1090.4 193.611 1090.4 194.965 1090.4C355.19 1090.71 515.264 1090.86 675.489 1091.16C696.701 1091.31 718.366 1091.31 733.109 1091.31" fill="white"/>
<path fill-rule="evenodd" clip-rule="evenodd" d="M1167.6 1131.48C1166.54 1131.48 1165.19 1131.63 1164.44 1131.18C1163.53 1130.57 1162.48 1129.37 1162.48 1128.47C1162.48 1127.57 1163.53 1126.36 1164.44 1125.76C1165.19 1125.31 1166.24 1125.31 1167.15 1125.31C1171.66 1125.16 1176.17 1125.01 1180.69 1125.16C1193.32 1125.31 1206.11 1125.61 1218.75 1125.91C1220.1 1125.91 1221.46 1126.06 1222.81 1126.36C1224.31 1126.81 1225.07 1128.02 1224.92 1129.52C1224.77 1131.18 1223.71 1132.38 1222.06 1132.38C1220.55 1132.53 1219.05 1132.38 1217.54 1132.38H1193.77C1193.77 1131.78 1176.32 1131.48 1167.6 1131.48" fill="#293250"/>
<path fill-rule="evenodd" clip-rule="evenodd" d="M274.551 1127.11C277.409 1127.11 280.268 1126.96 283.126 1127.11C285.533 1127.26 286.737 1128.32 286.887 1130.12C286.887 1131.93 285.834 1133.28 283.427 1133.28C277.71 1133.43 271.993 1133.28 266.276 1133.28C265.674 1133.28 265.223 1133.13 264.621 1132.83C262.966 1132.23 262.064 1131.18 262.364 1129.37C262.665 1127.72 263.869 1126.81 265.524 1126.81C268.683 1126.96 271.542 1126.96 274.551 1127.11C274.551 1126.96 274.551 1126.96 274.551 1127.11" fill="#293250"/>
<path fill-rule="evenodd" clip-rule="evenodd" d="M240.55 1125.16C242.806 1125.16 245.213 1125.01 247.47 1125.16C250.028 1125.31 251.532 1126.96 251.231 1128.92C250.93 1131.03 249.276 1131.78 246.568 1131.63C243.107 1131.48 239.497 1131.63 236.036 1131.78C234.833 1131.78 233.629 1131.93 232.426 1131.78C230.771 1131.63 229.718 1130.57 229.417 1128.92C229.266 1127.41 230.47 1125.91 232.426 1125.61C235.134 1125.31 237.842 1125.31 240.55 1125.16" fill="#293250"/>
<path fill-rule="evenodd" clip-rule="evenodd" d="M623.886 1094.47C624.638 1096.27 625.24 1097.63 625.691 1098.98C628.249 1106.65 633.514 1110.57 641.488 1111.77C651.869 1113.27 662.4 1114.33 672.931 1114.18C714.153 1113.57 755.375 1112.82 796.748 1112.52C807.279 1112.52 814.952 1108.76 819.766 1099.43C820.669 1097.78 822.173 1096.42 822.173 1094.47H623.886ZM196.62 1094.92C196.018 1105.9 199.177 1119.74 204.443 1130.12C214.673 1149.83 230.921 1160.66 253.187 1161.87C258.302 1162.17 263.568 1161.57 268.834 1161.72C319.684 1161.87 370.535 1162.02 421.386 1162.32C643.895 1163.22 866.404 1164.12 1088.91 1164.88C1134.95 1165.03 1181.14 1165.18 1227.17 1165.33C1236.05 1165.33 1244.32 1163.52 1251.55 1158.41C1255.91 1155.25 1260.42 1152.09 1264.48 1148.48C1273.51 1140.35 1282.24 1131.93 1288.25 1120.95C1292.47 1113.27 1295.17 1104.85 1297.88 1096.57C1298.18 1095.67 1298.18 1094.77 1298.48 1093.72H1293.67C1196.33 1093.87 1098.99 1093.87 1001.5 1094.02C945.689 1094.02 889.874 1094.17 834.058 1094.17C831.049 1094.17 829.394 1094.92 827.89 1097.63C825.633 1101.84 822.925 1105.75 820.067 1109.66C816.757 1114.33 812.093 1117.18 806.376 1118.09C803.217 1118.69 799.907 1118.84 796.597 1118.99C788.624 1119.14 780.801 1119.29 772.827 1119.29C737.472 1119.74 701.967 1120.34 666.612 1120.64C657.134 1120.8 647.806 1119.29 638.479 1117.79C629.151 1116.28 623.133 1111.17 619.824 1102.44C619.523 1101.84 619.222 1101.24 619.071 1100.49C618.169 1098.53 617.266 1096.57 616.363 1094.32C476.599 1094.47 336.835 1094.62 196.62 1094.92V1094.92ZM1486.84 1085.89C1488.05 1079.42 1488.65 1073.71 1490 1067.99C1513.77 972.305 1537.69 876.622 1561.61 780.788L1634.28 489.675C1646.01 442.887 1657.6 396.098 1669.33 349.31C1671.44 341.035 1672.34 332.61 1671.74 324.185C1671.14 316.061 1668.43 308.539 1661.66 303.424C1654.89 298.308 1647.22 295.299 1638.49 295.149C1586.14 294.999 1533.78 295.149 1481.43 294.698C1418.39 294.246 1355.35 293.193 1292.32 293.043C1110.58 293.043 928.839 293.344 747.101 293.494C700.462 293.494 653.824 293.795 607.186 293.645C599.664 293.645 593.646 295.901 588.079 300.264C584.92 302.671 582.062 305.53 579.504 308.388C573.637 315.158 569.424 322.981 566.566 331.557C564.46 338.327 562.504 345.247 560.849 352.018C547.008 409.488 533.317 467.109 519.627 524.729C500.971 603.262 482.166 681.795 463.51 760.327C446.66 830.736 429.961 901.145 413.111 971.704C403.934 1009.92 394.757 1048.28 385.579 1086.49C385.429 1086.79 385.579 1087.25 385.73 1088.15H390.544C600.717 1087.85 811.04 1087.7 1021.21 1087.4C1113.29 1087.25 1205.36 1087.1 1297.28 1086.95C1299.09 1086.95 1300.89 1087.1 1302.55 1087.25C1305.1 1087.55 1307.66 1088 1310.22 1088C1312.63 1088.15 1315.18 1087.85 1317.59 1087.85C1372.2 1087.1 1426.66 1086.34 1481.28 1085.74C1483.38 1085.74 1485.19 1085.89 1486.84 1085.89V1085.89ZM378.659 1088.3C379.562 1085.14 380.464 1082.28 381.217 1079.42C398.819 1005.85 416.27 932.437 433.873 858.869C452.829 779.133 471.935 699.397 490.892 619.661C509.697 541.128 528.353 462.595 547.008 384.062C550.619 369.168 554.079 354.274 557.539 339.38C560.698 326.291 566.114 314.256 574.84 304.025C580.858 296.954 588.079 291.388 596.956 288.379C598.761 287.777 600.717 287.777 602.522 287.627C603.726 287.476 604.929 287.627 606.283 287.627C833.757 287.326 1061.23 286.875 1288.55 286.875C1347.23 286.875 1405.9 287.928 1464.58 288.529C1485.79 288.68 1507 289.131 1528.22 289.131C1564.32 289.131 1600.43 288.981 1636.54 288.68C1643.61 288.68 1650.38 290.184 1656.85 293.043C1669.18 298.459 1675.95 307.937 1677.91 321.176C1679.11 329.752 1678.51 338.177 1676.71 346.451C1674.45 357.434 1670.99 368.115 1668.28 378.947C1645.11 471.772 1621.94 564.597 1598.77 657.272C1570.79 769.505 1542.66 881.888 1514.67 994.12C1508.36 1019.55 1501.89 1044.97 1495.72 1070.55C1494.67 1074.91 1494.36 1079.42 1493.91 1083.94C1493.76 1084.69 1493.91 1085.89 1494.36 1086.19C1496.47 1088.15 1496.02 1090.41 1495.57 1092.66C1492.26 1108.16 1487.29 1122.9 1479.17 1136.59C1474.66 1144.26 1469.24 1151.34 1462.32 1157.05C1454.95 1163.07 1446.67 1166.38 1436.74 1166.53C1372.65 1167.58 1308.41 1168.94 1244.32 1170.14C1213.78 1173 1183.09 1171.04 1152.55 1171.19C1122.01 1171.35 1091.62 1170.89 1061.08 1170.74C929.29 1170.29 797.35 1169.84 665.559 1169.24C533.167 1168.79 400.775 1168.19 268.382 1167.73C265.373 1167.73 262.364 1167.88 259.355 1168.04C228.213 1169.24 203.691 1151.19 194.212 1121.4C191.204 1111.92 190 1102.14 190 1092.36C190 1088.15 191.204 1087.25 195.566 1088.15C196.77 1088.45 197.974 1088.45 199.177 1088.45C257.701 1088.45 316.224 1088.3 374.747 1088.3H378.659Z" fill="#293250"/>
<path fill-rule="evenodd" clip-rule="evenodd" d="M1082.15 319.835C1082.3 322.091 1082.6 324.499 1084.71 325.552C1086.96 326.605 1088.92 325.401 1090.72 323.897C1094.18 320.888 1094.18 316.374 1090.72 312.764C1089.37 311.259 1087.87 311.259 1086.36 312.312C1083.65 314.118 1082.45 316.826 1082.15 319.835M1090.57 304.941C1093.58 304.79 1095.99 305.994 1096.89 309.604C1097.34 311.109 1098.4 312.463 1099 313.967C1102.31 322.844 1094.94 332.623 1085.61 332.171C1083.05 332.021 1080.79 331.118 1079.14 329.012C1075.53 324.348 1074.78 319.082 1077.33 313.666C1079.89 307.95 1084.25 304.941 1090.57 304.941" fill="#293250"/>
<path fill-rule="evenodd" clip-rule="evenodd" d="M896.356 394.376H1346.04C1349.35 394.376 1352.66 393.624 1355.82 394.226C1368.91 396.181 1375.83 404.005 1377.18 417.846C1377.63 423.111 1377.33 428.226 1375.98 433.341C1344.53 554.751 1313.24 676.311 1281.95 797.721C1259.68 883.926 1237.57 969.981 1215.3 1056.19C1211.54 1070.78 1202.66 1080.41 1188.07 1084.47C1181.6 1086.28 1175.13 1087.48 1168.36 1087.63C1025.74 1088.68 883.117 1089.89 740.494 1090.94C669.935 1091.54 599.376 1091.99 528.817 1092.59C458.559 1093.2 388.15 1093.65 317.892 1094.25C306.157 1094.4 294.422 1094.55 282.537 1094.55C276.82 1094.55 271.103 1093.65 265.687 1091.54C263.581 1090.64 261.324 1089.74 259.369 1088.53C249.89 1082.67 245.979 1072.89 248.536 1062.05C257.112 1027.3 265.838 992.548 274.564 957.795C299.086 859.855 323.609 761.915 348.132 663.975C367.389 586.947 386.796 509.918 405.752 432.89C407.708 425.067 410.717 417.846 415.381 411.376C421.248 403.102 428.921 397.084 439.151 395.279C440.957 394.978 442.612 394.827 444.417 394.827H680.767H896.206C896.356 394.526 896.356 394.526 896.356 394.376" fill="#293250"/>
<path fill-rule="evenodd" clip-rule="evenodd" d="M860.249 347.437C1010.09 347.437 1160.09 348.641 1309.93 348.641C1313.24 348.641 1316.55 347.888 1319.71 348.49C1332.8 350.446 1339.72 357.066 1341.07 370.907C1341.52 376.172 1341.22 381.287 1339.87 386.402C1308.43 507.812 1277.13 629.372 1245.84 750.782C1223.58 836.988 1201.46 920.635 1179.19 1006.84C1175.43 1021.43 1166.56 1031.06 1151.96 1035.12C1145.49 1036.93 1139.02 1038.13 1132.25 1038.28C989.632 1039.34 847.01 1040.54 704.387 1041.59C633.828 1042.2 563.269 1042.65 492.71 1043.25C422.452 1043.85 352.043 1044.3 281.785 1044.9C270.05 1045.05 258.315 1045.2 246.43 1045.2C240.713 1045.2 234.996 1044.3 229.58 1042.2C227.474 1041.29 225.217 1040.39 223.261 1039.19C213.783 1033.32 211.075 1023.54 213.633 1012.71C222.208 977.955 230.934 945.609 239.66 910.856C264.183 812.916 288.705 714.976 313.228 617.036C332.485 540.008 351.893 462.979 370.849 385.951C372.804 378.128 375.813 370.907 380.477 364.437C386.345 356.163 392.814 351.349 403.044 349.543C404.849 349.242 406.504 349.092 408.31 349.092H644.66H860.098C860.249 348.791 860.249 347.587 860.249 347.437" fill="white"/>
<path fill-rule="evenodd" clip-rule="evenodd" d="M860.687 353.221V353.522C709.79 353.522 559.044 353.522 408.146 353.672C404.987 353.672 401.677 354.575 398.668 355.779C392.5 358.186 387.987 362.85 384.376 368.266C380.615 373.832 378.208 380 376.553 386.62C366.473 427.692 356.092 468.763 345.711 509.835L273.046 800.045C254.993 871.958 237.09 944.021 219.036 1015.93C218.735 1017.29 218.43 1018.64 218.43 1020C218.284 1027.52 221.895 1032.78 228.364 1036.09C234.081 1039.25 240.399 1040.31 247.019 1040.31C274.099 1040.16 301.18 1039.86 328.26 1039.71C398.668 1039.1 469.077 1038.65 539.486 1038.05C610.646 1037.45 681.657 1037 752.818 1036.4C878.741 1035.49 1004.66 1034.44 1130.59 1033.54C1137.36 1033.54 1143.83 1032.33 1150.45 1030.53C1162.78 1027.22 1170.15 1019.09 1173.31 1006.76C1190.61 939.358 1208.07 872.108 1225.37 804.709C1255.31 688.715 1285.25 572.571 1315.18 456.577C1321.5 431.904 1327.82 407.381 1334.29 382.708C1336.1 375.788 1335.49 368.867 1332.94 362.248C1330.53 356.23 1323.16 352.017 1316.84 352.619C1314.73 352.77 1312.78 352.92 1310.67 352.92C1160.68 353.221 1010.68 353.221 860.687 353.221M689.179 1043.47C559.194 1044.52 429.359 1045.42 299.374 1046.48L246.116 1046.93C239.497 1046.93 233.028 1045.57 227.01 1042.86C214.824 1037.15 209.859 1026.47 213.018 1013.53C247.922 873.763 282.825 734.15 317.879 594.386C335.18 524.88 352.782 455.524 369.933 386.018C371.739 378.646 374.447 371.726 378.509 365.407C381.818 360.141 386.181 355.779 391.447 352.469C397.465 348.708 404.084 346.752 411.306 347.354C412.81 347.504 414.315 347.354 415.819 347.354C714.153 347.053 1012.49 346.902 1310.67 346.902C1313.98 346.902 1317.29 346.451 1320.45 346.902C1331.88 348.557 1337.9 354.274 1340.46 365.558C1341.96 372.027 1341.96 378.496 1340.31 384.965C1312.48 492.835 1284.64 600.554 1256.81 708.423C1231.08 808.47 1205.21 908.516 1179.48 1008.56C1175.72 1023.46 1166.69 1032.93 1151.95 1037C1145.48 1038.8 1138.86 1040.01 1132.09 1040.16C1031.74 1040.91 931.397 1041.66 830.899 1042.41C783.81 1042.71 736.57 1043.01 689.179 1043.47" fill="#293250"/>
<path fill-rule="evenodd" clip-rule="evenodd" d="M1234.27 590.178C1235.92 588.373 1237.28 586.567 1238.78 584.912L1240.59 582.656C1244.95 575.585 1249.31 568.514 1253.53 561.292C1254.43 559.788 1254.73 557.832 1255.33 556.177C1253.07 554.522 1251.12 554.974 1249.46 555.726C1240.44 559.487 1232.16 564.452 1226.45 572.877C1225.69 574.08 1224.64 575.284 1223.74 576.487C1207.94 554.221 1207.49 512.999 1236.98 486.671C1267.07 460.042 1311.9 463.503 1337.77 492.84C1363.8 522.176 1360.94 567.461 1331.46 593.337C1300.16 620.568 1257.14 613.948 1234.27 590.178" fill="#03CEA4"/>
<path fill-rule="evenodd" clip-rule="evenodd" d="M824.129 626.882C804.421 622.368 788.172 611.235 773.128 597.093C773.128 598.748 772.977 599.5 773.128 600.253C775.234 618.005 775.986 635.607 772.075 653.36C771.623 655.165 771.473 657.121 771.022 658.927C770.42 660.882 768.915 661.785 767.261 661.334C765.606 660.882 764.703 659.679 764.853 658.024C764.853 656.971 765.004 655.918 765.154 654.413C761.544 655.165 758.234 655.918 754.774 656.67C759.136 665.697 764.402 672.768 773.128 676.98C781.402 681.042 789.827 683.9 799.155 682.697C807.73 681.644 816.005 679.086 823.377 674.422C832.404 668.705 839.174 661.033 842.634 650.802C843.236 648.997 843.386 647.192 843.837 644.634C840.678 645.838 838.421 646.74 835.864 647.794C836.165 648.997 836.466 649.749 836.616 650.502C837.067 652.608 836.165 654.263 834.51 654.714C832.554 655.165 831.35 654.112 830.598 652.608C830.147 651.555 829.846 650.351 829.545 649.148C827.89 641.926 826.085 634.705 824.129 626.882M768.163 535.711V540.375C768.163 544.889 768.314 549.402 768.013 553.915C767.862 557.977 765.606 558.88 761.995 557.526C757.782 556.022 753.57 554.216 749.207 553.614C739.428 552.26 730.853 559.632 730.401 569.261C729.95 577.836 735.366 586.562 743.941 590.474C752.065 594.235 759.889 593.783 766.659 587.164C769.066 584.907 769.969 585.058 772.526 587.314C778.093 592.429 783.659 597.846 789.526 602.66C799.456 610.784 810.739 616.802 823.226 619.961C848.05 626.43 870.165 617.855 883.856 596.191C886.113 592.58 888.068 588.819 889.723 584.907C894.839 573.172 897.246 560.685 897.847 547.898C899.051 525.632 895.29 503.967 888.219 482.905C884.759 472.524 880.396 462.444 874.98 452.515C859.333 461.843 842.183 465.002 823.979 465.754V471.622C824.129 477.338 823.076 482.755 820.819 488.02C819.465 491.179 818.262 494.339 816.607 497.348C808.182 512.994 796.146 525.03 779.597 531.95C776.137 533.605 772.376 534.357 768.163 535.711M748.003 658.024C741.835 659.227 735.968 660.431 730.1 661.484C718.065 663.741 705.879 665.396 693.843 668.104C686.02 669.759 678.347 672.316 670.825 675.175C658.187 679.838 648.709 688.564 641.638 699.998C634.567 711.282 629.151 723.317 624.487 735.804C615.461 760.026 608.54 784.85 602.372 809.974C600.266 818.85 597.708 827.727 595.602 836.603C594.097 842.771 594.85 843.975 600.867 846.081C604.478 847.285 608.239 848.187 611.85 849.09C624.337 852.099 636.674 855.559 649.311 857.966C658.187 859.621 667.214 860.072 676.241 861.126C676.692 861.126 677.294 860.975 678.197 860.975C678.347 859.772 678.498 858.568 678.347 857.364C677.745 835.55 678.347 813.886 679.25 792.221C679.551 786.204 679.099 780.186 678.949 774.168C678.949 773.115 678.798 771.911 678.949 770.858C679.25 768.301 680.604 766.947 682.409 767.097C684.064 767.247 685.117 768.451 685.268 771.009C685.418 776.274 685.719 781.389 685.719 786.655C685.568 794.478 685.117 802.301 685.117 809.974C684.967 829.382 684.816 848.789 684.816 868.197C684.816 879.48 685.268 890.914 685.568 902.197C685.568 904.905 684.666 906.259 682.71 906.41C680.754 906.56 679.4 905.357 679.25 902.649C678.798 897.985 678.648 893.321 678.648 888.657C678.498 883.241 678.648 877.675 678.648 872.259C678.648 870.905 678.498 869.551 678.498 868.046C667.515 866.692 656.683 865.639 646.001 863.683C635.47 861.727 624.939 858.869 614.107 856.311C613.054 862.48 612 868.648 610.947 874.816C609.593 882.188 608.239 889.56 607.036 897.082C606.735 899.188 606.584 901.445 606.584 903.551C606.584 905.808 605.381 907.312 603.425 907.613C601.469 907.764 599.814 906.41 599.814 904.153C599.814 902.197 600.115 900.091 600.416 897.985C602.673 885.046 604.93 872.108 607.186 859.17C607.487 857.816 607.487 856.462 607.638 854.807C606.284 854.356 605.08 854.055 603.876 853.603C600.867 852.4 597.558 851.648 594.699 850.143C589.735 847.585 588.08 844.125 588.982 838.559C589.735 834.196 590.788 829.983 591.841 825.771C597.257 805.16 602.372 784.398 608.39 764.088C612.753 749.495 618.169 735.052 623.886 720.91C627.346 712.335 632.01 704.211 636.824 696.237C644.948 682.546 656.833 673.369 671.878 667.953C684.666 663.289 697.905 660.732 711.295 658.325C728.145 655.316 744.844 652.006 761.694 648.847C763.349 648.546 764.853 648.245 766.809 647.944C770.721 630.643 768.464 613.492 766.659 596.04C765.606 596.492 764.853 596.642 764.402 596.943C748.003 604.616 726.038 592.129 724.534 571.668C724.383 569.411 724.684 567.004 725.136 564.747C725.587 562.792 725.286 561.438 724.083 559.933C715.056 548.048 708.587 534.809 702.569 521.269C697.454 509.684 694.896 497.348 694.144 484.71C692.639 461.692 710.392 439.577 732.508 435.214C737.021 434.311 741.685 433.86 746.349 433.86C750.26 433.86 752.517 432.506 753.871 429.045C759.136 416.558 768.765 408.886 781.102 403.921C798.252 396.85 815.704 395.346 833.758 398.806C841.882 400.31 842.183 400.31 847.147 393.691C849.705 390.381 852.112 387.071 854.669 384.062C856.926 381.354 859.634 379.398 863.094 378.496C868.661 377.142 873.776 378.796 876.484 383.761C878.289 387.071 879.343 390.832 880.546 394.443C881.148 396.098 881.148 397.903 881.599 400.009C882.652 399.558 883.405 399.257 884.157 398.806C885.21 398.204 886.263 397.452 887.316 396.85C896.343 391.885 905.52 396.85 905.971 407.231C906.122 410.39 905.52 413.85 904.768 417.01C901.759 429.346 894.538 438.975 884.608 446.648C883.254 447.701 882.051 448.603 880.546 449.656C885.812 459.736 890.325 469.967 893.936 480.498C901.157 501.861 905.069 523.676 904.166 546.092C903.564 561.438 900.856 576.181 894.387 590.173C890.776 597.996 886.113 605.217 879.944 611.386C867.758 623.572 853.015 629.138 835.864 628.536C834.66 628.536 833.457 628.386 831.952 628.386C831.501 632.899 832.855 636.961 834.209 641.475C836.014 640.873 837.368 640.422 838.722 639.82C855.873 633.802 873.024 627.634 890.626 623.421C905.37 619.811 920.414 617.403 935.609 617.855C956.822 618.607 975.477 625.528 990.823 640.572C997.142 646.74 1003.01 653.51 1008.88 660.13C1021.06 673.821 1033.25 687.511 1045.28 701.352C1056.72 714.291 1068 727.229 1079.29 740.318C1081.39 742.725 1083.35 745.583 1085.3 748.141C1088.01 751.752 1088.16 755.362 1085.6 759.123C1085.3 759.575 1085 760.026 1085 760.177C1092.37 767.849 1099.75 775.372 1107.27 783.345C1108.02 781.841 1108.77 780.788 1109.22 779.584C1126.37 740.619 1144.28 702.104 1162.63 663.741C1173.16 641.625 1185.65 620.563 1199.04 600.102C1208.97 585.058 1221.16 571.969 1235.3 560.685C1238.61 558.128 1242.37 555.871 1245.98 553.915C1248.69 552.411 1251.85 551.659 1254.4 554.216C1256.96 556.623 1256.66 559.783 1255.46 562.641C1254.1 565.951 1252.6 569.261 1250.49 571.969C1245.23 579.19 1239.66 586.111 1234.09 593.031C1233.64 593.633 1233.04 594.235 1232.29 594.686C1230.93 595.438 1229.43 595.589 1228.53 594.235C1227.93 593.332 1227.77 591.978 1227.93 590.925C1228.23 589.872 1229.13 588.819 1229.88 587.916C1234.7 581.597 1239.66 575.429 1244.47 569.11C1246.58 566.402 1248.39 563.544 1249.29 559.632C1247.93 560.084 1247.03 560.234 1246.43 560.685C1242.67 563.393 1238.61 565.801 1235.15 568.809C1222.21 579.942 1210.93 592.58 1201.75 607.023C1187.91 628.837 1175.27 651.254 1164.14 674.723C1145.33 714.441 1126.83 754.46 1109.22 794.779C1108.77 795.832 1108.32 796.735 1107.72 797.638C1106.82 798.841 1105.31 799.142 1104.11 798.39C1103.36 797.788 1102.6 796.284 1102.6 795.381C1102.75 793.726 1103.66 792.071 1103.96 790.867C1095.98 782.292 1088.01 774.018 1080.19 765.743C1059.58 782.743 1039.57 799.744 1020.31 817.948C1024.37 822.311 1028.13 826.523 1032.35 830.585C1047.24 845.028 1063.49 858.117 1080.64 869.851C1089.21 875.719 1098.24 880.834 1108.32 884.144C1113.14 885.648 1118.1 886.852 1123.06 887.303C1132.54 888.507 1140.52 885.047 1146.68 877.825C1151.8 871.958 1156.16 865.489 1160.07 858.718C1170.3 840.966 1178.43 822.461 1186.25 803.505C1199.04 772.664 1209.57 741.07 1220.7 709.627C1228.98 686.308 1237.55 663.139 1245.98 639.82C1247.18 636.36 1249.14 633.802 1252 631.395C1261.63 623.873 1270.95 616.049 1280.43 608.377C1281.33 607.624 1282.39 606.872 1283.44 606.27C1284.79 605.518 1286.15 605.819 1287.05 607.023C1288.1 608.226 1288.1 609.58 1287.2 610.784C1286.6 611.536 1285.85 612.138 1285.09 612.74C1275.92 620.111 1266.89 627.784 1257.71 635.006C1254.55 637.413 1252.45 640.271 1251.09 644.032C1237.4 682.546 1224.01 721.061 1209.87 759.424C1199.19 788.761 1188.06 818.098 1173.92 846.081C1170.91 852.099 1167.9 858.117 1164.29 863.683C1160.38 869.851 1156.01 876.02 1151.35 881.586C1142.92 891.967 1131.49 895.126 1118.55 893.171C1108.62 891.666 1099.6 887.905 1090.87 883.241C1077.93 876.321 1066.2 867.595 1054.76 858.418C1041.22 847.586 1027.98 836.302 1016.55 823.063C1016.25 822.762 1015.95 822.611 1015.2 822.01C1013.69 823.364 1012.04 824.868 1010.38 826.222C1006.32 829.682 1003.61 829.682 1000.3 825.47C995.487 819.151 990.973 812.682 986.61 806.062C983.301 801.248 980.593 795.983 977.132 790.115C976.982 791.921 976.681 792.823 976.831 793.726C978.035 808.169 979.088 822.611 980.442 837.054C982.699 859.621 986.31 882.038 986.159 904.905C986.159 905.658 986.31 906.259 986.159 907.012C986.009 908.817 985.106 910.171 983.15 910.321C981.345 910.472 980.292 909.419 979.991 907.312C979.84 906.41 979.84 905.357 979.84 904.454C979.84 886.4 977.584 868.497 975.477 850.594C973.221 831.187 970.814 811.779 970.212 792.221C970.061 788.912 969.61 785.752 969.46 782.442C969.46 780.788 969.761 778.832 970.362 777.327C971.566 774.77 973.973 774.619 975.929 776.726C976.531 777.327 976.831 778.08 977.283 778.832C980.141 783.646 983 788.46 986.009 793.124C991.425 801.549 996.841 809.824 1002.41 818.249C1003.31 819.603 1004.36 820.806 1005.57 822.16C1006.92 820.957 1007.97 820.204 1008.88 819.302C1028.28 801.85 1047.39 784.097 1067.7 767.699C1071.46 764.539 1074.92 761.079 1078.38 757.468C1080.94 754.76 1080.94 754.008 1078.83 750.999C1077.03 748.592 1075.22 746.185 1073.27 743.928C1047.39 714.441 1021.36 684.954 995.487 655.617C992.929 652.608 990.221 649.749 987.363 646.891C972.619 631.997 954.565 625.076 933.954 624.625C918.158 624.174 902.812 626.882 887.768 630.944C876.033 634.103 864.599 638.165 852.864 641.776C850.758 642.377 849.705 643.28 849.554 645.687C849.404 652.909 846.395 659.227 842.333 664.944C834.51 676.378 823.377 683.148 810.288 687.21C792.385 692.777 776.588 688.715 761.844 678.033C756.278 673.971 753.119 667.953 749.508 662.236C749.508 660.882 748.906 659.679 748.003 658.024" fill="#293250"/>
<path fill-rule="evenodd" clip-rule="evenodd" d="M874.679 536.012C872.422 535.712 870.617 535.411 868.661 535.11C864.9 534.358 861.891 532.402 859.634 529.242C856.926 525.03 855.271 520.517 854.82 515.552C854.67 514.649 854.67 513.596 854.97 512.693C855.271 511.189 856.324 510.136 857.829 510.437C858.882 510.587 859.935 511.49 860.537 512.393C860.988 513.145 860.988 514.198 861.139 515.101C861.44 516.755 861.741 518.561 862.342 520.216C864.599 527.136 866.856 528.942 874.077 529.393C879.794 529.694 881.599 531.95 880.847 537.517C880.095 542.331 879.192 547.145 878.29 551.96C877.838 554.367 876.484 555.27 874.679 554.969C872.874 554.668 871.82 553.314 872.121 551.057C872.573 547.145 873.475 543.234 874.228 539.322C874.528 538.42 874.528 537.517 874.679 536.012" fill="#293250"/>
<path fill-rule="evenodd" clip-rule="evenodd" d="M855.572 588.067C844.439 587.615 836.014 582.801 831.2 572.42C830.598 571.066 830.147 569.562 829.996 568.208C829.846 566.553 830.598 565.199 832.253 564.747C833.908 564.296 835.112 565.199 835.864 566.703C836.917 568.96 837.669 571.217 839.023 573.323C844.74 581.748 856.926 584.456 865.652 579.341C866.856 578.588 867.909 577.836 869.112 577.084C871.369 575.58 873.024 575.73 874.227 577.234C875.431 578.889 874.98 580.845 872.723 582.5C867.608 585.96 862.041 588.217 855.572 588.067" fill="#293250"/>
<path fill-rule="evenodd" clip-rule="evenodd" d="M833.457 527.588C832.855 529.694 832.404 531.8 831.35 533.605C829.244 537.066 825.483 537.517 822.775 534.508C819.164 530.597 817.359 525.933 817.961 520.667C818.412 515.402 823.226 513.446 827.589 516.605C831.2 519.464 833.005 522.924 833.457 527.588" fill="#293250"/>
<path fill-rule="evenodd" clip-rule="evenodd" d="M888.219 504.419V506.074C888.069 509.985 885.962 512.994 883.104 513.596C880.396 514.198 877.387 512.543 875.882 508.782C874.829 505.923 874.228 502.764 873.927 499.755C873.626 497.198 874.528 494.79 877.086 493.737C879.343 492.684 883.405 494.038 885.21 496.144C887.015 498.1 888.219 501.861 888.219 504.419" fill="#293250"/>
<path fill-rule="evenodd" clip-rule="evenodd" d="M848.802 600.102C845.492 599.501 841.731 598.447 838.722 596.04C837.97 595.439 837.218 594.385 836.766 593.483C836.164 592.129 836.465 590.624 837.819 589.872C838.722 589.421 840.527 589.27 841.129 589.872C843.837 592.279 846.997 593.182 850.306 593.934C852.112 594.385 853.315 595.288 853.165 597.394C853.014 599.049 851.359 600.102 848.802 600.102" fill="#293250"/>
<path fill-rule="evenodd" clip-rule="evenodd" d="M1302.09 513.861C1302.09 515.215 1301.87 516.569 1301.42 517.923C1301.12 518.675 1300.59 519.728 1299.84 521.082C1299.01 522.661 1298.52 523.827 1298.37 524.58H1309.77C1311.65 524.58 1313.25 525.238 1314.56 526.555C1315.88 527.871 1316.54 529.394 1316.54 531.125C1316.54 532.178 1316.33 533.192 1315.92 534.17C1315.5 535.148 1315 535.975 1314.39 536.653H1314.28C1314.88 538.081 1315.11 539.623 1314.96 541.278C1314.81 542.933 1314.24 544.4 1313.27 545.679C1313.72 547.108 1313.76 548.612 1313.38 550.193C1313 551.772 1312.36 553.088 1311.46 554.142C1311.91 556.097 1311.65 557.79 1310.67 559.219C1309.74 560.573 1308.07 561.488 1305.66 561.965L1305.25 562.039C1303.85 562.308 1301.76 562.456 1298.99 562.486L1297.58 562.491C1295.38 562.491 1293.11 562.144 1290.77 561.448L1290.13 561.25C1288.83 560.86 1287.12 560.2 1284.99 559.271L1283.98 558.823C1281.53 557.723 1279.67 557.142 1278.39 557.081L1278.17 557.075C1277.8 557.075 1277.48 556.943 1277.21 556.68C1276.95 556.416 1276.82 556.097 1276.82 555.721V531.575C1276.82 531.199 1276.97 530.898 1277.27 530.673C1278.69 529.181 1280.42 526.983 1282.44 524.082L1282.8 523.565C1284.61 520.932 1286.11 519.05 1287.31 517.923C1287.99 517.246 1288.55 516.354 1288.98 515.251L1289.26 514.496C1289.52 513.741 1289.82 512.665 1290.13 511.266V511.153L1290.36 510.322C1290.72 508.995 1291.06 507.956 1291.38 507.204C1292.13 505.549 1292.99 504.721 1293.97 504.721C1296 504.721 1297.69 505.211 1299.05 506.188C1301.08 507.692 1302.09 510.25 1302.09 513.861V513.861ZM1265.99 557.977C1266.74 557.977 1267.38 557.715 1267.91 557.188C1268.43 556.662 1268.7 556.022 1268.7 555.269C1268.7 554.517 1268.43 553.878 1267.91 553.352C1267.38 552.825 1266.74 552.561 1265.99 552.561C1265.24 552.561 1264.6 552.825 1264.07 553.352C1263.54 553.878 1263.28 554.517 1263.28 555.269C1263.28 556.022 1263.54 556.662 1264.07 557.188C1264.6 557.715 1265.24 557.977 1265.99 557.977V557.977ZM1270.5 529.996C1271.25 529.996 1271.89 530.259 1272.42 530.786C1272.95 531.312 1273.21 531.95 1273.21 532.704V559.783C1273.21 560.535 1272.95 561.175 1272.42 561.701C1271.89 562.228 1271.25 562.491 1270.5 562.491H1261.47C1260.72 562.491 1260.08 562.228 1259.56 561.701C1259.03 561.175 1258.77 560.535 1258.77 559.783V532.704C1258.77 531.95 1259.03 531.312 1259.56 530.786C1260.08 530.259 1260.72 529.996 1261.47 529.996H1270.5Z" fill="white"/>
<path fill-rule="evenodd" clip-rule="evenodd" d="M700.477 1011.12H307.061C303.15 1011.12 299.088 1010.97 295.327 1010.37C290.362 1009.62 286.149 1007.06 282.689 1003.3C275.167 995.024 269.901 985.546 269.751 973.961C269.751 973.209 269.751 972.607 269.6 971.855C268.096 953.802 276.972 941.315 291.565 932.138C297.282 928.527 303.902 927.022 310.371 925.217C311.575 924.916 312.778 925.067 313.982 925.067C504.747 926.12 695.512 927.022 886.278 928.076C949.916 928.376 1013.4 928.677 1077.04 929.129C1080.8 929.129 1082.91 928.076 1084.41 924.766C1086.52 920.252 1088.93 915.739 1091.34 911.226C1091.79 910.323 1092.39 909.27 1092.99 908.367C1094.8 906.11 1097.5 906.11 1099.16 908.668C1100.21 910.323 1100.66 912.128 1101.26 913.934C1102.47 917.544 1103.52 921.155 1104.57 924.916C1105.18 927.323 1106.68 928.226 1109.09 928.828C1113.75 930.031 1118.57 931.385 1123.08 933.492C1134.06 938.456 1139.33 947.633 1140.68 959.218C1141.43 965.687 1140.53 972.006 1137.97 978.024C1133.01 989.307 1125.49 998.484 1114.8 1004.8C1104.42 1010.82 1104.42 1010.82 1092.39 1010.82H700.628L700.477 1011.12Z" fill="#293250"/>
<path fill-rule="evenodd" clip-rule="evenodd" d="M796.612 851.348C796.462 832.091 811.657 812.984 835.277 812.834C856.339 812.684 873.64 830.286 873.64 851.348C873.64 872.711 856.339 889.862 834.976 889.862C813.612 889.712 796.462 872.561 796.612 851.348" fill="#293250"/>
<path fill-rule="evenodd" clip-rule="evenodd" d="M543.863 851.499C543.863 830.135 561.315 812.684 582.377 812.834C603.44 812.984 620.741 830.286 620.741 851.348C620.741 872.711 603.44 889.862 582.076 889.862C560.863 889.712 543.863 872.561 543.863 851.499" fill="#293250"/>
<path fill-rule="evenodd" clip-rule="evenodd" d="M670.99 851.348C670.839 832.091 686.034 812.984 709.654 812.834C730.717 812.684 747.868 830.286 747.868 851.348C747.868 872.711 730.416 889.862 709.203 889.862C687.99 889.712 670.99 872.561 670.99 851.348" fill="#293250"/>
<path fill-rule="evenodd" clip-rule="evenodd" d="M684.831 993.068H291.415C287.504 993.068 283.442 992.917 279.68 992.316C274.716 991.563 270.503 989.006 267.043 985.245C259.521 976.97 254.255 967.492 254.105 955.908C254.105 955.156 254.105 954.554 253.954 953.802C252.45 935.748 261.326 923.261 275.919 914.084C281.636 910.473 288.256 908.969 294.725 907.163C295.929 906.862 297.132 907.013 298.336 907.013C489.101 908.066 679.866 908.969 870.631 910.022C934.27 910.323 997.758 910.624 1061.4 911.075C1065.16 911.075 1067.26 910.022 1068.77 906.712C1070.87 902.199 1073.28 897.685 1075.69 893.172C1076.14 892.269 1076.74 891.216 1077.34 890.313C1079.15 888.057 1081.86 888.057 1083.51 890.614C1084.57 892.269 1085.02 894.075 1085.62 895.88C1086.82 899.491 1087.88 903.101 1088.93 906.862C1089.53 909.27 1091.03 910.172 1093.44 910.774C1098.11 911.978 1102.92 913.332 1107.43 915.438C1118.42 920.403 1123.68 929.58 1125.04 941.164C1125.79 947.633 1124.88 953.952 1122.33 959.97C1117.36 971.253 1109.84 980.43 1099.16 986.749C1088.78 992.767 1088.78 992.767 1076.74 992.767H684.981L684.831 993.068Z" fill="#FF6663"/>
<path fill-rule="evenodd" clip-rule="evenodd" d="M731.115 945.201C621.29 944.9 511.465 944.6 401.79 944.299C400.285 944.299 398.781 944.299 397.276 944.148C395.772 943.847 394.719 942.945 394.719 941.44C394.568 939.635 395.621 938.582 397.276 938.281C398.781 937.98 400.285 937.98 401.79 937.98C464.375 938.13 526.96 938.431 589.696 938.582C746.009 939.033 902.323 939.334 1058.49 939.785H1063.75C1066.46 939.936 1067.81 940.989 1067.81 942.945C1067.81 944.9 1066.46 945.954 1063.9 946.104C1062.55 946.254 1061.19 946.104 1059.84 946.104C950.164 945.803 840.64 945.502 731.115 945.201" fill="white"/>
<path fill-rule="evenodd" clip-rule="evenodd" d="M678.158 965.662C588.192 965.361 498.225 965.06 408.259 964.759C406.905 964.759 405.551 964.759 404.197 964.609C402.542 964.308 401.489 963.255 401.489 961.449C401.489 959.945 402.542 958.892 404.046 958.591C405.701 958.29 407.356 958.29 409.011 958.29C459.711 958.44 510.562 958.741 561.262 958.892C689.592 959.343 817.772 959.794 946.102 960.095C947.908 960.095 949.713 960.095 951.368 960.246C953.173 960.396 954.527 961.449 954.377 963.405C954.226 965.361 952.872 966.264 951.067 966.414C949.412 966.565 947.757 966.414 946.102 966.414C856.888 966.264 767.523 965.963 678.158 965.662" fill="white"/>
<path fill-rule="evenodd" clip-rule="evenodd" d="M342.363 966.866C353.797 962.352 357.709 950.166 350.788 941.29C342.664 930.909 324.761 931.511 317.389 942.343C311.672 950.768 314.982 961.901 324.761 965.963C326.266 961.6 328.522 957.989 333.938 958.14C339.054 958.441 341.461 961.901 342.363 966.866M334.39 975.14C326.717 974.99 319.796 972.582 314.38 966.715C306.407 958.14 306.256 945.653 313.779 936.776C323.859 924.891 343.567 924.289 354.399 935.573C363.275 944.9 362.824 959.042 353.346 967.768C347.93 972.733 341.611 974.839 334.39 975.14" fill="white"/>
<path fill-rule="evenodd" clip-rule="evenodd" d="M1002.52 967.016H970.625C969.271 967.016 967.917 967.016 966.563 966.715C965.059 966.414 964.156 965.361 964.306 963.706C964.306 962.202 965.359 961.149 966.864 960.848C967.767 960.697 968.82 960.697 969.722 960.697C991.387 960.547 1013.05 960.547 1034.87 960.396C1035.92 960.396 1037.12 960.396 1038.18 960.547C1039.68 960.848 1040.58 961.75 1040.73 963.405C1040.73 965.211 1039.68 966.264 1038.02 966.414C1036.82 966.565 1035.62 966.565 1034.41 966.565H1002.82C1002.52 966.715 1002.52 966.866 1002.52 967.016" fill="white"/>
<path fill-rule="evenodd" clip-rule="evenodd" d="M342.363 949.715C342.363 953.777 339.054 956.936 334.691 957.087C330.478 957.237 326.567 953.476 326.567 949.564C326.567 945.502 330.478 941.741 334.992 941.741C338.903 941.741 342.363 945.352 342.363 949.715" fill="white"/>
<path fill-rule="evenodd" clip-rule="evenodd" d="M780.965 833.294C780.815 814.037 796.01 794.931 819.63 794.78C840.692 794.63 857.994 812.232 857.994 833.294C857.994 854.658 840.692 871.808 819.329 871.808C797.966 871.658 780.815 854.507 780.965 833.294" fill="#FF6663"/>
<path fill-rule="evenodd" clip-rule="evenodd" d="M528.217 833.445C528.217 812.082 545.669 794.63 566.731 794.78C587.793 794.931 605.095 812.232 605.095 833.294C605.095 854.658 587.793 871.808 566.43 871.808C545.217 871.658 528.217 854.507 528.217 833.445" fill="#FF6663"/>
<path fill-rule="evenodd" clip-rule="evenodd" d="M655.343 833.294C655.193 814.037 670.388 794.931 694.008 794.78C715.07 794.63 732.221 812.232 732.221 833.294C732.221 854.658 714.769 871.808 693.557 871.808C672.344 871.658 655.343 854.507 655.343 833.294" fill="#FF6663"/>
<path fill-rule="evenodd" clip-rule="evenodd" d="M826.641 847.795C827.844 846.29 828.898 845.388 829.499 844.184C830.552 841.928 832.057 840.423 834.464 839.821C836.57 839.37 837.623 837.865 837.774 835.759C837.924 833.803 838.376 831.998 838.376 830.042C838.376 825.378 837.022 822.971 832.659 821.768C828.145 820.564 823.331 819.361 818.667 819.361C808.437 819.361 807.083 821.467 807.233 831.697C807.233 832.299 807.384 833.051 807.534 833.653C808.587 837.715 810.543 839.37 814.756 839.671C816.411 839.821 818.065 839.671 819.72 839.671C825.738 839.671 826.49 840.423 826.49 846.591C826.34 846.742 826.34 846.742 826.641 847.795M819.419 846.14H815.207C807.534 845.99 801.968 842.529 800.915 832.449C800.614 829.441 801.065 826.131 801.667 823.122C802.419 818.308 805.428 815.449 810.092 814.095C814.906 812.741 819.871 812.591 824.685 813.493C828.747 814.246 832.659 815.148 836.57 816.502C841.385 818.308 844.544 822.069 844.694 827.334C844.845 831.246 844.243 835.157 843.641 839.069C843.19 841.777 841.385 843.883 838.827 844.936C836.57 845.839 835.066 847.494 833.712 849.45C831.606 852.308 829.048 854.415 825.588 855.468C823.331 856.22 821.225 856.069 819.419 854.415C817.614 852.76 817.915 850.804 818.667 848.698C819.119 847.945 819.119 847.344 819.419 846.14" fill="#293250"/>
<path fill-rule="evenodd" clip-rule="evenodd" d="M581.564 835.759C581.865 833.653 582.166 831.848 582.467 829.14C579.458 830.644 577.201 831.697 574.343 833.051C575.547 833.653 575.998 833.954 576.449 834.104C578.104 834.556 579.609 835.007 581.564 835.759M557.644 831.547V831.547V833.653C557.644 837.264 557.944 837.565 561.405 838.317C562.006 838.467 562.759 838.618 563.36 838.618C566.52 838.919 567.272 838.317 567.874 835.308C568.175 833.653 568.476 831.848 568.476 830.042C568.476 827.334 567.723 826.432 565.166 825.679C563.962 825.378 562.759 825.078 561.555 824.927C558.546 824.626 558.095 825.228 557.794 828.237C557.794 829.29 557.644 830.494 557.644 831.547M574.042 840.122C568.776 845.689 562.157 846.591 555.688 843.131C553.13 841.777 551.626 839.671 551.475 836.963C551.325 833.051 551.325 828.989 551.776 825.078C552.227 821.316 554.484 819.06 558.245 818.759C564.714 818.157 570.883 819.06 574.644 825.529C577.201 824.626 579.609 823.573 582.016 822.67C586.68 821.016 589.237 822.821 589.087 827.786C588.936 831.246 588.485 834.857 587.582 838.317C586.68 842.078 584.724 843.131 580.812 842.078C578.555 841.476 576.299 840.724 574.042 840.122" fill="#293250"/>
<path fill-rule="evenodd" clip-rule="evenodd" d="M698.16 847.344C698.01 849.901 697.709 852.308 697.558 854.565C697.257 857.574 696.204 858.778 694.098 858.627C692.142 858.477 691.089 856.972 691.24 853.963C691.39 851.707 691.54 849.299 691.691 847.043C690.036 846.441 688.682 845.99 687.328 845.388C682.965 843.432 679.655 840.574 678.301 835.91C677.85 834.104 677.699 832.149 677.85 830.343C678 828.688 679.053 827.485 680.859 827.485C682.664 827.485 683.567 828.538 683.868 830.193C683.868 830.494 684.018 830.795 684.018 830.945C684.921 836.963 687.629 839.671 693.346 840.423C699.815 841.476 705.081 838.919 707.488 833.954C707.488 833.804 707.638 833.653 707.638 833.503C708.842 830.945 710.196 830.042 711.851 830.644C713.806 831.396 714.408 833.202 713.506 835.91C711.7 840.875 708.089 843.883 703.275 845.689C701.62 846.441 699.965 846.892 698.16 847.344" fill="#293250"/>
<path fill-rule="evenodd" clip-rule="evenodd" d="M701.018 823.272C700.266 821.918 699.965 820.564 699.063 819.661C698.461 819.21 696.956 819.06 696.204 819.511C693.346 821.316 692.293 826.582 694.098 829.44C695.302 831.547 697.408 831.847 698.611 829.741C699.664 827.785 700.116 825.529 701.018 823.272M686.576 826.732C687.177 820.714 689.284 816.352 693.647 813.343C696.204 811.537 698.762 811.387 701.62 813.343C705.983 816.201 707.939 820.113 706.886 825.228C706.284 827.936 705.532 830.945 704.027 833.201C700.116 839.52 691.841 839.069 688.531 832.449C687.328 830.493 687.027 828.086 686.576 826.732" fill="#293250"/>
<path fill-rule="evenodd" clip-rule="evenodd" d="M824.083 833.202C822.127 833.202 820.322 833.352 818.366 833.202C815.959 833.051 814.455 831.547 814.755 829.741C814.906 828.086 816.26 827.033 818.667 827.033C821.676 826.883 824.685 826.883 827.694 826.883C828.596 826.883 829.65 826.883 830.552 827.184C832.207 827.635 833.11 828.839 832.959 830.494C832.809 832.299 831.756 833.202 829.95 833.202H824.083Z" fill="#293250"/>
<path fill-rule="evenodd" clip-rule="evenodd" d="M408.448 506.537C408.297 550.768 372.491 586.273 328.26 585.973C284.33 585.672 248.825 549.866 248.975 505.935C249.126 461.253 285.233 425.748 330.366 426.5C374.898 427.403 408.749 463.811 408.448 506.537" fill="#293250"/>
<path fill-rule="evenodd" clip-rule="evenodd" d="M359.296 496.788C358.394 496.186 357.491 495.734 356.588 494.982C355.234 493.929 354.632 492.575 355.535 491.071C356.287 489.566 357.641 489.115 359.296 489.566C362.004 490.469 364.712 491.221 367.42 492.274C370.429 493.327 371.482 495.283 370.58 498.442C369.677 501.602 368.473 504.611 367.27 507.77C366.668 509.425 365.464 510.478 363.509 510.177C361.703 509.726 360.951 508.221 361.252 505.965C361.252 505.363 361.553 504.761 361.703 503.407C360.048 504.159 358.995 504.611 358.093 505.062C349.367 509.876 340.491 514.54 331.765 519.354C330.862 519.806 330.11 520.257 329.207 520.708C324.844 522.664 321.384 520.558 321.534 515.894C321.835 508.372 322.287 500.85 322.587 493.327C323.039 483.849 323.49 474.522 323.941 465.043C323.941 464.291 323.941 463.389 323.791 462.335C322.888 462.787 322.437 463.088 321.685 463.238C318.826 463.84 316.72 462.035 317.924 459.477C319.278 456.318 321.083 453.459 323.039 450.751C324.393 448.946 326.8 448.946 329.057 450.45C331.464 452.105 333.871 454.061 336.128 456.017C337.933 457.672 338.234 459.327 337.03 460.681C335.827 462.185 334.172 462.185 332.667 461.282C332.216 460.981 331.765 460.831 330.561 460.229C329.658 478.132 328.756 495.584 327.853 513.186C331.163 512.735 354.933 500.097 359.296 496.788" fill="white"/>
<path fill-rule="evenodd" clip-rule="evenodd" d="M389.961 218.285C397.333 218.134 404.555 220.09 411.024 223.701C415.989 226.409 420.652 229.869 425.467 233.028C425.918 233.329 426.369 233.781 426.67 234.082C427.573 235.285 428.024 236.489 427.122 237.843C426.068 239.347 424.714 239.648 423.21 238.896C421.705 237.993 420.351 236.79 418.847 235.887C414.334 233.179 409.971 230.02 405.156 227.763C395.077 223.099 384.696 223.4 374.465 227.462C365.589 230.922 358.368 236.639 352.5 244.161C351.447 245.365 350.846 247.02 350.093 248.374C349.341 249.878 347.987 250.631 346.332 250.179C344.677 249.728 343.925 248.374 344.075 246.719C344.376 245.215 344.828 243.71 345.73 242.507C355.058 228.966 372.51 217.833 389.961 218.285" fill="#293250"/>
<path fill-rule="evenodd" clip-rule="evenodd" d="M422.006 251.533C422.006 254.091 420.502 255.445 418.697 255.144C417.643 254.993 416.59 254.542 415.688 254.091C413.13 253.038 410.723 251.684 408.316 250.631C401.696 247.622 394.926 246.869 388.006 248.675C381.988 250.179 376.12 251.985 371.306 256.047C368.749 258.153 366.492 260.41 364.987 263.569C363.784 265.976 362.279 266.728 360.624 265.976C358.819 265.224 358.067 262.967 359.421 260.71C361.226 257.702 363.332 254.843 365.89 252.436C372.058 246.569 379.882 244.161 388.006 242.356C395.678 240.551 403.201 241.453 410.422 244.763C413.581 246.117 416.59 247.471 419.599 249.126C420.652 249.577 421.405 250.931 422.006 251.533" fill="#293250"/>
<path fill-rule="evenodd" clip-rule="evenodd" d="M392.369 297.871C386.652 298.021 381.386 293.508 381.386 288.543C381.386 283.277 386.802 277.41 391.917 277.259C396.581 277.109 403.05 283.428 403.201 287.941C403.201 293.056 397.935 297.871 392.369 297.871" fill="#293250"/>
<path fill-rule="evenodd" clip-rule="evenodd" d="M409.218 269.436C409.218 271.693 407.112 272.896 404.855 271.994C402.448 271.091 400.192 269.887 397.634 269.135C392.218 267.33 386.802 267.781 381.837 270.79C379.881 271.994 378.227 274.1 376.572 275.755C375.518 276.958 374.315 277.711 372.66 277.109C371.156 276.507 370.253 274.702 371.156 273.047C372.058 271.091 373.412 269.135 374.917 267.781C381.235 262.365 388.607 260.71 396.731 262.365C400.041 262.967 403.201 264.622 406.36 265.825C408.015 266.427 409.068 267.631 409.218 269.436" fill="#293250"/>
<path fill-rule="evenodd" clip-rule="evenodd" d="M414.315 390.682C418.828 390.532 422.439 386.921 422.439 382.558C422.439 378.646 419.279 375.637 415.368 375.637C410.704 375.637 406.943 379.399 407.093 384.062C407.244 387.974 410.253 390.832 414.315 390.682M428.757 382.558C428.757 390.532 422.138 397.151 414.164 397.151C406.642 397.151 400.775 391.585 400.624 384.062C400.474 376.089 407.093 369.319 415.067 369.168C422.589 369.018 428.757 375.036 428.757 382.558" fill="#293250"/>
<path fill-rule="evenodd" clip-rule="evenodd" d="M455.988 378.947C451.926 378.797 448.466 382.107 448.315 386.018C448.165 389.779 451.324 392.939 455.236 393.089C459.448 393.24 462.758 390.381 462.909 386.319C463.36 382.257 460.201 378.947 455.988 378.947M455.838 399.558C448.315 399.558 442.147 393.691 441.997 386.319C441.846 378.947 448.165 372.478 455.838 372.478C463.36 372.478 469.528 378.496 469.679 385.717C469.679 393.24 463.511 399.408 455.838 399.558" fill="#293250"/>
<path fill-rule="evenodd" clip-rule="evenodd" d="M504.582 384.062C504.582 380.301 501.272 376.991 497.662 376.841C494.051 376.691 491.493 379.399 491.493 383.009C491.493 386.77 494.653 390.08 498.414 390.231C501.874 390.381 504.582 387.523 504.582 384.062M485.024 383.16C485.024 376.089 490.29 370.522 497.21 370.522C504.582 370.372 510.75 376.54 510.901 383.912C511.051 390.983 505.635 396.549 498.715 396.7C491.493 396.85 485.175 390.532 485.024 383.16" fill="#293250"/>
<mask id="mask0_0_166" style="mask-type:alpha" maskUnits="userSpaceOnUse" x="1312" y="184" width="209" height="197">
<path fill-rule="evenodd" clip-rule="evenodd" d="M1312.66 184.204H1520.84V380.998H1312.66V184.204Z" fill="white"/>
</mask>
<g mask="url(#mask0_0_166)">
<path fill-rule="evenodd" clip-rule="evenodd" d="M1520.84 273.184C1520.24 301.318 1509.26 325.088 1490 345.248C1488.05 347.354 1485.94 349.31 1483.68 351.115C1482.33 352.319 1481.73 353.522 1482.03 355.328C1482.63 359.54 1483.68 363.602 1485.64 367.514C1489.1 374.585 1487.59 376.992 1479.62 376.691C1472.7 376.39 1466.23 373.983 1460.21 370.824C1457.96 369.62 1456.3 369.319 1453.89 370.523C1437.65 377.895 1420.5 381.656 1402.59 380.904C1375.51 379.7 1351.89 370.071 1333.84 349.31C1317.59 330.805 1310.82 308.84 1313.08 284.317C1316.09 251.671 1332.33 226.245 1358.21 207.139C1381.83 189.837 1408.46 181.713 1437.65 184.873C1471.5 188.483 1497.52 204.581 1512.87 235.874C1518.29 247.609 1520.84 260.246 1520.84 273.184" fill="#293250"/>
</g>
<path fill-rule="evenodd" clip-rule="evenodd" d="M1392.73 259.917C1393.03 260.218 1393.33 260.368 1393.63 260.669C1394.53 259.466 1395.44 258.262 1396.34 257.209C1396.04 256.908 1395.74 256.758 1395.44 256.457C1394.68 257.66 1393.63 258.714 1392.73 259.917M1402.96 246.227C1409.43 245.324 1414.09 248.032 1417.7 252.696C1419.51 254.952 1421.31 257.209 1423.42 259.014C1429.74 264.581 1440.12 264.731 1446.89 259.466C1446.59 258.112 1445.99 256.607 1445.84 255.253C1445.38 251.793 1447.19 249.085 1449.9 248.634C1452.76 248.333 1455.01 250.289 1455.46 253.899C1455.61 255.253 1455.46 256.607 1455.46 258.413C1460.88 259.165 1466.15 259.165 1471.41 257.811C1474.87 256.908 1476.83 257.209 1477.58 259.466C1478.18 261.722 1476.68 263.678 1473.22 264.13C1466.75 265.032 1460.28 266.236 1453.66 264.28C1452.76 263.979 1451.55 264.43 1450.8 264.882C1446.44 267.74 1441.62 269.094 1436.51 269.395C1428.53 269.997 1422.07 267.138 1416.8 261.422C1414.99 259.466 1413.34 257.209 1411.53 255.253C1409.58 252.997 1407.17 251.643 1403.86 252.545C1403.41 254.501 1403.11 256.457 1402.66 258.262C1401.3 262.625 1398.75 265.784 1394.38 267.138C1389.72 268.493 1386.11 265.784 1386.11 260.97C1386.11 257.51 1387.76 254.952 1390.17 252.696C1392.13 251.041 1394.23 249.536 1396.19 248.032C1394.68 244.12 1392.43 242.315 1388.06 242.616C1380.69 243.067 1374.37 246.076 1369.56 251.943C1368.66 253.147 1368.21 254.802 1367.9 256.457C1367.45 258.864 1366.55 260.068 1364.75 259.917C1362.94 259.917 1361.59 258.563 1361.59 256.306C1361.59 254.501 1361.89 252.395 1362.64 250.74C1367.15 241.563 1382.35 234.492 1392.43 236.748C1396.19 237.651 1399.2 239.607 1401.15 243.067C1401.75 243.97 1402.36 244.873 1402.96 246.227" fill="white"/>
<path fill-rule="evenodd" clip-rule="evenodd" d="M1444.33 323.105C1453.51 322.804 1459.98 314.981 1457.57 306.706C1455.92 300.839 1451.55 297.83 1445.53 296.927C1438.91 295.874 1432.3 299.786 1430.34 305.954C1428.38 311.972 1431.54 318.591 1438.01 321.299C1440.12 322.202 1442.22 322.503 1444.33 323.105M1464.49 309.865C1464.64 321.299 1454.56 330.025 1442.68 329.122C1436.66 328.671 1431.69 326.114 1427.78 321.299C1420.71 312.573 1422.67 300.237 1431.84 293.918C1440.72 287.9 1453.21 289.555 1459.98 297.83C1462.99 301.29 1464.49 305.352 1464.49 309.865" fill="white"/>
<path fill-rule="evenodd" clip-rule="evenodd" d="M1378.29 306.104C1375.73 301.892 1373.47 300.688 1369.41 301.892C1365.65 302.945 1362.19 304.449 1360.83 308.662C1360.23 310.317 1358.88 310.919 1357.22 310.467C1355.57 310.016 1354.82 308.511 1355.12 307.007C1355.27 305.653 1355.72 304.299 1356.47 303.246C1360.83 297.529 1366.7 294.821 1373.92 295.423C1378.29 295.724 1381.44 298.281 1383.55 302.193C1384 302.945 1384.45 303.848 1384.75 304.6C1390.92 304.901 1396.79 305.352 1402.81 305.653H1404.46C1406.12 305.803 1407.32 306.706 1407.62 308.361C1407.77 310.016 1406.72 311.37 1405.22 311.671C1403.71 311.972 1402.06 311.972 1400.4 311.972C1396.19 311.821 1391.98 311.671 1387.76 311.37C1385.81 311.219 1384.6 311.821 1383.55 313.627C1382.5 315.281 1380.99 316.786 1379.49 318.14C1377.98 319.494 1375.88 319.644 1374.22 318.29C1372.42 317.087 1372.12 314.981 1372.87 313.175C1373.47 311.52 1374.52 310.166 1375.73 308.812C1376.03 307.759 1377.08 307.157 1378.29 306.104" fill="white"/>
<path fill-rule="evenodd" clip-rule="evenodd" d="M1444.03 320.547C1440.12 320.547 1438.01 319.343 1436.36 317.538C1435.15 316.184 1434.85 314.68 1436.06 313.175C1437.11 311.821 1438.76 311.671 1440.12 312.724C1442.22 314.379 1444.33 314.228 1446.59 313.326C1447.34 313.025 1448.24 312.724 1448.99 313.025C1449.9 313.326 1451.25 314.228 1451.25 314.83C1451.4 316.034 1450.95 317.839 1450.2 318.29C1447.79 319.343 1445.23 320.096 1444.03 320.547" fill="white"/>
<path fill-rule="evenodd" clip-rule="evenodd" d="M1439.37 305.954C1439.22 307.458 1437.86 308.812 1436.36 308.662C1434.7 308.662 1433.2 307.007 1433.5 305.352C1433.65 303.848 1435.15 302.794 1436.66 302.794C1438.16 303.095 1439.37 304.449 1439.37 305.954" fill="white"/>
<path fill-rule="evenodd" clip-rule="evenodd" d="M1450.5 307.157C1450.65 308.812 1449.15 310.317 1447.49 310.317C1445.84 310.317 1444.33 308.963 1444.48 307.308C1444.48 305.502 1445.53 304.6 1447.19 304.449C1448.99 304.148 1450.5 305.502 1450.5 307.157" fill="white"/>
<path fill-rule="evenodd" clip-rule="evenodd" d="M1560.39 828.178H1445.45C1442.75 828.178 1439.89 828.028 1437.48 827.125C1430.11 824.417 1426.65 818.249 1425.44 810.877C1425.29 809.673 1425.44 808.319 1425.75 807.266C1431.91 782.593 1438.23 757.92 1444.4 733.397C1452.37 701.352 1460.35 669.157 1468.32 637.112C1471.18 625.678 1478.4 618.607 1490.29 616.802C1493.3 616.35 1496.46 615.899 1499.61 616.05C1574.99 616.802 1650.36 617.554 1725.58 618.306C1728.44 618.306 1731.3 618.156 1734.16 618.306C1744.54 619.209 1750.26 627.333 1747.7 637.413C1733.11 694.733 1718.51 752.052 1704.07 809.523C1701.36 819.904 1694.29 825.32 1684.51 827.727C1680.45 828.629 1676.09 828.78 1671.87 828.78C1634.71 828.93 1597.55 828.78 1560.24 828.78C1560.39 828.329 1560.39 828.178 1560.39 828.178" fill="#293250"/>
<mask id="mask1_0_166" style="mask-type:alpha" maskUnits="userSpaceOnUse" x="1486" y="389" width="324" height="214">
<path fill-rule="evenodd" clip-rule="evenodd" d="M1486.32 389.298H1809.24V602.209H1486.32V389.298Z" fill="white"/>
</mask>
<g mask="url(#mask1_0_166)">
<path fill-rule="evenodd" clip-rule="evenodd" d="M1621.63 601.607H1506.38C1503.68 601.607 1500.82 601.456 1498.41 600.554C1491.04 597.846 1487.58 591.677 1486.38 584.306C1486.22 583.102 1486.38 581.748 1486.68 580.695L1506.08 503.516C1513.91 472.524 1521.43 441.382 1529.25 410.39C1532.11 398.956 1539.33 391.885 1551.22 390.08C1554.23 389.629 1557.39 389.177 1560.55 389.328L1786.21 391.585H1791.48C1792.68 391.585 1793.89 391.585 1795.09 391.735C1805.47 392.638 1811.19 400.762 1808.63 410.842L1802.76 433.86C1790.28 483.056 1777.79 532.101 1765.45 581.297C1762.29 593.633 1754.02 600.704 1741.08 601.908C1738.07 602.209 1735.06 602.209 1732.05 602.209H1621.63V601.607Z" fill="#293250"/>
</g>
<path fill-rule="evenodd" clip-rule="evenodd" d="M1552.57 847.435C1589.88 847.887 1627.19 848.188 1664.5 848.639C1667.36 848.639 1670.22 848.489 1673.08 848.789C1682.71 849.993 1688.12 857.967 1685.72 867.445C1672.48 919.8 1659.24 972.005 1646 1024.36C1644.79 1029.17 1643.29 1033.84 1642.39 1038.65C1640.13 1050.09 1632.46 1055.8 1621.63 1058.06C1618.17 1058.81 1614.55 1058.96 1611.09 1058.96C1534.97 1058.96 1458.69 1058.66 1382.57 1058.81C1372.04 1058.81 1365.12 1051.29 1363.61 1042.41C1363.31 1040.76 1363.46 1038.8 1363.76 1037.15C1373.54 997.881 1383.32 958.615 1393.1 919.499C1397.46 902.047 1401.67 884.445 1406.19 866.993C1409.05 856.011 1415.97 849.241 1427.25 847.285C1430.71 846.683 1434.32 846.382 1437.78 846.382C1476.3 846.683 1514.51 846.984 1552.57 847.435" fill="#293250"/>
<path fill-rule="evenodd" clip-rule="evenodd" d="M1524.84 782.692H1412.17C1409.51 782.692 1406.71 782.545 1404.35 781.662C1397.13 779.012 1393.74 772.978 1392.55 765.766C1392.41 764.588 1392.55 763.263 1392.85 762.233C1398.9 738.094 1405.09 713.957 1411.14 689.965C1418.95 658.613 1426.77 627.114 1434.58 595.764C1437.39 584.579 1444.47 577.66 1456.11 575.894C1459.06 575.453 1462.16 575.011 1465.26 575.158C1539.14 575.894 1613.03 576.63 1686.76 577.365C1689.56 577.365 1692.37 577.218 1695.17 577.365C1705.34 578.25 1710.95 586.197 1708.44 596.059C1694.14 652.137 1679.83 708.215 1665.67 764.441C1663.02 774.596 1656.09 779.896 1646.5 782.25C1642.52 783.134 1638.24 783.281 1634.11 783.281C1597.69 783.428 1561.26 783.281 1524.69 783.281C1524.84 782.839 1524.84 782.692 1524.84 782.692" fill="white"/>
<path fill-rule="evenodd" clip-rule="evenodd" d="M1585.31 557.691H1472.35C1469.69 557.691 1466.89 557.544 1464.53 556.661C1457.31 554.012 1453.91 547.98 1452.73 540.77C1452.59 539.594 1452.73 538.269 1453.03 537.24C1459.37 512.08 1465.71 486.921 1472.05 461.762C1479.72 431.454 1487.09 400.999 1494.76 370.689C1497.56 359.507 1504.64 352.592 1516.29 350.827C1519.24 350.385 1522.34 349.944 1525.44 350.091L1746.64 352.299H1751.81C1752.99 352.299 1754.17 352.299 1755.35 352.445C1765.52 353.328 1771.13 361.274 1768.62 371.131L1762.87 393.641C1750.63 441.752 1738.39 489.716 1726.29 537.828C1723.2 549.893 1715.09 556.809 1702.4 557.984C1699.45 558.278 1696.5 558.278 1693.56 558.278H1585.31V557.691Z" fill="white"/>
<path fill-rule="evenodd" clip-rule="evenodd" d="M1517.75 807.245C1554.33 807.687 1590.92 807.982 1627.5 808.424C1630.3 808.424 1633.1 808.277 1635.91 808.572C1645.35 809.75 1650.66 817.56 1648.3 826.844C1635.32 878.125 1622.34 929.258 1609.36 980.538C1608.17 985.254 1606.7 989.821 1605.81 994.537C1603.6 1005.74 1596.08 1011.34 1585.46 1013.55C1582.07 1014.28 1578.53 1014.43 1575.13 1014.43C1500.49 1014.43 1425.71 1014.14 1351.07 1014.28C1340.74 1014.28 1333.95 1006.91 1332.48 998.221C1332.18 996.6 1332.33 994.684 1332.63 993.064C1342.22 954.604 1351.8 916.143 1361.39 877.83C1365.67 860.735 1369.8 843.496 1374.22 826.402C1377.03 815.645 1383.81 809.015 1394.88 807.098C1398.27 806.509 1401.81 806.214 1405.2 806.214C1442.96 806.509 1480.43 806.804 1517.75 807.245" fill="white"/>
<path fill-rule="evenodd" clip-rule="evenodd" d="M1485.47 843.54C1521.43 843.692 1550.62 873.029 1550.32 909.136C1549.86 946.747 1519.62 973.677 1485.02 973.827C1449.37 973.978 1420.03 944.19 1420.18 908.684C1420.03 872.728 1449.52 843.391 1485.47 843.54" fill="#03CEA4"/>
<path fill-rule="evenodd" clip-rule="evenodd" d="M1483.37 871.808C1469.44 871.808 1458.09 882.547 1458.09 895.879C1458.09 909.212 1469.44 919.95 1483.37 919.95C1497.29 919.95 1508.64 909.212 1508.64 895.879C1508.64 882.547 1497.29 871.808 1483.37 871.808ZM1483.37 877.825C1494.04 877.825 1502.62 885.948 1502.62 895.879C1502.62 905.811 1494.04 913.932 1483.37 913.932C1472.69 913.932 1464.11 905.811 1464.11 895.879C1464.11 885.948 1472.7 877.825 1483.37 877.825Z" fill="white"/>
<path fill-rule="evenodd" clip-rule="evenodd" d="M1461.85 780.203C1462.3 777.044 1462.61 771.628 1463.36 768.619C1464.86 761.548 1466.52 754.477 1468.32 747.557C1470.43 739.433 1475.69 733.866 1483.37 730.256C1495.85 724.539 1508.64 720.777 1522.33 720.326C1525.94 720.176 1528.95 721.379 1531.66 723.636L1540.69 731.309C1541.74 732.211 1542.79 732.964 1544.15 734.167C1546.4 730.707 1548.51 727.397 1550.77 724.087L1553.47 720.025C1554.68 718.22 1556.18 717.468 1558.44 718.37C1559.64 718.822 1561.15 718.822 1562.35 718.822C1572.13 718.671 1581.76 719.273 1591.24 721.078C1600.71 722.884 1607.18 728.45 1610.95 737.326C1613.8 744.247 1615.46 751.318 1616.51 758.69C1617.11 763.955 1617.72 769.221 1618.17 774.637C1618.32 775.841 1618.32 777.044 1618.17 778.248C1617.87 781.106 1616.51 782.46 1613.5 783.062C1612.45 783.212 1611.4 783.363 1610.19 783.363C1599.96 783.363 1589.73 783.212 1579.5 783.212C1575.74 783.212 1571.83 783.062 1568.07 783.212C1550.01 784.115 1531.96 783.664 1514.06 781.558C1503.98 780.354 1493.9 783.212 1483.82 782.611C1477.2 782.31 1470.43 781.558 1463.81 780.956C1463.21 780.805 1462.76 780.504 1461.85 780.203" fill="#03CEA4"/>
<path fill-rule="evenodd" clip-rule="evenodd" d="M1622.98 555.889C1605.83 555.287 1588.53 554.535 1571.38 553.933C1556.63 553.332 1541.89 553.332 1527.15 554.535C1526.39 554.535 1525.49 554.836 1524.74 555.137C1521.43 556.04 1519.32 554.836 1518.72 551.677C1518.57 550.924 1518.57 550.022 1518.57 549.27C1519.32 539.942 1521.58 531.066 1526.54 522.791C1530.76 515.72 1536.78 511.508 1544.9 510.455C1548.06 510.003 1551.22 509.853 1554.23 509.853C1570.02 509.853 1585.97 510.304 1601.77 510.154C1608.99 510.154 1616.21 509.552 1623.43 509.101C1630.2 508.649 1636.82 509.101 1643.44 510.605C1661.34 514.517 1671.42 526.101 1674.73 543.854C1675.19 546.712 1675.64 549.57 1675.79 552.429C1675.94 555.287 1674.73 556.491 1672.03 556.792C1670.37 556.942 1668.72 556.792 1667.06 556.792C1652.32 556.341 1637.57 555.739 1622.83 555.287C1623.13 555.287 1622.98 555.588 1622.98 555.889" fill="#03CEA4"/>
<path fill-rule="evenodd" clip-rule="evenodd" d="M1641.21 456.032C1640.76 460.395 1640.45 464.607 1640 468.82C1643.91 467.616 1646.32 464.607 1646.17 460.696C1646.17 457.987 1645.12 456.934 1641.21 456.032M1557.86 464.457V446.253C1553.8 448.058 1553.2 451.368 1553.05 454.828C1552.74 458.74 1553.35 462.2 1557.86 464.457M1595.62 420.526C1584.64 426.243 1575.31 433.314 1567.19 441.89C1565.98 443.093 1564.93 444.899 1564.78 446.554C1563.58 456.182 1563.73 465.66 1567.19 474.837C1571.4 486.121 1583.13 494.997 1594.12 495.148C1601.49 495.298 1608.56 493.944 1615.18 490.935C1622.7 487.625 1628.12 482.209 1631.43 474.386C1634.29 467.616 1634.29 460.395 1634.74 453.023C1618.64 446.102 1604.35 437.076 1595.62 420.526M1611.87 499.511C1612.47 502.369 1612.92 505.227 1613.52 508.236C1613.67 509.139 1614.13 510.042 1614.28 510.944C1614.73 513.201 1613.98 514.706 1612.17 515.157C1610.52 515.608 1608.86 514.706 1608.11 512.599C1607.36 510.343 1606.9 508.086 1606.3 505.829C1606 504.325 1605.7 502.67 1605.4 500.714C1603.29 501.015 1601.34 501.165 1599.38 501.316C1597.43 501.466 1595.62 501.617 1593.36 501.767L1592.01 508.086C1591.86 508.989 1591.71 510.042 1591.41 510.944C1590.81 512.599 1589.75 513.502 1587.95 513.352C1586.29 513.201 1585.09 511.697 1585.24 509.741C1585.39 508.387 1585.69 507.033 1585.99 505.679C1586.14 504.626 1586.44 503.573 1586.59 502.519C1586.59 502.219 1586.44 502.068 1586.29 501.316C1577.57 507.635 1568.99 509.59 1561.17 501.165C1556.66 501.617 1552.59 502.369 1548.53 502.369C1546.12 502.369 1543.42 501.316 1541.16 500.112C1536.2 497.254 1534.84 491.537 1537.7 486.572C1538.6 484.917 1540.11 483.563 1541.01 481.908C1543.12 478.599 1545.07 475.138 1546.88 471.678C1548.38 468.519 1548.68 465.209 1547.33 461.448C1545.37 456.032 1546.12 450.315 1549.13 445.2C1550.04 443.695 1550.34 442.341 1550.04 440.686C1549.28 435.571 1549.59 430.606 1551.39 425.642C1556.2 412.102 1564.33 401.269 1577.87 395.552C1581.93 393.747 1586.14 392.844 1590.66 394.499C1591.71 394.8 1593.06 394.349 1594.12 394.048C1599.98 392.844 1605.85 391.19 1611.72 390.287C1618.64 389.234 1625.71 389.836 1632.48 391.942C1649.03 397.057 1658.66 408.792 1663.02 425.04C1665.73 435.421 1664.68 445.952 1664.38 456.483C1664.22 461.448 1664.38 466.563 1664.68 471.678C1664.83 475.289 1666.48 478.448 1668.89 481.307C1670.09 482.811 1671.3 484.315 1672.35 485.82C1676.41 492.289 1674.3 500.112 1667.38 503.422C1664.38 504.927 1661.22 505.528 1657.91 505.227C1655.8 505.077 1653.54 504.776 1651.44 504.174C1647.98 503.121 1645.27 503.272 1641.96 505.528C1634.14 510.944 1624.06 508.838 1618.34 501.466C1617.89 500.865 1617.44 500.413 1617.14 499.811C1615.78 497.705 1614.28 497.705 1611.87 499.511" fill="#293250"/>
<path fill-rule="evenodd" clip-rule="evenodd" d="M1523.41 701.559C1507.16 702.161 1498.43 688.922 1505.05 677.187C1504.9 676.736 1504.75 676.284 1504.45 675.833C1492.42 661.842 1493.62 635.213 1505.65 621.372C1515.13 610.54 1526.27 602.566 1540.41 599.407C1552.74 596.699 1563.88 600.159 1574.11 607.23C1575.46 608.132 1577.12 609.035 1578.77 609.486C1585.39 611.292 1589.75 616.407 1590.21 623.327C1590.21 624.23 1590.51 625.283 1590.21 626.186C1589 630.248 1590.81 633.558 1592.46 637.018C1596.52 645.744 1600.13 654.47 1601.94 663.948C1603.14 670.116 1603.9 676.435 1602.54 682.603C1602.09 684.86 1601.34 687.116 1600.29 689.072C1591.86 703.365 1579.67 711.338 1562.67 710.887C1561.17 710.887 1559.66 710.736 1558.16 710.736C1558.01 710.736 1557.86 710.887 1557.26 711.037C1557.86 712.542 1558.46 713.896 1559.06 715.4C1559.36 716.303 1559.97 717.055 1560.27 717.958C1561.17 720.215 1560.87 721.869 1559.36 722.622C1557.71 723.524 1555.75 723.073 1554.7 720.816C1553.2 717.657 1551.99 714.197 1550.79 710.887C1550.49 710.285 1550.49 709.533 1550.34 708.63C1549.43 708.179 1548.53 707.728 1547.48 707.427C1543.57 706.073 1540.11 703.816 1537.1 700.957C1534.84 698.851 1534.39 696.895 1535.74 695.391C1537.1 693.887 1538.75 694.037 1541.16 695.993C1547.18 701.409 1554.55 703.816 1562.52 704.267C1577.27 705.32 1589 696.745 1595.17 685.01C1597.88 679.745 1597.13 674.028 1596.37 668.461C1595.32 660.036 1592.46 652.063 1589 644.239C1587.5 640.779 1585.84 637.319 1584.19 633.708C1580.58 635.514 1577.12 636.868 1573.96 638.673C1561.62 645.293 1549.13 651.912 1536.95 658.833C1528.97 663.346 1528.97 662.594 1529.73 673.727C1529.88 675.382 1530.33 676.886 1530.63 678.541C1530.93 680.346 1530.78 682.152 1528.82 683.205C1527.17 684.108 1525.66 683.355 1524.31 682.302C1522.5 680.798 1520.7 679.293 1518.89 677.939C1516.19 676.134 1514.23 676.435 1511.97 678.842C1507.91 683.205 1508.36 688.32 1513.18 691.931C1516.19 694.187 1519.5 694.94 1523.26 694.338C1526.87 693.887 1527.32 694.037 1529.12 697.347C1531.38 701.409 1532.43 705.772 1532.89 710.285C1533.34 714.498 1533.49 718.71 1533.79 722.923C1533.94 725.631 1533.04 726.985 1531.08 727.135C1529.12 727.286 1527.62 725.931 1527.47 723.524C1527.02 719.011 1527.02 714.498 1526.57 709.984C1525.81 707.427 1525.21 704.267 1523.41 701.559" fill="#293250"/>
<path fill-rule="evenodd" clip-rule="evenodd" d="M1573.96 665.302C1572.45 664.85 1571.1 664.55 1569.74 664.249C1566.59 663.196 1564.48 660.939 1563.28 657.93C1562.67 656.275 1562.67 654.62 1564.48 653.717C1566.28 652.664 1567.79 653.417 1568.69 654.921C1570.2 657.629 1572.45 658.532 1575.31 658.833C1579.97 659.434 1581.18 661.089 1580.58 665.753C1580.43 667.709 1579.97 669.514 1579.52 671.32C1579.07 672.975 1578.02 673.877 1576.21 673.727C1574.41 673.576 1573.51 672.373 1573.51 670.718C1573.66 668.913 1573.81 667.258 1573.96 665.302" fill="#293250"/>
<path fill-rule="evenodd" clip-rule="evenodd" d="M1576.97 689.975C1570.65 690.125 1566.13 686.966 1562.67 682.001C1561.92 681.099 1561.47 679.895 1561.32 678.691C1561.02 677.187 1561.62 675.983 1562.97 675.231C1564.33 674.629 1565.68 675.081 1566.59 676.284L1567.49 677.638C1569.74 681.55 1573.2 683.807 1577.87 683.656C1578.62 683.656 1579.22 683.656 1579.97 683.807C1581.63 683.957 1582.83 684.86 1582.98 686.665C1583.13 688.32 1581.93 689.524 1579.97 689.975H1576.97Z" fill="#293250"/>
<path fill-rule="evenodd" clip-rule="evenodd" d="M1555.6 665.753C1555.3 666.205 1554.85 667.709 1553.95 668.01C1552.74 668.461 1550.64 668.612 1549.89 667.859C1548.38 666.505 1547.03 664.55 1546.43 662.594C1545.52 660.036 1547.78 658.081 1550.34 658.532C1552.59 658.983 1555.6 662.594 1555.6 665.753" fill="#293250"/>
<path fill-rule="evenodd" clip-rule="evenodd" d="M1581.78 648.301C1581.93 650.408 1580.43 652.063 1578.32 652.063C1576.06 652.063 1573.21 649.204 1573.05 646.647C1573.05 644.691 1574.71 642.885 1576.51 642.735C1578.92 642.584 1581.63 645.593 1581.78 648.301" fill="#293250"/>
<path fill-rule="evenodd" clip-rule="evenodd" d="M1596.82 473.935C1595.62 474.537 1594.72 474.838 1593.82 475.289L1591.11 476.643C1591.56 478.599 1592.46 479.652 1594.27 479.351C1596.22 479.05 1596.82 477.696 1596.82 473.935M1603.9 475.59C1604.5 478.147 1602.54 480.254 1601.19 482.059C1597.13 487.626 1589.3 487.024 1585.99 481.006C1584.94 479.05 1584.34 476.944 1583.74 474.988C1582.98 472.581 1583.74 471.077 1586.14 470.776C1589.75 470.324 1592.76 468.669 1595.92 466.864C1598.48 465.36 1600.74 465.961 1601.94 468.669C1602.84 470.625 1603.29 473.032 1603.9 475.59" fill="#293250"/>
<path fill-rule="evenodd" clip-rule="evenodd" d="M1586.29 460.094C1587.2 460.695 1588.25 461.147 1588.85 462.049C1589.45 462.952 1589.9 464.457 1589.45 465.359C1589 466.262 1587.65 467.014 1586.59 467.165C1584.34 467.466 1579.82 464.457 1578.92 462.35C1578.17 460.695 1578.47 459.041 1579.67 457.837C1581.78 455.43 1583.59 453.023 1583.44 449.562C1583.44 448.058 1584.64 446.854 1586.14 447.005C1587.2 447.155 1589 448.208 1589.15 449.111C1589.45 451.368 1589.15 453.625 1588.7 455.881C1588.25 457.235 1587.2 458.589 1586.29 460.094" fill="#293250"/>
<path fill-rule="evenodd" clip-rule="evenodd" d="M1604.95 453.474C1604.95 450.014 1606.6 448.058 1609.46 448.058C1609.91 448.058 1610.21 448.058 1610.67 448.209C1612.62 448.81 1613.83 451.217 1613.52 454.377C1613.22 457.085 1611.87 458.74 1609.76 459.041C1607.66 459.191 1605.85 457.837 1605.25 455.28C1604.95 454.527 1604.95 453.775 1604.95 453.474" fill="#293250"/>
<path fill-rule="evenodd" clip-rule="evenodd" d="M1568.54 450.917C1568.54 450.315 1568.54 449.262 1568.84 448.359C1569.44 446.554 1570.65 445.35 1572.75 445.35C1574.56 445.2 1575.76 446.554 1576.21 448.66C1576.36 450.014 1576.51 451.368 1576.36 452.722C1576.06 455.129 1574.26 456.483 1572.3 456.333C1570.5 456.182 1569.14 454.678 1568.84 452.421C1568.69 451.97 1568.69 451.519 1568.54 450.917" fill="#293250"/>
<path fill-rule="evenodd" clip-rule="evenodd" d="M1462.76 1010.22V1010.67H1572.28C1576.19 1010.67 1580.25 1010.52 1584.16 1009.77C1592.14 1008.26 1598.01 1004.2 1600.11 995.474C1610.64 953.048 1621.48 910.623 1632.31 868.347C1636.07 853.453 1639.83 838.409 1643.59 823.514C1644.34 820.506 1644.04 817.798 1641.79 815.541C1639.83 813.585 1637.42 812.833 1634.71 812.833H1627.34C1552.87 812.081 1478.25 811.328 1403.78 810.576C1400.32 810.576 1397.01 810.877 1393.55 811.328C1384.37 812.532 1378.81 818.098 1376.55 826.824C1367.22 864.135 1358.05 901.295 1348.72 938.605C1344.05 957.411 1339.39 976.217 1334.58 995.023C1332.62 1002.85 1337.89 1010.22 1345.86 1010.22H1462.76ZM1459.9 1016.39H1347.06C1336.38 1016.39 1329.91 1011.27 1327.65 1000.74C1327.35 999.085 1327.2 997.129 1327.65 995.474C1331.27 980.881 1335.03 966.288 1338.79 951.845C1349.32 909.72 1359.7 867.445 1370.23 825.32C1372.94 814.337 1379.86 807.116 1391.29 805.01C1394.9 804.408 1398.67 803.957 1402.28 803.957C1477.95 804.709 1553.47 805.461 1629.15 806.213C1632.01 806.213 1634.87 806.063 1637.72 806.514C1647.35 808.319 1652.17 815.842 1649.76 825.32C1646.45 838.559 1642.99 851.798 1639.68 865.038C1628.55 908.817 1617.41 952.747 1606.43 996.527C1603.57 1007.66 1595.3 1015.03 1584.01 1016.09C1579.5 1016.54 1574.99 1016.84 1570.47 1016.84H1460.05C1459.9 1016.84 1459.9 1016.69 1459.9 1016.39V1016.39Z" fill="#293250"/>
<path fill-rule="evenodd" clip-rule="evenodd" d="M1524.59 779.584V780.036H1634.11C1638.02 780.036 1642.09 779.735 1646 779.283C1654.57 778.08 1659.99 772.965 1662.1 764.54C1663.9 757.318 1665.71 750.247 1667.51 743.026C1680.15 693.379 1692.64 643.732 1705.27 594.085C1707.08 586.713 1703.92 582.35 1696.25 582.2H1689.33C1614.71 581.447 1539.93 580.695 1465.31 579.943C1462.15 579.943 1458.99 580.244 1455.99 580.695C1446.36 581.899 1440.79 587.465 1438.38 596.642C1431.16 625.377 1424.09 654.263 1416.87 682.998L1396.11 766.044C1395.96 766.646 1395.66 767.398 1395.81 768C1397.01 775.823 1402.58 779.885 1408.14 779.735C1446.96 779.434 1485.77 779.584 1524.59 779.584M1522.18 785.903H1408.9C1398.67 785.903 1392.35 781.089 1389.94 771.31C1389.34 769.204 1389.34 766.646 1389.79 764.389C1394 747.088 1398.51 729.937 1402.73 712.786C1412.66 673.219 1422.29 633.802 1432.21 594.235C1434.92 583.704 1441.54 576.934 1452.52 574.527C1456.59 573.624 1460.65 573.323 1464.71 573.323C1540.23 574.075 1615.61 574.828 1691.13 575.58C1694.29 575.58 1697.45 575.58 1700.46 576.182C1709.34 578.138 1713.7 585.66 1711.59 594.536L1677.74 727.681C1674.43 740.619 1670.97 753.557 1667.96 766.646C1666.01 775.071 1660.89 780.337 1653.37 783.646C1647.8 786.054 1641.94 786.354 1636.07 786.354H1522.03C1522.18 786.204 1522.18 786.054 1522.18 785.903" fill="#293250"/>
<path fill-rule="evenodd" clip-rule="evenodd" d="M1639.23 354.575V354.575C1601.47 354.124 1563.7 353.672 1525.94 353.371C1522.63 353.371 1519.47 353.672 1516.16 354.124C1506.84 355.327 1501.12 360.894 1498.86 369.92C1488.63 410.842 1478.55 451.913 1468.32 492.835C1464.56 507.879 1460.95 522.773 1457.04 537.818C1454.93 545.792 1460.35 553.163 1468.47 553.163C1544 553.314 1619.37 553.464 1694.89 553.464C1698.8 553.464 1702.87 553.314 1706.78 552.562C1712.5 551.659 1717.46 548.951 1720.47 543.836C1721.82 541.579 1722.27 538.721 1723.03 536.163C1737.32 480.047 1751.46 423.78 1765.6 367.664C1767.56 359.991 1764.25 355.779 1756.27 355.628H1749.35C1712.8 355.327 1676.09 354.876 1639.23 354.575M1630.5 348.106C1676.54 348.557 1713.85 348.858 1751.16 349.309C1754.62 349.309 1758.08 349.159 1761.39 349.911C1770.27 351.867 1774.78 359.389 1772.52 368.115C1757.93 425.886 1743.19 483.657 1728.59 541.278C1726.94 548.048 1722.73 552.562 1716.86 555.721C1710.69 559.181 1703.77 559.783 1697 559.783C1641.94 559.783 1586.72 559.633 1531.66 559.482C1510.9 559.482 1490.14 559.031 1469.37 559.482C1458.24 559.633 1452.22 551.809 1450.57 543.986C1450.12 542.03 1450.12 539.774 1450.57 537.968C1461.1 495.392 1471.78 452.816 1482.46 410.39C1486.07 396.248 1489.38 381.956 1493.15 367.814C1496 357.133 1502.77 350.212 1513.91 348.106C1517.67 347.504 1521.43 347.053 1525.34 347.053C1563.1 347.354 1601.17 347.805 1630.5 348.106" fill="#293250"/>
<path fill-rule="evenodd" clip-rule="evenodd" d="M1388.28 978.474C1385.43 979.376 1382.87 979.828 1381.06 982.385C1383.32 983.138 1385.28 983.739 1387.53 984.642C1387.83 982.235 1388.13 980.58 1388.28 978.474M1361.35 974.111C1360.9 976.668 1360.45 978.624 1360.15 980.73C1359.85 982.837 1359.55 984.943 1359.4 986.899C1363.31 988.253 1366.32 987.801 1368.73 984.792C1369.93 983.288 1371.43 982.084 1372.94 980.881C1374.44 979.527 1375.2 977.872 1374.59 975.615C1370.38 973.96 1366.02 974.261 1361.35 974.111M1392.95 970.951C1395.36 973.81 1395.05 977.27 1394.6 980.73C1394.3 982.837 1394 985.093 1393.55 987.2C1392.65 991.262 1390.54 992.315 1386.63 991.111C1384.22 990.359 1381.97 989.607 1379.41 988.704C1377.75 993.067 1374.59 994.872 1370.08 994.421C1368.43 994.271 1367.22 994.872 1366.17 996.076C1364.66 997.58 1363.01 999.085 1361.35 1000.59C1359.55 1002.09 1357.89 1002.24 1356.54 1000.89C1355.34 999.687 1355.34 998.032 1356.84 996.076C1357.29 995.474 1357.89 994.872 1358.2 994.421C1356.54 992.917 1354.43 991.713 1353.68 990.058C1352.93 988.253 1353.08 985.846 1353.38 983.739C1353.83 980.129 1354.43 976.518 1355.19 972.907C1355.79 969.748 1357.59 967.943 1360.9 968.093C1365.42 968.243 1369.93 968.544 1374.29 969.146C1376.85 969.447 1379.26 970.5 1381.06 973.359C1383.77 970.801 1386.33 968.544 1388.89 966.137C1389.94 965.235 1390.84 964.181 1391.9 963.429C1393.25 962.527 1394.75 962.376 1395.96 963.73C1397.16 965.084 1397.16 966.438 1396.11 967.792C1395.21 968.544 1394.15 969.597 1392.95 970.951" fill="#293250"/>
<path fill-rule="evenodd" clip-rule="evenodd" d="M1579.2 976.969C1582.66 973.659 1583.26 970.199 1581.31 966.287C1578.15 968.694 1577.39 971.854 1579.2 976.969M1589.73 977.27C1585.97 980.279 1582.36 983.137 1578.45 986.447C1584.77 986.597 1589.28 982.987 1589.73 977.27M1589.43 969.146C1591.39 967.641 1592.89 966.287 1594.55 965.084C1596.5 963.73 1598.16 963.88 1599.36 965.234C1600.41 966.588 1600.11 968.394 1598.46 969.898L1596.2 971.703C1595.45 972.305 1594.85 972.907 1593.79 973.81C1597.4 975.765 1596.8 978.624 1595.6 981.482C1593.49 986.748 1589.73 990.208 1584.32 992.164C1583.26 992.465 1582.21 992.766 1581.01 993.217C1580.7 995.474 1580.4 997.881 1579.95 1000.14C1579.5 1002.7 1578.15 1004.05 1576.34 1003.75C1574.54 1003.45 1573.48 1001.79 1573.63 999.385C1573.78 997.73 1574.09 996.076 1574.09 994.571C1574.09 993.819 1573.63 992.615 1573.03 992.314C1572.43 992.014 1571.23 992.164 1570.47 992.615C1568.52 993.969 1566.56 995.624 1564.76 997.129C1563.85 997.881 1563.1 998.483 1562.05 999.084C1560.55 999.987 1559.04 999.837 1557.99 998.483C1556.93 997.129 1557.08 995.624 1558.29 994.421C1559.79 992.916 1561.6 991.562 1563.25 990.208C1564.31 989.306 1565.36 988.403 1566.26 987.651C1565.36 985.093 1564.31 982.686 1563.7 980.279C1563.25 978.774 1563.4 976.969 1563.55 975.464C1563.85 973.358 1565.51 972.004 1567.16 972.305C1569.12 972.756 1569.72 973.96 1569.87 975.916C1569.87 977.571 1570.02 979.226 1570.32 980.73C1570.47 981.482 1571.08 982.084 1571.53 983.137C1572.43 982.686 1573.03 982.235 1573.78 981.783C1571.08 977.119 1570.78 972.305 1572.43 967.491C1573.18 965.686 1574.24 963.73 1575.44 962.225C1579.2 957.862 1585.07 958.915 1587.32 964.181C1588.53 965.385 1588.83 967.04 1589.43 969.146" fill="#293250"/>
<path fill-rule="evenodd" clip-rule="evenodd" d="M1640.28 744.38C1645.1 741.521 1645.55 739.415 1642.99 735.804C1640.43 738.212 1639.98 739.415 1640.28 744.38M1628.55 756.867C1627.64 754.309 1626.59 752.504 1626.29 750.548C1625.84 748.743 1625.84 746.787 1625.99 744.831C1626.14 742.575 1627.64 741.221 1629.45 741.521C1631.41 741.822 1632.16 743.176 1632.31 744.982C1632.46 746.937 1632.76 748.893 1632.91 751.15C1635.62 750.548 1635.32 749.345 1634.71 747.69C1633.21 743.628 1633.66 739.566 1635.32 735.654C1635.92 734.15 1636.82 732.645 1637.87 731.442C1641.49 727.229 1646.45 727.68 1649.46 732.344C1649.91 732.946 1650.21 733.698 1650.81 734.751C1651.87 733.849 1652.77 733.096 1653.67 732.495C1654.42 731.893 1655.03 731.141 1655.93 730.689C1657.28 730.088 1658.64 730.088 1659.69 731.291C1660.89 732.645 1660.74 734.15 1659.69 735.353C1657.58 737.61 1655.33 739.566 1653.37 741.672C1651.87 743.327 1650.51 744.982 1649.46 746.787C1647.8 749.645 1646 751.902 1642.54 752.805C1641.33 753.106 1640.43 754.159 1638.93 755.062C1644.34 756.566 1649.16 754.309 1651.56 749.495C1652.17 748.442 1652.32 747.088 1652.92 746.035C1653.82 744.229 1655.33 743.327 1656.83 743.929C1658.64 744.681 1659.39 746.185 1658.79 747.991C1658.03 750.398 1656.98 752.955 1655.63 755.062C1652.92 759.274 1648.56 761.38 1643.44 762.433C1643.14 764.54 1642.84 766.495 1642.69 768.451C1642.24 771.611 1641.03 773.265 1639.08 772.965C1636.97 772.814 1636.07 771.009 1636.37 767.849C1636.52 765.894 1636.82 764.088 1636.97 762.283C1633.96 760.327 1633.96 760.327 1631.71 762.283C1630.35 763.486 1629.15 764.69 1627.79 765.894C1626.29 767.097 1624.79 767.248 1623.43 765.743C1622.08 764.239 1622.53 762.734 1623.73 761.38C1624.48 760.478 1625.39 759.575 1626.29 758.823C1626.74 758.221 1627.79 757.469 1628.55 756.867" fill="#293250"/>
<path fill-rule="evenodd" clip-rule="evenodd" d="M1449.67 754.009C1449.52 751.601 1450.87 749.947 1449.82 747.69C1447.41 748.743 1445.15 749.646 1442.9 750.699V751.601C1444.85 752.354 1446.81 752.955 1449.67 754.009M1436.88 745.132C1432.21 743.477 1428 743.477 1423.34 743.628C1422.59 747.991 1421.98 752.053 1421.23 756.717C1426.2 756.867 1430.41 757.619 1434.92 756.867C1435.52 752.955 1436.13 749.044 1436.88 745.132M1441.54 758.071C1440.94 759.124 1440.49 759.876 1440.04 760.628C1438.83 762.434 1437.18 763.637 1434.92 763.637C1430.41 763.487 1425.9 763.637 1421.38 763.035C1416.27 762.434 1414.61 760.327 1415.06 755.363C1415.52 750.699 1416.42 746.185 1417.32 741.672C1417.92 738.964 1419.73 737.309 1422.59 737.309C1427.4 737.46 1432.37 737.911 1437.18 738.513C1440.04 738.814 1442.29 740.318 1443.35 743.628C1445.76 742.575 1447.86 741.672 1449.97 740.769C1454.03 739.265 1457.04 740.92 1456.89 745.283C1456.74 749.495 1455.99 753.708 1455.23 757.77C1454.63 760.478 1452.37 761.531 1449.52 760.628C1446.66 759.876 1444.1 758.973 1441.54 758.071" fill="#293250"/>
<path fill-rule="evenodd" clip-rule="evenodd" d="M1510.15 527.437C1510.3 525.181 1511.5 523.526 1510.6 521.269C1508.19 522.322 1505.93 523.225 1503.23 524.428C1504.13 525.03 1504.28 525.331 1504.73 525.482C1506.23 526.083 1507.89 526.685 1510.15 527.437M1484.12 516.756C1483.22 521.57 1482.01 525.632 1482.31 530.296H1495.1C1496.76 526.234 1497.36 521.871 1496.76 517.809C1492.84 517.658 1488.63 517.207 1484.12 516.756M1502.02 531.499C1500.37 536.464 1496.61 537.517 1492.24 537.216C1488.63 536.915 1484.87 536.915 1481.26 536.314C1477.2 535.712 1475.39 533.606 1475.84 529.544C1476.3 524.729 1477.2 519.765 1478.1 514.95C1478.7 512.092 1480.66 510.587 1483.82 510.738C1487.88 510.738 1491.94 511.039 1496 511.49C1499.46 511.941 1502.77 512.995 1504.13 517.057C1506.38 516.003 1508.34 515.101 1510.45 514.349C1514.81 512.694 1517.82 514.349 1517.67 518.862C1517.52 523.074 1516.77 527.287 1515.86 531.349C1515.26 534.057 1513 534.96 1510 534.057C1507.29 533.305 1504.73 532.402 1502.02 531.499" fill="#293250"/>
<path fill-rule="evenodd" clip-rule="evenodd" d="M1703.77 536.313C1703.47 538.269 1703.32 539.924 1703.17 541.429C1703.02 542.331 1703.02 543.384 1702.72 544.287C1702.27 545.942 1701.06 546.995 1699.41 546.694C1697.75 546.393 1696.7 545.34 1696.7 543.535C1696.7 541.88 1697 540.225 1697.15 538.721C1697.3 537.818 1697.3 536.765 1697.45 535.712C1696.25 535.11 1695.19 534.508 1694.14 533.906C1688.57 530.446 1686.32 525.331 1686.62 519.012C1686.77 516.455 1688.12 514.95 1689.78 514.95C1691.58 514.95 1692.64 516.304 1692.79 519.012V519.464C1693.09 525.03 1695.19 528.34 1699.56 529.393C1703.92 530.597 1708.88 528.34 1711.44 524.127C1712.19 522.924 1712.65 521.419 1713.25 520.065C1714 518.41 1715.05 517.207 1717.01 517.658C1718.66 518.11 1719.72 519.764 1719.27 521.871C1717.76 528.34 1713.85 532.703 1707.68 535.11C1706.48 535.561 1705.27 535.862 1703.77 536.313" fill="#293250"/>
<path fill-rule="evenodd" clip-rule="evenodd" d="M1702.11 519.915C1705.73 516.003 1706.18 512.242 1703.77 509.233C1700.61 512.543 1700.01 515.702 1702.11 519.915M1711.74 512.844C1711.59 516.755 1710.54 520.517 1707.98 523.526C1703.77 528.49 1697.3 527.287 1695.19 521.118C1693.39 515.552 1694.59 510.286 1698.05 505.622C1699.86 503.215 1702.11 502.012 1705.12 502.463C1708.13 502.914 1709.94 505.021 1710.84 507.729C1711.29 509.384 1711.44 511.039 1711.74 512.844" fill="#293250"/>
<path fill-rule="evenodd" clip-rule="evenodd" d="M1483.37 921.77C1497.35 921.77 1509.55 936.467 1520.61 965.206C1521.21 966.757 1520.43 968.498 1518.88 969.095C1517.33 969.692 1515.59 968.919 1514.99 967.368C1514.69 966.57 1514.38 965.784 1514.07 965.01L1513.45 963.479C1512.83 961.965 1512.22 960.499 1511.59 959.082L1510.97 957.682L1510.35 956.314C1510.14 955.863 1509.94 955.418 1509.73 954.978L1509.1 953.675L1508.48 952.404C1508.37 952.195 1508.27 951.987 1508.16 951.781L1507.54 950.558C1506.6 948.749 1505.65 947.05 1504.71 945.458L1504.08 944.413C1497.23 933.27 1490.27 927.787 1483.37 927.787C1474.62 927.787 1466.12 935.705 1458.16 951.931L1457.58 953.133C1457.29 953.741 1457 954.361 1456.71 954.991L1456.13 956.268C1456.04 956.483 1455.94 956.699 1455.85 956.917L1455.27 958.238L1454.7 959.589C1454.32 960.5 1453.94 961.43 1453.56 962.38L1453 963.821C1452.4 965.37 1450.65 966.139 1449.1 965.538C1447.55 964.937 1446.79 963.194 1447.39 961.645C1447.79 960.591 1448.21 959.558 1448.62 958.545L1449.24 957.041C1459.03 933.723 1470.27 921.77 1483.37 921.77Z" fill="white"/>
</svg>
